<svg width="594" height="497" viewBox="0 0 594 497" fill="none" xmlns="http://www.w3.org/2000/svg">
<path d="M310.947 452.083C283.134 454.701 253.776 453.427 226.493 446.965C202.777 441.348 180.862 431.299 158.674 421.373" stroke="#5D5CDC" stroke-width="8" stroke-linecap="round"/>
<path d="M140.76 399.619C134.422 398.035 128.503 390.682 124.693 385.899C114.836 373.525 106.399 359.98 100.096 345.449C94.648 332.887 92.1394 318.932 89.8596 305.497C87.6219 292.311 84.6026 278.673 84.4568 265.26C84.3661 256.918 84.2133 248.503 84.5279 240.166C84.7439 234.442 83.312 222.131 86.4473 217.204C90.2262 211.266 91.2418 203.958 93.4141 197.441" stroke="#5D5CDC" stroke-width="4" stroke-linecap="round" stroke-dasharray="20 20"/>
<path d="M106.21 170.569C109.801 152.257 122.541 130.816 136.21 118.39C150.046 105.812 165.975 99.9353 183.271 93.7928C193.47 90.1706 204.312 88.9616 214.337 85.4043C232.5 78.9595 250.867 75.8783 270.284 75.8783C283.578 75.8783 297.025 74.9542 310.094 77.7266C319.323 79.6842 328.586 81.7093 337.819 83.556" stroke="#5D5CDC" stroke-width="8" stroke-linecap="round"/>
<path d="M372.369 91.2336C377.565 94.698 385.794 97.1719 389.786 101.471C397.144 109.395 409.441 114.924 418.221 121.162C437.297 134.716 459.673 155.427 469.619 177.252C485.626 212.379 489.339 252.769 482.415 290.853" stroke="#5D5CDC" stroke-width="4" stroke-linecap="round" stroke-dasharray="20 20"/>
<path d="M482.415 313.885C482.415 327.481 479.129 338.233 473.955 350.71C464.127 374.413 448.991 403.807 426.112 417.534" stroke="#5D5CDC" stroke-width="8" stroke-linecap="round"/>
<path fill-rule="evenodd" clip-rule="evenodd" d="M284.951 94.389C331.943 96.0845 377.174 112.626 410.558 145.74C444.076 178.987 462.986 224.13 463.339 271.338C463.694 318.904 447.261 366.409 412.451 398.829C378.668 430.293 331.114 438.12 284.951 437.481C239.568 436.853 194.134 426.292 160.933 395.347C126.623 363.367 108.686 318.197 106.697 271.338C104.614 222.26 115.077 170.945 149.94 136.337C184.707 101.824 235.992 92.6226 284.951 94.389Z" fill="#FEB12F"/>
<path d="M468.562 451.605L489.695 439.404V463.806L468.562 451.605Z" fill="#FEB12F"/>
<path d="M503 451.605L524.132 439.404V463.806L503 451.605Z" stroke="#FEB12F" stroke-width="2"/>
<path d="M537.438 451.605L558.57 439.404V463.806L537.438 451.605Z" stroke="#FEB12F" stroke-width="2"/>
<path d="M123.141 23.22L149.35 68.6152H96.9321L123.141 23.22Z" fill="#FEB12F"/>
<path d="M68.3537 63.9192L80.5545 85.0515H56.153L68.3537 63.9192Z" fill="#FEB12F"/>
<circle cx="15.1317" cy="15.3932" r="14.1317" stroke="#5D5CDC" stroke-width="2"/>
<circle cx="517.61" cy="100.444" r="25.0892" stroke="#FEB12F" stroke-width="2"/>
<circle cx="580.224" cy="47.222" r="12.5664" stroke="#5D5CDC" stroke-width="2"/>
<circle cx="123.141" cy="483.434" r="12.5664" stroke="#5D5CDC" stroke-width="2"/>
</svg>
