<svg width="77" height="104" viewBox="0 0 77 104" fill="none" xmlns="http://www.w3.org/2000/svg">
<path d="M76.5495 2.16873C76.6426 1.34556 76.0509 0.60271 75.2277 0.509521C74.4045 0.416332 73.6617 1.0081 73.5685 1.83127L76.5495 2.16873ZM38.8516 52.8965L38.516 51.4345L38.8516 52.8965ZM21.972 43.3614L23.4088 42.9304L21.972 43.3614ZM35.5015 30.8628L35.2813 29.379L35.5015 30.8628ZM51.0925 79.3111L50.0435 78.239L51.0925 79.3111ZM0.871135 92.6259C0.325612 93.2493 0.388788 94.197 1.01224 94.7425L11.172 103.632C11.7955 104.178 12.7431 104.115 13.2887 103.491C13.8342 102.868 13.771 101.92 13.1475 101.375L4.11662 93.4725L12.0187 84.4416C12.5642 83.8181 12.501 82.8705 11.8776 82.325C11.2541 81.7795 10.3065 81.8426 9.76095 82.4661L0.871135 92.6259ZM73.5685 1.83127C72.4134 12.0342 69.0015 23.2533 63.1733 32.5181C57.3492 41.7761 49.1805 48.986 38.516 51.4345L39.1873 54.3584C50.8414 51.6827 59.6006 43.8312 65.7126 34.1155C71.8204 24.4065 75.3528 12.7395 76.5495 2.16873L73.5685 1.83127ZM38.516 51.4345C32.0093 52.9284 25.3599 49.4342 23.4088 42.9304L20.5353 43.7925C22.9772 51.9323 31.2681 56.1766 39.1873 54.3584L38.516 51.4345ZM23.4088 42.9304C22.919 41.2979 23.0819 39.9683 23.6127 38.8444C24.1606 37.6844 25.1535 36.6362 26.4848 35.7172C29.1684 33.8648 32.896 32.7657 35.7216 32.3466L35.2813 29.379C32.1961 29.8367 27.9757 31.0428 24.7806 33.2483C23.1726 34.3583 21.7435 35.7773 20.9 37.5633C20.0395 39.3854 19.8418 41.4807 20.5353 43.7925L23.4088 42.9304ZM35.7216 32.3466C41.6702 31.4641 46.2793 33.0302 49.7106 35.9972C53.1834 39 55.5593 43.5377 56.7669 48.736C59.2012 59.2151 56.7508 71.6759 50.0435 78.239L52.1416 80.3832C59.8102 72.8795 62.2843 59.2291 59.6891 48.0572C58.3819 42.4301 55.7547 37.2573 51.6728 33.7279C47.5496 30.1625 42.0528 28.3745 35.2813 29.379L35.7216 32.3466ZM50.0435 78.239C44.2267 83.9306 36.3001 87.1507 27.7029 89.0704C19.1057 90.99 9.99963 91.577 1.90022 92.117L2.09978 95.1103C10.1541 94.5734 19.4954 93.9768 28.3566 91.9983C37.2177 90.0197 45.7605 86.6271 52.1416 80.3832L50.0435 78.239Z" fill="#F1F1F9"/>
</svg>
