<svg width="1193" height="941" viewBox="0 0 1193 941" fill="none" xmlns="http://www.w3.org/2000/svg">
<path d="M562.506 91.9228C564.066 88.1886 563.813 85.1795 561.894 85.1795C559.976 85.1795 557.193 88.1886 555.57 91.9228C553.947 95.657 554.263 98.6479 556.16 98.6479C558.057 98.6479 560.925 95.6932 562.506 91.9228Z" fill="#6161DD" fill-opacity="0.1"/>
<path d="M524.497 70.5509C526.078 66.9255 525.804 63.8076 523.906 63.8076C522.009 63.8076 519.184 66.8348 517.582 70.5509C515.98 74.267 516.275 77.2761 518.172 77.2761C520.07 77.2761 522.937 74.267 524.497 70.5509Z" fill="#6161DD" fill-opacity="0.1"/>
<path d="M595.961 214.716C594.38 218.342 594.654 221.442 596.552 221.442C598.449 221.442 601.274 218.433 602.876 214.716C604.478 211 604.183 207.973 602.286 207.973C600.388 207.973 597.521 211 595.961 214.716Z" fill="#6161DD" fill-opacity="0.1"/>
<path d="M609.917 130.878C608.357 134.504 608.61 137.603 610.528 137.603C612.447 137.603 615.25 134.594 616.853 130.878C618.455 127.162 618.16 124.153 616.262 124.153C614.365 124.153 611.498 127.162 609.917 130.878Z" fill="#6161DD" fill-opacity="0.1"/>
<path d="M530.589 228.167C529.008 231.883 529.282 234.892 531.179 234.892C533.076 234.892 535.901 231.883 537.503 228.167C539.105 224.451 538.81 221.442 536.892 221.442C534.973 221.442 532.17 224.451 530.589 228.167Z" fill="#6161DD" fill-opacity="0.1"/>
<path d="M563.876 196.915C565.984 191.713 565.71 187.489 563.033 187.489C560.356 187.489 556.434 191.713 554.242 196.915C552.05 202.118 552.408 206.323 555.064 206.323C557.72 206.323 561.663 202.118 563.876 196.915Z" fill="#6161DD" fill-opacity="0.1"/>
<path d="M390.189 70.5509C391.77 66.7623 391.496 63.7169 389.577 63.7169C387.659 63.7169 384.792 66.7623 383.253 70.5509C381.714 74.3394 381.925 77.3667 383.864 77.3667C385.804 77.3667 388.565 74.3213 390.189 70.5509Z" fill="#6161DD" fill-opacity="0.1"/>
<path d="M304.187 87.8499C302.295 91.5746 302.092 95.0944 303.735 95.7116C305.378 96.3289 308.244 93.8098 310.137 90.0852C312.029 86.3605 312.232 82.8407 310.589 82.2234C308.945 81.6062 306.079 84.1253 304.187 87.8499Z" fill="#6161DD" fill-opacity="0.1"/>
<path d="M254.426 130.552C256.008 126.836 255.734 123.827 253.836 123.827C251.939 123.827 249.114 126.836 247.512 130.552C245.91 134.268 246.205 137.277 248.123 137.277C250.042 137.277 252.845 134.268 254.426 130.552Z" fill="#6161DD" fill-opacity="0.1"/>
<path d="M352.622 98.7021C353.402 96.8894 353.276 95.3305 352.327 95.3305C351.378 95.3305 349.966 96.835 349.186 98.7021C348.406 100.569 348.532 102.056 349.481 102.056C350.43 102.056 351.842 100.551 352.622 98.7021Z" fill="#6161DD" fill-opacity="0.1"/>
<path d="M410.975 101.331C411.776 99.5183 411.628 97.9775 410.679 97.9775C409.731 97.9775 408.318 99.482 407.538 101.331C406.758 103.18 406.885 104.703 407.834 104.703C408.782 104.703 410.195 103.198 410.975 101.331Z" fill="#6161DD" fill-opacity="0.1"/>
<path d="M269.415 12.5078C270.195 10.695 270.069 9.15422 269.12 9.15422C268.172 9.15422 266.759 10.6588 265.958 12.5078C265.157 14.3567 265.305 15.8794 266.253 15.8794C267.202 15.8794 268.614 14.3749 269.415 12.5078Z" fill="#6161DD" fill-opacity="0.1"/>
<path d="M391.137 140.649C389.556 144.365 389.83 147.392 391.727 147.392C393.625 147.392 396.45 144.365 398.052 140.649C399.654 136.933 399.359 133.924 397.461 133.924C395.564 133.924 392.781 136.933 391.137 140.649Z" fill="#6161DD" fill-opacity="0.1"/>
<path d="M378.025 194.124C376.465 197.84 376.718 200.849 378.636 200.849C380.555 200.849 383.337 197.84 384.96 194.124C386.584 190.408 386.267 187.381 384.37 187.381C382.473 187.381 379.522 190.408 378.025 194.124Z" fill="#6161DD" fill-opacity="0.1"/>
<path d="M269.668 62.013C268.087 65.7472 268.361 68.7563 270.258 68.7563C272.156 68.7563 274.981 65.7472 276.583 62.013C278.185 58.2788 277.89 55.2879 275.992 55.2879C274.095 55.2879 271.228 58.297 269.668 62.013Z" fill="#6161DD" fill-opacity="0.1"/>
<path d="M328.105 6.72527C326.524 10.4413 326.798 13.4504 328.695 13.4504C330.592 13.4504 333.417 10.4413 335.019 6.72527C336.621 3.00919 336.326 9.53674e-05 334.408 9.53674e-05C332.49 9.53674e-05 329.665 2.93668 328.105 6.72527Z" fill="#6161DD" fill-opacity="0.1"/>
<path d="M371.701 33.4989C370.12 37.215 370.394 40.2241 372.291 40.2241C374.188 40.2241 377.013 37.215 378.615 33.4989C380.217 29.7828 379.922 26.7737 378.025 26.7737C376.128 26.7737 373.261 29.7828 371.701 33.4989Z" fill="#6161DD" fill-opacity="0.1"/>
<path d="M501.349 250.844C502.93 247.218 502.656 244.119 500.759 244.119C498.862 244.119 496.037 247.128 494.435 250.844C492.833 254.56 493.128 257.569 495.025 257.569C496.922 257.569 499.789 254.56 501.349 250.844Z" fill="#6161DD" fill-opacity="0.1"/>
<path d="M534.952 118.787C537.714 112.262 537.25 106.968 533.919 106.968C530.589 106.968 525.634 112.262 522.852 118.787C520.069 125.313 520.575 130.606 523.906 130.606C527.237 130.606 532.191 125.313 534.952 118.787Z" fill="#6161DD" fill-opacity="0.1"/>
<path d="M543.469 174.402C544.249 172.589 544.123 171.048 543.174 171.048C542.225 171.048 540.813 172.553 540.012 174.402C539.211 176.251 539.358 177.773 540.307 177.773C541.256 177.773 542.668 176.269 543.469 174.402Z" fill="#6161DD" fill-opacity="0.1"/>
<path d="M479.72 329.063C480.521 327.25 480.374 325.691 479.425 325.691C478.476 325.691 477.064 327.196 476.284 329.063C475.504 330.93 475.63 332.417 476.579 332.417C477.528 332.417 478.94 330.912 479.72 329.063Z" fill="#6161DD" fill-opacity="0.1"/>
<path d="M416.372 227.17C414.812 230.795 415.065 233.895 416.962 233.895C418.859 233.895 421.684 230.886 423.286 227.17C424.888 223.454 424.593 220.445 422.696 220.445C420.799 220.445 417.953 223.454 416.372 227.17Z" fill="#6161DD" fill-opacity="0.1"/>
<path d="M413.863 170.323C412.282 174.039 412.556 177.048 414.453 177.048C416.35 177.048 419.175 174.039 420.777 170.323C422.38 166.607 422.084 163.598 420.187 163.598C418.29 163.598 415.381 166.607 413.863 170.323Z" fill="#6161DD" fill-opacity="0.1"/>
<path d="M297.39 289.074C295.809 292.79 296.083 295.817 297.98 295.817C299.877 295.817 302.702 292.79 304.304 289.074C305.906 285.358 305.611 282.349 303.693 282.349C301.774 282.349 298.971 285.358 297.39 289.074Z" fill="#6161DD" fill-opacity="0.1"/>
<path d="M370.309 357.196C368.201 362.399 368.496 366.604 371.152 366.604C373.809 366.604 377.751 362.399 379.964 357.196C382.178 351.994 381.777 347.77 379.121 347.77C376.465 347.77 372.523 351.994 370.309 357.196Z" fill="#6161DD" fill-opacity="0.1"/>
<path d="M328.105 200.251C326.524 203.967 326.798 206.976 328.695 206.976C330.592 206.976 333.417 203.967 335.019 200.251C336.621 196.535 336.326 193.526 334.408 193.526C332.49 193.526 329.665 196.535 328.105 200.251Z" fill="#6161DD" fill-opacity="0.1"/>
<path d="M323.341 139.978C321.759 143.694 322.034 146.703 323.931 146.703C325.828 146.703 328.653 143.694 330.255 139.978C331.857 136.262 331.562 133.253 329.644 133.253C327.725 133.253 324.922 136.262 323.341 139.978Z" fill="#6161DD" fill-opacity="0.1"/>
<path d="M359.052 240.747C357.492 244.463 357.745 247.49 359.642 247.49C361.54 247.49 364.364 244.463 365.967 240.747C367.569 237.031 367.274 234.022 365.376 234.022C363.479 234.022 360.57 236.94 359.052 240.747Z" fill="#6161DD" fill-opacity="0.1"/>
<path d="M252.171 261.43C250.59 265.146 250.864 268.173 252.761 268.173C254.658 268.173 257.483 265.146 259.085 261.43C260.687 257.714 260.392 254.705 258.474 254.705C256.556 254.705 253.646 257.714 252.171 261.43Z" fill="#6161DD" fill-opacity="0.1"/>
<path d="M247.533 221.442C245.973 225.158 246.226 228.167 248.144 228.167C250.063 228.167 252.867 225.158 254.469 221.442C256.071 217.725 255.776 214.716 253.878 214.716C251.981 214.716 249.114 217.725 247.533 221.442Z" fill="#6161DD" fill-opacity="0.1"/>
<path d="M479.593 95.6755C481.153 91.9594 480.901 88.9321 478.982 88.9321C477.064 88.9321 474.281 91.9594 472.658 95.6755C471.035 99.3915 471.351 102.401 473.248 102.401C475.145 102.401 478.012 99.3915 479.593 95.6755Z" fill="#6161DD" fill-opacity="0.1"/>
<path d="M301.184 235.509C303.292 230.306 303.018 226.082 300.341 226.082C297.664 226.082 293.743 230.306 291.55 235.509C289.358 240.711 289.716 244.917 292.372 244.917C295.029 244.917 298.971 240.693 301.184 235.509Z" fill="#6161DD" fill-opacity="0.1"/>
<path d="M284.172 174.402C286.28 169.199 286.006 164.993 283.35 164.993C280.693 164.993 276.73 169.199 274.538 174.402C272.345 179.604 272.704 183.828 275.381 183.828C278.058 183.828 281.979 179.604 284.172 174.402Z" fill="#6161DD" fill-opacity="0.1"/>
<path d="M474.724 219.792C473.143 223.508 473.417 226.517 475.314 226.517C477.211 226.517 480.036 223.508 481.638 219.792C483.241 216.076 482.945 213.067 481.027 213.067C479.109 213.067 476.305 216.076 474.724 219.792Z" fill="#6161DD" fill-opacity="0.1"/>
<path d="M422.759 264.457C424.867 259.255 424.593 255.049 421.937 255.049C419.281 255.049 415.317 259.255 413.125 264.457C410.933 269.66 411.291 273.865 413.968 273.865C416.645 273.865 420.567 269.569 422.759 264.457Z" fill="#6161DD" fill-opacity="0.1"/>
<path d="M472.321 150.147C473.101 148.335 472.974 146.794 472.025 146.794C471.077 146.794 469.664 148.298 468.884 150.147C468.104 151.996 468.231 153.519 469.179 153.519C470.128 153.519 471.541 152.014 472.321 150.147Z" fill="#6161DD" fill-opacity="0.1"/>
<path d="M326.882 45.1367C324.88 49.8497 325.217 53.6746 327.641 53.6746C330.066 53.6746 333.628 49.8497 335.631 45.1367C337.634 40.4236 337.275 36.5988 334.872 36.5988C332.469 36.5988 328.885 40.4236 326.882 45.1367Z" fill="#6161DD" fill-opacity="0.1"/>
<path d="M362.299 299.171C361.519 300.984 361.645 302.543 362.594 302.543C363.542 302.543 364.955 301.038 365.735 299.171C366.515 297.304 366.388 295.818 365.44 295.818C364.491 295.818 363.079 297.322 362.299 299.171Z" fill="#6161DD" fill-opacity="0.1"/>
<path d="M536.133 272.615C534.552 276.24 534.826 279.34 536.724 279.34C538.621 279.34 541.446 276.331 543.048 272.615C544.65 268.899 544.355 265.872 542.458 265.872C540.56 265.872 537.63 268.899 536.133 272.615Z" fill="#6161DD" fill-opacity="0.1"/>
<path d="M420.651 363.722C419.07 367.347 419.344 370.465 421.241 370.465C423.138 370.465 425.963 367.438 427.565 363.722C429.168 360.006 428.872 356.997 426.975 356.997C425.078 356.997 422.295 360.006 420.651 363.722Z" fill="#6161DD" fill-opacity="0.1"/>
<path d="M451.345 274.899C449.785 278.615 450.038 281.624 451.956 281.624C453.875 281.624 456.679 278.615 458.281 274.899C459.883 271.183 459.588 268.174 457.69 268.174C455.793 268.174 452.926 271.183 451.345 274.899Z" fill="#6161DD" fill-opacity="0.1"/>
<path d="M481.596 144.039C480.015 147.755 480.289 150.782 482.187 150.782C484.084 150.782 486.909 147.755 488.511 144.039C490.113 140.323 489.818 137.313 487.9 137.313C485.981 137.313 483.178 140.323 481.596 144.039Z" fill="#6161DD" fill-opacity="0.1"/>
<path d="M252.171 301.165C250.59 304.791 250.864 307.89 252.761 307.89C254.658 307.89 257.483 304.881 259.085 301.165C260.687 297.449 260.392 294.44 258.474 294.44C256.556 294.44 253.646 297.449 252.171 301.165Z" fill="#6161DD" fill-opacity="0.1"/>
<path d="M350.135 273.866C348.575 277.491 348.828 280.609 350.746 280.609C352.664 280.609 355.447 277.582 357.07 273.866C358.694 270.149 358.377 267.14 356.48 267.14C354.583 267.14 351.716 270.149 350.135 273.866Z" fill="#6161DD" fill-opacity="0.1"/>
<path d="M602.833 170.323C604.415 166.607 604.14 163.598 602.243 163.598C600.346 163.598 597.521 166.607 595.919 170.323C594.317 174.039 594.612 177.048 596.509 177.048C598.406 177.048 601.273 174.039 602.833 170.323Z" fill="#6161DD" fill-opacity="0.1"/>
<path d="M399.401 319.564C401.509 314.362 401.214 310.156 398.558 310.156C395.902 310.156 391.959 314.362 389.767 319.564C387.575 324.767 387.933 328.972 390.589 328.972C393.245 328.972 397.188 324.767 399.401 319.564Z" fill="#6161DD" fill-opacity="0.1"/>
<path d="M577.852 294.44C576.292 298.156 576.545 301.165 578.443 301.165C580.34 301.165 583.165 298.156 584.767 294.44C586.369 290.724 586.074 287.715 584.177 287.715C582.28 287.715 579.434 290.724 577.852 294.44Z" fill="#6161DD" fill-opacity="0.1"/>
<path d="M546.02 339.105C548.128 333.903 547.854 329.697 545.177 329.697C542.5 329.697 538.578 333.903 536.386 339.105C534.194 344.308 534.552 348.513 537.208 348.513C539.864 348.513 543.807 344.308 546.02 339.105Z" fill="#6161DD" fill-opacity="0.1"/>
<path d="M583.017 247.49C583.818 245.678 583.671 244.119 582.722 244.119C581.773 244.119 580.361 245.623 579.581 247.49C578.801 249.357 578.927 250.844 579.876 250.844C580.825 250.844 582.237 249.339 583.017 247.49Z" fill="#6161DD" fill-opacity="0.1"/>
<path d="M440.024 122.866C438.148 127.289 438.464 130.878 440.741 130.878C443.018 130.878 446.37 127.253 448.246 122.866C450.122 118.479 449.806 114.836 447.529 114.836C445.252 114.836 441.901 118.425 440.024 122.866Z" fill="#6161DD" fill-opacity="0.1"/>
<path d="M485.538 373.819C484.737 375.631 484.885 377.19 485.834 377.19C486.782 377.19 488.195 375.686 488.975 373.819C489.755 371.952 489.628 370.465 488.679 370.465C487.731 370.465 486.339 371.97 485.538 373.819Z" fill="#6161DD" fill-opacity="0.1"/>
<path d="M1137.61 576.732C1139.17 572.998 1138.92 569.989 1137 569.989C1135.09 569.989 1132.3 572.998 1130.68 576.732C1129.06 580.466 1129.37 583.457 1131.27 583.457C1133.17 583.457 1136.03 580.503 1137.61 576.732Z" fill="#6161DD" fill-opacity="0.1"/>
<path d="M1099.61 555.36C1101.19 551.735 1100.91 548.617 1099.02 548.617C1097.12 548.617 1094.29 551.644 1092.69 555.36C1091.09 559.077 1091.38 562.086 1093.28 562.086C1095.18 562.086 1098.05 559.077 1099.61 555.36Z" fill="#6161DD" fill-opacity="0.1"/>
<path d="M1171.07 699.526C1169.49 703.151 1169.76 706.251 1171.66 706.251C1173.56 706.251 1176.38 703.242 1177.99 699.526C1179.59 695.81 1179.29 692.783 1177.4 692.783C1175.5 692.783 1172.63 695.81 1171.07 699.526Z" fill="#6161DD" fill-opacity="0.1"/>
<path d="M1185.03 615.688C1183.47 619.313 1183.72 622.413 1185.64 622.413C1187.56 622.413 1190.36 619.404 1191.96 615.688C1193.56 611.972 1193.27 608.962 1191.37 608.962C1189.47 608.962 1186.61 611.972 1185.03 615.688Z" fill="#6161DD" fill-opacity="0.1"/>
<path d="M1105.7 712.976C1104.12 716.692 1104.39 719.701 1106.29 719.701C1108.19 719.701 1111.01 716.692 1112.61 712.976C1114.21 709.26 1113.92 706.251 1112 706.251C1110.08 706.251 1107.28 709.26 1105.7 712.976Z" fill="#6161DD" fill-opacity="0.1"/>
<path d="M1138.98 681.725C1141.09 676.522 1140.82 672.299 1138.14 672.299C1135.46 672.299 1131.54 676.522 1129.35 681.725C1127.16 686.927 1127.52 691.133 1130.17 691.133C1132.83 691.133 1136.77 686.927 1138.98 681.725Z" fill="#6161DD" fill-opacity="0.1"/>
<path d="M965.298 555.36C966.879 551.572 966.605 548.526 964.687 548.526C962.768 548.526 959.901 551.572 958.362 555.36C956.824 559.149 957.034 562.176 958.974 562.176C960.913 562.176 963.675 559.131 965.298 555.36Z" fill="#6161DD" fill-opacity="0.1"/>
<path d="M879.296 572.659C877.404 576.384 877.202 579.904 878.845 580.521C880.488 581.138 883.354 578.619 885.246 574.894C887.139 571.17 887.341 567.65 885.698 567.033C884.055 566.416 881.189 568.935 879.296 572.659Z" fill="#6161DD" fill-opacity="0.1"/>
<path d="M829.536 615.361C831.117 611.645 830.843 608.636 828.946 608.636C827.049 608.636 824.224 611.645 822.621 615.361C821.019 619.078 821.314 622.087 823.233 622.087C825.151 622.087 827.955 619.078 829.536 615.361Z" fill="#6161DD" fill-opacity="0.1"/>
<path d="M927.732 583.512C928.512 581.699 928.385 580.14 927.437 580.14C926.488 580.14 925.076 581.645 924.296 583.512C923.516 585.379 923.642 586.865 924.591 586.865C925.539 586.865 926.952 585.361 927.732 583.512Z" fill="#6161DD" fill-opacity="0.1"/>
<path d="M986.084 586.14C986.885 584.328 986.737 582.787 985.789 582.787C984.84 582.787 983.428 584.291 982.648 586.14C981.868 587.989 981.994 589.512 982.943 589.512C983.892 589.512 985.304 588.007 986.084 586.14Z" fill="#6161DD" fill-opacity="0.1"/>
<path d="M844.524 497.317C845.304 495.504 845.178 493.964 844.229 493.964C843.281 493.964 841.868 495.468 841.067 497.317C840.266 499.166 840.414 500.689 841.362 500.689C842.311 500.689 843.723 499.184 844.524 497.317Z" fill="#6161DD" fill-opacity="0.1"/>
<path d="M966.247 625.458C964.665 629.174 964.94 632.202 966.837 632.202C968.734 632.202 971.559 629.174 973.161 625.458C974.763 621.742 974.468 618.733 972.571 618.733C970.674 618.733 967.891 621.742 966.247 625.458Z" fill="#6161DD" fill-opacity="0.1"/>
<path d="M953.135 678.933C951.575 682.649 951.828 685.658 953.746 685.658C955.664 685.658 958.447 682.649 960.07 678.933C961.694 675.217 961.377 672.19 959.48 672.19C957.583 672.19 954.631 675.217 953.135 678.933Z" fill="#6161DD" fill-opacity="0.1"/>
<path d="M844.778 546.822C843.197 550.557 843.471 553.566 845.368 553.566C847.265 553.566 850.09 550.557 851.692 546.822C853.295 543.088 852.999 540.097 851.102 540.097C849.205 540.097 846.338 543.106 844.778 546.822Z" fill="#6161DD" fill-opacity="0.1"/>
<path d="M903.214 491.535C901.633 495.251 901.907 498.26 903.804 498.26C905.702 498.26 908.527 495.251 910.129 491.535C911.731 487.819 911.436 484.809 909.517 484.809C907.599 484.809 904.774 487.746 903.214 491.535Z" fill="#6161DD" fill-opacity="0.1"/>
<path d="M946.81 518.308C945.229 522.025 945.503 525.034 947.4 525.034C949.298 525.034 952.122 522.025 953.725 518.308C955.327 514.592 955.032 511.583 953.134 511.583C951.237 511.583 948.37 514.592 946.81 518.308Z" fill="#6161DD" fill-opacity="0.1"/>
<path d="M1076.46 735.653C1078.04 732.028 1077.77 728.928 1075.87 728.928C1073.97 728.928 1071.15 731.937 1069.54 735.653C1067.94 739.37 1068.24 742.379 1070.13 742.379C1072.03 742.379 1074.9 739.37 1076.46 735.653Z" fill="#6161DD" fill-opacity="0.1"/>
<path d="M1110.06 603.597C1112.82 597.071 1112.36 591.778 1109.03 591.778C1105.7 591.778 1100.74 597.071 1097.96 603.597C1095.18 610.122 1095.68 615.416 1099.02 615.416C1102.35 615.416 1107.3 610.122 1110.06 603.597Z" fill="#6161DD" fill-opacity="0.1"/>
<path d="M1118.58 659.211C1119.36 657.398 1119.23 655.858 1118.28 655.858C1117.33 655.858 1115.92 657.362 1115.12 659.211C1114.32 661.06 1114.47 662.583 1115.42 662.583C1116.37 662.583 1117.78 661.078 1118.58 659.211Z" fill="#6161DD" fill-opacity="0.1"/>
<path d="M1054.83 813.873C1055.63 812.06 1055.48 810.501 1054.53 810.501C1053.59 810.501 1052.17 812.005 1051.39 813.873C1050.61 815.74 1050.74 817.226 1051.69 817.226C1052.64 817.226 1054.05 815.722 1054.83 813.873Z" fill="#6161DD" fill-opacity="0.1"/>
<path d="M991.481 711.979C989.921 715.605 990.174 718.704 992.071 718.704C993.968 718.704 996.793 715.695 998.396 711.979C999.998 708.263 999.703 705.254 997.805 705.254C995.908 705.254 993.062 708.263 991.481 711.979Z" fill="#6161DD" fill-opacity="0.1"/>
<path d="M988.972 655.132C987.391 658.849 987.665 661.858 989.562 661.858C991.46 661.858 994.285 658.849 995.887 655.132C997.489 651.416 997.194 648.407 995.296 648.407C993.399 648.407 990.49 651.416 988.972 655.132Z" fill="#6161DD" fill-opacity="0.1"/>
<path d="M872.499 773.883C870.918 777.599 871.192 780.627 873.089 780.627C874.986 780.627 877.811 777.599 879.413 773.883C881.016 770.167 880.72 767.158 878.802 767.158C876.884 767.158 874.08 770.167 872.499 773.883Z" fill="#6161DD" fill-opacity="0.1"/>
<path d="M945.418 842.006C943.31 847.208 943.605 851.414 946.262 851.414C948.918 851.414 952.86 847.208 955.074 842.006C957.287 836.803 956.887 832.58 954.23 832.58C951.574 832.58 947.632 836.803 945.418 842.006Z" fill="#6161DD" fill-opacity="0.1"/>
<path d="M903.214 685.06C901.633 688.777 901.907 691.786 903.804 691.786C905.702 691.786 908.527 688.777 910.129 685.06C911.731 681.344 911.436 678.335 909.517 678.335C907.599 678.335 904.774 681.344 903.214 685.06Z" fill="#6161DD" fill-opacity="0.1"/>
<path d="M898.45 624.787C896.869 628.504 897.143 631.513 899.04 631.513C900.938 631.513 903.762 628.504 905.365 624.787C906.967 621.071 906.672 618.062 904.753 618.062C902.835 618.062 900.031 621.071 898.45 624.787Z" fill="#6161DD" fill-opacity="0.1"/>
<path d="M934.162 725.557C932.602 729.273 932.855 732.3 934.752 732.3C936.649 732.3 939.474 729.273 941.076 725.557C942.678 721.841 942.383 718.832 940.486 718.832C938.589 718.832 935.679 721.75 934.162 725.557Z" fill="#6161DD" fill-opacity="0.1"/>
<path d="M827.28 746.24C825.699 749.956 825.973 752.983 827.871 752.983C829.768 752.983 832.593 749.956 834.195 746.24C835.797 742.524 835.502 739.514 833.584 739.514C831.665 739.514 828.756 742.524 827.28 746.24Z" fill="#6161DD" fill-opacity="0.1"/>
<path d="M822.642 706.251C821.082 709.967 821.335 712.976 823.254 712.976C825.172 712.976 827.976 709.967 829.578 706.251C831.18 702.535 830.885 699.526 828.988 699.526C827.091 699.526 824.224 702.535 822.642 706.251Z" fill="#6161DD" fill-opacity="0.1"/>
<path d="M1054.7 580.485C1056.26 576.768 1056.01 573.741 1054.09 573.741C1052.17 573.741 1049.39 576.768 1047.77 580.485C1046.14 584.201 1046.46 587.21 1048.36 587.21C1050.25 587.21 1053.12 584.201 1054.7 580.485Z" fill="#6161DD" fill-opacity="0.1"/>
<path d="M876.294 720.318C878.402 715.115 878.128 710.892 875.451 710.892C872.774 710.892 868.852 715.115 866.66 720.318C864.468 725.52 864.826 729.726 867.482 729.726C870.138 729.726 874.081 725.502 876.294 720.318Z" fill="#6161DD" fill-opacity="0.1"/>
<path d="M859.281 659.211C861.39 654.008 861.116 649.803 858.459 649.803C855.803 649.803 851.84 654.008 849.647 659.211C847.455 664.413 847.813 668.637 850.491 668.637C853.168 668.637 857.089 664.413 859.281 659.211Z" fill="#6161DD" fill-opacity="0.1"/>
<path d="M1049.83 704.602C1048.25 708.318 1048.53 711.327 1050.42 711.327C1052.32 711.327 1055.15 708.318 1056.75 704.602C1058.35 700.886 1058.05 697.877 1056.14 697.877C1054.22 697.877 1051.41 700.886 1049.83 704.602Z" fill="#6161DD" fill-opacity="0.1"/>
<path d="M997.868 749.267C999.977 744.064 999.702 739.859 997.046 739.859C994.39 739.859 990.427 744.064 988.234 749.267C986.042 754.469 986.4 758.675 989.078 758.675C991.755 758.675 995.676 754.379 997.868 749.267Z" fill="#6161DD" fill-opacity="0.1"/>
<path d="M1047.43 634.957C1048.21 633.144 1048.08 631.603 1047.13 631.603C1046.19 631.603 1044.77 633.108 1043.99 634.957C1043.21 636.806 1043.34 638.329 1044.29 638.329C1045.24 638.329 1046.65 636.824 1047.43 634.957Z" fill="#6161DD" fill-opacity="0.1"/>
<path d="M901.992 529.946C899.989 534.659 900.326 538.484 902.751 538.484C905.175 538.484 908.738 534.659 910.74 529.946C912.743 525.233 912.385 521.408 909.981 521.408C907.578 521.408 903.994 525.233 901.992 529.946Z" fill="#6161DD" fill-opacity="0.1"/>
<path d="M937.408 783.98C936.628 785.793 936.754 787.352 937.703 787.352C938.652 787.352 940.064 785.847 940.844 783.98C941.624 782.113 941.498 780.627 940.549 780.627C939.6 780.627 938.188 782.131 937.408 783.98Z" fill="#6161DD" fill-opacity="0.1"/>
<path d="M1111.24 757.424C1109.66 761.05 1109.94 764.15 1111.83 764.15C1113.73 764.15 1116.56 761.141 1118.16 757.424C1119.76 753.708 1119.46 750.681 1117.57 750.681C1115.67 750.681 1112.74 753.708 1111.24 757.424Z" fill="#6161DD" fill-opacity="0.1"/>
<path d="M995.76 848.532C994.179 852.157 994.453 855.275 996.35 855.275C998.248 855.275 1001.07 852.248 1002.67 848.532C1004.28 844.816 1003.98 841.806 1002.08 841.806C1000.19 841.806 997.405 844.816 995.76 848.532Z" fill="#6161DD" fill-opacity="0.1"/>
<path d="M1026.45 759.708C1024.89 763.424 1025.15 766.433 1027.07 766.433C1028.98 766.433 1031.79 763.424 1033.39 759.708C1034.99 755.992 1034.7 752.983 1032.8 752.983C1030.9 752.983 1028.04 755.992 1026.45 759.708Z" fill="#6161DD" fill-opacity="0.1"/>
<path d="M1056.71 628.848C1055.12 632.564 1055.4 635.591 1057.3 635.591C1059.19 635.591 1062.02 632.564 1063.62 628.848C1065.22 625.132 1064.93 622.123 1063.01 622.123C1061.09 622.123 1058.29 625.132 1056.71 628.848Z" fill="#6161DD" fill-opacity="0.1"/>
<path d="M827.28 785.975C825.699 789.6 825.973 792.7 827.871 792.7C829.768 792.7 832.593 789.691 834.195 785.975C835.797 782.259 835.502 779.25 833.584 779.25C831.665 779.25 828.756 782.259 827.28 785.975Z" fill="#6161DD" fill-opacity="0.1"/>
<path d="M925.244 758.675C923.684 762.3 923.937 765.418 925.855 765.418C927.774 765.418 930.556 762.391 932.18 758.675C933.803 754.959 933.487 751.949 931.589 751.949C929.692 751.949 926.825 754.959 925.244 758.675Z" fill="#6161DD" fill-opacity="0.1"/>
<path d="M1177.94 655.132C1179.52 651.416 1179.25 648.407 1177.35 648.407C1175.46 648.407 1172.63 651.416 1171.03 655.132C1169.43 658.849 1169.72 661.858 1171.62 661.858C1173.52 661.858 1176.38 658.849 1177.94 655.132Z" fill="#6161DD" fill-opacity="0.1"/>
<path d="M974.51 804.374C976.619 799.171 976.323 794.966 973.667 794.966C971.011 794.966 967.069 799.171 964.876 804.374C962.684 809.576 963.042 813.782 965.698 813.782C968.355 813.782 972.297 809.576 974.51 804.374Z" fill="#6161DD" fill-opacity="0.1"/>
<path d="M1152.96 779.249C1151.4 782.966 1151.66 785.975 1153.55 785.975C1155.45 785.975 1158.27 782.966 1159.88 779.249C1161.48 775.533 1161.18 772.524 1159.29 772.524C1157.39 772.524 1154.54 775.533 1152.96 779.249Z" fill="#6161DD" fill-opacity="0.1"/>
<path d="M1121.13 823.914C1123.24 818.712 1122.96 814.506 1120.29 814.506C1117.61 814.506 1113.69 818.712 1111.5 823.914C1109.3 829.117 1109.66 833.323 1112.32 833.323C1114.97 833.323 1118.92 829.117 1121.13 823.914Z" fill="#6161DD" fill-opacity="0.1"/>
<path d="M1158.13 732.3C1158.93 730.487 1158.78 728.928 1157.83 728.928C1156.88 728.928 1155.47 730.433 1154.69 732.3C1153.91 734.167 1154.04 735.653 1154.99 735.653C1155.93 735.653 1157.35 734.149 1158.13 732.3Z" fill="#6161DD" fill-opacity="0.1"/>
<path d="M1015.13 607.676C1013.26 612.099 1013.57 615.688 1015.85 615.688C1018.13 615.688 1021.48 612.062 1023.36 607.676C1025.23 603.289 1024.92 599.645 1022.64 599.645C1020.36 599.645 1017.01 603.234 1015.13 607.676Z" fill="#6161DD" fill-opacity="0.1"/>
<path d="M1060.65 858.628C1059.85 860.441 1059.99 862 1060.94 862C1061.89 862 1063.3 860.495 1064.08 858.628C1064.86 856.761 1064.74 855.275 1063.79 855.275C1062.84 855.275 1061.45 856.779 1060.65 858.628Z" fill="#6161DD" fill-opacity="0.1"/>
<path d="M316.03 455.754C317.59 452.02 317.337 449.011 315.419 449.011C313.5 449.011 310.718 452.02 309.094 455.754C307.471 459.488 307.787 462.479 309.685 462.479C311.582 462.479 314.449 459.524 316.03 455.754Z" fill="#6161DD" fill-opacity="0.1"/>
<path d="M278.021 434.382C279.602 430.757 279.328 427.639 277.431 427.639C275.533 427.639 272.709 430.666 271.106 434.382C269.504 438.098 269.799 441.107 271.697 441.107C273.594 441.107 276.461 438.098 278.021 434.382Z" fill="#6161DD" fill-opacity="0.1"/>
<path d="M349.486 578.548C347.905 582.173 348.179 585.273 350.076 585.273C351.973 585.273 354.798 582.264 356.4 578.548C358.003 574.831 357.707 571.804 355.81 571.804C353.913 571.804 351.046 574.831 349.486 578.548Z" fill="#6161DD" fill-opacity="0.1"/>
<path d="M363.441 494.709C361.881 498.335 362.134 501.435 364.053 501.435C365.971 501.435 368.775 498.425 370.377 494.709C371.979 490.993 371.684 487.984 369.787 487.984C367.889 487.984 365.022 490.993 363.441 494.709Z" fill="#6161DD" fill-opacity="0.1"/>
<path d="M284.113 591.998C282.532 595.714 282.806 598.723 284.703 598.723C286.601 598.723 289.425 595.714 291.028 591.998C292.63 588.282 292.335 585.273 290.416 585.273C288.498 585.273 285.694 588.282 284.113 591.998Z" fill="#6161DD" fill-opacity="0.1"/>
<path d="M317.4 560.747C319.508 555.544 319.234 551.32 316.557 551.32C313.88 551.32 309.959 555.544 307.766 560.747C305.574 565.949 305.932 570.155 308.588 570.155C311.245 570.155 315.187 565.949 317.4 560.747Z" fill="#6161DD" fill-opacity="0.1"/>
<path d="M143.713 434.382C145.294 430.594 145.02 427.548 143.102 427.548C141.183 427.548 138.316 430.594 136.778 434.382C135.239 438.171 135.449 441.198 137.389 441.198C139.328 441.198 142.09 438.153 143.713 434.382Z" fill="#6161DD" fill-opacity="0.1"/>
<path d="M57.7114 451.681C55.819 455.406 55.6168 458.925 57.2598 459.543C58.9028 460.16 61.7689 457.641 63.6613 453.916C65.5538 450.192 65.7559 446.672 64.1129 446.055C62.4699 445.437 59.6038 447.956 57.7114 451.681Z" fill="#6161DD" fill-opacity="0.1"/>
<path d="M7.95089 494.383C9.53197 490.667 9.25792 487.658 7.36062 487.658C5.46332 487.658 2.63846 490.667 1.03629 494.383C-0.565869 498.099 -0.270716 501.108 1.64766 501.108C3.56604 501.108 6.36981 498.099 7.95089 494.383Z" fill="#6161DD" fill-opacity="0.1"/>
<path d="M106.147 462.533C106.927 460.721 106.8 459.162 105.852 459.162C104.903 459.162 103.49 460.666 102.71 462.533C101.93 464.401 102.057 465.887 103.006 465.887C103.954 465.887 105.367 464.382 106.147 462.533Z" fill="#6161DD" fill-opacity="0.1"/>
<path d="M164.499 465.162C165.3 463.349 165.153 461.809 164.204 461.809C163.255 461.809 161.843 463.313 161.063 465.162C160.283 467.011 160.409 468.534 161.358 468.534C162.307 468.534 163.719 467.029 164.499 465.162Z" fill="#6161DD" fill-opacity="0.1"/>
<path d="M22.9399 376.339C23.7199 374.526 23.5934 372.985 22.6447 372.985C21.6961 372.985 20.2837 374.49 19.4826 376.339C18.6815 378.188 18.8291 379.71 19.7777 379.71C20.7264 379.71 22.1388 378.206 22.9399 376.339Z" fill="#6161DD" fill-opacity="0.1"/>
<path d="M144.662 504.48C143.081 508.196 143.355 511.223 145.252 511.223C147.149 511.223 149.974 508.196 151.576 504.48C153.179 500.764 152.883 497.755 150.986 497.755C149.089 497.755 146.306 500.764 144.662 504.48Z" fill="#6161DD" fill-opacity="0.1"/>
<path d="M131.549 557.955C129.989 561.671 130.242 564.68 132.161 564.68C134.079 564.68 136.862 561.671 138.485 557.955C140.108 554.239 139.792 551.212 137.895 551.212C135.998 551.212 133.046 554.239 131.549 557.955Z" fill="#6161DD" fill-opacity="0.1"/>
<path d="M23.1926 425.844C21.6115 429.578 21.8855 432.587 23.7828 432.587C25.6801 432.587 28.505 429.578 30.1072 425.844C31.7093 422.11 31.4142 419.119 29.5169 419.119C27.6196 419.119 24.7526 422.128 23.1926 425.844Z" fill="#6161DD" fill-opacity="0.1"/>
<path d="M81.6294 370.556C80.0483 374.272 80.3224 377.281 82.2197 377.281C84.117 377.281 86.9418 374.272 88.544 370.556C90.1462 366.84 89.851 363.831 87.9326 363.831C86.0142 363.831 83.1894 366.767 81.6294 370.556Z" fill="#6161DD" fill-opacity="0.1"/>
<path d="M125.225 397.33C123.644 401.046 123.918 404.055 125.815 404.055C127.713 404.055 130.537 401.046 132.14 397.33C133.742 393.614 133.447 390.605 131.549 390.605C129.652 390.605 126.785 393.614 125.225 397.33Z" fill="#6161DD" fill-opacity="0.1"/>
<path d="M254.874 614.675C256.455 611.05 256.181 607.95 254.284 607.95C252.386 607.95 249.562 610.959 247.959 614.675C246.357 618.391 246.652 621.4 248.55 621.4C250.447 621.4 253.314 618.391 254.874 614.675Z" fill="#6161DD" fill-opacity="0.1"/>
<path d="M288.477 482.619C291.239 476.093 290.775 470.8 287.444 470.8C284.113 470.8 279.159 476.093 276.377 482.619C273.594 489.144 274.1 494.438 277.431 494.438C280.762 494.438 285.716 489.144 288.477 482.619Z" fill="#6161DD" fill-opacity="0.1"/>
<path d="M296.994 538.233C297.774 536.42 297.647 534.879 296.699 534.879C295.75 534.879 294.338 536.384 293.537 538.233C292.735 540.082 292.883 541.604 293.832 541.604C294.78 541.604 296.193 540.1 296.994 538.233Z" fill="#6161DD" fill-opacity="0.1"/>
<path d="M233.245 692.894C234.046 691.081 233.898 689.522 232.95 689.522C232.001 689.522 230.588 691.027 229.808 692.894C229.028 694.761 229.155 696.248 230.104 696.248C231.052 696.248 232.465 694.743 233.245 692.894Z" fill="#6161DD" fill-opacity="0.1"/>
<path d="M169.896 591.001C168.336 594.626 168.589 597.726 170.486 597.726C172.384 597.726 175.208 594.717 176.811 591.001C178.413 587.285 178.118 584.276 176.22 584.276C174.323 584.276 171.477 587.285 169.896 591.001Z" fill="#6161DD" fill-opacity="0.1"/>
<path d="M167.387 534.154C165.806 537.87 166.08 540.879 167.977 540.879C169.875 540.879 172.7 537.87 174.302 534.154C175.904 530.438 175.609 527.429 173.711 527.429C171.814 527.429 168.905 530.438 167.387 534.154Z" fill="#6161DD" fill-opacity="0.1"/>
<path d="M50.9138 652.905C49.3327 656.621 49.6068 659.649 51.5041 659.649C53.4014 659.649 56.2263 656.621 57.8284 652.905C59.4306 649.189 59.1354 646.18 57.217 646.18C55.2987 646.18 52.4949 649.189 50.9138 652.905Z" fill="#6161DD" fill-opacity="0.1"/>
<path d="M123.834 721.027C121.726 726.23 122.021 730.435 124.677 730.435C127.333 730.435 131.275 726.23 133.489 721.027C135.702 715.825 135.302 711.601 132.646 711.601C129.989 711.601 126.047 715.825 123.834 721.027Z" fill="#6161DD" fill-opacity="0.1"/>
<path d="M81.6294 564.082C80.0483 567.798 80.3224 570.807 82.2197 570.807C84.117 570.807 86.9418 567.798 88.544 564.082C90.1462 560.366 89.851 557.357 87.9326 557.357C86.0142 557.357 83.1894 560.366 81.6294 564.082Z" fill="#6161DD" fill-opacity="0.1"/>
<path d="M76.865 503.809C75.2839 507.525 75.558 510.534 77.4553 510.534C79.3526 510.534 82.1774 507.525 83.7796 503.809C85.3818 500.093 85.0866 497.084 83.1682 497.084C81.2498 497.084 78.4461 500.093 76.865 503.809Z" fill="#6161DD" fill-opacity="0.1"/>
<path d="M112.577 604.578C111.017 608.294 111.27 611.322 113.167 611.322C115.064 611.322 117.889 608.294 119.491 604.578C121.093 600.862 120.798 597.853 118.901 597.853C117.004 597.853 114.094 600.772 112.577 604.578Z" fill="#6161DD" fill-opacity="0.1"/>
<path d="M5.69529 625.261C4.11421 628.977 4.38826 632.005 6.28556 632.005C8.18286 632.005 11.0077 628.977 12.6099 625.261C14.212 621.545 13.917 618.536 11.9986 618.536C10.0802 618.536 7.17097 621.545 5.69529 625.261Z" fill="#6161DD" fill-opacity="0.1"/>
<path d="M1.05749 585.273C-0.502509 588.989 -0.249518 591.998 1.66886 591.998C3.58724 591.998 6.39102 588.989 7.99319 585.273C9.59535 581.557 9.30015 578.548 7.40285 578.548C5.50556 578.548 2.63857 581.557 1.05749 585.273Z" fill="#6161DD" fill-opacity="0.1"/>
<path d="M233.118 459.506C234.678 455.79 234.425 452.763 232.507 452.763C230.588 452.763 227.806 455.79 226.182 459.506C224.559 463.222 224.875 466.231 226.773 466.231C228.67 466.231 231.537 463.222 233.118 459.506Z" fill="#6161DD" fill-opacity="0.1"/>
<path d="M54.7088 599.34C56.8169 594.137 56.5429 589.913 53.8656 589.913C51.1883 589.913 47.2673 594.137 45.0748 599.34C42.8824 604.542 43.2407 608.748 45.897 608.748C48.5532 608.748 52.4953 604.524 54.7088 599.34Z" fill="#6161DD" fill-opacity="0.1"/>
<path d="M37.6963 538.233C39.8044 533.03 39.5303 528.825 36.8741 528.825C34.2179 528.825 30.2546 533.03 28.0622 538.233C25.8698 543.435 26.2281 547.659 28.9054 547.659C31.5827 547.659 35.5039 543.435 37.6963 538.233Z" fill="#6161DD" fill-opacity="0.1"/>
<path d="M228.248 583.623C226.667 587.339 226.941 590.348 228.839 590.348C230.736 590.348 233.561 587.339 235.163 583.623C236.765 579.907 236.47 576.898 234.552 576.898C232.633 576.898 229.829 579.907 228.248 583.623Z" fill="#6161DD" fill-opacity="0.1"/>
<path d="M176.283 628.288C178.392 623.086 178.117 618.88 175.461 618.88C172.805 618.88 168.842 623.086 166.649 628.288C164.457 633.491 164.815 637.696 167.493 637.696C170.17 637.696 174.091 633.4 176.283 628.288Z" fill="#6161DD" fill-opacity="0.1"/>
<path d="M225.845 513.979C226.625 512.166 226.499 510.625 225.55 510.625C224.601 510.625 223.189 512.13 222.409 513.979C221.629 515.828 221.755 517.35 222.704 517.35C223.653 517.35 225.065 515.846 225.845 513.979Z" fill="#6161DD" fill-opacity="0.1"/>
<path d="M80.4066 408.968C78.4039 413.681 78.7413 417.506 81.1656 417.506C83.5899 417.506 87.1526 413.681 89.1554 408.968C91.1581 404.255 90.7996 400.43 88.3964 400.43C85.9932 400.43 82.4094 404.255 80.4066 408.968Z" fill="#6161DD" fill-opacity="0.1"/>
<path d="M115.823 663.002C115.043 664.815 115.169 666.374 116.118 666.374C117.067 666.374 118.479 664.869 119.259 663.002C120.039 661.135 119.913 659.649 118.964 659.649C118.015 659.649 116.603 661.153 115.823 663.002Z" fill="#6161DD" fill-opacity="0.1"/>
<path d="M289.658 636.446C288.077 640.071 288.351 643.171 290.248 643.171C292.145 643.171 294.97 640.162 296.572 636.446C298.174 632.73 297.879 629.703 295.982 629.703C294.085 629.703 291.154 632.73 289.658 636.446Z" fill="#6161DD" fill-opacity="0.1"/>
<path d="M174.175 727.553C172.594 731.179 172.868 734.296 174.766 734.296C176.663 734.296 179.488 731.269 181.09 727.553C182.692 723.837 182.397 720.828 180.5 720.828C178.602 720.828 175.82 723.837 174.175 727.553Z" fill="#6161DD" fill-opacity="0.1"/>
<path d="M204.869 638.73C203.309 642.446 203.562 645.455 205.481 645.455C207.399 645.455 210.203 642.446 211.805 638.73C213.407 635.014 213.112 632.005 211.215 632.005C209.318 632.005 206.451 635.014 204.869 638.73Z" fill="#6161DD" fill-opacity="0.1"/>
<path d="M235.121 507.87C233.54 511.586 233.814 514.613 235.711 514.613C237.608 514.613 240.433 511.586 242.035 507.87C243.638 504.154 243.342 501.145 241.424 501.145C239.506 501.145 236.702 504.154 235.121 507.87Z" fill="#6161DD" fill-opacity="0.1"/>
<path d="M5.69529 664.996C4.11421 668.622 4.38826 671.721 6.28556 671.721C8.18286 671.721 11.0077 668.712 12.6099 664.996C14.212 661.28 13.917 658.271 11.9986 658.271C10.0802 658.271 7.17097 661.28 5.69529 664.996Z" fill="#6161DD" fill-opacity="0.1"/>
<path d="M103.659 637.697C102.099 641.322 102.352 644.44 104.27 644.44C106.189 644.44 108.972 641.413 110.595 637.697C112.218 633.981 111.902 630.971 110.004 630.971C108.107 630.971 105.24 633.981 103.659 637.697Z" fill="#6161DD" fill-opacity="0.1"/>
<path d="M356.358 534.154C357.939 530.438 357.665 527.429 355.768 527.429C353.87 527.429 351.045 530.438 349.443 534.154C347.841 537.87 348.136 540.879 350.034 540.879C351.931 540.879 354.798 537.87 356.358 534.154Z" fill="#6161DD" fill-opacity="0.1"/>
<path d="M152.925 683.395C155.034 678.193 154.738 673.987 152.082 673.987C149.426 673.987 145.484 678.193 143.291 683.395C141.099 688.598 141.457 692.803 144.114 692.803C146.77 692.803 150.712 688.598 152.925 683.395Z" fill="#6161DD" fill-opacity="0.1"/>
<path d="M331.377 658.271C329.817 661.987 330.07 664.996 331.967 664.996C333.864 664.996 336.689 661.987 338.291 658.271C339.894 654.555 339.599 651.546 337.701 651.546C335.804 651.546 332.958 654.555 331.377 658.271Z" fill="#6161DD" fill-opacity="0.1"/>
<path d="M299.545 702.936C301.653 697.734 301.379 693.528 298.701 693.528C296.024 693.528 292.103 697.734 289.91 702.936C287.718 708.139 288.076 712.344 290.733 712.344C293.389 712.344 297.331 708.139 299.545 702.936Z" fill="#6161DD" fill-opacity="0.1"/>
<path d="M336.542 611.322C337.343 609.509 337.196 607.95 336.247 607.95C335.298 607.95 333.886 609.454 333.106 611.322C332.326 613.189 332.452 614.675 333.401 614.675C334.35 614.675 335.762 613.171 336.542 611.322Z" fill="#6161DD" fill-opacity="0.1"/>
<path d="M193.549 486.697C191.673 491.12 191.989 494.709 194.266 494.709C196.542 494.709 199.894 491.084 201.77 486.697C203.647 482.31 203.33 478.667 201.054 478.667C198.777 478.667 195.425 482.256 193.549 486.697Z" fill="#6161DD" fill-opacity="0.1"/>
<path d="M239.063 737.65C238.262 739.463 238.409 741.021 239.358 741.021C240.306 741.021 241.719 739.517 242.499 737.65C243.279 735.783 243.152 734.296 242.204 734.296C241.255 734.296 239.864 735.801 239.063 737.65Z" fill="#6161DD" fill-opacity="0.1"/>
<path d="M322.03 763.923C323.59 760.189 323.337 757.18 321.419 757.18C319.5 757.18 316.718 760.189 315.094 763.923C313.471 767.657 313.787 770.648 315.685 770.648C317.582 770.648 320.449 767.693 322.03 763.923Z" fill="#6161DD" fill-opacity="0.1"/>
<path d="M284.021 742.551C285.602 738.926 285.328 735.808 283.431 735.808C281.533 735.808 278.709 738.835 277.106 742.551C275.504 746.267 275.799 749.277 277.697 749.277C279.594 749.277 282.461 746.267 284.021 742.551Z" fill="#6161DD" fill-opacity="0.1"/>
<path d="M355.486 886.717C353.905 890.342 354.179 893.442 356.076 893.442C357.973 893.442 360.798 890.433 362.4 886.717C364.003 883.001 363.707 879.973 361.81 879.973C359.913 879.973 357.046 883.001 355.486 886.717Z" fill="#6161DD" fill-opacity="0.1"/>
<path d="M369.441 802.879C367.881 806.504 368.134 809.604 370.053 809.604C371.971 809.604 374.775 806.595 376.377 802.879C377.979 799.163 377.684 796.153 375.787 796.153C373.889 796.153 371.022 799.163 369.441 802.879Z" fill="#6161DD" fill-opacity="0.1"/>
<path d="M290.113 900.167C288.532 903.883 288.806 906.892 290.703 906.892C292.601 906.892 295.425 903.883 297.028 900.167C298.63 896.451 298.335 893.442 296.416 893.442C294.498 893.442 291.694 896.451 290.113 900.167Z" fill="#6161DD" fill-opacity="0.1"/>
<path d="M323.4 868.916C325.508 863.713 325.234 859.49 322.557 859.49C319.88 859.49 315.959 863.713 313.766 868.916C311.574 874.118 311.932 878.324 314.588 878.324C317.245 878.324 321.187 874.118 323.4 868.916Z" fill="#6161DD" fill-opacity="0.1"/>
<path d="M149.713 742.551C151.294 738.763 151.02 735.717 149.102 735.717C147.183 735.717 144.316 738.763 142.778 742.551C141.239 746.34 141.449 749.367 143.389 749.367C145.328 749.367 148.09 746.322 149.713 742.551Z" fill="#6161DD" fill-opacity="0.1"/>
<path d="M63.7114 759.85C61.819 763.575 61.6168 767.095 63.2598 767.712C64.9028 768.329 67.7689 765.81 69.6613 762.085C71.5538 758.361 71.7559 754.841 70.1129 754.224C68.4699 753.606 65.6038 756.126 63.7114 759.85Z" fill="#6161DD" fill-opacity="0.1"/>
<path d="M13.9509 802.552C15.532 798.836 15.2579 795.827 13.3606 795.827C11.4633 795.827 8.63846 798.836 7.03629 802.552C5.43413 806.268 5.72928 809.278 7.64766 809.278C9.56604 809.278 12.3698 806.268 13.9509 802.552Z" fill="#6161DD" fill-opacity="0.1"/>
<path d="M112.147 770.703C112.927 768.89 112.8 767.331 111.852 767.331C110.903 767.331 109.49 768.836 108.71 770.703C107.93 772.57 108.057 774.056 109.006 774.056C109.954 774.056 111.367 772.552 112.147 770.703Z" fill="#6161DD" fill-opacity="0.1"/>
<path d="M170.499 773.331C171.3 771.519 171.153 769.978 170.204 769.978C169.255 769.978 167.843 771.482 167.063 773.331C166.283 775.18 166.409 776.703 167.358 776.703C168.307 776.703 169.719 775.198 170.499 773.331Z" fill="#6161DD" fill-opacity="0.1"/>
<path d="M28.9399 684.508C29.7199 682.695 29.5934 681.154 28.6447 681.154C27.6961 681.154 26.2837 682.659 25.4826 684.508C24.6815 686.357 24.8291 687.88 25.7777 687.88C26.7264 687.88 28.1388 686.375 28.9399 684.508Z" fill="#6161DD" fill-opacity="0.1"/>
<path d="M150.662 812.649C149.081 816.365 149.355 819.393 151.252 819.393C153.149 819.393 155.974 816.365 157.576 812.649C159.179 808.933 158.883 805.924 156.986 805.924C155.089 805.924 152.306 808.933 150.662 812.649Z" fill="#6161DD" fill-opacity="0.1"/>
<path d="M137.549 866.124C135.989 869.84 136.242 872.849 138.161 872.849C140.079 872.849 142.862 869.84 144.485 866.124C146.108 862.408 145.792 859.381 143.895 859.381C141.998 859.381 139.046 862.408 137.549 866.124Z" fill="#6161DD" fill-opacity="0.1"/>
<path d="M29.1926 734.013C27.6115 737.747 27.8855 740.756 29.7828 740.756C31.6801 740.756 34.505 737.747 36.1072 734.013C37.7093 730.279 37.4142 727.288 35.5169 727.288C33.6196 727.288 30.7526 730.297 29.1926 734.013Z" fill="#6161DD" fill-opacity="0.1"/>
<path d="M87.6294 678.725C86.0483 682.441 86.3224 685.45 88.2197 685.45C90.117 685.45 92.9418 682.441 94.544 678.725C96.1462 675.009 95.851 672 93.9326 672C92.0142 672 89.1894 674.937 87.6294 678.725Z" fill="#6161DD" fill-opacity="0.1"/>
<path d="M131.225 705.499C129.644 709.215 129.918 712.224 131.815 712.224C133.713 712.224 136.537 709.215 138.14 705.499C139.742 701.783 139.447 698.774 137.549 698.774C135.652 698.774 132.785 701.783 131.225 705.499Z" fill="#6161DD" fill-opacity="0.1"/>
<path d="M260.874 922.844C262.455 919.219 262.181 916.119 260.284 916.119C258.386 916.119 255.562 919.128 253.959 922.844C252.357 926.56 252.652 929.569 254.55 929.569C256.447 929.569 259.314 926.56 260.874 922.844Z" fill="#6161DD" fill-opacity="0.1"/>
<path d="M294.477 790.788C297.239 784.262 296.775 778.969 293.444 778.969C290.113 778.969 285.159 784.262 282.377 790.788C279.594 797.314 280.1 802.607 283.431 802.607C286.762 802.607 291.716 797.314 294.477 790.788Z" fill="#6161DD" fill-opacity="0.1"/>
<path d="M302.994 846.402C303.774 844.589 303.647 843.048 302.699 843.048C301.75 843.048 300.338 844.553 299.537 846.402C298.735 848.251 298.883 849.774 299.832 849.774C300.78 849.774 302.193 848.269 302.994 846.402Z" fill="#6161DD" fill-opacity="0.1"/>
<path d="M175.896 899.17C174.336 902.796 174.589 905.895 176.486 905.895C178.384 905.895 181.208 902.886 182.811 899.17C184.413 895.454 184.118 892.445 182.22 892.445C180.323 892.445 177.477 895.454 175.896 899.17Z" fill="#6161DD" fill-opacity="0.1"/>
<path d="M173.387 842.323C171.806 846.039 172.08 849.049 173.977 849.049C175.875 849.049 178.7 846.039 180.302 842.323C181.904 838.607 181.609 835.598 179.711 835.598C177.814 835.598 174.905 838.607 173.387 842.323Z" fill="#6161DD" fill-opacity="0.1"/>
<path d="M87.6294 872.251C86.0483 875.967 86.3224 878.977 88.2197 878.977C90.117 878.977 92.9418 875.967 94.544 872.251C96.1462 868.535 95.851 865.526 93.9326 865.526C92.0142 865.526 89.1894 868.535 87.6294 872.251Z" fill="#6161DD" fill-opacity="0.1"/>
<path d="M82.865 811.978C81.2839 815.694 81.558 818.704 83.4553 818.704C85.3526 818.704 88.1774 815.694 89.7796 811.978C91.3818 808.262 91.0866 805.253 89.1682 805.253C87.2498 805.253 84.4461 808.262 82.865 811.978Z" fill="#6161DD" fill-opacity="0.1"/>
<path d="M118.577 912.747C117.017 916.463 117.27 919.491 119.167 919.491C121.064 919.491 123.889 916.463 125.491 912.747C127.093 909.031 126.798 906.022 124.901 906.022C123.004 906.022 120.094 908.941 118.577 912.747Z" fill="#6161DD" fill-opacity="0.1"/>
<path d="M11.6953 933.431C10.1142 937.147 10.3883 940.174 12.2856 940.174C14.1829 940.174 17.0077 937.147 18.6099 933.431C20.212 929.714 19.917 926.705 17.9986 926.705C16.0802 926.705 13.171 929.714 11.6953 933.431Z" fill="#6161DD" fill-opacity="0.1"/>
<path d="M7.05749 893.442C5.49749 897.158 5.75048 900.167 7.66886 900.167C9.58724 900.167 12.391 897.158 13.9932 893.442C15.5953 889.726 15.3002 886.717 13.4029 886.717C11.5056 886.717 8.63857 889.726 7.05749 893.442Z" fill="#6161DD" fill-opacity="0.1"/>
<path d="M239.118 767.675C240.678 763.959 240.425 760.932 238.507 760.932C236.588 760.932 233.806 763.959 232.182 767.675C230.559 771.391 230.875 774.4 232.773 774.4C234.67 774.4 237.537 771.391 239.118 767.675Z" fill="#6161DD" fill-opacity="0.1"/>
<path d="M60.7088 907.509C62.8169 902.306 62.5429 898.083 59.8656 898.083C57.1883 898.083 53.2673 902.306 51.0748 907.509C48.8824 912.711 49.2407 916.917 51.897 916.917C54.5532 916.917 58.4953 912.693 60.7088 907.509Z" fill="#6161DD" fill-opacity="0.1"/>
<path d="M43.6963 846.402C45.8044 841.199 45.5303 836.994 42.8741 836.994C40.2179 836.994 36.2546 841.199 34.0622 846.402C31.8698 851.604 32.2281 855.828 34.9054 855.828C37.5827 855.828 41.5039 851.604 43.6963 846.402Z" fill="#6161DD" fill-opacity="0.1"/>
<path d="M234.248 891.792C232.667 895.508 232.941 898.518 234.839 898.518C236.736 898.518 239.561 895.508 241.163 891.792C242.765 888.076 242.47 885.067 240.552 885.067C238.633 885.067 235.829 888.076 234.248 891.792Z" fill="#6161DD" fill-opacity="0.1"/>
<path d="M182.283 936.457C184.392 931.255 184.117 927.049 181.461 927.049C178.805 927.049 174.842 931.255 172.649 936.457C170.457 941.66 170.815 945.865 173.493 945.865C176.17 945.865 180.091 941.569 182.283 936.457Z" fill="#6161DD" fill-opacity="0.1"/>
<path d="M231.845 822.148C232.625 820.335 232.499 818.794 231.55 818.794C230.601 818.794 229.189 820.299 228.409 822.148C227.629 823.997 227.755 825.52 228.704 825.52C229.653 825.52 231.065 824.015 231.845 822.148Z" fill="#6161DD" fill-opacity="0.1"/>
<path d="M86.4066 717.137C84.4039 721.85 84.7413 725.675 87.1656 725.675C89.5899 725.675 93.1526 721.85 95.1554 717.137C97.1581 712.424 96.7996 708.599 94.3964 708.599C91.9932 708.599 88.4094 712.424 86.4066 717.137Z" fill="#6161DD" fill-opacity="0.1"/>
<path d="M295.658 944.615C294.077 948.241 294.351 951.34 296.248 951.34C298.145 951.34 300.97 948.331 302.572 944.615C304.174 940.899 303.879 937.872 301.982 937.872C300.085 937.872 297.154 940.899 295.658 944.615Z" fill="#6161DD" fill-opacity="0.1"/>
<path d="M210.869 946.899C209.309 950.615 209.562 953.624 211.481 953.624C213.399 953.624 216.203 950.615 217.805 946.899C219.407 943.183 219.112 940.174 217.215 940.174C215.318 940.174 212.451 943.183 210.869 946.899Z" fill="#6161DD" fill-opacity="0.1"/>
<path d="M241.121 816.039C239.54 819.755 239.814 822.782 241.711 822.782C243.608 822.782 246.433 819.755 248.035 816.039C249.638 812.323 249.342 809.314 247.424 809.314C245.506 809.314 242.702 812.323 241.121 816.039Z" fill="#6161DD" fill-opacity="0.1"/>
<path d="M109.659 945.866C108.099 949.491 108.352 952.609 110.27 952.609C112.189 952.609 114.972 949.582 116.595 945.866C118.218 942.15 117.902 939.141 116.004 939.141C114.107 939.141 111.24 942.15 109.659 945.866Z" fill="#6161DD" fill-opacity="0.1"/>
<path d="M362.358 842.323C363.939 838.607 363.665 835.598 361.768 835.598C359.87 835.598 357.045 838.607 355.443 842.323C353.841 846.039 354.136 849.049 356.034 849.049C357.931 849.049 360.798 846.039 362.358 842.323Z" fill="#6161DD" fill-opacity="0.1"/>
<path d="M342.542 919.491C343.343 917.678 343.196 916.119 342.247 916.119C341.298 916.119 339.886 917.624 339.106 919.491C338.326 921.358 338.452 922.844 339.401 922.844C340.35 922.844 341.762 921.34 342.542 919.491Z" fill="#6161DD" fill-opacity="0.1"/>
<path d="M199.549 794.866C197.673 799.289 197.989 802.878 200.266 802.878C202.542 802.878 205.894 799.253 207.77 794.866C209.647 790.479 209.33 786.836 207.054 786.836C204.777 786.836 201.425 790.425 199.549 794.866Z" fill="#6161DD" fill-opacity="0.1"/>
<path d="M32.9399 897.508C33.7199 895.695 33.5934 894.154 32.6447 894.154C31.6961 894.154 30.2837 895.659 29.4826 897.508C28.6815 899.357 28.8291 900.879 29.7777 900.879C30.7264 900.879 32.1388 899.375 32.9399 897.508Z" fill="#6161DD" fill-opacity="0.1"/>
<path d="M33.1926 947.013C31.6115 950.747 31.8855 953.756 33.7828 953.756C35.6801 953.756 38.505 950.747 40.1072 947.013C41.7093 943.279 41.4142 940.288 39.5169 940.288C37.6196 940.288 34.7526 943.297 33.1926 947.013Z" fill="#6161DD" fill-opacity="0.1"/>
<path d="M91.6294 891.725C90.0483 895.441 90.3224 898.45 92.2197 898.45C94.117 898.45 96.9418 895.441 98.544 891.725C100.146 888.009 99.851 885 97.9326 885C96.0142 885 93.1894 887.936 91.6294 891.725Z" fill="#6161DD" fill-opacity="0.1"/>
<path d="M135.225 918.499C133.644 922.215 133.918 925.224 135.815 925.224C137.713 925.224 140.537 922.215 142.14 918.499C143.742 914.783 143.447 911.774 141.549 911.774C139.652 911.774 136.785 914.783 135.225 918.499Z" fill="#6161DD" fill-opacity="0.1"/>
<path d="M90.4066 930.137C88.4039 934.85 88.7413 938.675 91.1656 938.675C93.5899 938.675 97.1526 934.85 99.1554 930.137C101.158 925.424 100.8 921.599 98.3964 921.599C95.9932 921.599 92.4094 925.424 90.4066 930.137Z" fill="#6161DD" fill-opacity="0.1"/>
<path d="M1099.02 942.551C1100.6 938.926 1100.33 935.808 1098.43 935.808C1096.53 935.808 1093.71 938.835 1092.11 942.551C1090.5 946.267 1090.8 949.276 1092.7 949.276C1094.59 949.276 1097.46 946.267 1099.02 942.551Z" fill="#6161DD" fill-opacity="0.1"/>
<path d="M964.713 942.551C966.294 938.763 966.02 935.717 964.102 935.717C962.183 935.717 959.316 938.763 957.778 942.551C956.239 946.34 956.449 949.367 958.389 949.367C960.328 949.367 963.09 946.322 964.713 942.551Z" fill="#6161DD" fill-opacity="0.1"/>
<path d="M843.94 884.508C844.72 882.695 844.593 881.154 843.645 881.154C842.696 881.154 841.284 882.659 840.483 884.508C839.682 886.357 839.829 887.879 840.778 887.879C841.726 887.879 843.139 886.375 843.94 884.508Z" fill="#6161DD" fill-opacity="0.1"/>
<path d="M844.193 934.013C842.612 937.747 842.886 940.756 844.783 940.756C846.68 940.756 849.505 937.747 851.107 934.013C852.71 930.279 852.414 927.288 850.517 927.288C848.62 927.288 845.753 930.297 844.193 934.013Z" fill="#6161DD" fill-opacity="0.1"/>
<path d="M902.629 878.725C901.048 882.441 901.322 885.45 903.219 885.45C905.117 885.45 907.942 882.441 909.544 878.725C911.146 875.009 910.851 872 908.932 872C907.014 872 904.189 874.936 902.629 878.725Z" fill="#6161DD" fill-opacity="0.1"/>
<path d="M946.225 905.499C944.644 909.215 944.918 912.224 946.815 912.224C948.713 912.224 951.537 909.215 953.14 905.499C954.742 901.783 954.447 898.774 952.549 898.774C950.652 898.774 947.785 901.783 946.225 905.499Z" fill="#6161DD" fill-opacity="0.1"/>
<path d="M901.407 917.137C899.404 921.85 899.741 925.675 902.166 925.675C904.59 925.675 908.153 921.85 910.155 917.137C912.158 912.424 911.8 908.599 909.396 908.599C906.993 908.599 903.409 912.424 901.407 917.137Z" fill="#6161DD" fill-opacity="0.1"/>
<path d="M479.629 940.725C478.048 944.441 478.322 947.45 480.22 947.45C482.117 947.45 484.942 944.441 486.544 940.725C488.146 937.009 487.851 934 485.933 934C484.014 934 481.189 936.936 479.629 940.725Z" fill="#6161DD" fill-opacity="0.1"/>
<path d="M1057.54 145.691C1059.1 141.957 1058.84 138.948 1056.92 138.948C1055.01 138.948 1052.22 141.957 1050.6 145.691C1048.98 149.425 1049.29 152.416 1051.19 152.416C1053.09 152.416 1055.96 149.461 1057.54 145.691Z" fill="#6161DD" fill-opacity="0.1"/>
<path d="M1019.53 124.319C1021.11 120.694 1020.83 117.576 1018.94 117.576C1017.04 117.576 1014.21 120.603 1012.61 124.319C1011.01 128.035 1011.31 131.044 1013.2 131.044C1015.1 131.044 1017.97 128.035 1019.53 124.319Z" fill="#6161DD" fill-opacity="0.1"/>
<path d="M1090.99 268.485C1089.41 272.11 1089.69 275.21 1091.58 275.21C1093.48 275.21 1096.3 272.201 1097.91 268.485C1099.51 264.768 1099.21 261.741 1097.32 261.741C1095.42 261.741 1092.55 264.768 1090.99 268.485Z" fill="#6161DD" fill-opacity="0.1"/>
<path d="M1104.95 184.646C1103.39 188.272 1103.64 191.371 1105.56 191.371C1107.48 191.371 1110.28 188.362 1111.88 184.646C1113.49 180.93 1113.19 177.921 1111.29 177.921C1109.4 177.921 1106.53 180.93 1104.95 184.646Z" fill="#6161DD" fill-opacity="0.1"/>
<path d="M1025.62 281.935C1024.04 285.651 1024.31 288.66 1026.21 288.66C1028.11 288.66 1030.93 285.651 1032.53 281.935C1034.14 278.219 1033.84 275.21 1031.92 275.21C1030 275.21 1027.2 278.219 1025.62 281.935Z" fill="#6161DD" fill-opacity="0.1"/>
<path d="M1058.91 250.684C1061.01 245.481 1060.74 241.257 1058.06 241.257C1055.39 241.257 1051.47 245.481 1049.27 250.684C1047.08 255.886 1047.44 260.092 1050.09 260.092C1052.75 260.092 1056.69 255.886 1058.91 250.684Z" fill="#6161DD" fill-opacity="0.1"/>
<path d="M885.219 124.319C886.801 120.53 886.527 117.485 884.608 117.485C882.69 117.485 879.823 120.53 878.284 124.319C876.745 128.108 876.956 131.135 878.895 131.135C880.835 131.135 883.596 128.089 885.219 124.319Z" fill="#6161DD" fill-opacity="0.1"/>
<path d="M799.218 141.618C797.325 145.342 797.123 148.862 798.766 149.479C800.409 150.097 803.275 147.578 805.168 143.853C807.06 140.128 807.262 136.609 805.619 135.991C803.976 135.374 801.11 137.893 799.218 141.618Z" fill="#6161DD" fill-opacity="0.1"/>
<path d="M749.457 184.32C751.039 180.604 750.765 177.595 748.867 177.595C746.97 177.595 744.145 180.604 742.543 184.32C740.941 188.036 741.236 191.045 743.154 191.045C745.073 191.045 747.876 188.036 749.457 184.32Z" fill="#6161DD" fill-opacity="0.1"/>
<path d="M847.653 152.471C848.433 150.658 848.307 149.099 847.358 149.099C846.409 149.099 844.997 150.604 844.217 152.471C843.437 154.338 843.564 155.824 844.512 155.824C845.461 155.824 846.873 154.32 847.653 152.471Z" fill="#6161DD" fill-opacity="0.1"/>
<path d="M906.005 155.099C906.806 153.286 906.659 151.746 905.71 151.746C904.762 151.746 903.349 153.25 902.569 155.099C901.789 156.948 901.916 158.471 902.864 158.471C903.813 158.471 905.225 156.966 906.005 155.099Z" fill="#6161DD" fill-opacity="0.1"/>
<path d="M764.446 66.2758C765.226 64.4631 765.099 62.9223 764.151 62.9223C763.202 62.9223 761.79 64.4269 760.988 66.2758C760.187 68.1248 760.335 69.6475 761.284 69.6475C762.232 69.6475 763.645 68.1429 764.446 66.2758Z" fill="#6161DD" fill-opacity="0.1"/>
<path d="M886.168 194.417C884.587 198.133 884.861 201.16 886.759 201.16C888.656 201.16 891.481 198.133 893.083 194.417C894.685 190.701 894.39 187.692 892.493 187.692C890.595 187.692 887.813 190.701 886.168 194.417Z" fill="#6161DD" fill-opacity="0.1"/>
<path d="M873.056 247.892C871.496 251.608 871.749 254.617 873.667 254.617C875.586 254.617 878.368 251.608 879.992 247.892C881.615 244.176 881.299 241.149 879.401 241.149C877.504 241.149 874.553 244.176 873.056 247.892Z" fill="#6161DD" fill-opacity="0.1"/>
<path d="M764.699 115.781C763.118 119.515 763.392 122.524 765.289 122.524C767.186 122.524 770.011 119.515 771.613 115.781C773.215 112.047 772.92 109.056 771.023 109.056C769.126 109.056 766.259 112.065 764.699 115.781Z" fill="#6161DD" fill-opacity="0.1"/>
<path d="M823.136 60.4933C821.555 64.2094 821.829 67.2185 823.726 67.2185C825.624 67.2185 828.448 64.2094 830.051 60.4933C831.653 56.7773 831.358 53.7682 829.439 53.7682C827.521 53.7682 824.696 56.7048 823.136 60.4933Z" fill="#6161DD" fill-opacity="0.1"/>
<path d="M866.731 87.267C865.15 90.983 865.424 93.9922 867.322 93.9922C869.219 93.9922 872.044 90.983 873.646 87.267C875.248 83.5509 874.953 80.5418 873.056 80.5418C871.158 80.5418 868.291 83.5509 866.731 87.267Z" fill="#6161DD" fill-opacity="0.1"/>
<path d="M996.38 304.612C997.961 300.987 997.687 297.887 995.79 297.887C993.893 297.887 991.068 300.896 989.466 304.612C987.864 308.328 988.159 311.337 990.056 311.337C991.953 311.337 994.82 308.328 996.38 304.612Z" fill="#6161DD" fill-opacity="0.1"/>
<path d="M1029.98 172.555C1032.75 166.03 1032.28 160.736 1028.95 160.736C1025.62 160.736 1020.67 166.03 1017.88 172.555C1015.1 179.081 1015.61 184.374 1018.94 184.374C1022.27 184.374 1027.22 179.081 1029.98 172.555Z" fill="#6161DD" fill-opacity="0.1"/>
<path d="M1038.5 228.17C1039.28 226.357 1039.15 224.816 1038.2 224.816C1037.26 224.816 1035.84 226.321 1035.04 228.17C1034.24 230.019 1034.39 231.541 1035.34 231.541C1036.29 231.541 1037.7 230.037 1038.5 228.17Z" fill="#6161DD" fill-opacity="0.1"/>
<path d="M974.751 382.831C975.552 381.018 975.405 379.459 974.456 379.459C973.507 379.459 972.095 380.964 971.315 382.831C970.535 384.698 970.661 386.185 971.61 386.185C972.559 386.185 973.971 384.68 974.751 382.831Z" fill="#6161DD" fill-opacity="0.1"/>
<path d="M911.402 280.938C909.842 284.563 910.095 287.663 911.993 287.663C913.89 287.663 916.715 284.654 918.317 280.938C919.919 277.222 919.624 274.213 917.727 274.213C915.829 274.213 912.983 277.222 911.402 280.938Z" fill="#6161DD" fill-opacity="0.1"/>
<path d="M908.894 224.091C907.312 227.807 907.586 230.816 909.484 230.816C911.381 230.816 914.206 227.807 915.808 224.091C917.41 220.375 917.115 217.366 915.218 217.366C913.321 217.366 910.411 220.375 908.894 224.091Z" fill="#6161DD" fill-opacity="0.1"/>
<path d="M792.421 342.842C790.84 346.558 791.114 349.585 793.011 349.585C794.908 349.585 797.733 346.558 799.335 342.842C800.937 339.126 800.642 336.117 798.724 336.117C796.806 336.117 794.002 339.126 792.421 342.842Z" fill="#6161DD" fill-opacity="0.1"/>
<path d="M865.34 410.964C863.232 416.167 863.527 420.372 866.184 420.372C868.84 420.372 872.782 416.167 874.995 410.964C877.209 405.762 876.808 401.538 874.152 401.538C871.496 401.538 867.554 405.762 865.34 410.964Z" fill="#6161DD" fill-opacity="0.1"/>
<path d="M823.136 254.019C821.555 257.735 821.829 260.744 823.726 260.744C825.624 260.744 828.448 257.735 830.051 254.019C831.653 250.303 831.358 247.294 829.439 247.294C827.521 247.294 824.696 250.303 823.136 254.019Z" fill="#6161DD" fill-opacity="0.1"/>
<path d="M818.371 193.746C816.79 197.462 817.064 200.471 818.962 200.471C820.859 200.471 823.684 197.462 825.286 193.746C826.888 190.03 826.593 187.021 824.675 187.021C822.756 187.021 819.952 190.03 818.371 193.746Z" fill="#6161DD" fill-opacity="0.1"/>
<path d="M854.083 294.515C852.523 298.231 852.776 301.259 854.673 301.259C856.571 301.259 859.395 298.231 860.998 294.515C862.6 290.799 862.305 287.79 860.407 287.79C858.51 287.79 855.601 290.709 854.083 294.515Z" fill="#6161DD" fill-opacity="0.1"/>
<path d="M747.202 315.198C745.621 318.914 745.895 321.942 747.792 321.942C749.689 321.942 752.514 318.914 754.116 315.198C755.719 311.482 755.424 308.473 753.505 308.473C751.587 308.473 748.678 311.482 747.202 315.198Z" fill="#6161DD" fill-opacity="0.1"/>
<path d="M742.564 275.21C741.004 278.926 741.257 281.935 743.175 281.935C745.094 281.935 747.897 278.926 749.5 275.21C751.102 271.494 750.806 268.485 748.909 268.485C747.012 268.485 744.145 271.494 742.564 275.21Z" fill="#6161DD" fill-opacity="0.1"/>
<path d="M974.625 149.443C976.185 145.727 975.932 142.7 974.013 142.7C972.095 142.7 969.312 145.727 967.689 149.443C966.066 153.159 966.382 156.168 968.279 156.168C970.177 156.168 973.044 153.159 974.625 149.443Z" fill="#6161DD" fill-opacity="0.1"/>
<path d="M796.215 289.277C798.323 284.074 798.049 279.851 795.372 279.851C792.694 279.851 788.773 284.074 786.581 289.277C784.388 294.479 784.747 298.685 787.403 298.685C790.059 298.685 794.001 294.461 796.215 289.277Z" fill="#6161DD" fill-opacity="0.1"/>
<path d="M779.203 228.17C781.311 222.967 781.037 218.762 778.381 218.762C775.724 218.762 771.761 222.967 769.569 228.17C767.376 233.372 767.735 237.596 770.412 237.596C773.089 237.596 777.01 233.372 779.203 228.17Z" fill="#6161DD" fill-opacity="0.1"/>
<path d="M969.755 273.56C968.174 277.276 968.448 280.285 970.345 280.285C972.242 280.285 975.067 277.276 976.669 273.56C978.271 269.844 977.976 266.835 976.058 266.835C974.139 266.835 971.336 269.844 969.755 273.56Z" fill="#6161DD" fill-opacity="0.1"/>
<path d="M917.79 318.226C919.898 313.023 919.624 308.818 916.968 308.818C914.311 308.818 910.348 313.023 908.156 318.226C905.963 323.428 906.322 327.634 908.999 327.634C911.676 327.634 915.597 323.337 917.79 318.226Z" fill="#6161DD" fill-opacity="0.1"/>
<path d="M967.352 203.915C968.132 202.103 968.005 200.562 967.056 200.562C966.108 200.562 964.695 202.066 963.915 203.915C963.135 205.764 963.262 207.287 964.21 207.287C965.159 207.287 966.572 205.783 967.352 203.915Z" fill="#6161DD" fill-opacity="0.1"/>
<path d="M821.913 98.9047C819.91 103.618 820.248 107.443 822.672 107.443C825.096 107.443 828.659 103.618 830.662 98.9047C832.664 94.1917 832.306 90.3668 829.903 90.3668C827.5 90.3668 823.916 94.1917 821.913 98.9047Z" fill="#6161DD" fill-opacity="0.1"/>
<path d="M857.329 352.939C856.549 354.752 856.676 356.311 857.624 356.311C858.573 356.311 859.986 354.806 860.766 352.939C861.546 351.072 861.419 349.586 860.47 349.586C859.522 349.586 858.109 351.09 857.329 352.939Z" fill="#6161DD" fill-opacity="0.1"/>
<path d="M1031.16 326.383C1029.58 330.008 1029.86 333.108 1031.75 333.108C1033.65 333.108 1036.48 330.099 1038.08 326.383C1039.68 322.667 1039.39 319.64 1037.49 319.64C1035.59 319.64 1032.66 322.667 1031.16 326.383Z" fill="#6161DD" fill-opacity="0.1"/>
<path d="M915.682 417.49C914.101 421.115 914.375 424.233 916.272 424.233C918.17 424.233 920.995 421.206 922.597 417.49C924.199 413.774 923.904 410.765 922.006 410.765C920.109 410.765 917.326 413.774 915.682 417.49Z" fill="#6161DD" fill-opacity="0.1"/>
<path d="M946.376 328.667C944.816 332.383 945.069 335.392 946.987 335.392C948.906 335.392 951.709 332.383 953.312 328.667C954.914 324.951 954.619 321.942 952.721 321.942C950.824 321.942 947.957 324.951 946.376 328.667Z" fill="#6161DD" fill-opacity="0.1"/>
<path d="M976.627 197.807C975.046 201.523 975.32 204.55 977.217 204.55C979.115 204.55 981.94 201.523 983.542 197.807C985.144 194.091 984.849 191.082 982.93 191.082C981.012 191.082 978.208 194.091 976.627 197.807Z" fill="#6161DD" fill-opacity="0.1"/>
<path d="M747.202 354.933C745.621 358.559 745.895 361.658 747.792 361.658C749.689 361.658 752.514 358.649 754.116 354.933C755.719 351.217 755.424 348.208 753.505 348.208C751.587 348.208 748.678 351.217 747.202 354.933Z" fill="#6161DD" fill-opacity="0.1"/>
<path d="M845.165 327.634C843.605 331.259 843.858 334.377 845.777 334.377C847.695 334.377 850.478 331.35 852.101 327.634C853.724 323.918 853.408 320.908 851.511 320.908C849.614 320.908 846.746 323.918 845.165 327.634Z" fill="#6161DD" fill-opacity="0.1"/>
<path d="M1097.86 224.091C1099.45 220.375 1099.17 217.366 1097.27 217.366C1095.38 217.366 1092.55 220.375 1090.95 224.091C1089.35 227.807 1089.64 230.816 1091.54 230.816C1093.44 230.816 1096.3 227.807 1097.86 224.091Z" fill="#6161DD" fill-opacity="0.1"/>
<path d="M894.432 373.332C896.54 368.13 896.245 363.924 893.589 363.924C890.932 363.924 886.99 368.13 884.798 373.332C882.605 378.535 882.964 382.74 885.62 382.74C888.276 382.74 892.218 378.535 894.432 373.332Z" fill="#6161DD" fill-opacity="0.1"/>
<path d="M1072.88 348.208C1071.32 351.924 1071.58 354.933 1073.47 354.933C1075.37 354.933 1078.2 351.924 1079.8 348.208C1081.4 344.492 1081.1 341.483 1079.21 341.483C1077.31 341.483 1074.46 344.492 1072.88 348.208Z" fill="#6161DD" fill-opacity="0.1"/>
<path d="M1041.05 392.873C1043.16 387.671 1042.88 383.465 1040.21 383.465C1037.53 383.465 1033.61 387.671 1031.42 392.873C1029.22 398.076 1029.58 402.281 1032.24 402.281C1034.9 402.281 1038.84 398.076 1041.05 392.873Z" fill="#6161DD" fill-opacity="0.1"/>
<path d="M1078.05 301.259C1078.85 299.446 1078.7 297.887 1077.75 297.887C1076.8 297.887 1075.39 299.391 1074.61 301.259C1073.83 303.126 1073.96 304.612 1074.91 304.612C1075.86 304.612 1077.27 303.108 1078.05 301.259Z" fill="#6161DD" fill-opacity="0.1"/>
<path d="M935.055 176.634C933.179 181.057 933.495 184.646 935.772 184.646C938.049 184.646 941.401 181.021 943.277 176.634C945.153 172.247 944.837 168.604 942.56 168.604C940.283 168.604 936.932 172.193 935.055 176.634Z" fill="#6161DD" fill-opacity="0.1"/>
<path d="M980.569 427.587C979.768 429.4 979.916 430.958 980.864 430.958C981.813 430.958 983.225 429.454 984.005 427.587C984.785 425.72 984.659 424.233 983.71 424.233C982.762 424.233 981.37 425.738 980.569 427.587Z" fill="#6161DD" fill-opacity="0.1"/>
<path d="M697.703 478.157C699.263 474.423 699.01 471.414 697.092 471.414C695.173 471.414 692.39 474.423 690.767 478.157C689.144 481.892 689.46 484.883 691.357 484.883C693.255 484.883 696.122 481.928 697.703 478.157Z" fill="#6161DD" fill-opacity="0.1"/>
<path d="M659.693 456.786C661.274 453.16 661 450.042 659.103 450.042C657.206 450.042 654.381 453.069 652.779 456.786C651.177 460.502 651.472 463.511 653.369 463.511C655.266 463.511 658.133 460.502 659.693 456.786Z" fill="#6161DD" fill-opacity="0.1"/>
<path d="M731.159 600.951C729.578 604.577 729.852 607.676 731.749 607.676C733.646 607.676 736.471 604.667 738.073 600.951C739.675 597.235 739.38 594.208 737.483 594.208C735.586 594.208 732.719 597.235 731.159 600.951Z" fill="#6161DD" fill-opacity="0.1"/>
<path d="M745.114 517.113C743.554 520.738 743.807 523.838 745.725 523.838C747.644 523.838 750.448 520.829 752.05 517.113C753.652 513.397 753.357 510.388 751.46 510.388C749.562 510.388 746.695 513.397 745.114 517.113Z" fill="#6161DD" fill-opacity="0.1"/>
<path d="M665.786 614.402C664.205 618.118 664.479 621.127 666.377 621.127C668.274 621.127 671.099 618.118 672.701 614.402C674.303 610.685 674.008 607.676 672.09 607.676C670.171 607.676 667.367 610.685 665.786 614.402Z" fill="#6161DD" fill-opacity="0.1"/>
<path d="M699.073 583.15C701.181 577.948 700.907 573.724 698.23 573.724C695.553 573.724 691.632 577.948 689.439 583.15C687.247 588.353 687.605 592.558 690.261 592.558C692.918 592.558 696.86 588.353 699.073 583.15Z" fill="#6161DD" fill-opacity="0.1"/>
<path d="M525.386 456.785C526.967 452.997 526.693 449.952 524.775 449.952C522.856 449.952 519.989 452.997 518.45 456.785C516.911 460.574 517.122 463.601 519.062 463.601C521.001 463.601 523.763 460.556 525.386 456.785Z" fill="#6161DD" fill-opacity="0.1"/>
<path d="M439.384 474.084C437.492 477.809 437.29 481.329 438.933 481.946C440.576 482.563 443.442 480.044 445.334 476.32C447.227 472.595 447.429 469.075 445.786 468.458C444.143 467.841 441.277 470.36 439.384 474.084Z" fill="#6161DD" fill-opacity="0.1"/>
<path d="M389.624 516.787C391.205 513.07 390.931 510.061 389.033 510.061C387.136 510.061 384.311 513.07 382.709 516.787C381.107 520.503 381.402 523.512 383.321 523.512C385.239 523.512 388.043 520.503 389.624 516.787Z" fill="#6161DD" fill-opacity="0.1"/>
<path d="M487.82 484.937C488.6 483.124 488.473 481.565 487.524 481.565C486.576 481.565 485.163 483.07 484.383 484.937C483.603 486.804 483.73 488.291 484.678 488.291C485.627 488.291 487.04 486.786 487.82 484.937Z" fill="#6161DD" fill-opacity="0.1"/>
<path d="M546.172 487.566C546.973 485.753 546.825 484.212 545.877 484.212C544.928 484.212 543.516 485.717 542.736 487.566C541.956 489.415 542.082 490.937 543.031 490.937C543.979 490.937 545.392 489.433 546.172 487.566Z" fill="#6161DD" fill-opacity="0.1"/>
<path d="M404.613 398.742C405.393 396.929 405.266 395.389 404.317 395.389C403.369 395.389 401.956 396.893 401.155 398.742C400.354 400.591 400.502 402.114 401.45 402.114C402.399 402.114 403.811 400.609 404.613 398.742Z" fill="#6161DD" fill-opacity="0.1"/>
<path d="M526.334 526.883C524.753 530.599 525.027 533.627 526.925 533.627C528.822 533.627 531.647 530.599 533.249 526.883C534.851 523.167 534.556 520.158 532.659 520.158C530.761 520.158 527.979 523.167 526.334 526.883Z" fill="#6161DD" fill-opacity="0.1"/>
<path d="M513.222 580.359C511.662 584.075 511.915 587.084 513.834 587.084C515.752 587.084 518.535 584.075 520.158 580.359C521.781 576.642 521.465 573.615 519.568 573.615C517.67 573.615 514.719 576.642 513.222 580.359Z" fill="#6161DD" fill-opacity="0.1"/>
<path d="M404.865 448.247C403.284 451.982 403.558 454.991 405.456 454.991C407.353 454.991 410.178 451.982 411.78 448.247C413.382 444.513 413.087 441.522 411.19 441.522C409.292 441.522 406.425 444.531 404.865 448.247Z" fill="#6161DD" fill-opacity="0.1"/>
<path d="M463.302 392.959C461.721 396.675 461.995 399.685 463.893 399.685C465.79 399.685 468.615 396.675 470.217 392.959C471.819 389.243 471.524 386.234 469.605 386.234C467.687 386.234 464.862 389.171 463.302 392.959Z" fill="#6161DD" fill-opacity="0.1"/>
<path d="M506.898 419.734C505.317 423.45 505.591 426.459 507.488 426.459C509.385 426.459 512.21 423.45 513.812 419.734C515.415 416.017 515.12 413.008 513.222 413.008C511.325 413.008 508.458 416.017 506.898 419.734Z" fill="#6161DD" fill-opacity="0.1"/>
<path d="M636.547 637.079C638.128 633.453 637.854 630.353 635.957 630.353C634.059 630.353 631.234 633.362 629.632 637.079C628.03 640.795 628.325 643.804 630.223 643.804C632.12 643.804 634.987 640.795 636.547 637.079Z" fill="#6161DD" fill-opacity="0.1"/>
<path d="M670.15 505.022C672.911 498.496 672.447 493.203 669.117 493.203C665.786 493.203 660.832 498.496 658.049 505.022C655.266 511.548 655.772 516.841 659.103 516.841C662.434 516.841 667.388 511.548 670.15 505.022Z" fill="#6161DD" fill-opacity="0.1"/>
<path d="M678.666 560.636C679.446 558.823 679.32 557.283 678.371 557.283C677.423 557.283 676.01 558.787 675.209 560.636C674.408 562.485 674.556 564.008 675.504 564.008C676.453 564.008 677.865 562.503 678.666 560.636Z" fill="#6161DD" fill-opacity="0.1"/>
<path d="M614.917 715.297C615.719 713.484 615.571 711.925 614.622 711.925C613.674 711.925 612.261 713.43 611.481 715.297C610.701 717.164 610.828 718.651 611.776 718.651C612.725 718.651 614.137 717.146 614.917 715.297Z" fill="#6161DD" fill-opacity="0.1"/>
<path d="M551.569 613.404C550.009 617.03 550.262 620.13 552.159 620.13C554.056 620.13 556.881 617.121 558.483 613.404C560.086 609.688 559.79 606.679 557.893 606.679C555.996 606.679 553.15 609.688 551.569 613.404Z" fill="#6161DD" fill-opacity="0.1"/>
<path d="M549.06 556.558C547.479 560.274 547.753 563.283 549.65 563.283C551.548 563.283 554.372 560.274 555.975 556.558C557.577 552.841 557.282 549.832 555.384 549.832C553.487 549.832 550.578 552.841 549.06 556.558Z" fill="#6161DD" fill-opacity="0.1"/>
<path d="M432.587 675.309C431.006 679.025 431.28 682.052 433.177 682.052C435.074 682.052 437.899 679.025 439.502 675.309C441.104 671.593 440.809 668.584 438.89 668.584C436.972 668.584 434.168 671.593 432.587 675.309Z" fill="#6161DD" fill-opacity="0.1"/>
<path d="M505.507 743.431C503.398 748.633 503.694 752.839 506.35 752.839C509.006 752.839 512.948 748.633 515.162 743.431C517.375 738.228 516.975 734.004 514.318 734.004C511.662 734.004 507.72 738.228 505.507 743.431Z" fill="#6161DD" fill-opacity="0.1"/>
<path d="M463.302 586.485C461.721 590.202 461.995 593.211 463.893 593.211C465.79 593.211 468.615 590.202 470.217 586.485C471.819 582.769 471.524 579.76 469.605 579.76C467.687 579.76 464.862 582.769 463.302 586.485Z" fill="#6161DD" fill-opacity="0.1"/>
<path d="M458.538 526.213C456.957 529.929 457.231 532.938 459.128 532.938C461.025 532.938 463.85 529.929 465.452 526.213C467.055 522.496 466.759 519.487 464.841 519.487C462.923 519.487 460.119 522.496 458.538 526.213Z" fill="#6161DD" fill-opacity="0.1"/>
<path d="M494.249 626.981C492.689 630.697 492.942 633.725 494.839 633.725C496.737 633.725 499.562 630.697 501.164 626.981C502.766 623.265 502.471 620.256 500.574 620.256C498.676 620.256 495.767 623.175 494.249 626.981Z" fill="#6161DD" fill-opacity="0.1"/>
<path d="M387.368 647.665C385.787 651.381 386.061 654.408 387.958 654.408C389.856 654.408 392.681 651.381 394.283 647.665C395.885 643.949 395.59 640.939 393.671 640.939C391.753 640.939 388.844 643.949 387.368 647.665Z" fill="#6161DD" fill-opacity="0.1"/>
<path d="M382.73 607.676C381.17 611.392 381.423 614.401 383.342 614.401C385.26 614.401 388.064 611.392 389.666 607.676C391.268 603.96 390.973 600.951 389.076 600.951C387.178 600.951 384.311 603.96 382.73 607.676Z" fill="#6161DD" fill-opacity="0.1"/>
<path d="M614.791 481.91C616.351 478.194 616.098 475.166 614.179 475.166C612.261 475.166 609.478 478.194 607.855 481.91C606.232 485.626 606.548 488.635 608.445 488.635C610.343 488.635 613.21 485.626 614.791 481.91Z" fill="#6161DD" fill-opacity="0.1"/>
<path d="M436.382 621.743C438.49 616.54 438.216 612.317 435.538 612.317C432.861 612.317 428.94 616.54 426.748 621.743C424.555 626.945 424.914 631.151 427.57 631.151C430.226 631.151 434.168 626.927 436.382 621.743Z" fill="#6161DD" fill-opacity="0.1"/>
<path d="M419.369 560.636C421.477 555.433 421.203 551.228 418.547 551.228C415.891 551.228 411.927 555.433 409.735 560.636C407.543 565.838 407.901 570.062 410.578 570.062C413.256 570.062 417.177 565.838 419.369 560.636Z" fill="#6161DD" fill-opacity="0.1"/>
<path d="M609.921 606.027C608.34 609.743 608.614 612.752 610.511 612.752C612.409 612.752 615.234 609.743 616.836 606.027C618.438 602.31 618.143 599.301 616.224 599.301C614.306 599.301 611.502 602.31 609.921 606.027Z" fill="#6161DD" fill-opacity="0.1"/>
<path d="M557.956 650.692C560.064 645.489 559.79 641.284 557.134 641.284C554.478 641.284 550.515 645.489 548.322 650.692C546.13 655.894 546.488 660.1 549.165 660.1C551.843 660.1 555.764 655.804 557.956 650.692Z" fill="#6161DD" fill-opacity="0.1"/>
<path d="M607.518 536.382C608.298 534.569 608.172 533.028 607.223 533.028C606.274 533.028 604.862 534.533 604.082 536.382C603.302 538.231 603.428 539.754 604.377 539.754C605.326 539.754 606.738 538.249 607.518 536.382Z" fill="#6161DD" fill-opacity="0.1"/>
<path d="M462.079 431.371C460.077 436.084 460.414 439.909 462.838 439.909C465.263 439.909 468.825 436.084 470.828 431.371C472.831 426.658 472.472 422.833 470.069 422.833C467.666 422.833 464.082 426.658 462.079 431.371Z" fill="#6161DD" fill-opacity="0.1"/>
<path d="M497.496 685.406C496.716 687.218 496.842 688.777 497.791 688.777C498.739 688.777 500.152 687.273 500.932 685.406C501.712 683.539 501.585 682.052 500.637 682.052C499.688 682.052 498.276 683.557 497.496 685.406Z" fill="#6161DD" fill-opacity="0.1"/>
<path d="M671.331 658.849C669.749 662.475 670.023 665.574 671.921 665.574C673.818 665.574 676.643 662.565 678.245 658.849C679.847 655.133 679.552 652.106 677.655 652.106C675.758 652.106 672.827 655.133 671.331 658.849Z" fill="#6161DD" fill-opacity="0.1"/>
<path d="M555.848 749.956C554.267 753.582 554.541 756.7 556.438 756.7C558.336 756.7 561.161 753.672 562.763 749.956C564.365 746.24 564.07 743.231 562.172 743.231C560.275 743.231 557.492 746.24 555.848 749.956Z" fill="#6161DD" fill-opacity="0.1"/>
<path d="M586.542 661.133C584.982 664.849 585.235 667.858 587.153 667.858C589.072 667.858 591.875 664.849 593.478 661.133C595.08 657.417 594.785 654.408 592.887 654.408C590.99 654.408 588.123 657.417 586.542 661.133Z" fill="#6161DD" fill-opacity="0.1"/>
<path d="M616.793 530.273C615.212 533.989 615.486 537.016 617.383 537.016C619.281 537.016 622.106 533.989 623.708 530.273C625.31 526.557 625.015 523.548 623.096 523.548C621.178 523.548 618.374 526.557 616.793 530.273Z" fill="#6161DD" fill-opacity="0.1"/>
<path d="M387.368 687.4C385.787 691.025 386.061 694.125 387.958 694.125C389.856 694.125 392.681 691.116 394.283 687.4C395.885 683.683 395.59 680.674 393.671 680.674C391.753 680.674 388.844 683.683 387.368 687.4Z" fill="#6161DD" fill-opacity="0.1"/>
<path d="M485.332 660.1C483.772 663.725 484.025 666.843 485.943 666.843C487.862 666.843 490.644 663.816 492.268 660.1C493.891 656.384 493.575 653.375 491.677 653.375C489.78 653.375 486.913 656.384 485.332 660.1Z" fill="#6161DD" fill-opacity="0.1"/>
<path d="M738.031 556.558C739.612 552.841 739.338 549.832 737.441 549.832C735.544 549.832 732.719 552.841 731.117 556.558C729.514 560.274 729.81 563.283 731.707 563.283C733.604 563.283 736.471 560.274 738.031 556.558Z" fill="#6161DD" fill-opacity="0.1"/>
<path d="M534.599 705.799C536.707 700.596 536.412 696.391 533.755 696.391C531.099 696.391 527.157 700.596 524.965 705.799C522.772 711.001 523.131 715.207 525.787 715.207C528.443 715.207 532.385 711.001 534.599 705.799Z" fill="#6161DD" fill-opacity="0.1"/>
<path d="M713.05 680.674C711.49 684.391 711.743 687.4 713.641 687.4C715.538 687.4 718.363 684.391 719.965 680.674C721.567 676.958 721.272 673.949 719.375 673.949C717.477 673.949 714.631 676.958 713.05 680.674Z" fill="#6161DD" fill-opacity="0.1"/>
<path d="M681.217 725.34C683.325 720.137 683.051 715.932 680.374 715.932C677.697 715.932 673.776 720.137 671.583 725.34C669.391 730.542 669.749 734.748 672.405 734.748C675.062 734.748 679.004 730.542 681.217 725.34Z" fill="#6161DD" fill-opacity="0.1"/>
<path d="M718.214 633.725C719.015 631.912 718.868 630.353 717.919 630.353C716.971 630.353 715.558 631.858 714.778 633.725C713.998 635.592 714.125 637.078 715.073 637.078C716.022 637.078 717.434 635.574 718.214 633.725Z" fill="#6161DD" fill-opacity="0.1"/>
<path d="M575.221 509.101C573.345 513.524 573.661 517.113 575.938 517.113C578.215 517.113 581.567 513.487 583.443 509.101C585.319 504.714 585.003 501.07 582.726 501.07C580.449 501.07 577.098 504.659 575.221 509.101Z" fill="#6161DD" fill-opacity="0.1"/>
<path d="M620.736 760.053C619.935 761.866 620.082 763.425 621.031 763.425C621.979 763.425 623.392 761.92 624.172 760.053C624.952 758.186 624.825 756.7 623.877 756.7C622.928 756.7 621.537 758.204 620.736 760.053Z" fill="#6161DD" fill-opacity="0.1"/>
</svg>
