<svg width="255" height="91" viewBox="0 0 255 91" fill="none" xmlns="http://www.w3.org/2000/svg">
<path d="M2 39.4798C12.7821 38.8051 23.5552 37.969 34.3464 37.4558C39.8622 37.1935 64.2459 34.1385 72.2064 40.5415C75.0579 42.8352 76.0076 47.0109 76.4502 50.6282C76.9837 54.989 73.9216 78.4427 73.7101 82.6134C73.6038 84.7085 72.3597 89.8317 74.2447 88.8844C77.3039 87.3468 77.7654 83.0188 79.1234 79.8927C82.4619 72.2077 85.3278 64.328 88.3127 56.501C92.8663 44.5605 100.611 24.0368 104.519 10.8789C105.506 7.55649 107.466 -2.45903 105.756 0.56001C101.798 7.54539 102.861 19.4562 102.849 27.0042C102.844 29.859 102.974 32.7132 103.116 35.5646C103.222 37.7079 102.139 40.9356 104.052 41.9351C105.212 42.5416 108.781 24.5902 112.405 34.0383C113.785 37.6333 113.959 46.8946 119.891 46.1157C124.212 45.5484 128.526 39.359 128.211 35.1333C128.176 34.664 127.594 33.4427 127.509 33.9056C127.064 36.3392 129.052 40.6324 129.581 42.9968C129.645 43.2808 129.891 47.3445 131.319 45.8835C133.661 43.4873 134.703 37.0074 137.835 35.7637C140.254 34.8028 142.578 44.4382 142.713 46.1157C142.808 47.2905 143.2 46.2578 143.816 45.5849C145.96 43.2437 148.079 40.9309 151.301 42.8641C155.04 45.1073 158.086 47.6047 162.897 46.5139C164.423 46.1679 170.672 41.0426 165.67 39.9443C163.128 39.3862 162.067 43.9078 163.565 45.2862C166.208 47.7189 171.719 42.9814 173.255 41.172C173.632 40.7279 174.649 38.1268 174.358 40.0107C173.599 44.9301 172.885 49.8572 172.119 54.7756C171.036 61.735 170.109 69.0036 167.608 75.6457C167.045 77.1408 161.423 88.6446 158.72 82.0825C156.435 76.5371 158.888 69.5339 161.894 64.8623C167.493 56.1606 177.706 48.3288 186.12 42.4991C206.332 28.4955 230.63 34.8019 252.818 40.077" stroke="#333334" stroke-width="2.5" stroke-linecap="round"/>
<circle cx="211.689" cy="69.447" r="3.37121" fill="#333334"/>
</svg>
