<svg width="1440" height="485" viewBox="0 0 1440 485" fill="none" xmlns="http://www.w3.org/2000/svg">
<g clip-path="url(#clip0_30_916)">
<rect width="1440" height="485" fill="#5D5CDC"/>
<path d="M53.182 233.925C51.6841 236.987 51.927 239.455 53.7691 239.455C55.6111 239.455 58.2832 236.987 59.8418 233.925C61.4005 230.863 61.0969 228.41 59.275 228.41C57.4532 228.41 54.7002 230.833 53.182 233.925Z" fill="#6161DD"/>
<path d="M89.6792 251.45C88.161 254.423 88.4241 256.98 90.246 256.98C92.0678 256.98 94.7803 254.498 96.3187 251.45C97.8572 248.403 97.5738 245.936 95.7519 245.936C93.9301 245.936 91.1771 248.403 89.6792 251.45Z" fill="#6161DD"/>
<path d="M21.0571 133.232C22.5753 130.259 22.3122 127.717 20.4903 127.717C18.6685 127.717 15.956 130.185 14.4176 133.232C12.8791 136.279 13.1625 138.761 14.9844 138.761C16.8062 138.761 19.5592 136.279 21.0571 133.232Z" fill="#6161DD"/>
<path d="M7.65661 201.981C9.15455 199.008 8.91163 196.466 7.06956 196.466C5.22749 196.466 2.53523 198.934 0.996798 201.981C-0.541634 205.028 -0.258241 207.496 1.56359 207.496C3.38541 207.496 6.13842 205.028 7.65661 201.981Z" fill="#6161DD"/>
<path d="M83.8292 122.202C85.3474 119.155 85.0843 116.688 83.2624 116.688C81.4406 116.688 78.7281 119.155 77.1897 122.202C75.6513 125.25 75.9347 127.717 77.7767 127.717C79.6188 127.717 82.311 125.25 83.8292 122.202Z" fill="#6161DD"/>
<path d="M51.8663 147.829C49.842 152.095 50.1051 155.559 52.676 155.559C55.2468 155.559 59.0119 152.095 61.1171 147.829C63.2223 143.563 62.8782 140.114 60.3276 140.114C57.7771 140.114 53.9917 143.563 51.8663 147.829Z" fill="#6161DD"/>
<path d="M218.644 251.45C217.126 254.557 217.389 257.054 219.231 257.054C221.074 257.054 223.827 254.557 225.304 251.45C226.782 248.344 226.58 245.861 224.717 245.861C222.855 245.861 220.203 248.359 218.644 251.45Z" fill="#6161DD"/>
<path d="M301.225 237.265C303.042 234.211 303.237 231.324 301.659 230.818C300.081 230.312 297.329 232.378 295.512 235.432C293.695 238.486 293.501 241.373 295.078 241.879C296.656 242.385 299.408 240.319 301.225 237.265Z" fill="#6161DD"/>
<path d="M349.006 202.248C347.488 205.296 347.751 207.763 349.573 207.763C351.395 207.763 354.107 205.296 355.646 202.248C357.184 199.201 356.901 196.734 355.059 196.734C353.217 196.734 350.525 199.201 349.006 202.248Z" fill="#6161DD"/>
<path d="M254.717 228.366C253.968 229.852 254.089 231.13 255 231.13C255.911 231.13 257.267 229.897 258.016 228.366C258.765 226.835 258.644 225.616 257.733 225.616C256.822 225.616 255.466 226.849 254.717 228.366Z" fill="#6161DD"/>
<path d="M198.685 226.21C197.916 227.697 198.058 228.96 198.969 228.96C199.88 228.96 201.236 227.727 201.985 226.21C202.734 224.694 202.612 223.446 201.701 223.446C200.79 223.446 199.434 224.679 198.685 226.21Z" fill="#6161DD"/>
<path d="M334.614 299.047C333.865 300.533 333.986 301.797 334.897 301.797C335.808 301.797 337.164 300.563 337.934 299.047C338.703 297.531 338.561 296.282 337.65 296.282C336.739 296.282 335.383 297.516 334.614 299.047Z" fill="#6161DD"/>
<path d="M217.734 193.969C219.252 190.922 218.989 188.439 217.167 188.439C215.345 188.439 212.632 190.922 211.094 193.969C209.556 197.016 209.839 199.484 211.661 199.484C213.483 199.484 216.155 197.016 217.734 193.969Z" fill="#6161DD"/>
<path d="M230.324 150.118C231.822 147.071 231.579 144.603 229.737 144.603C227.895 144.603 225.223 147.071 223.665 150.118C222.106 153.165 222.41 155.648 224.231 155.648C226.053 155.648 228.887 153.165 230.324 150.118Z" fill="#6161DD"/>
<path d="M334.371 258.452C335.889 255.39 335.626 252.922 333.804 252.922C331.982 252.922 329.27 255.39 327.731 258.452C326.193 261.514 326.476 263.967 328.298 263.967C330.12 263.967 332.873 261.499 334.371 258.452Z" fill="#6161DD"/>
<path d="M278.259 303.789C279.777 300.742 279.514 298.274 277.692 298.274C275.87 298.274 273.158 300.742 271.619 303.789C270.081 306.836 270.364 309.304 272.206 309.304C274.048 309.304 276.761 306.896 278.259 303.789Z" fill="#6161DD"/>
<path d="M236.397 281.834C237.915 278.787 237.652 276.319 235.83 276.319C234.009 276.319 231.296 278.787 229.758 281.834C228.219 284.881 228.503 287.349 230.324 287.349C232.146 287.349 234.899 284.881 236.397 281.834Z" fill="#6161DD"/>
<path d="M111.906 103.607C110.387 106.58 110.65 109.121 112.472 109.121C114.294 109.121 117.007 106.654 118.545 103.607C120.083 100.559 119.8 98.0918 117.978 98.0918C116.156 98.0918 113.403 100.559 111.906 103.607Z" fill="#6161DD"/>
<path d="M79.639 211.896C76.9872 217.247 77.4325 221.587 80.6308 221.587C83.8291 221.587 88.5861 217.247 91.2581 211.896C93.9302 206.544 93.4443 202.204 90.246 202.204C87.0477 202.204 82.2907 206.544 79.639 211.896Z" fill="#6161DD"/>
<path d="M71.4609 166.291C70.712 167.777 70.8334 169.041 71.7444 169.041C72.6553 169.041 74.0115 167.807 74.7807 166.291C75.55 164.775 75.4082 163.526 74.4973 163.526C73.5864 163.526 72.2302 164.76 71.4609 166.291Z" fill="#6161DD"/>
<path d="M132.674 39.4658C131.905 40.9522 132.047 42.2306 132.958 42.2306C133.869 42.2306 135.225 40.9968 135.974 39.4658C136.723 37.9347 136.601 36.7158 135.691 36.7158C134.78 36.7158 133.423 37.9496 132.674 39.4658Z" fill="#6161DD"/>
<path d="M193.503 123.02C195.001 120.047 194.758 117.505 192.936 117.505C191.115 117.505 188.402 119.973 186.864 123.02C185.325 126.067 185.609 128.535 187.43 128.535C189.252 128.535 191.985 126.067 193.503 123.02Z" fill="#6161DD"/>
<path d="M195.912 169.635C197.43 166.588 197.167 164.121 195.345 164.121C193.523 164.121 190.811 166.588 189.273 169.635C187.734 172.683 188.018 175.15 189.839 175.15C191.661 175.15 194.455 172.683 195.912 169.635Z" fill="#6161DD"/>
<path d="M307.752 72.2572C309.27 69.2099 309.007 66.7275 307.185 66.7275C305.363 66.7275 302.651 69.2099 301.113 72.2572C299.574 75.3044 299.858 77.772 301.7 77.772C303.542 77.772 306.234 75.3044 307.752 72.2572Z" fill="#6161DD"/>
<path d="M237.733 16.3957C239.757 12.1295 239.474 8.68091 236.923 8.68091C234.373 8.68091 230.587 12.1295 228.462 16.3957C226.337 20.6618 226.721 24.1253 229.272 24.1253C231.822 24.1253 235.608 20.6618 237.733 16.3957Z" fill="#6161DD"/>
<path d="M278.259 145.094C279.777 142.047 279.514 139.579 277.692 139.579C275.87 139.579 273.158 142.047 271.619 145.094C270.081 148.141 270.364 150.609 272.206 150.609C274.048 150.609 276.761 148.141 278.259 145.094Z" fill="#6161DD"/>
<path d="M282.834 194.519C284.352 191.471 284.089 189.004 282.267 189.004C280.445 189.004 277.732 191.471 276.194 194.519C274.656 197.566 274.939 200.033 276.781 200.033C278.623 200.033 281.315 197.566 282.834 194.519Z" fill="#6161DD"/>
<path d="M248.543 111.886C250.041 108.839 249.798 106.356 247.976 106.356C246.154 106.356 243.442 108.839 241.903 111.886C240.365 114.933 240.648 117.401 242.47 117.401C244.292 117.401 247.085 115.008 248.543 111.886Z" fill="#6161DD"/>
<path d="M351.172 94.9256C352.69 91.8784 352.427 89.396 350.606 89.396C348.784 89.396 346.071 91.8784 344.533 94.9256C342.994 97.9729 343.278 100.44 345.12 100.44C346.962 100.44 349.755 97.9729 351.172 94.9256Z" fill="#6161DD"/>
<path d="M355.626 127.717C357.124 124.67 356.881 122.202 355.039 122.202C353.196 122.202 350.504 124.67 348.966 127.717C347.427 130.764 347.711 133.232 349.533 133.232C351.354 133.232 354.107 130.764 355.626 127.717Z" fill="#6161DD"/>
<path d="M132.796 230.848C131.298 233.895 131.541 236.378 133.383 236.378C135.225 236.378 137.897 233.895 139.456 230.848C141.014 227.801 140.711 225.333 138.889 225.333C137.067 225.333 134.314 227.801 132.796 230.848Z" fill="#6161DD"/>
<path d="M304.108 116.182C302.084 120.448 302.347 123.912 304.918 123.912C307.489 123.912 311.254 120.448 313.359 116.182C315.464 111.916 315.12 108.467 312.57 108.467C310.019 108.467 306.234 111.931 304.108 116.182Z" fill="#6161DD"/>
<path d="M320.444 166.291C318.42 170.557 318.683 174.006 321.234 174.006C323.784 174.006 327.59 170.557 329.695 166.291C331.8 162.025 331.456 158.561 328.885 158.561C326.314 158.561 322.549 162.025 320.444 166.291Z" fill="#6161DD"/>
<path d="M137.472 129.07C138.99 126.022 138.727 123.555 136.905 123.555C135.083 123.555 132.371 126.022 130.832 129.07C129.294 132.117 129.577 134.584 131.419 134.584C133.262 134.584 135.954 132.117 137.472 129.07Z" fill="#6161DD"/>
<path d="M187.37 92.4433C185.346 96.7094 185.609 100.158 188.159 100.158C190.71 100.158 194.515 96.7094 196.621 92.4433C198.726 88.1771 198.382 84.7285 195.811 84.7285C193.24 84.7285 189.475 88.2514 187.37 92.4433Z" fill="#6161DD"/>
<path d="M139.78 186.18C139.031 187.666 139.152 188.93 140.063 188.93C140.974 188.93 142.33 187.696 143.079 186.18C143.828 184.664 143.707 183.415 142.796 183.415C141.885 183.415 140.529 184.649 139.78 186.18Z" fill="#6161DD"/>
<path d="M279.433 272.291C281.356 268.426 281.032 265.29 278.704 265.29C276.376 265.29 272.955 268.426 271.032 272.291C269.109 276.156 269.453 279.292 271.761 279.292C274.069 279.292 277.51 276.156 279.433 272.291Z" fill="#6161DD"/>
<path d="M245.425 63.9775C246.174 62.491 246.053 61.2126 245.142 61.2126C244.231 61.2126 242.875 62.4464 242.126 63.9775C241.377 65.5085 241.498 66.7274 242.409 66.7274C243.32 66.7274 244.676 65.4937 245.425 63.9775Z" fill="#6161DD"/>
<path d="M78.5054 85.7543C80.0236 82.7814 79.7604 80.2395 77.9386 80.2395C76.1167 80.2395 73.4042 82.707 71.8658 85.7543C70.3274 88.8015 70.6108 91.2839 72.4326 91.2839C74.2544 91.2839 77.0681 88.8015 78.5054 85.7543Z" fill="#6161DD"/>
<path d="M189.394 11.0445C190.912 8.07161 190.649 5.51489 188.827 5.51489C187.005 5.51489 184.293 7.99729 182.754 11.0445C181.216 14.0918 181.499 16.5593 183.321 16.5593C185.143 16.5593 187.815 14.0918 189.394 11.0445Z" fill="#6161DD"/>
<path d="M159.921 83.8812C161.419 80.834 161.176 78.3665 159.334 78.3665C157.492 78.3665 154.8 80.834 153.261 83.8812C151.723 86.9285 152.006 89.396 153.828 89.396C155.65 89.396 158.403 86.9285 159.921 83.8812Z" fill="#6161DD"/>
<path d="M130.873 191.189C132.391 188.142 132.128 185.659 130.306 185.659C128.484 185.659 125.772 188.142 124.233 191.189C122.695 194.236 122.978 196.704 124.82 196.704C126.662 196.704 129.355 194.236 130.873 191.189Z" fill="#6161DD"/>
<path d="M351.172 62.3424C352.69 59.3695 352.427 56.8276 350.606 56.8276C348.784 56.8276 346.071 59.2952 344.533 62.3424C342.994 65.3897 343.278 67.8572 345.12 67.8572C346.962 67.8572 349.755 65.3897 351.172 62.3424Z" fill="#6161DD"/>
<path d="M257.105 84.7286C258.603 81.7557 258.36 79.199 256.518 79.199C254.676 79.199 252.004 81.6814 250.445 84.7286C248.887 87.7759 249.19 90.2434 251.012 90.2434C252.834 90.2434 255.587 87.7759 257.105 84.7286Z" fill="#6161DD"/>
<path d="M14.4581 169.635C12.9399 172.683 13.2031 175.15 15.0249 175.15C16.8468 175.15 19.5593 172.683 21.0977 169.635C22.6361 166.588 22.3527 164.121 20.5309 164.121C18.709 164.121 15.956 166.588 14.4581 169.635Z" fill="#6161DD"/>
<path d="M209.798 47.2548C207.774 51.521 208.058 54.9696 210.608 54.9696C213.159 54.9696 216.944 51.521 219.049 47.2548C221.154 42.9886 220.81 39.54 218.26 39.54C215.709 39.54 211.924 42.9886 209.798 47.2548Z" fill="#6161DD"/>
<path d="M38.4454 67.8571C39.9434 64.8098 39.7005 62.3423 37.8786 62.3423C36.0568 62.3423 33.3443 64.8098 31.8059 67.8571C30.2674 70.9043 30.5508 73.3719 32.3727 73.3719C34.1945 73.3719 36.9272 70.9043 38.4454 67.8571Z" fill="#6161DD"/>
<path d="M69.0117 31.2306C66.9875 35.4968 67.2506 38.9454 69.8214 38.9454C72.3922 38.9454 76.1573 35.4968 78.2626 31.2306C80.3678 26.9645 80.0236 23.5159 77.4731 23.5159C74.9225 23.5159 71.1372 26.9645 69.0117 31.2306Z" fill="#6161DD"/>
<path d="M33.4861 106.357C32.7169 107.843 32.8585 109.121 33.7694 109.121C34.6804 109.121 36.0367 107.888 36.7856 106.357C37.5346 104.826 37.4131 103.607 36.5022 103.607C35.5913 103.607 34.2351 104.84 33.4861 106.357Z" fill="#6161DD"/>
<path d="M170.791 208.551C172.593 204.924 172.289 201.981 170.103 201.981C167.917 201.981 164.698 204.954 162.897 208.551C161.095 212.148 161.399 215.136 163.585 215.136C165.771 215.136 168.99 212.193 170.791 208.551Z" fill="#6161DD"/>
<path d="M127.088 2.76483C127.857 1.27836 127.715 0 126.804 0C125.893 0 124.537 1.23377 123.788 2.76483C123.039 4.29588 123.16 5.51478 124.071 5.51478C124.982 5.51478 126.318 4.28102 127.088 2.76483Z" fill="#6161DD"/>
<path d="M688.459 75.3788C689.957 72.3167 689.714 69.8491 687.872 69.8491C686.03 69.8491 683.358 72.3167 681.799 75.3788C680.24 78.4409 680.544 80.8936 682.366 80.8936C684.188 80.8936 686.941 78.4706 688.459 75.3788Z" fill="#6161DD"/>
<path d="M651.962 57.8533C653.48 54.8804 653.217 52.3237 651.395 52.3237C649.573 52.3237 646.861 54.8061 645.322 57.8533C643.784 60.9006 644.067 63.3682 645.889 63.3682C647.711 63.3682 650.464 60.9006 651.962 57.8533Z" fill="#6161DD"/>
<path d="M720.584 176.072C719.066 179.045 719.329 181.587 721.151 181.587C722.972 181.587 725.685 179.119 727.223 176.072C728.762 173.025 728.478 170.542 726.657 170.542C724.835 170.542 722.082 173.025 720.584 176.072Z" fill="#6161DD"/>
<path d="M733.984 107.323C732.486 110.296 732.729 112.838 734.571 112.838C736.414 112.838 739.106 110.37 740.644 107.323C742.183 104.276 741.899 101.808 740.077 101.808C738.256 101.808 735.503 104.276 733.984 107.323Z" fill="#6161DD"/>
<path d="M657.812 187.101C656.294 190.149 656.557 192.616 658.379 192.616C660.2 192.616 662.913 190.149 664.451 187.101C665.99 184.054 665.706 181.587 663.864 181.587C662.022 181.587 659.33 184.054 657.812 187.101Z" fill="#6161DD"/>
<path d="M689.775 161.475C691.799 157.209 691.536 153.745 688.965 153.745C686.394 153.745 682.629 157.209 680.524 161.475C678.419 165.741 678.763 169.189 681.313 169.189C683.864 169.189 687.649 165.741 689.775 161.475Z" fill="#6161DD"/>
<path d="M522.997 57.8533C524.515 54.7465 524.252 52.2493 522.41 52.2493C520.567 52.2493 517.814 54.7465 516.337 57.8533C514.859 60.96 515.061 63.4424 516.924 63.4424C518.786 63.4424 521.438 60.9451 522.997 57.8533Z" fill="#6161DD"/>
<path d="M440.416 72.0387C438.599 75.093 438.404 77.9793 439.982 78.4854C441.56 78.9916 444.312 76.9259 446.129 73.8716C447.946 70.8173 448.14 67.931 446.563 67.4248C444.985 66.9187 442.233 68.9844 440.416 72.0387Z" fill="#6161DD"/>
<path d="M392.635 107.055C394.153 104.008 393.89 101.541 392.068 101.541C390.246 101.541 387.534 104.008 385.995 107.055C384.457 110.103 384.74 112.57 386.582 112.57C388.424 112.57 391.116 110.103 392.635 107.055Z" fill="#6161DD"/>
<path d="M486.924 80.938C487.673 79.4516 487.552 78.1732 486.641 78.1732C485.73 78.1732 484.374 79.407 483.625 80.938C482.876 82.4691 482.997 83.688 483.908 83.688C484.819 83.688 486.175 82.4542 486.924 80.938Z" fill="#6161DD"/>
<path d="M542.956 83.0934C543.725 81.6069 543.583 80.3434 542.672 80.3434C541.761 80.3434 540.405 81.5772 539.656 83.0934C538.907 84.6095 539.029 85.8582 539.94 85.8582C540.85 85.8582 542.207 84.6244 542.956 83.0934Z" fill="#6161DD"/>
<path d="M407.027 10.2567C407.776 8.77022 407.655 7.50671 406.744 7.50671C405.833 7.50671 404.477 8.74049 403.707 10.2567C402.938 11.7729 403.08 13.0215 403.991 13.0215C404.902 13.0215 406.258 11.7877 407.027 10.2567Z" fill="#6161DD"/>
<path d="M523.907 115.335C522.389 118.382 522.652 120.865 524.474 120.865C526.296 120.865 529.009 118.382 530.547 115.335C532.085 112.288 531.802 109.82 529.98 109.82C528.158 109.82 525.486 112.288 523.907 115.335Z" fill="#6161DD"/>
<path d="M511.317 159.186C509.819 162.233 510.062 164.7 511.904 164.7C513.746 164.7 516.418 162.233 517.976 159.186C519.535 156.138 519.231 153.656 517.41 153.656C515.588 153.656 512.754 156.138 511.317 159.186Z" fill="#6161DD"/>
<path d="M407.27 50.8519C405.752 53.9141 406.015 56.3816 407.837 56.3816C409.659 56.3816 412.371 53.9141 413.91 50.8519C415.448 47.7898 415.165 45.3372 413.343 45.3372C411.521 45.3372 408.768 47.8047 407.27 50.8519Z" fill="#6161DD"/>
<path d="M463.382 5.51477C461.864 8.56202 462.127 11.0295 463.949 11.0295C465.771 11.0295 468.483 8.56202 470.022 5.51477C471.56 2.46751 471.277 -4.76837e-06 469.435 -4.76837e-06C467.593 -4.76837e-06 464.88 2.40806 463.382 5.51477Z" fill="#6161DD"/>
<path d="M505.244 27.4698C503.726 30.5171 503.989 32.9846 505.811 32.9846C507.632 32.9846 510.345 30.5171 511.883 27.4698C513.422 24.4225 513.138 21.955 511.317 21.955C509.495 21.955 506.742 24.4225 505.244 27.4698Z" fill="#6161DD"/>
<path d="M629.735 205.697C631.254 202.724 630.99 200.182 629.169 200.182C627.347 200.182 624.634 202.65 623.096 205.697C621.557 208.744 621.841 211.212 623.663 211.212C625.485 211.212 628.238 208.744 629.735 205.697Z" fill="#6161DD"/>
<path d="M662.002 97.4081C664.654 92.0568 664.208 87.7164 661.01 87.7164C657.812 87.7164 653.055 92.0568 650.383 97.4081C647.711 102.759 648.197 107.1 651.395 107.1C654.593 107.1 659.35 102.759 662.002 97.4081Z" fill="#6161DD"/>
<path d="M670.18 143.013C670.929 141.526 670.808 140.263 669.897 140.263C668.986 140.263 667.629 141.497 666.86 143.013C666.091 144.529 666.233 145.778 667.144 145.778C668.055 145.778 669.411 144.544 670.18 143.013Z" fill="#6161DD"/>
<path d="M608.967 269.838C609.736 268.351 609.594 267.073 608.683 267.073C607.772 267.073 606.416 268.307 605.667 269.838C604.918 271.369 605.039 272.588 605.95 272.588C606.861 272.588 608.218 271.354 608.967 269.838Z" fill="#6161DD"/>
<path d="M548.138 186.284C546.64 189.257 546.883 191.799 548.705 191.799C550.526 191.799 553.239 189.331 554.777 186.284C556.316 183.237 556.032 180.769 554.211 180.769C552.389 180.769 549.656 183.237 548.138 186.284Z" fill="#6161DD"/>
<path d="M545.729 139.668C544.211 142.716 544.474 145.183 546.296 145.183C548.117 145.183 550.83 142.716 552.368 139.668C553.907 136.621 553.623 134.154 551.802 134.154C549.98 134.154 547.186 136.621 545.729 139.668Z" fill="#6161DD"/>
<path d="M433.889 237.047C432.371 240.094 432.634 242.576 434.456 242.576C436.277 242.576 438.99 240.094 440.528 237.047C442.067 233.999 441.783 231.532 439.941 231.532C438.099 231.532 435.407 233.999 433.889 237.047Z" fill="#6161DD"/>
<path d="M503.908 292.908C501.884 297.174 502.167 300.623 504.718 300.623C507.268 300.623 511.054 297.174 513.179 292.908C515.304 288.642 514.92 285.178 512.369 285.178C509.819 285.178 506.033 288.642 503.908 292.908Z" fill="#6161DD"/>
<path d="M463.382 164.21C461.864 167.257 462.127 169.725 463.949 169.725C465.771 169.725 468.483 167.257 470.022 164.21C471.56 161.163 471.277 158.695 469.435 158.695C467.593 158.695 464.88 161.163 463.382 164.21Z" fill="#6161DD"/>
<path d="M458.807 114.785C457.289 117.832 457.552 120.3 459.374 120.3C461.196 120.3 463.909 117.832 465.447 114.785C466.985 111.738 466.702 109.27 464.86 109.27C463.018 109.27 460.326 111.738 458.807 114.785Z" fill="#6161DD"/>
<path d="M493.098 197.417C491.6 200.465 491.843 202.947 493.665 202.947C495.487 202.947 498.199 200.465 499.738 197.417C501.276 194.37 500.993 191.903 499.171 191.903C497.349 191.903 494.556 194.296 493.098 197.417Z" fill="#6161DD"/>
<path d="M390.469 214.378C388.95 217.425 389.214 219.908 391.035 219.908C392.857 219.908 395.57 217.425 397.108 214.378C398.647 211.331 398.363 208.863 396.521 208.863C394.679 208.863 391.886 211.331 390.469 214.378Z" fill="#6161DD"/>
<path d="M386.015 181.587C384.517 184.634 384.76 187.101 386.602 187.101C388.445 187.101 391.137 184.634 392.675 181.587C394.214 178.539 393.93 176.072 392.108 176.072C390.287 176.072 387.534 178.539 386.015 181.587Z" fill="#6161DD"/>
<path d="M608.845 78.4557C610.343 75.4084 610.1 72.926 608.258 72.926C606.416 72.926 603.744 75.4084 602.185 78.4557C600.627 81.5029 600.93 83.9705 602.752 83.9705C604.574 83.9705 607.327 81.5029 608.845 78.4557Z" fill="#6161DD"/>
<path d="M437.533 193.122C439.557 188.856 439.294 185.392 436.723 185.392C434.152 185.392 430.387 188.856 428.282 193.122C426.177 197.388 426.521 200.836 429.071 200.836C431.622 200.836 435.407 197.373 437.533 193.122Z" fill="#6161DD"/>
<path d="M421.197 143.013C423.221 138.747 422.958 135.298 420.407 135.298C417.857 135.298 414.051 138.747 411.946 143.013C409.841 147.279 410.185 150.742 412.756 150.742C415.326 150.742 419.092 147.279 421.197 143.013Z" fill="#6161DD"/>
<path d="M604.169 180.234C602.651 183.281 602.914 185.749 604.736 185.749C606.558 185.749 609.27 183.281 610.809 180.234C612.347 177.187 612.064 174.719 610.222 174.719C608.379 174.719 605.687 177.187 604.169 180.234Z" fill="#6161DD"/>
<path d="M554.271 216.86C556.295 212.594 556.032 209.146 553.482 209.146C550.931 209.146 547.126 212.594 545.02 216.86C542.915 221.127 543.259 224.575 545.83 224.575C548.401 224.575 552.166 221.052 554.271 216.86Z" fill="#6161DD"/>
<path d="M601.861 123.124C602.61 121.637 602.489 120.374 601.578 120.374C600.667 120.374 599.311 121.608 598.562 123.124C597.813 124.64 597.934 125.889 598.845 125.889C599.756 125.889 601.112 124.655 601.861 123.124Z" fill="#6161DD"/>
<path d="M462.208 37.0129C460.285 40.8777 460.609 44.0142 462.937 44.0142C465.265 44.0142 468.686 40.8777 470.609 37.0129C472.532 33.1481 472.188 30.0117 469.88 30.0117C467.572 30.0117 464.131 33.1481 462.208 37.0129Z" fill="#6161DD"/>
<path d="M496.216 245.326C495.467 246.813 495.588 248.091 496.499 248.091C497.41 248.091 498.766 246.857 499.515 245.326C500.264 243.795 500.143 242.576 499.232 242.576C498.321 242.576 496.965 243.81 496.216 245.326Z" fill="#6161DD"/>
<path d="M663.136 223.549C661.617 226.522 661.881 229.064 663.702 229.064C665.524 229.064 668.237 226.597 669.775 223.549C671.314 220.502 671.03 218.02 669.208 218.02C667.387 218.02 664.573 220.502 663.136 223.549Z" fill="#6161DD"/>
<path d="M552.247 298.259C550.729 301.232 550.992 303.789 552.814 303.789C554.636 303.789 557.348 301.306 558.887 298.259C560.425 295.212 560.142 292.744 558.32 292.744C556.498 292.744 553.826 295.212 552.247 298.259Z" fill="#6161DD"/>
<path d="M581.72 225.422C580.222 228.47 580.465 230.937 582.307 230.937C584.149 230.937 586.841 228.47 588.38 225.422C589.918 222.375 589.635 219.908 587.813 219.908C585.991 219.908 583.238 222.375 581.72 225.422Z" fill="#6161DD"/>
<path d="M610.768 118.115C609.25 121.162 609.513 123.644 611.335 123.644C613.157 123.644 615.869 121.162 617.408 118.115C618.946 115.067 618.663 112.6 616.821 112.6C614.979 112.6 612.286 115.067 610.768 118.115Z" fill="#6161DD"/>
<path d="M390.469 246.961C388.95 249.934 389.214 252.476 391.035 252.476C392.857 252.476 395.57 250.009 397.108 246.961C398.647 243.914 398.363 241.447 396.521 241.447C394.679 241.447 391.886 243.914 390.469 246.961Z" fill="#6161DD"/>
<path d="M484.536 224.575C483.038 227.548 483.281 230.105 485.123 230.105C486.965 230.105 489.637 227.622 491.196 224.575C492.754 221.528 492.451 219.06 490.629 219.06C488.807 219.06 486.054 221.528 484.536 224.575Z" fill="#6161DD"/>
<path d="M727.183 139.668C728.701 136.621 728.438 134.154 726.616 134.154C724.794 134.154 722.082 136.621 720.543 139.668C719.005 142.716 719.288 145.183 721.11 145.183C722.932 145.183 725.685 142.716 727.183 139.668Z" fill="#6161DD"/>
<path d="M531.843 262.049C533.867 257.783 533.583 254.334 531.033 254.334C528.482 254.334 524.697 257.783 522.592 262.049C520.486 266.315 520.831 269.764 523.381 269.764C525.932 269.764 529.717 266.315 531.843 262.049Z" fill="#6161DD"/>
<path d="M703.196 241.447C701.698 244.494 701.941 246.961 703.762 246.961C705.584 246.961 708.297 244.494 709.835 241.447C711.374 238.399 711.09 235.932 709.268 235.932C707.446 235.932 704.714 238.399 703.196 241.447Z" fill="#6161DD"/>
<path d="M672.629 278.073C674.654 273.807 674.39 270.358 671.82 270.358C669.249 270.358 665.484 273.807 663.378 278.073C661.273 282.339 661.617 285.788 664.168 285.788C666.718 285.788 670.504 282.339 672.629 278.073Z" fill="#6161DD"/>
<path d="M708.155 202.947C708.924 201.461 708.782 200.182 707.872 200.182C706.961 200.182 705.604 201.416 704.855 202.947C704.106 204.478 704.228 205.697 705.139 205.697C706.05 205.697 707.406 204.463 708.155 202.947Z" fill="#6161DD"/>
<path d="M570.85 100.753C569.048 104.38 569.352 107.323 571.538 107.323C573.724 107.323 576.943 104.35 578.744 100.753C580.546 97.1553 580.242 94.1675 578.056 94.1675C575.87 94.1675 572.651 97.1107 570.85 100.753Z" fill="#6161DD"/>
<path d="M614.553 306.539C613.784 308.025 613.926 309.304 614.837 309.304C615.748 309.304 617.104 308.07 617.853 306.539C618.602 305.008 618.48 303.789 617.57 303.789C616.659 303.789 615.323 305.023 614.553 306.539Z" fill="#6161DD"/>
<path d="M1063.46 86.3937C1064.96 83.3316 1064.71 80.864 1062.87 80.864C1061.03 80.864 1058.36 83.3316 1056.8 86.3937C1055.24 89.4558 1055.54 91.9084 1057.37 91.9084C1059.19 91.9084 1061.94 89.4855 1063.46 86.3937Z" fill="#6161DD"/>
<path d="M1026.96 68.8682C1028.48 65.8953 1028.22 63.3386 1026.39 63.3386C1024.57 63.3386 1021.86 65.821 1020.32 68.8682C1018.78 71.9155 1019.07 74.3831 1020.89 74.3831C1022.71 74.3831 1025.46 71.9155 1026.96 68.8682Z" fill="#6161DD"/>
<path d="M1095.58 187.087C1094.07 190.06 1094.33 192.602 1096.15 192.602C1097.97 192.602 1100.68 190.134 1102.22 187.087C1103.76 184.04 1103.48 181.557 1101.66 181.557C1099.83 181.557 1097.08 184.04 1095.58 187.087Z" fill="#6161DD"/>
<path d="M1108.98 118.338C1107.49 121.311 1107.73 123.853 1109.57 123.853C1111.41 123.853 1114.11 121.385 1115.64 118.338C1117.18 115.291 1116.9 112.823 1115.08 112.823C1113.26 112.823 1110.5 115.291 1108.98 118.338Z" fill="#6161DD"/>
<path d="M1032.81 198.116C1031.29 201.164 1031.56 203.631 1033.38 203.631C1035.2 203.631 1037.91 201.164 1039.45 198.116C1040.99 195.069 1040.71 192.602 1038.86 192.602C1037.02 192.602 1034.33 195.069 1032.81 198.116Z" fill="#6161DD"/>
<path d="M1064.77 172.49C1066.8 168.223 1066.54 164.76 1063.97 164.76C1061.39 164.76 1057.63 168.223 1055.52 172.49C1053.42 176.756 1053.76 180.204 1056.31 180.204C1058.86 180.204 1062.65 176.756 1064.77 172.49Z" fill="#6161DD"/>
<path d="M897.997 68.8682C899.515 65.7614 899.252 63.2642 897.41 63.2642C895.567 63.2642 892.814 65.7614 891.337 68.8682C889.859 71.9749 890.061 74.4573 891.924 74.4573C893.786 74.4573 896.438 71.96 897.997 68.8682Z" fill="#6161DD"/>
<path d="M815.416 83.0536C813.599 86.1079 813.404 88.9942 814.982 89.5003C816.56 90.0065 819.312 87.9408 821.129 84.8865C822.946 81.8322 823.14 78.9459 821.563 78.4397C819.985 77.9336 817.233 79.9993 815.416 83.0536Z" fill="#6161DD"/>
<path d="M767.635 118.07C769.153 115.023 768.89 112.555 767.068 112.555C765.246 112.555 762.534 115.023 760.995 118.07C759.457 121.117 759.74 123.585 761.582 123.585C763.424 123.585 766.116 121.117 767.635 118.07Z" fill="#6161DD"/>
<path d="M861.924 91.9529C862.673 90.4664 862.552 89.1881 861.641 89.1881C860.73 89.1881 859.374 90.4219 858.625 91.9529C857.876 93.484 857.997 94.7029 858.908 94.7029C859.819 94.7029 861.175 93.4691 861.924 91.9529Z" fill="#6161DD"/>
<path d="M917.956 94.1082C918.725 92.6218 918.583 91.3583 917.672 91.3583C916.761 91.3583 915.405 92.592 914.656 94.1082C913.907 95.6244 914.029 96.873 914.94 96.873C915.85 96.873 917.207 95.6393 917.956 94.1082Z" fill="#6161DD"/>
<path d="M782.027 21.2716C782.776 19.7851 782.655 18.5216 781.744 18.5216C780.833 18.5216 779.477 19.7554 778.707 21.2716C777.938 22.7878 778.08 24.0364 778.991 24.0364C779.902 24.0364 781.258 22.8026 782.027 21.2716Z" fill="#6161DD"/>
<path d="M898.907 126.35C897.389 129.397 897.652 131.879 899.474 131.879C901.296 131.879 904.009 129.397 905.547 126.35C907.085 123.302 906.802 120.835 904.98 120.835C903.158 120.835 900.486 123.302 898.907 126.35Z" fill="#6161DD"/>
<path d="M886.317 170.201C884.819 173.248 885.062 175.715 886.904 175.715C888.746 175.715 891.418 173.248 892.976 170.201C894.535 167.153 894.231 164.671 892.41 164.671C890.588 164.671 887.754 167.153 886.317 170.201Z" fill="#6161DD"/>
<path d="M782.27 61.8668C780.752 64.929 781.015 67.3965 782.837 67.3965C784.659 67.3965 787.371 64.929 788.91 61.8668C790.448 58.8047 790.165 56.3521 788.343 56.3521C786.521 56.3521 783.768 58.8196 782.27 61.8668Z" fill="#6161DD"/>
<path d="M838.382 16.5297C836.864 19.5769 837.127 22.0444 838.949 22.0444C840.771 22.0444 843.483 19.5769 845.022 16.5297C846.56 13.4824 846.277 11.0149 844.435 11.0149C842.593 11.0149 839.88 13.4229 838.382 16.5297Z" fill="#6161DD"/>
<path d="M880.244 38.4847C878.726 41.5319 878.989 43.9995 880.811 43.9995C882.632 43.9995 885.345 41.5319 886.883 38.4847C888.422 35.4374 888.138 32.9699 886.317 32.9699C884.495 32.9699 881.742 35.4374 880.244 38.4847Z" fill="#6161DD"/>
<path d="M1004.74 216.712C1006.25 213.739 1005.99 211.197 1004.17 211.197C1002.35 211.197 999.634 213.665 998.096 216.712C996.557 219.759 996.841 222.227 998.663 222.227C1000.48 222.227 1003.24 219.759 1004.74 216.712Z" fill="#6161DD"/>
<path d="M1037 108.423C1039.65 103.072 1039.21 98.7313 1036.01 98.7313C1032.81 98.7313 1028.05 103.072 1025.38 108.423C1022.71 113.774 1023.2 118.115 1026.39 118.115C1029.59 118.115 1034.35 113.774 1037 108.423Z" fill="#6161DD"/>
<path d="M1045.18 154.028C1045.93 152.541 1045.81 151.278 1044.9 151.278C1043.99 151.278 1042.63 152.511 1041.86 154.028C1041.09 155.544 1041.23 156.792 1042.14 156.792C1043.05 156.792 1044.41 155.559 1045.18 154.028Z" fill="#6161DD"/>
<path d="M983.967 280.853C984.736 279.366 984.594 278.088 983.683 278.088C982.772 278.088 981.416 279.322 980.667 280.853C979.918 282.384 980.039 283.603 980.95 283.603C981.861 283.603 983.218 282.369 983.967 280.853Z" fill="#6161DD"/>
<path d="M923.138 197.299C921.64 200.272 921.883 202.813 923.705 202.813C925.526 202.813 928.239 200.346 929.777 197.299C931.316 194.251 931.032 191.784 929.211 191.784C927.389 191.784 924.656 194.251 923.138 197.299Z" fill="#6161DD"/>
<path d="M920.729 150.683C919.211 153.73 919.474 156.198 921.296 156.198C923.117 156.198 925.83 153.73 927.368 150.683C928.907 147.636 928.623 145.168 926.802 145.168C924.98 145.168 922.186 147.636 920.729 150.683Z" fill="#6161DD"/>
<path d="M808.889 248.061C807.371 251.109 807.634 253.591 809.456 253.591C811.277 253.591 813.99 251.109 815.528 248.061C817.067 245.014 816.783 242.547 814.941 242.547C813.099 242.547 810.407 245.014 808.889 248.061Z" fill="#6161DD"/>
<path d="M878.908 303.923C876.884 308.189 877.167 311.638 879.718 311.638C882.268 311.638 886.054 308.189 888.179 303.923C890.304 299.657 889.92 296.193 887.369 296.193C884.819 296.193 881.033 299.657 878.908 303.923Z" fill="#6161DD"/>
<path d="M838.382 175.225C836.864 178.272 837.127 180.74 838.949 180.74C840.771 180.74 843.483 178.272 845.022 175.225C846.56 172.177 846.277 169.71 844.435 169.71C842.593 169.71 839.88 172.177 838.382 175.225Z" fill="#6161DD"/>
<path d="M833.807 125.8C832.289 128.847 832.552 131.314 834.374 131.314C836.196 131.314 838.909 128.847 840.447 125.8C841.985 122.752 841.702 120.285 839.86 120.285C838.018 120.285 835.326 122.752 833.807 125.8Z" fill="#6161DD"/>
<path d="M868.098 208.432C866.6 211.48 866.843 213.962 868.665 213.962C870.487 213.962 873.199 211.48 874.738 208.432C876.276 205.385 875.993 202.917 874.171 202.917C872.349 202.917 869.556 205.311 868.098 208.432Z" fill="#6161DD"/>
<path d="M765.469 225.393C763.95 228.44 764.214 230.923 766.035 230.923C767.857 230.923 770.57 228.44 772.108 225.393C773.647 222.346 773.363 219.878 771.521 219.878C769.679 219.878 766.886 222.346 765.469 225.393Z" fill="#6161DD"/>
<path d="M761.015 192.601C759.517 195.649 759.76 198.116 761.602 198.116C763.445 198.116 766.137 195.649 767.675 192.601C769.214 189.554 768.93 187.087 767.108 187.087C765.287 187.087 762.534 189.554 761.015 192.601Z" fill="#6161DD"/>
<path d="M983.845 89.4706C985.343 86.4233 985.1 83.9409 983.258 83.9409C981.416 83.9409 978.744 86.4233 977.185 89.4706C975.627 92.5178 975.93 94.9854 977.752 94.9854C979.574 94.9854 982.327 92.5178 983.845 89.4706Z" fill="#6161DD"/>
<path d="M812.533 204.137C814.557 199.87 814.294 196.407 811.723 196.407C809.152 196.407 805.387 199.87 803.282 204.137C801.177 208.403 801.521 211.851 804.071 211.851C806.622 211.851 810.407 208.388 812.533 204.137Z" fill="#6161DD"/>
<path d="M796.197 154.028C798.221 149.762 797.958 146.313 795.407 146.313C792.857 146.313 789.051 149.762 786.946 154.028C784.841 158.294 785.185 161.757 787.756 161.757C790.326 161.757 794.092 158.294 796.197 154.028Z" fill="#6161DD"/>
<path d="M979.169 191.249C977.651 194.296 977.914 196.764 979.736 196.764C981.558 196.764 984.27 194.296 985.809 191.249C987.347 188.202 987.064 185.734 985.222 185.734C983.379 185.734 980.687 188.202 979.169 191.249Z" fill="#6161DD"/>
<path d="M929.271 227.875C931.295 223.609 931.032 220.161 928.482 220.161C925.931 220.161 922.126 223.609 920.02 227.875C917.915 232.141 918.259 235.59 920.83 235.59C923.401 235.59 927.166 232.067 929.271 227.875Z" fill="#6161DD"/>
<path d="M976.861 134.139C977.61 132.652 977.489 131.389 976.578 131.389C975.667 131.389 974.311 132.623 973.562 134.139C972.813 135.655 972.934 136.904 973.845 136.904C974.756 136.904 976.112 135.67 976.861 134.139Z" fill="#6161DD"/>
<path d="M837.208 48.0281C835.285 51.8929 835.609 55.0293 837.937 55.0293C840.265 55.0293 843.686 51.8929 845.609 48.0281C847.532 44.1632 847.188 41.0268 844.88 41.0268C842.572 41.0268 839.131 44.1632 837.208 48.0281Z" fill="#6161DD"/>
<path d="M871.216 256.341C870.467 257.828 870.588 259.106 871.499 259.106C872.41 259.106 873.766 257.872 874.515 256.341C875.264 254.81 875.143 253.591 874.232 253.591C873.321 253.591 871.965 254.825 871.216 256.341Z" fill="#6161DD"/>
<path d="M1038.14 234.564C1036.62 237.537 1036.88 240.079 1038.7 240.079C1040.52 240.079 1043.24 237.612 1044.78 234.564C1046.31 231.517 1046.03 229.035 1044.21 229.035C1042.39 229.035 1039.57 231.517 1038.14 234.564Z" fill="#6161DD"/>
<path d="M927.247 309.274C925.729 312.247 925.992 314.804 927.814 314.804C929.636 314.804 932.348 312.321 933.887 309.274C935.425 306.227 935.142 303.759 933.32 303.759C931.498 303.759 928.826 306.227 927.247 309.274Z" fill="#6161DD"/>
<path d="M956.72 236.437C955.222 239.485 955.465 241.952 957.307 241.952C959.149 241.952 961.841 239.485 963.38 236.437C964.918 233.39 964.635 230.923 962.813 230.923C960.991 230.923 958.238 233.39 956.72 236.437Z" fill="#6161DD"/>
<path d="M985.768 129.13C984.25 132.177 984.513 134.659 986.335 134.659C988.157 134.659 990.869 132.177 992.408 129.13C993.946 126.082 993.663 123.615 991.821 123.615C989.979 123.615 987.286 126.082 985.768 129.13Z" fill="#6161DD"/>
<path d="M765.469 257.976C763.95 260.949 764.214 263.491 766.035 263.491C767.857 263.491 770.57 261.023 772.108 257.976C773.647 254.929 773.363 252.461 771.521 252.461C769.679 252.461 766.886 254.929 765.469 257.976Z" fill="#6161DD"/>
<path d="M859.536 235.59C858.038 238.563 858.281 241.12 860.123 241.12C861.965 241.12 864.637 238.637 866.196 235.59C867.754 232.543 867.451 230.075 865.629 230.075C863.807 230.075 861.054 232.543 859.536 235.59Z" fill="#6161DD"/>
<path d="M1102.18 150.683C1103.7 147.636 1103.44 145.168 1101.62 145.168C1099.79 145.168 1097.08 147.636 1095.54 150.683C1094 153.73 1094.29 156.198 1096.11 156.198C1097.93 156.198 1100.68 153.73 1102.18 150.683Z" fill="#6161DD"/>
<path d="M906.843 273.064C908.867 268.798 908.583 265.349 906.033 265.349C903.482 265.349 899.697 268.798 897.592 273.064C895.486 277.33 895.831 280.779 898.381 280.779C900.932 280.779 904.717 277.33 906.843 273.064Z" fill="#6161DD"/>
<path d="M1078.2 252.462C1076.7 255.509 1076.94 257.976 1078.76 257.976C1080.58 257.976 1083.3 255.509 1084.84 252.462C1086.37 249.414 1086.09 246.947 1084.27 246.947C1082.45 246.947 1079.71 249.414 1078.2 252.462Z" fill="#6161DD"/>
<path d="M1047.63 289.088C1049.65 284.822 1049.39 281.373 1046.82 281.373C1044.25 281.373 1040.48 284.822 1038.38 289.088C1036.27 293.354 1036.62 296.803 1039.17 296.803C1041.72 296.803 1045.5 293.354 1047.63 289.088Z" fill="#6161DD"/>
<path d="M1083.15 213.962C1083.92 212.476 1083.78 211.197 1082.87 211.197C1081.96 211.197 1080.6 212.431 1079.86 213.962C1079.11 215.493 1079.23 216.712 1080.14 216.712C1081.05 216.712 1082.41 215.478 1083.15 213.962Z" fill="#6161DD"/>
<path d="M945.85 111.767C944.048 115.394 944.352 118.338 946.538 118.338C948.724 118.338 951.943 115.365 953.744 111.767C955.546 108.17 955.242 105.182 953.056 105.182C950.87 105.182 947.651 108.126 945.85 111.767Z" fill="#6161DD"/>
<path d="M989.553 317.554C988.784 319.04 988.926 320.319 989.837 320.319C990.748 320.319 992.104 319.085 992.853 317.554C993.602 316.023 993.48 314.804 992.57 314.804C991.659 314.804 990.323 316.038 989.553 317.554Z" fill="#6161DD"/>
<path d="M1438.46 46.0057C1439.96 42.9436 1439.71 40.4761 1437.87 40.4761C1436.03 40.4761 1433.36 42.9436 1431.8 46.0057C1430.24 49.0679 1430.54 51.5205 1432.37 51.5205C1434.19 51.5205 1436.94 49.0976 1438.46 46.0057Z" fill="#6161DD"/>
<path d="M1401.96 28.4803C1403.48 25.5074 1403.22 22.9506 1401.39 22.9506C1399.57 22.9506 1396.86 25.433 1395.32 28.4803C1393.78 31.5276 1394.07 33.9951 1395.89 33.9951C1397.71 33.9951 1400.46 31.5276 1401.96 28.4803Z" fill="#6161DD"/>
<path d="M1407.81 157.728C1406.29 160.776 1406.56 163.243 1408.38 163.243C1410.2 163.243 1412.91 160.776 1414.45 157.728C1415.99 154.681 1415.71 152.214 1413.86 152.214C1412.02 152.214 1409.33 154.681 1407.81 157.728Z" fill="#6161DD"/>
<path d="M1433.63 131.097C1435.65 126.831 1435.39 123.367 1432.82 123.367C1430.25 123.367 1426.48 126.831 1424.38 131.097C1422.27 135.363 1422.62 138.812 1425.17 138.812C1427.72 138.812 1431.5 135.363 1433.63 131.097Z" fill="#6161DD"/>
<path d="M1273 28.4802C1274.51 25.3735 1274.25 22.8763 1272.41 22.8763C1270.57 22.8763 1267.81 25.3735 1266.34 28.4802C1264.86 31.5869 1265.06 34.0693 1266.92 34.0693C1268.79 34.0693 1271.44 31.5721 1273 28.4802Z" fill="#6161DD"/>
<path d="M1190.42 42.6656C1188.6 45.7199 1188.4 48.6062 1189.98 49.1124C1191.56 49.6185 1194.31 47.5528 1196.13 44.4986C1197.95 41.4443 1198.14 38.5579 1196.56 38.0518C1194.98 37.5456 1192.23 39.6113 1190.42 42.6656Z" fill="#6161DD"/>
<path d="M1142.63 77.6822C1144.15 74.635 1143.89 72.1675 1142.07 72.1675C1140.25 72.1675 1137.53 74.635 1135.99 77.6822C1134.46 80.7295 1134.74 83.197 1136.58 83.197C1138.42 83.197 1141.12 80.7295 1142.63 77.6822Z" fill="#6161DD"/>
<path d="M1236.92 51.565C1237.67 50.0785 1237.55 48.8002 1236.64 48.8002C1235.73 48.8002 1234.37 50.0339 1233.62 51.565C1232.88 53.096 1233 54.3149 1233.91 54.3149C1234.82 54.3149 1236.18 53.0812 1236.92 51.565Z" fill="#6161DD"/>
<path d="M1292.96 53.7203C1293.72 52.2338 1293.58 50.9703 1292.67 50.9703C1291.76 50.9703 1290.41 52.2041 1289.66 53.7203C1288.91 55.2365 1289.03 56.4851 1289.94 56.4851C1290.85 56.4851 1292.21 55.2514 1292.96 53.7203Z" fill="#6161DD"/>
<path d="M1273.91 85.9618C1272.39 89.0091 1272.65 91.4915 1274.47 91.4915C1276.3 91.4915 1279.01 89.0091 1280.55 85.9618C1282.09 82.9146 1281.8 80.447 1279.98 80.447C1278.16 80.447 1275.49 82.9146 1273.91 85.9618Z" fill="#6161DD"/>
<path d="M1261.32 129.813C1259.82 132.86 1260.06 135.327 1261.9 135.327C1263.75 135.327 1266.42 132.86 1267.98 129.813C1269.54 126.765 1269.23 124.283 1267.41 124.283C1265.59 124.283 1262.75 126.765 1261.32 129.813Z" fill="#6161DD"/>
<path d="M1157.27 21.4789C1155.75 24.541 1156.01 27.0085 1157.84 27.0085C1159.66 27.0085 1162.37 24.541 1163.91 21.4789C1165.45 18.4168 1165.16 15.9641 1163.34 15.9641C1161.52 15.9641 1158.77 18.4316 1157.27 21.4789Z" fill="#6161DD"/>
<path d="M1379.74 176.324C1381.25 173.351 1380.99 170.809 1379.17 170.809C1377.35 170.809 1374.63 173.277 1373.1 176.324C1371.56 179.371 1371.84 181.839 1373.66 181.839C1375.48 181.839 1378.24 179.371 1379.74 176.324Z" fill="#6161DD"/>
<path d="M1412 68.0351C1414.65 62.6838 1414.21 58.3433 1411.01 58.3433C1407.81 58.3433 1403.05 62.6838 1400.38 68.0351C1397.71 73.3863 1398.2 77.7268 1401.39 77.7268C1404.59 77.7268 1409.35 73.3863 1412 68.0351Z" fill="#6161DD"/>
<path d="M1420.18 113.64C1420.93 112.153 1420.81 110.89 1419.9 110.89C1418.99 110.89 1417.63 112.124 1416.86 113.64C1416.09 115.156 1416.23 116.405 1417.14 116.405C1418.05 116.405 1419.41 115.171 1420.18 113.64Z" fill="#6161DD"/>
<path d="M1358.97 240.465C1359.74 238.978 1359.59 237.7 1358.68 237.7C1357.77 237.7 1356.42 238.934 1355.67 240.465C1354.92 241.996 1355.04 243.215 1355.95 243.215C1356.86 243.215 1358.22 241.981 1358.97 240.465Z" fill="#6161DD"/>
<path d="M1298.14 156.911C1296.64 159.884 1296.88 162.426 1298.7 162.426C1300.53 162.426 1303.24 159.958 1304.78 156.911C1306.32 153.863 1306.03 151.396 1304.21 151.396C1302.39 151.396 1299.66 153.863 1298.14 156.911Z" fill="#6161DD"/>
<path d="M1295.73 110.295C1294.21 113.343 1294.47 115.81 1296.3 115.81C1298.12 115.81 1300.83 113.343 1302.37 110.295C1303.91 107.248 1303.62 104.78 1301.8 104.78C1299.98 104.78 1297.19 107.248 1295.73 110.295Z" fill="#6161DD"/>
<path d="M1183.89 207.673C1182.37 210.721 1182.63 213.203 1184.46 213.203C1186.28 213.203 1188.99 210.721 1190.53 207.673C1192.07 204.626 1191.78 202.159 1189.94 202.159C1188.1 202.159 1185.41 204.626 1183.89 207.673Z" fill="#6161DD"/>
<path d="M1253.91 263.535C1251.88 267.801 1252.17 271.25 1254.72 271.25C1257.27 271.25 1261.05 267.801 1263.18 263.535C1265.3 259.269 1264.92 255.805 1262.37 255.805C1259.82 255.805 1256.03 259.269 1253.91 263.535Z" fill="#6161DD"/>
<path d="M1213.38 134.837C1211.86 137.884 1212.13 140.352 1213.95 140.352C1215.77 140.352 1218.48 137.884 1220.02 134.837C1221.56 131.79 1221.28 129.322 1219.43 129.322C1217.59 129.322 1214.88 131.79 1213.38 134.837Z" fill="#6161DD"/>
<path d="M1208.81 85.4117C1207.29 88.459 1207.55 90.9265 1209.37 90.9265C1211.2 90.9265 1213.91 88.459 1215.45 85.4117C1216.99 82.3645 1216.7 79.8969 1214.86 79.8969C1213.02 79.8969 1210.33 82.3645 1208.81 85.4117Z" fill="#6161DD"/>
<path d="M1243.1 168.044C1241.6 171.092 1241.84 173.574 1243.67 173.574C1245.49 173.574 1248.2 171.092 1249.74 168.044C1251.28 164.997 1250.99 162.53 1249.17 162.53C1247.35 162.53 1244.56 164.923 1243.1 168.044Z" fill="#6161DD"/>
<path d="M1140.47 185.005C1138.95 188.052 1139.21 190.535 1141.04 190.535C1142.86 190.535 1145.57 188.052 1147.11 185.005C1148.65 181.958 1148.36 179.49 1146.52 179.49C1144.68 179.49 1141.89 181.958 1140.47 185.005Z" fill="#6161DD"/>
<path d="M1136.02 152.213C1134.52 155.261 1134.76 157.728 1136.6 157.728C1138.44 157.728 1141.14 155.261 1142.68 152.213C1144.21 149.166 1143.93 146.699 1142.11 146.699C1140.29 146.699 1137.53 149.166 1136.02 152.213Z" fill="#6161DD"/>
<path d="M1358.85 49.0826C1360.34 46.0354 1360.1 43.553 1358.26 43.553C1356.42 43.553 1353.74 46.0354 1352.19 49.0826C1350.63 52.1299 1350.93 54.5974 1352.75 54.5974C1354.57 54.5974 1357.33 52.1299 1358.85 49.0826Z" fill="#6161DD"/>
<path d="M1187.53 163.749C1189.56 159.482 1189.29 156.019 1186.72 156.019C1184.15 156.019 1180.39 159.482 1178.28 163.749C1176.18 168.015 1176.52 171.463 1179.07 171.463C1181.62 171.463 1185.41 168 1187.53 163.749Z" fill="#6161DD"/>
<path d="M1171.2 113.64C1173.22 109.374 1172.96 105.925 1170.41 105.925C1167.86 105.925 1164.05 109.374 1161.95 113.64C1159.84 117.906 1160.18 121.369 1162.76 121.369C1165.33 121.369 1169.09 117.906 1171.2 113.64Z" fill="#6161DD"/>
<path d="M1354.17 150.861C1352.65 153.908 1352.91 156.376 1354.74 156.376C1356.56 156.376 1359.27 153.908 1360.81 150.861C1362.35 147.814 1362.06 145.346 1360.22 145.346C1358.38 145.346 1355.69 147.814 1354.17 150.861Z" fill="#6161DD"/>
<path d="M1304.27 187.487C1306.3 183.221 1306.03 179.773 1303.48 179.773C1300.93 179.773 1297.13 183.221 1295.02 187.487C1292.92 191.754 1293.26 195.202 1295.83 195.202C1298.4 195.202 1302.17 191.679 1304.27 187.487Z" fill="#6161DD"/>
<path d="M1351.86 93.7508C1352.61 92.2643 1352.49 91.0009 1351.58 91.0009C1350.67 91.0009 1349.31 92.2346 1348.56 93.7508C1347.81 95.267 1347.93 96.5156 1348.85 96.5156C1349.76 96.5156 1351.11 95.2819 1351.86 93.7508Z" fill="#6161DD"/>
<path d="M1212.21 7.63988C1210.29 11.5047 1210.61 14.6411 1212.94 14.6411C1215.26 14.6411 1218.69 11.5047 1220.61 7.63988C1222.53 3.77507 1222.19 0.638638 1219.88 0.638638C1217.57 0.638638 1214.13 3.77507 1212.21 7.63988Z" fill="#6161DD"/>
<path d="M1246.22 215.953C1245.47 217.44 1245.59 218.718 1246.5 218.718C1247.41 218.718 1248.77 217.484 1249.52 215.953C1250.26 214.422 1250.14 213.203 1249.23 213.203C1248.32 213.203 1246.96 214.437 1246.22 215.953Z" fill="#6161DD"/>
<path d="M1413.14 194.176C1411.62 197.149 1411.88 199.691 1413.7 199.691C1415.52 199.691 1418.24 197.224 1419.78 194.176C1421.31 191.129 1421.03 188.647 1419.21 188.647C1417.39 188.647 1414.57 191.129 1413.14 194.176Z" fill="#6161DD"/>
<path d="M1302.25 268.886C1300.73 271.859 1300.99 274.416 1302.81 274.416C1304.64 274.416 1307.35 271.933 1308.89 268.886C1310.42 265.839 1310.14 263.371 1308.32 263.371C1306.5 263.371 1303.83 265.839 1302.25 268.886Z" fill="#6161DD"/>
<path d="M1331.72 196.049C1330.22 199.097 1330.46 201.564 1332.31 201.564C1334.15 201.564 1336.84 199.097 1338.38 196.049C1339.92 193.002 1339.63 190.535 1337.81 190.535C1335.99 190.535 1333.24 193.002 1331.72 196.049Z" fill="#6161DD"/>
<path d="M1360.77 88.7416C1359.25 91.7888 1359.51 94.2712 1361.33 94.2712C1363.16 94.2712 1365.87 91.7888 1367.41 88.7416C1368.95 85.6943 1368.66 83.2268 1366.82 83.2268C1364.98 83.2268 1362.29 85.6943 1360.77 88.7416Z" fill="#6161DD"/>
<path d="M1140.47 217.588C1138.95 220.561 1139.21 223.103 1141.04 223.103C1142.86 223.103 1145.57 220.635 1147.11 217.588C1148.65 214.541 1148.36 212.073 1146.52 212.073C1144.68 212.073 1141.89 214.541 1140.47 217.588Z" fill="#6161DD"/>
<path d="M1234.54 195.202C1233.04 198.175 1233.28 200.732 1235.12 200.732C1236.96 200.732 1239.64 198.249 1241.2 195.202C1242.75 192.155 1242.45 189.687 1240.63 189.687C1238.81 189.687 1236.05 192.155 1234.54 195.202Z" fill="#6161DD"/>
<path d="M1281.84 232.676C1283.87 228.41 1283.58 224.961 1281.03 224.961C1278.48 224.961 1274.7 228.41 1272.59 232.676C1270.49 236.942 1270.83 240.391 1273.38 240.391C1275.93 240.391 1279.72 236.942 1281.84 232.676Z" fill="#6161DD"/>
<path d="M1422.63 248.7C1424.65 244.434 1424.39 240.985 1421.82 240.985C1419.25 240.985 1415.48 244.434 1413.38 248.7C1411.27 252.966 1411.62 256.415 1414.17 256.415C1416.72 256.415 1420.5 252.966 1422.63 248.7Z" fill="#6161DD"/>
<path d="M1320.85 71.3795C1319.05 75.0065 1319.35 77.9497 1321.54 77.9497C1323.72 77.9497 1326.94 74.9768 1328.74 71.3795C1330.55 67.7823 1330.24 64.7945 1328.06 64.7945C1325.87 64.7945 1322.65 67.7377 1320.85 71.3795Z" fill="#6161DD"/>
<path d="M1364.55 277.166C1363.78 278.652 1363.93 279.931 1364.84 279.931C1365.75 279.931 1367.1 278.697 1367.85 277.166C1368.6 275.635 1368.48 274.416 1367.57 274.416C1366.66 274.416 1365.32 275.65 1364.55 277.166Z" fill="#6161DD"/>
<path d="M1371.46 340.471C1372.96 337.409 1372.71 334.941 1370.87 334.941C1369.03 334.941 1366.36 337.409 1364.8 340.471C1363.24 343.533 1363.54 345.986 1365.37 345.986C1367.19 345.986 1369.94 343.563 1371.46 340.471Z" fill="#6161DD"/>
<path d="M1334.96 322.946C1336.48 319.973 1336.22 317.416 1334.4 317.416C1332.57 317.416 1329.86 319.898 1328.32 322.946C1326.78 325.993 1327.07 328.46 1328.89 328.46C1330.71 328.46 1333.46 325.993 1334.96 322.946Z" fill="#6161DD"/>
<path d="M1403.58 441.164C1402.07 444.137 1402.33 446.679 1404.15 446.679C1405.97 446.679 1408.68 444.211 1410.22 441.164C1411.76 438.117 1411.48 435.635 1409.66 435.635C1407.83 435.635 1405.08 438.117 1403.58 441.164Z" fill="#6161DD"/>
<path d="M1416.98 372.415C1415.49 375.388 1415.73 377.93 1417.57 377.93C1419.41 377.93 1422.11 375.462 1423.64 372.415C1425.18 369.368 1424.9 366.9 1423.08 366.9C1421.26 366.9 1418.5 369.368 1416.98 372.415Z" fill="#6161DD"/>
<path d="M1340.81 452.194C1339.29 455.241 1339.56 457.708 1341.38 457.708C1343.2 457.708 1345.91 455.241 1347.45 452.194C1348.99 449.146 1348.71 446.679 1346.86 446.679C1345.02 446.679 1342.33 449.146 1340.81 452.194Z" fill="#6161DD"/>
<path d="M1372.77 426.567C1374.8 422.301 1374.54 418.837 1371.97 418.837C1369.39 418.837 1365.63 422.301 1363.52 426.567C1361.42 430.833 1361.76 434.282 1364.31 434.282C1366.86 434.282 1370.65 430.833 1372.77 426.567Z" fill="#6161DD"/>
<path d="M1206 322.946C1207.51 319.839 1207.25 317.342 1205.41 317.342C1203.57 317.342 1200.81 319.839 1199.34 322.946C1197.86 326.052 1198.06 328.535 1199.92 328.535C1201.79 328.535 1204.44 326.037 1206 322.946Z" fill="#6161DD"/>
<path d="M1123.42 337.131C1121.6 340.185 1121.4 343.072 1122.98 343.578C1124.56 344.084 1127.31 342.018 1129.13 338.964C1130.95 335.91 1131.14 333.023 1129.56 332.517C1127.98 332.011 1125.23 334.077 1123.42 337.131Z" fill="#6161DD"/>
<path d="M1075.63 372.148C1077.15 369.1 1076.89 366.633 1075.07 366.633C1073.25 366.633 1070.53 369.1 1069 372.148C1067.46 375.195 1067.74 377.662 1069.58 377.662C1071.42 377.662 1074.12 375.195 1075.63 372.148Z" fill="#6161DD"/>
<path d="M1169.92 346.03C1170.67 344.544 1170.55 343.266 1169.64 343.266C1168.73 343.266 1167.37 344.499 1166.62 346.03C1165.88 347.561 1166 348.78 1166.91 348.78C1167.82 348.78 1169.18 347.546 1169.92 346.03Z" fill="#6161DD"/>
<path d="M1225.96 348.186C1226.72 346.699 1226.58 345.436 1225.67 345.436C1224.76 345.436 1223.41 346.67 1222.66 348.186C1221.91 349.702 1222.03 350.951 1222.94 350.951C1223.85 350.951 1225.21 349.717 1225.96 348.186Z" fill="#6161DD"/>
<path d="M1090.03 275.349C1090.78 273.863 1090.65 272.599 1089.74 272.599C1088.83 272.599 1087.48 273.833 1086.71 275.349C1085.94 276.865 1086.08 278.114 1086.99 278.114C1087.9 278.114 1089.26 276.88 1090.03 275.349Z" fill="#6161DD"/>
<path d="M1206.91 380.427C1205.39 383.474 1205.65 385.957 1207.47 385.957C1209.3 385.957 1212.01 383.474 1213.55 380.427C1215.09 377.38 1214.8 374.912 1212.98 374.912C1211.16 374.912 1208.49 377.38 1206.91 380.427Z" fill="#6161DD"/>
<path d="M1194.32 424.278C1192.82 427.325 1193.06 429.793 1194.9 429.793C1196.75 429.793 1199.42 427.325 1200.98 424.278C1202.54 421.231 1202.23 418.748 1200.41 418.748C1198.59 418.748 1195.75 421.231 1194.32 424.278Z" fill="#6161DD"/>
<path d="M1090.27 315.944C1088.75 319.007 1089.01 321.474 1090.84 321.474C1092.66 321.474 1095.37 319.007 1096.91 315.944C1098.45 312.882 1098.16 310.43 1096.34 310.43C1094.52 310.43 1091.77 312.897 1090.27 315.944Z" fill="#6161DD"/>
<path d="M1146.38 270.607C1144.86 273.654 1145.13 276.122 1146.95 276.122C1148.77 276.122 1151.48 273.654 1153.02 270.607C1154.56 267.56 1154.28 265.092 1152.43 265.092C1150.59 265.092 1147.88 267.5 1146.38 270.607Z" fill="#6161DD"/>
<path d="M1188.24 292.562C1186.73 295.61 1186.99 298.077 1188.81 298.077C1190.63 298.077 1193.34 295.61 1194.88 292.562C1196.42 289.515 1196.14 287.048 1194.32 287.048C1192.49 287.048 1189.74 289.515 1188.24 292.562Z" fill="#6161DD"/>
<path d="M1312.74 470.789C1314.25 467.816 1313.99 465.275 1312.17 465.275C1310.35 465.275 1307.63 467.742 1306.1 470.789C1304.56 473.837 1304.84 476.304 1306.66 476.304C1308.48 476.304 1311.24 473.837 1312.74 470.789Z" fill="#6161DD"/>
<path d="M1345 362.5C1347.65 357.149 1347.21 352.809 1344.01 352.809C1340.81 352.809 1336.05 357.149 1333.38 362.5C1330.71 367.852 1331.2 372.192 1334.39 372.192C1337.59 372.192 1342.35 367.852 1345 362.5Z" fill="#6161DD"/>
<path d="M1353.18 408.105C1353.93 406.619 1353.81 405.355 1352.9 405.355C1351.99 405.355 1350.63 406.589 1349.86 408.105C1349.09 409.621 1349.23 410.87 1350.14 410.87C1351.05 410.87 1352.41 409.636 1353.18 408.105Z" fill="#6161DD"/>
<path d="M1231.14 451.376C1229.64 454.349 1229.88 456.891 1231.7 456.891C1233.53 456.891 1236.24 454.423 1237.78 451.376C1239.32 448.329 1239.03 445.861 1237.21 445.861C1235.39 445.861 1232.66 448.329 1231.14 451.376Z" fill="#6161DD"/>
<path d="M1228.73 404.761C1227.21 407.808 1227.47 410.275 1229.3 410.275C1231.12 410.275 1233.83 407.808 1235.37 404.761C1236.91 401.713 1236.62 399.246 1234.8 399.246C1232.98 399.246 1230.19 401.713 1228.73 404.761Z" fill="#6161DD"/>
<path d="M1146.38 429.302C1144.86 432.349 1145.13 434.817 1146.95 434.817C1148.77 434.817 1151.48 432.349 1153.02 429.302C1154.56 426.255 1154.28 423.787 1152.43 423.787C1150.59 423.787 1147.88 426.255 1146.38 429.302Z" fill="#6161DD"/>
<path d="M1141.81 379.877C1140.29 382.925 1140.55 385.392 1142.37 385.392C1144.2 385.392 1146.91 382.925 1148.45 379.877C1149.99 376.83 1149.7 374.363 1147.86 374.363C1146.02 374.363 1143.33 376.83 1141.81 379.877Z" fill="#6161DD"/>
<path d="M1176.1 462.51C1174.6 465.557 1174.84 468.04 1176.67 468.04C1178.49 468.04 1181.2 465.557 1182.74 462.51C1184.28 459.463 1183.99 456.995 1182.17 456.995C1180.35 456.995 1177.56 459.388 1176.1 462.51Z" fill="#6161DD"/>
<path d="M1073.47 479.47C1071.95 482.518 1072.21 485 1074.04 485C1075.86 485 1078.57 482.518 1080.11 479.47C1081.65 476.423 1081.36 473.956 1079.52 473.956C1077.68 473.956 1074.89 476.423 1073.47 479.47Z" fill="#6161DD"/>
<path d="M1069.02 446.679C1067.52 449.726 1067.76 452.194 1069.6 452.194C1071.44 452.194 1074.14 449.726 1075.68 446.679C1077.21 443.632 1076.93 441.164 1075.11 441.164C1073.29 441.164 1070.53 443.632 1069.02 446.679Z" fill="#6161DD"/>
<path d="M1291.85 343.548C1293.34 340.501 1293.1 338.018 1291.26 338.018C1289.42 338.018 1286.74 340.501 1285.19 343.548C1283.63 346.595 1283.93 349.063 1285.75 349.063C1287.57 349.063 1290.33 346.595 1291.85 343.548Z" fill="#6161DD"/>
<path d="M1120.53 458.214C1122.56 453.948 1122.29 450.484 1119.72 450.484C1117.15 450.484 1113.39 453.948 1111.28 458.214C1109.18 462.48 1109.52 465.929 1112.07 465.929C1114.62 465.929 1118.41 462.465 1120.53 458.214Z" fill="#6161DD"/>
<path d="M1104.2 408.105C1106.22 403.839 1105.96 400.39 1103.41 400.39C1100.86 400.39 1097.05 403.839 1094.95 408.105C1092.84 412.371 1093.18 415.835 1095.76 415.835C1098.33 415.835 1102.09 412.371 1104.2 408.105Z" fill="#6161DD"/>
<path d="M1287.17 445.326C1285.65 448.374 1285.91 450.841 1287.74 450.841C1289.56 450.841 1292.27 448.374 1293.81 445.326C1295.35 442.279 1295.06 439.811 1293.22 439.811C1291.38 439.811 1288.69 442.279 1287.17 445.326Z" fill="#6161DD"/>
<path d="M1251.63 474.747C1253.65 470.481 1253.39 467.032 1250.84 467.032C1248.29 467.032 1244.48 470.481 1242.38 474.747C1240.27 479.013 1240.61 482.462 1243.18 482.462C1245.76 482.462 1249.52 478.939 1251.63 474.747Z" fill="#6161DD"/>
<path d="M1284.86 388.216C1285.61 386.73 1285.49 385.466 1284.58 385.466C1283.67 385.466 1282.31 386.7 1281.56 388.216C1280.81 389.733 1280.93 390.981 1281.85 390.981C1282.76 390.981 1284.11 389.747 1284.86 388.216Z" fill="#6161DD"/>
<path d="M1145.21 302.105C1143.29 305.97 1143.61 309.107 1145.94 309.107C1148.26 309.107 1151.69 305.97 1153.61 302.105C1155.53 298.241 1155.19 295.104 1152.88 295.104C1150.57 295.104 1147.13 298.241 1145.21 302.105Z" fill="#6161DD"/>
<path d="M1293.77 383.207C1292.25 386.254 1292.51 388.737 1294.33 388.737C1296.16 388.737 1298.87 386.254 1300.41 383.207C1301.95 380.16 1301.66 377.692 1299.82 377.692C1297.98 377.692 1295.29 380.16 1293.77 383.207Z" fill="#6161DD"/>
<path d="M1410.18 404.761C1411.7 401.713 1411.44 399.246 1409.62 399.246C1407.79 399.246 1405.08 401.713 1403.54 404.761C1402 407.808 1402.29 410.275 1404.11 410.275C1405.93 410.275 1408.68 407.808 1410.18 404.761Z" fill="#6161DD"/>
<path d="M1391.15 468.039C1391.92 466.553 1391.78 465.275 1390.87 465.275C1389.96 465.275 1388.6 466.508 1387.86 468.039C1387.11 469.57 1387.23 470.789 1388.14 470.789C1389.05 470.789 1390.41 469.556 1391.15 468.039Z" fill="#6161DD"/>
<path d="M1253.85 365.845C1252.05 369.472 1252.35 372.415 1254.54 372.415C1256.72 372.415 1259.94 369.442 1261.74 365.845C1263.55 362.248 1263.24 359.26 1261.06 359.26C1258.87 359.26 1255.65 362.203 1253.85 365.845Z" fill="#6161DD"/>
<path d="M1015.46 358.829C1016.96 355.767 1016.71 353.3 1014.87 353.3C1013.03 353.3 1010.36 355.767 1008.8 358.829C1007.24 361.891 1007.54 364.344 1009.37 364.344C1011.19 364.344 1013.94 361.921 1015.46 358.829Z" fill="#6161DD"/>
<path d="M978.962 341.304C980.48 338.331 980.217 335.774 978.395 335.774C976.573 335.774 973.861 338.257 972.322 341.304C970.784 344.351 971.067 346.819 972.889 346.819C974.711 346.819 977.464 344.351 978.962 341.304Z" fill="#6161DD"/>
<path d="M1047.58 459.522C1046.07 462.495 1046.33 465.037 1048.15 465.037C1049.97 465.037 1052.68 462.57 1054.22 459.522C1055.76 456.475 1055.48 453.993 1053.66 453.993C1051.83 453.993 1049.08 456.475 1047.58 459.522Z" fill="#6161DD"/>
<path d="M1060.98 390.773C1059.49 393.746 1059.73 396.288 1061.57 396.288C1063.41 396.288 1066.11 393.821 1067.64 390.773C1069.18 387.726 1068.9 385.259 1067.08 385.259C1065.26 385.259 1062.5 387.726 1060.98 390.773Z" fill="#6161DD"/>
<path d="M984.812 470.552C983.294 473.599 983.557 476.067 985.379 476.067C987.2 476.067 989.913 473.599 991.451 470.552C992.99 467.505 992.706 465.037 990.864 465.037C989.022 465.037 986.33 467.505 984.812 470.552Z" fill="#6161DD"/>
<path d="M1016.77 444.925C1018.8 440.659 1018.54 437.196 1015.97 437.196C1013.39 437.196 1009.63 440.659 1007.52 444.925C1005.42 449.192 1005.76 452.64 1008.31 452.64C1010.86 452.64 1014.65 449.192 1016.77 444.925Z" fill="#6161DD"/>
<path d="M849.997 341.304C851.515 338.197 851.252 335.7 849.41 335.7C847.567 335.7 844.814 338.197 843.337 341.304C841.859 344.41 842.061 346.893 843.924 346.893C845.786 346.893 848.438 344.396 849.997 341.304Z" fill="#6161DD"/>
<path d="M767.416 355.489C765.599 358.544 765.404 361.43 766.982 361.936C768.56 362.442 771.312 360.377 773.129 357.322C774.946 354.268 775.14 351.382 773.563 350.876C771.985 350.369 769.233 352.435 767.416 355.489Z" fill="#6161DD"/>
<path d="M719.635 390.506C721.153 387.458 720.89 384.991 719.068 384.991C717.246 384.991 714.534 387.458 712.995 390.506C711.457 393.553 711.74 396.021 713.582 396.021C715.424 396.021 718.116 393.553 719.635 390.506Z" fill="#6161DD"/>
<path d="M813.924 364.388C814.673 362.902 814.552 361.624 813.641 361.624C812.73 361.624 811.374 362.857 810.625 364.388C809.876 365.92 809.997 367.138 810.908 367.138C811.819 367.138 813.175 365.905 813.924 364.388Z" fill="#6161DD"/>
<path d="M869.956 366.544C870.725 365.058 870.583 363.794 869.672 363.794C868.761 363.794 867.405 365.028 866.656 366.544C865.907 368.06 866.029 369.309 866.94 369.309C867.85 369.309 869.207 368.075 869.956 366.544Z" fill="#6161DD"/>
<path d="M734.027 293.707C734.776 292.221 734.655 290.957 733.744 290.957C732.833 290.957 731.477 292.191 730.707 293.707C729.938 295.223 730.08 296.472 730.991 296.472C731.902 296.472 733.258 295.238 734.027 293.707Z" fill="#6161DD"/>
<path d="M850.907 398.785C849.389 401.833 849.652 404.315 851.474 404.315C853.296 404.315 856.009 401.833 857.547 398.785C859.085 395.738 858.802 393.27 856.98 393.27C855.158 393.27 852.486 395.738 850.907 398.785Z" fill="#6161DD"/>
<path d="M838.317 442.636C836.819 445.683 837.062 448.151 838.904 448.151C840.746 448.151 843.418 445.683 844.976 442.636C846.535 439.589 846.231 437.106 844.41 437.106C842.588 437.106 839.754 439.589 838.317 442.636Z" fill="#6161DD"/>
<path d="M734.27 334.303C732.752 337.365 733.015 339.832 734.837 339.832C736.659 339.832 739.371 337.365 740.91 334.303C742.448 331.241 742.165 328.788 740.343 328.788C738.521 328.788 735.768 331.255 734.27 334.303Z" fill="#6161DD"/>
<path d="M790.382 288.965C788.864 292.012 789.127 294.48 790.949 294.48C792.771 294.48 795.483 292.012 797.022 288.965C798.56 285.918 798.277 283.45 796.435 283.45C794.593 283.45 791.88 285.858 790.382 288.965Z" fill="#6161DD"/>
<path d="M832.244 310.92C830.726 313.968 830.989 316.435 832.811 316.435C834.632 316.435 837.345 313.968 838.883 310.92C840.422 307.873 840.138 305.406 838.317 305.406C836.495 305.406 833.742 307.873 832.244 310.92Z" fill="#6161DD"/>
<path d="M989.002 380.859C991.654 375.507 991.208 371.167 988.01 371.167C984.812 371.167 980.055 375.507 977.383 380.859C974.711 386.21 975.197 390.55 978.395 390.55C981.593 390.55 986.35 386.21 989.002 380.859Z" fill="#6161DD"/>
<path d="M997.18 426.463C997.929 424.977 997.808 423.713 996.897 423.713C995.986 423.713 994.629 424.947 993.86 426.463C993.091 427.98 993.233 429.228 994.144 429.228C995.055 429.228 996.411 427.995 997.18 426.463Z" fill="#6161DD"/>
<path d="M875.138 469.734C873.64 472.707 873.883 475.249 875.705 475.249C877.526 475.249 880.239 472.782 881.777 469.734C883.316 466.687 883.032 464.22 881.211 464.22C879.389 464.22 876.656 466.687 875.138 469.734Z" fill="#6161DD"/>
<path d="M872.729 423.119C871.211 426.166 871.474 428.634 873.296 428.634C875.117 428.634 877.83 426.166 879.368 423.119C880.907 420.071 880.623 417.604 878.802 417.604C876.98 417.604 874.186 420.071 872.729 423.119Z" fill="#6161DD"/>
<path d="M790.382 447.66C788.864 450.708 789.127 453.175 790.949 453.175C792.771 453.175 795.483 450.708 797.022 447.66C798.56 444.613 798.277 442.145 796.435 442.145C794.593 442.145 791.88 444.613 790.382 447.66Z" fill="#6161DD"/>
<path d="M785.807 398.235C784.289 401.283 784.552 403.75 786.374 403.75C788.196 403.75 790.909 401.283 792.447 398.235C793.985 395.188 793.702 392.721 791.86 392.721C790.018 392.721 787.326 395.188 785.807 398.235Z" fill="#6161DD"/>
<path d="M817.98 475.485C816.482 478.532 816.725 481.014 818.547 481.014C820.369 481.014 823.081 478.532 824.62 475.485C826.158 472.438 825.875 469.97 824.053 469.97C822.231 469.97 819.437 472.363 817.98 475.485Z" fill="#6161DD"/>
<path d="M713.015 465.037C711.517 468.084 711.76 470.552 713.602 470.552C715.445 470.552 718.137 468.084 719.675 465.037C721.214 461.99 720.93 459.522 719.108 459.522C717.287 459.522 714.534 461.99 713.015 465.037Z" fill="#6161DD"/>
<path d="M935.845 361.906C937.343 358.859 937.1 356.376 935.258 356.376C933.416 356.376 930.744 358.859 929.185 361.906C927.627 364.953 927.93 367.421 929.752 367.421C931.574 367.421 934.327 364.953 935.845 361.906Z" fill="#6161DD"/>
<path d="M764.533 476.572C766.557 472.306 766.294 468.842 763.723 468.842C761.152 468.842 757.387 472.306 755.282 476.572C753.177 480.838 753.521 484.287 756.071 484.287C758.622 484.287 762.407 480.823 764.533 476.572Z" fill="#6161DD"/>
<path d="M748.197 426.463C750.221 422.197 749.958 418.748 747.407 418.748C744.857 418.748 741.051 422.197 738.946 426.463C736.841 430.729 737.185 434.193 739.756 434.193C742.326 434.193 746.092 430.729 748.197 426.463Z" fill="#6161DD"/>
<path d="M931.169 463.684C929.651 466.732 929.914 469.199 931.736 469.199C933.558 469.199 936.27 466.732 937.809 463.684C939.347 460.637 939.064 458.17 937.222 458.17C935.379 458.17 932.687 460.637 931.169 463.684Z" fill="#6161DD"/>
<path d="M928.861 406.575C929.61 405.088 929.489 403.825 928.578 403.825C927.667 403.825 926.311 405.058 925.562 406.575C924.813 408.091 924.934 409.339 925.845 409.339C926.756 409.339 928.112 408.106 928.861 406.575Z" fill="#6161DD"/>
<path d="M789.208 320.464C787.285 324.328 787.609 327.465 789.937 327.465C792.265 327.465 795.686 324.328 797.609 320.464C799.532 316.599 799.188 313.462 796.88 313.462C794.572 313.462 791.131 316.599 789.208 320.464Z" fill="#6161DD"/>
<path d="M937.768 401.565C936.25 404.612 936.513 407.095 938.335 407.095C940.157 407.095 942.869 404.612 944.408 401.565C945.946 398.518 945.663 396.05 943.821 396.05C941.979 396.05 939.286 398.518 937.768 401.565Z" fill="#6161DD"/>
<path d="M1054.18 423.119C1055.7 420.071 1055.44 417.604 1053.62 417.604C1051.79 417.604 1049.08 420.071 1047.54 423.119C1046 426.166 1046.29 428.634 1048.11 428.634C1049.93 428.634 1052.68 426.166 1054.18 423.119Z" fill="#6161DD"/>
<path d="M897.85 384.203C896.048 387.83 896.352 390.773 898.538 390.773C900.724 390.773 903.943 387.801 905.744 384.203C907.546 380.606 907.242 377.618 905.056 377.618C902.87 377.618 899.651 380.561 897.85 384.203Z" fill="#6161DD"/>
<path d="M635.459 342.674C636.957 339.612 636.714 337.144 634.872 337.144C633.03 337.144 630.358 339.612 628.799 342.674C627.24 345.736 627.544 348.189 629.366 348.189C631.188 348.189 633.941 345.766 635.459 342.674Z" fill="#6161DD"/>
<path d="M598.962 325.149C600.48 322.176 600.217 319.619 598.395 319.619C596.573 319.619 593.861 322.101 592.322 325.149C590.784 328.196 591.067 330.663 592.889 330.663C594.711 330.663 597.464 328.196 598.962 325.149Z" fill="#6161DD"/>
<path d="M667.584 443.367C666.066 446.34 666.329 448.882 668.151 448.882C669.972 448.882 672.685 446.414 674.223 443.367C675.762 440.32 675.478 437.837 673.657 437.837C671.835 437.837 669.082 440.32 667.584 443.367Z" fill="#6161DD"/>
<path d="M680.984 374.618C679.486 377.591 679.729 380.133 681.571 380.133C683.414 380.133 686.106 377.665 687.644 374.618C689.183 371.571 688.899 369.103 687.077 369.103C685.256 369.103 682.503 371.571 680.984 374.618Z" fill="#6161DD"/>
<path d="M604.812 454.397C603.294 457.444 603.557 459.911 605.379 459.911C607.2 459.911 609.913 457.444 611.451 454.397C612.99 451.349 612.706 448.882 610.864 448.882C609.022 448.882 606.33 451.349 604.812 454.397Z" fill="#6161DD"/>
<path d="M636.775 428.77C638.799 424.504 638.536 421.04 635.965 421.04C633.394 421.04 629.629 424.504 627.524 428.77C625.419 433.036 625.763 436.485 628.313 436.485C630.864 436.485 634.649 433.036 636.775 428.77Z" fill="#6161DD"/>
<path d="M469.997 325.148C471.515 322.042 471.252 319.544 469.41 319.544C467.567 319.544 464.814 322.042 463.337 325.148C461.859 328.255 462.061 330.738 463.924 330.738C465.786 330.738 468.438 328.24 469.997 325.148Z" fill="#6161DD"/>
<path d="M387.416 339.334C385.599 342.388 385.404 345.275 386.982 345.781C388.56 346.287 391.312 344.221 393.129 341.167C394.946 338.113 395.14 335.226 393.563 334.72C391.985 334.214 389.233 336.28 387.416 339.334Z" fill="#6161DD"/>
<path d="M339.635 374.35C341.153 371.303 340.89 368.836 339.068 368.836C337.246 368.836 334.534 371.303 332.995 374.35C331.457 377.398 331.74 379.865 333.582 379.865C335.424 379.865 338.116 377.398 339.635 374.35Z" fill="#6161DD"/>
<path d="M433.924 348.233C434.673 346.747 434.552 345.468 433.641 345.468C432.73 345.468 431.374 346.702 430.625 348.233C429.876 349.764 429.997 350.983 430.908 350.983C431.819 350.983 433.175 349.749 433.924 348.233Z" fill="#6161DD"/>
<path d="M489.956 350.389C490.725 348.902 490.583 347.639 489.672 347.639C488.761 347.639 487.405 348.873 486.656 350.389C485.907 351.905 486.029 353.154 486.94 353.154C487.85 353.154 489.207 351.92 489.956 350.389Z" fill="#6161DD"/>
<path d="M354.027 277.552C354.776 276.065 354.655 274.802 353.744 274.802C352.833 274.802 351.477 276.036 350.707 277.552C349.938 279.068 350.08 280.317 350.991 280.317C351.902 280.317 353.258 279.083 354.027 277.552Z" fill="#6161DD"/>
<path d="M470.907 382.63C469.389 385.677 469.652 388.16 471.474 388.16C473.296 388.16 476.009 385.677 477.547 382.63C479.085 379.583 478.802 377.115 476.98 377.115C475.158 377.115 472.486 379.583 470.907 382.63Z" fill="#6161DD"/>
<path d="M458.317 426.481C456.819 429.528 457.062 431.996 458.904 431.996C460.746 431.996 463.418 429.528 464.976 426.481C466.535 423.434 466.231 420.951 464.41 420.951C462.588 420.951 459.754 423.434 458.317 426.481Z" fill="#6161DD"/>
<path d="M354.27 318.147C352.752 321.209 353.015 323.677 354.837 323.677C356.659 323.677 359.371 321.209 360.91 318.147C362.448 315.085 362.165 312.633 360.343 312.633C358.521 312.633 355.768 315.1 354.27 318.147Z" fill="#6161DD"/>
<path d="M410.382 272.81C408.864 275.857 409.127 278.325 410.949 278.325C412.771 278.325 415.483 275.857 417.022 272.81C418.56 269.763 418.277 267.295 416.435 267.295C414.593 267.295 411.88 269.703 410.382 272.81Z" fill="#6161DD"/>
<path d="M452.244 294.765C450.726 297.812 450.989 300.28 452.811 300.28C454.632 300.28 457.345 297.812 458.883 294.765C460.422 291.718 460.138 289.25 458.317 289.25C456.495 289.25 453.742 291.718 452.244 294.765Z" fill="#6161DD"/>
<path d="M576.735 472.992C578.254 470.019 577.99 467.478 576.169 467.478C574.347 467.478 571.634 469.945 570.096 472.992C568.557 476.04 568.841 478.507 570.663 478.507C572.485 478.507 575.238 476.04 576.735 472.992Z" fill="#6161DD"/>
<path d="M609.002 364.703C611.654 359.352 611.208 355.012 608.01 355.012C604.812 355.012 600.055 359.352 597.383 364.703C594.711 370.055 595.197 374.395 598.395 374.395C601.593 374.395 606.35 370.055 609.002 364.703Z" fill="#6161DD"/>
<path d="M617.18 410.308C617.929 408.822 617.808 407.558 616.897 407.558C615.986 407.558 614.629 408.792 613.86 410.308C613.091 411.824 613.233 413.073 614.144 413.073C615.055 413.073 616.411 411.839 617.18 410.308Z" fill="#6161DD"/>
<path d="M495.138 453.579C493.64 456.552 493.883 459.094 495.705 459.094C497.526 459.094 500.239 456.626 501.777 453.579C503.316 450.532 503.032 448.064 501.211 448.064C499.389 448.064 496.656 450.532 495.138 453.579Z" fill="#6161DD"/>
<path d="M492.729 406.963C491.211 410.011 491.474 412.478 493.296 412.478C495.117 412.478 497.83 410.011 499.368 406.963C500.907 403.916 500.623 401.449 498.802 401.449C496.98 401.449 494.186 403.916 492.729 406.963Z" fill="#6161DD"/>
<path d="M410.382 431.505C408.864 434.552 409.127 437.02 410.949 437.02C412.771 437.02 415.483 434.552 417.022 431.505C418.56 428.458 418.277 425.99 416.435 425.99C414.593 425.99 411.88 428.458 410.382 431.505Z" fill="#6161DD"/>
<path d="M405.807 382.08C404.289 385.127 404.552 387.595 406.374 387.595C408.196 387.595 410.909 385.127 412.447 382.08C413.985 379.033 413.702 376.565 411.86 376.565C410.018 376.565 407.326 379.033 405.807 382.08Z" fill="#6161DD"/>
<path d="M440.098 464.713C438.6 467.76 438.843 470.242 440.665 470.242C442.487 470.242 445.199 467.76 446.738 464.713C448.276 461.666 447.993 459.198 446.171 459.198C444.349 459.198 441.556 461.591 440.098 464.713Z" fill="#6161DD"/>
<path d="M338.988 474.016C337.47 477.063 337.733 479.545 339.555 479.545C341.377 479.545 344.09 477.063 345.628 474.016C347.166 470.969 346.883 468.501 345.041 468.501C343.199 468.501 340.405 470.969 338.988 474.016Z" fill="#6161DD"/>
<path d="M333.015 448.882C331.517 451.929 331.76 454.397 333.602 454.397C335.445 454.397 338.137 451.929 339.675 448.882C341.214 445.835 340.93 443.367 339.108 443.367C337.287 443.367 334.534 445.835 333.015 448.882Z" fill="#6161DD"/>
<path d="M555.845 345.751C557.343 342.704 557.1 340.221 555.258 340.221C553.416 340.221 550.744 342.704 549.185 345.751C547.627 348.798 547.93 351.266 549.752 351.266C551.574 351.266 554.327 348.798 555.845 345.751Z" fill="#6161DD"/>
<path d="M384.533 460.417C386.557 456.151 386.294 452.687 383.723 452.687C381.152 452.687 377.387 456.151 375.282 460.417C373.177 464.683 373.521 468.132 376.071 468.132C378.622 468.132 382.407 464.668 384.533 460.417Z" fill="#6161DD"/>
<path d="M368.197 410.308C370.221 406.042 369.958 402.593 367.407 402.593C364.857 402.593 361.051 406.042 358.946 410.308C356.841 414.574 357.185 418.038 359.756 418.038C362.326 418.038 366.092 414.574 368.197 410.308Z" fill="#6161DD"/>
<path d="M551.169 447.529C549.651 450.576 549.914 453.044 551.736 453.044C553.558 453.044 556.27 450.576 557.809 447.529C559.347 444.482 559.064 442.014 557.222 442.014C555.379 442.014 552.687 444.482 551.169 447.529Z" fill="#6161DD"/>
<path d="M513.626 474.747C515.65 470.481 515.387 467.032 512.837 467.032C510.286 467.032 506.481 470.481 504.375 474.747C502.27 479.013 502.614 482.462 505.185 482.462C507.756 482.462 511.521 478.939 513.626 474.747Z" fill="#6161DD"/>
<path d="M548.861 390.419C549.61 388.933 549.489 387.669 548.578 387.669C547.667 387.669 546.311 388.903 545.562 390.419C544.813 391.935 544.934 393.184 545.845 393.184C546.756 393.184 548.112 391.95 548.861 390.419Z" fill="#6161DD"/>
<path d="M409.208 304.308C407.285 308.173 407.609 311.31 409.937 311.31C412.265 311.31 415.686 308.173 417.609 304.308C419.532 300.444 419.188 297.307 416.88 297.307C414.572 297.307 411.131 300.444 409.208 304.308Z" fill="#6161DD"/>
<path d="M557.768 385.41C556.25 388.457 556.513 390.939 558.335 390.939C560.157 390.939 562.869 388.457 564.408 385.41C565.946 382.363 565.663 379.895 563.821 379.895C561.979 379.895 559.286 382.363 557.768 385.41Z" fill="#6161DD"/>
<path d="M674.183 406.963C675.701 403.916 675.438 401.449 673.616 401.449C671.794 401.449 669.082 403.916 667.543 406.963C666.005 410.011 666.288 412.478 668.11 412.478C669.932 412.478 672.685 410.011 674.183 406.963Z" fill="#6161DD"/>
<path d="M655.155 470.242C655.924 468.756 655.782 467.478 654.872 467.478C653.961 467.478 652.604 468.711 651.855 470.242C651.106 471.774 651.228 472.992 652.139 472.992C653.05 472.992 654.406 471.759 655.155 470.242Z" fill="#6161DD"/>
<path d="M517.85 368.048C516.048 371.675 516.352 374.618 518.538 374.618C520.724 374.618 523.943 371.645 525.744 368.048C527.546 364.451 527.242 361.463 525.056 361.463C522.87 361.463 519.651 364.406 517.85 368.048Z" fill="#6161DD"/>
<path d="M257.459 328.722C258.957 325.66 258.714 323.192 256.872 323.192C255.03 323.192 252.358 325.66 250.799 328.722C249.24 331.784 249.544 334.237 251.366 334.237C253.188 334.237 255.941 331.814 257.459 328.722Z" fill="#6161DD"/>
<path d="M220.962 311.196C222.48 308.223 222.217 305.667 220.395 305.667C218.573 305.667 215.861 308.149 214.322 311.196C212.784 314.244 213.067 316.711 214.889 316.711C216.711 316.711 219.464 314.244 220.962 311.196Z" fill="#6161DD"/>
<path d="M289.584 429.415C288.066 432.388 288.329 434.93 290.151 434.93C291.973 434.93 294.685 432.462 296.223 429.415C297.762 426.368 297.478 423.885 295.657 423.885C293.835 423.885 291.082 426.368 289.584 429.415Z" fill="#6161DD"/>
<path d="M302.984 360.666C301.486 363.639 301.729 366.181 303.571 366.181C305.414 366.181 308.106 363.713 309.644 360.666C311.183 357.619 310.899 355.151 309.077 355.151C307.256 355.151 304.503 357.619 302.984 360.666Z" fill="#6161DD"/>
<path d="M226.812 440.444C225.294 443.492 225.557 445.959 227.379 445.959C229.2 445.959 231.913 443.492 233.451 440.444C234.99 437.397 234.706 434.93 232.864 434.93C231.022 434.93 228.33 437.397 226.812 440.444Z" fill="#6161DD"/>
<path d="M258.775 414.818C260.799 410.552 260.536 407.088 257.965 407.088C255.394 407.088 251.629 410.552 249.524 414.818C247.419 419.084 247.763 422.532 250.313 422.532C252.864 422.532 256.649 419.084 258.775 414.818Z" fill="#6161DD"/>
<path d="M91.9966 311.196C93.5148 308.09 93.2516 305.592 91.4096 305.592C89.5675 305.592 86.8145 308.09 85.3368 311.196C83.8591 314.303 84.0615 316.785 85.9238 316.785C87.7861 316.785 90.4379 314.288 91.9966 311.196Z" fill="#6161DD"/>
<path d="M9.41578 325.382C7.59862 328.436 7.4045 331.322 8.98217 331.828C10.5598 332.335 13.3119 330.269 15.1291 327.215C16.9462 324.16 17.1403 321.274 15.5627 320.768C13.985 320.262 11.2329 322.327 9.41578 325.382Z" fill="#6161DD"/>
<path d="M55.9244 334.281C56.6734 332.795 56.5519 331.516 55.641 331.516C54.7301 331.516 53.3739 332.75 52.6249 334.281C51.8759 335.812 51.9973 337.031 52.9083 337.031C53.8192 337.031 55.1755 335.797 55.9244 334.281Z" fill="#6161DD"/>
<path d="M111.956 336.436C112.725 334.95 112.583 333.686 111.672 333.686C110.761 333.686 109.405 334.92 108.656 336.436C107.907 337.953 108.029 339.201 108.94 339.201C109.851 339.201 111.207 337.967 111.956 336.436Z" fill="#6161DD"/>
<path d="M92.9075 368.678C91.3893 371.725 91.6524 374.208 93.4743 374.208C95.2961 374.208 98.0086 371.725 99.547 368.678C101.085 365.631 100.802 363.163 98.9802 363.163C97.1584 363.163 94.4864 365.631 92.9075 368.678Z" fill="#6161DD"/>
<path d="M80.3167 412.529C78.8187 415.576 79.0616 418.043 80.9037 418.043C82.7458 418.043 85.4178 415.576 86.9765 412.529C88.5351 409.481 88.2315 406.999 86.4097 406.999C84.5879 406.999 81.7539 409.481 80.3167 412.529Z" fill="#6161DD"/>
<path d="M32.3823 258.858C30.8641 261.905 31.1273 264.373 32.9491 264.373C34.7709 264.373 37.4834 261.905 39.0219 258.858C40.5603 255.811 40.2769 253.343 38.4348 253.343C36.5927 253.343 33.8803 255.751 32.3823 258.858Z" fill="#6161DD"/>
<path d="M74.2439 280.813C72.7257 283.86 72.9889 286.328 74.8107 286.328C76.6325 286.328 79.345 283.86 80.8835 280.813C82.4219 277.766 82.1385 275.298 80.3167 275.298C78.4948 275.298 75.7419 277.766 74.2439 280.813Z" fill="#6161DD"/>
<path d="M198.735 459.04C200.254 456.067 199.991 453.525 198.169 453.525C196.347 453.525 193.634 455.993 192.096 459.04C190.558 462.087 190.841 464.555 192.663 464.555C194.485 464.555 197.238 462.087 198.735 459.04Z" fill="#6161DD"/>
<path d="M231.002 350.751C233.654 345.4 233.208 341.059 230.01 341.059C226.812 341.059 222.055 345.4 219.383 350.751C216.711 356.102 217.197 360.443 220.395 360.443C223.593 360.443 228.35 356.102 231.002 350.751Z" fill="#6161DD"/>
<path d="M239.18 396.356C239.929 394.869 239.808 393.606 238.897 393.606C237.986 393.606 236.629 394.84 235.86 396.356C235.091 397.872 235.233 399.121 236.144 399.121C237.055 399.121 238.411 397.887 239.18 396.356Z" fill="#6161DD"/>
<path d="M117.138 439.627C115.64 442.6 115.883 445.142 117.705 445.142C119.526 445.142 122.239 442.674 123.777 439.627C125.316 436.58 125.032 434.112 123.211 434.112C121.389 434.112 118.656 436.58 117.138 439.627Z" fill="#6161DD"/>
<path d="M114.729 393.011C113.211 396.059 113.474 398.526 115.296 398.526C117.118 398.526 119.83 396.059 121.368 393.011C122.907 389.964 122.623 387.497 120.802 387.497C118.98 387.497 116.186 389.964 114.729 393.011Z" fill="#6161DD"/>
<path d="M32.3823 417.553C30.8641 420.6 31.1273 423.068 32.9491 423.068C34.7709 423.068 37.4834 420.6 39.0219 417.553C40.5603 414.506 40.2769 412.038 38.4348 412.038C36.5927 412.038 33.8803 414.506 32.3823 417.553Z" fill="#6161DD"/>
<path d="M27.8075 368.128C26.2893 371.175 26.5524 373.643 28.3743 373.643C30.1961 373.643 32.9086 371.175 34.447 368.128C35.9855 365.081 35.7021 362.613 33.86 362.613C32.0179 362.613 29.3257 365.081 27.8075 368.128Z" fill="#6161DD"/>
<path d="M62.0984 450.761C60.6004 453.808 60.8434 456.29 62.6652 456.29C64.487 456.29 67.1995 453.808 68.7379 450.761C70.2764 447.713 69.993 445.246 68.1712 445.246C66.3493 445.246 63.5559 447.639 62.0984 450.761Z" fill="#6161DD"/>
<path d="M177.845 331.799C179.343 328.751 179.1 326.269 177.258 326.269C175.416 326.269 172.744 328.751 171.185 331.799C169.627 334.846 169.93 337.313 171.752 337.313C173.574 337.313 176.327 334.846 177.845 331.799Z" fill="#6161DD"/>
<path d="M17.6278 443.186C19.6521 438.92 19.3889 435.457 16.8181 435.457C14.2473 435.457 10.4823 438.92 8.37703 443.186C6.27181 447.452 6.6159 450.901 9.16646 450.901C11.717 450.901 15.5024 447.437 17.6278 443.186Z" fill="#6161DD"/>
<path d="M173.169 433.577C171.651 436.624 171.914 439.092 173.736 439.092C175.558 439.092 178.27 436.624 179.809 433.577C181.347 430.53 181.064 428.062 179.222 428.062C177.379 428.062 174.687 430.53 173.169 433.577Z" fill="#6161DD"/>
<path d="M123.271 470.203C125.295 465.937 125.032 462.489 122.482 462.489C119.931 462.489 116.126 465.937 114.02 470.203C111.915 474.47 112.259 477.918 114.83 477.918C117.401 477.918 121.166 474.395 123.271 470.203Z" fill="#6161DD"/>
<path d="M170.861 376.467C171.61 374.98 171.489 373.717 170.578 373.717C169.667 373.717 168.311 374.951 167.562 376.467C166.813 377.983 166.934 379.232 167.845 379.232C168.756 379.232 170.112 377.998 170.861 376.467Z" fill="#6161DD"/>
<path d="M31.2082 290.356C29.2851 294.221 29.6091 297.357 31.937 297.357C34.2648 297.357 37.6858 294.221 39.6089 290.356C41.5319 286.491 41.1878 283.355 38.8801 283.355C36.5725 283.355 33.1312 286.491 31.2082 290.356Z" fill="#6161DD"/>
<path d="M232.136 476.892C230.617 479.865 230.881 482.407 232.702 482.407C234.524 482.407 237.237 479.94 238.775 476.892C240.314 473.845 240.03 471.363 238.208 471.363C236.387 471.363 233.573 473.845 232.136 476.892Z" fill="#6161DD"/>
<path d="M150.72 478.766C149.222 481.813 149.465 484.28 151.307 484.28C153.149 484.28 155.841 481.813 157.38 478.766C158.918 475.718 158.635 473.251 156.813 473.251C154.991 473.251 152.238 475.718 150.72 478.766Z" fill="#6161DD"/>
<path d="M179.768 371.458C178.25 374.505 178.513 376.987 180.335 376.987C182.157 376.987 184.869 374.505 186.408 371.458C187.946 368.41 187.663 365.943 185.821 365.943C183.979 365.943 181.286 368.41 179.768 371.458Z" fill="#6161DD"/>
<path d="M53.5358 477.918C52.0378 480.891 52.2808 483.448 54.1228 483.448C55.9649 483.448 58.6369 480.965 60.1956 477.918C61.7543 474.871 61.4506 472.403 59.6288 472.403C57.807 472.403 55.054 474.871 53.5358 477.918Z" fill="#6161DD"/>
<path d="M296.183 393.011C297.701 389.964 297.438 387.497 295.616 387.497C293.794 387.497 291.082 389.964 289.543 393.011C288.005 396.059 288.288 398.526 290.11 398.526C291.932 398.526 294.685 396.059 296.183 393.011Z" fill="#6161DD"/>
<path d="M277.155 456.29C277.924 454.804 277.782 453.525 276.872 453.525C275.961 453.525 274.604 454.759 273.855 456.29C273.106 457.821 273.228 459.04 274.139 459.04C275.05 459.04 276.406 457.806 277.155 456.29Z" fill="#6161DD"/>
<path d="M139.85 354.096C138.048 357.723 138.352 360.666 140.538 360.666C142.724 360.666 145.943 357.693 147.744 354.096C149.546 350.498 149.242 347.511 147.056 347.511C144.87 347.511 141.651 350.454 139.85 354.096Z" fill="#6161DD"/>
<path d="M732.431 2.43091C743.681 35.314 758.314 59.1814 790.575 74.8079C815.863 87.0565 846.062 89.6209 873.703 91.4637C896.438 92.9793 916.508 91.0448 938.358 85.1042C965.338 77.7685 994.125 74.8005 1021.79 70.8711C1062.7 65.0602 1111.21 72.9961 1145.34 97.2175C1164.77 111.006 1178.71 130.827 1195.69 147.261C1207.88 159.063 1221.09 169.202 1235.97 177.392C1267.06 194.512 1299.78 205.11 1335.37 206.692C1372.02 208.32 1414.36 203.312 1442.42 231.372" stroke="#6E6CE5" stroke-width="1.5" stroke-linecap="round"/>
<path d="M755 -15C766.249 17.8831 780.883 41.7505 813.144 57.377C838.431 69.6256 868.63 72.19 896.271 74.0328C919.006 75.5484 939.077 73.6139 960.926 67.6733C987.906 60.3376 1016.69 57.3696 1044.36 53.4402C1085.27 47.6293 1133.78 55.5652 1167.91 79.7866C1187.34 93.5754 1201.28 113.396 1218.26 129.83C1230.45 141.632 1243.66 151.771 1258.53 159.962C1289.63 177.081 1322.35 187.679 1357.94 189.261C1394.59 190.889 1436.93 185.881 1464.99 213.941" stroke="#6E6CE5" stroke-width="1.5" stroke-linecap="round"/>
<path d="M777.569 -32.4309C788.818 0.452187 803.451 24.3195 835.712 39.9461C861 52.1947 891.199 54.7591 918.84 56.6019C941.575 58.1175 961.645 56.183 983.495 50.2424C1010.48 42.9067 1039.26 39.9387 1066.93 36.0093C1107.83 30.1983 1156.35 38.1343 1190.48 62.3557C1209.91 76.1445 1223.85 95.965 1240.83 112.399C1253.02 124.201 1266.23 134.34 1281.1 142.531C1312.2 159.65 1344.92 170.248 1380.51 171.83C1417.15 173.458 1459.5 168.45 1487.56 196.511" stroke="#6E6CE5" stroke-width="1.5" stroke-linecap="round"/>
<path d="M800.137 -49.8618C811.387 -16.9787 826.02 6.88864 858.281 22.5152C883.568 34.7638 913.767 37.3282 941.409 39.171C964.143 40.6866 984.214 38.7521 1006.06 32.8115C1033.04 25.4758 1061.83 22.5078 1089.49 18.5784C1130.4 12.7674 1178.92 20.7033 1213.05 44.9248C1232.48 58.7136 1246.42 78.5341 1263.4 94.9679C1275.59 106.77 1288.8 116.909 1303.67 125.1C1334.77 142.219 1367.48 152.817 1403.08 154.399C1439.72 156.027 1482.07 151.02 1510.13 179.08" stroke="#6E6CE5" stroke-width="1.5" stroke-linecap="round"/>
<path d="M822.706 -67.2927C833.955 -34.4096 848.588 -10.5423 880.85 5.08427C906.137 17.3329 936.336 19.8973 963.977 21.7401C986.712 23.2557 1006.78 21.3212 1028.63 15.3806C1055.61 8.04492 1084.4 5.07688 1112.06 1.14745C1152.97 -4.66347 1201.49 3.27244 1235.62 27.4939C1255.05 41.2827 1268.99 61.1032 1285.96 77.537C1298.16 89.3389 1311.36 99.4781 1326.24 107.669C1357.34 124.788 1390.05 135.386 1425.65 136.968C1462.29 138.597 1504.64 133.589 1532.7 161.649" stroke="#6E6CE5" stroke-width="1.5" stroke-linecap="round"/>
<path d="M845.274 -84.7236C856.524 -51.8405 871.157 -27.9732 903.418 -12.3466C928.706 -0.0980358 958.905 2.4664 986.546 4.30916C1009.28 5.82481 1029.35 3.89028 1051.2 -2.05033C1078.18 -9.38599 1106.97 -12.354 1134.63 -16.2835C1175.54 -22.0944 1224.06 -14.1585 1258.19 10.063C1277.62 23.8518 1291.56 43.6723 1308.53 60.1061C1320.72 71.908 1333.93 82.0472 1348.81 90.2379C1379.9 107.357 1412.62 117.955 1448.21 119.537C1484.86 121.166 1527.21 116.158 1555.27 144.218" stroke="#6E6CE5" stroke-width="1.5" stroke-linecap="round"/>
<path d="M867.843 -102.155C879.092 -69.2714 893.726 -45.4041 925.987 -29.7775C951.274 -17.5289 981.473 -14.9645 1009.11 -13.1217C1031.85 -11.6061 1051.92 -13.5406 1073.77 -19.4812C1100.75 -26.8169 1129.54 -29.7849 1157.2 -33.7144C1198.11 -39.5253 1246.63 -31.5894 1280.76 -7.36793C1300.19 6.4209 1314.13 26.2413 1331.1 42.6752C1343.29 54.4771 1356.5 64.6162 1371.38 72.807C1402.47 89.9264 1435.19 100.524 1470.78 102.106C1507.43 103.735 1549.77 98.7268 1577.83 126.787" stroke="#6E6CE5" stroke-width="1.5" stroke-linecap="round"/>
<path d="M890.412 -119.585C901.661 -86.7024 916.294 -62.835 948.555 -47.2085C973.843 -34.9599 1004.04 -32.3954 1031.68 -30.5527C1054.42 -29.037 1074.49 -30.9715 1096.34 -36.9121C1123.32 -44.2478 1152.1 -47.2158 1179.77 -51.1453C1220.68 -56.9562 1269.19 -49.0203 1303.32 -24.7988C1322.75 -11.01 1336.69 8.81043 1353.67 25.2442C1365.86 37.0462 1379.07 47.1853 1393.95 55.3761C1425.04 72.4954 1457.76 83.0933 1493.35 84.6752C1530 86.3038 1572.34 81.2959 1600.4 109.356" stroke="#6E6CE5" stroke-width="1.5" stroke-linecap="round"/>
<path d="M912.98 -137.016C924.23 -104.133 938.863 -80.2659 971.124 -64.6394C996.412 -52.3908 1026.61 -49.8263 1054.25 -47.9836C1076.99 -46.4679 1097.06 -48.4024 1118.91 -54.3431C1145.89 -61.6787 1174.67 -64.6467 1202.34 -68.5762C1243.25 -74.3871 1291.76 -66.4512 1325.89 -42.2297C1345.32 -28.4409 1359.26 -8.62047 1376.24 7.81334C1388.43 19.6153 1401.64 29.7544 1416.52 37.9452C1447.61 55.0645 1480.33 65.6624 1515.92 67.2442C1552.57 68.8729 1594.91 63.865 1622.97 91.9251" stroke="#6E6CE5" stroke-width="1.5" stroke-linecap="round"/>
<path d="M935.549 -154.447C946.798 -121.564 961.431 -97.6968 993.693 -82.0703C1018.98 -69.8217 1049.18 -67.2572 1076.82 -65.4145C1099.55 -63.8988 1119.63 -65.8334 1141.48 -71.774C1168.46 -79.1096 1197.24 -82.0777 1224.91 -86.0071C1265.81 -91.818 1314.33 -83.8821 1348.46 -59.6607C1367.89 -45.8718 1381.83 -26.0514 1398.81 -9.61757C1411 2.1844 1424.21 12.3235 1439.08 20.5143C1470.18 37.6336 1502.9 48.2315 1538.49 49.8133C1575.13 51.442 1617.48 46.4341 1645.54 74.4942" stroke="#6E6CE5" stroke-width="1.5" stroke-linecap="round"/>
<path d="M-78.0269 150.644C-23.8748 146.776 38.8028 160.227 82.2473 193.798C127.427 228.709 154.421 277.197 178.245 327.953C188.025 348.788 198.556 368.841 219.128 380.797C242.166 394.186 267.116 396.62 293.17 397.226C307.777 397.565 323.219 398.351 337.762 396.62C361.271 393.821 382.967 390.34 406.808 393.819C431.962 397.489 457.122 400.192 481.154 408.809C502.676 416.527 521.806 423.254 544.9 424.253C570.576 425.365 595.089 427.311 620.608 430.764C633.666 432.532 649.886 431.363 661.036 439.092C670.971 445.979 680.969 452.555 689.654 461.047C691.558 462.909 693.838 464.364 694.651 466.801" stroke="#6E6CE5" stroke-width="1.5" stroke-linecap="round"/>
<path d="M-99.3985 163.278C-45.2464 159.41 17.4311 172.861 60.8757 206.432C106.055 241.343 133.05 289.831 156.874 340.587C166.653 361.422 177.184 381.475 197.756 393.431C220.794 406.821 245.744 409.254 271.799 409.86C286.405 410.199 301.848 410.985 316.391 409.254C339.899 406.455 361.595 402.974 385.436 406.453C410.59 410.123 435.75 412.826 459.782 421.443C481.305 429.161 500.435 435.888 523.528 436.888C549.205 437.999 573.718 439.945 599.236 443.399C612.295 445.166 628.514 443.997 639.664 451.726C649.6 458.613 659.597 465.19 668.282 473.682C670.186 475.543 672.466 476.998 673.279 479.436" stroke="#6E6CE5" stroke-width="1.5" stroke-linecap="round"/>
<path d="M-120.77 175.913C-66.618 172.045 -3.94053 185.495 39.504 219.066C84.6833 253.978 111.678 302.466 135.502 353.221C145.282 374.056 155.813 394.109 176.384 406.065C199.422 419.455 224.373 421.888 250.427 422.494C265.034 422.834 280.476 423.62 295.019 421.888C318.528 419.09 340.223 415.608 364.065 419.087C389.219 422.758 414.379 425.46 438.41 434.077C459.933 441.795 479.063 448.522 502.157 449.522C527.833 450.633 552.346 452.579 577.865 456.033C590.923 457.8 607.142 456.631 618.293 464.361C628.228 471.247 638.225 477.824 646.91 486.316C648.814 488.177 651.095 489.632 651.907 492.07" stroke="#6E6CE5" stroke-width="1.5" stroke-linecap="round"/>
<path d="M-142.142 188.547C-87.9897 184.679 -25.3122 198.13 18.1324 231.701C63.3116 266.612 90.3062 315.1 114.13 365.855C123.91 386.691 134.441 406.744 155.013 418.7C178.051 432.089 203.001 434.522 229.055 435.128C243.662 435.468 259.104 436.254 273.647 434.523C297.156 431.724 318.852 428.242 342.693 431.721C367.847 435.392 393.007 438.094 417.039 446.712C438.561 454.429 457.691 461.156 480.785 462.156C506.461 463.268 530.974 465.213 556.493 468.667C569.551 470.434 585.771 469.266 596.921 476.995C606.856 483.882 616.854 490.458 625.539 498.95C627.443 500.812 629.723 502.267 630.536 504.704" stroke="#6E6CE5" stroke-width="1.5" stroke-linecap="round"/>
<path d="M-163.513 201.181C-109.361 197.313 -46.6838 210.764 -3.23927 244.335C41.94 279.246 68.9346 327.734 92.7587 378.49C102.538 399.325 113.07 419.378 133.641 431.334C156.679 444.724 181.629 447.157 207.684 447.763C222.291 448.102 237.733 448.888 252.276 447.157C275.784 444.358 297.48 440.877 321.322 444.356C346.476 448.026 371.636 450.729 395.667 459.346C417.19 467.064 436.32 473.791 459.413 474.79C485.09 475.902 509.603 477.848 535.121 481.301C548.18 483.069 564.399 481.9 575.55 489.629C585.485 496.516 595.482 503.092 604.167 511.585C606.071 513.446 608.351 514.901 609.164 517.338" stroke="#6E6CE5" stroke-width="1.5" stroke-linecap="round"/>
<path d="M-184.885 213.815C-130.733 209.947 -68.0555 223.398 -24.6109 256.969C20.5684 291.88 47.563 340.368 71.387 391.124C81.1669 411.959 91.6979 432.012 112.269 443.968C135.307 457.358 160.258 459.791 186.312 460.397C200.919 460.737 216.361 461.523 230.904 459.791C254.413 456.993 276.108 453.511 299.95 456.99C325.104 460.661 350.264 463.363 374.295 471.98C395.818 479.698 414.948 486.425 438.042 487.425C463.718 488.536 488.231 490.482 513.75 493.936C526.808 495.703 543.027 494.534 554.178 502.264C564.113 509.15 574.11 515.727 582.796 524.219C584.699 526.08 586.98 527.535 587.792 529.973" stroke="#6E6CE5" stroke-width="1.5" stroke-linecap="round"/>
<path d="M-206.257 226.45C-152.105 222.582 -89.4271 236.033 -45.9826 269.603C-0.803288 304.515 26.1913 353.003 50.0154 403.758C59.7952 424.594 70.3262 444.646 90.8978 456.603C113.936 469.992 138.886 472.425 164.94 473.031C179.547 473.371 194.989 474.157 209.532 472.426C233.041 469.627 254.737 466.145 278.578 469.624C303.732 473.295 328.892 475.997 352.924 484.615C374.446 492.332 393.576 499.059 416.67 500.059C442.347 501.171 466.859 503.116 492.378 506.57C505.436 508.337 521.656 507.168 532.806 514.898C542.741 521.785 552.739 528.361 561.424 536.853C563.328 538.715 565.608 540.169 566.421 542.607" stroke="#6E6CE5" stroke-width="1.5" stroke-linecap="round"/>
<path d="M-227.628 239.084C-173.476 235.216 -110.799 248.667 -67.3542 282.238C-22.1749 317.149 4.81967 365.637 28.6437 416.392C38.4236 437.228 48.9546 457.281 69.5261 469.237C92.5641 482.626 117.514 485.06 143.569 485.665C158.176 486.005 173.618 486.791 188.161 485.06C211.669 482.261 233.365 478.78 257.207 482.259C282.361 485.929 307.521 488.631 331.552 497.249C353.075 504.966 372.205 511.694 395.298 512.693C420.975 513.805 445.488 515.751 471.006 519.204C484.065 520.971 500.284 519.803 511.435 527.532C521.37 534.419 531.367 540.995 540.052 549.487C541.956 551.349 544.237 552.804 545.049 555.241" stroke="#6E6CE5" stroke-width="1.5" stroke-linecap="round"/>
<path d="M-249 251.718C-194.848 247.85 -132.17 261.301 -88.7258 294.872C-43.5466 329.783 -16.552 378.271 7.27208 429.027C17.0519 449.862 27.583 469.915 48.1545 481.871C71.1925 495.261 96.1427 497.694 122.197 498.3C136.804 498.639 152.246 499.425 166.789 497.694C190.298 494.895 211.994 491.414 235.835 494.893C260.989 498.563 286.149 501.266 310.18 509.883C331.703 517.601 350.833 524.328 373.927 525.328C399.603 526.439 424.116 528.385 449.635 531.838C462.693 533.606 478.912 532.437 490.063 540.166C499.998 547.053 509.995 553.63 518.681 562.122C520.584 563.983 522.865 565.438 523.677 567.876" stroke="#6E6CE5" stroke-width="1.5" stroke-linecap="round"/>
</g>
<defs>
<clipPath id="clip0_30_916">
<rect width="1440" height="485" fill="white"/>
</clipPath>
</defs>
</svg>
