<svg width="372" height="190" viewBox="0 0 372 190" fill="none" xmlns="http://www.w3.org/2000/svg">
<path d="M126.654 19.8066L125.27 21.2031L116.739 14.0811L125.27 6.95898L126.654 8.36816L119.735 14.0557L126.654 19.8066ZM141.571 21H139.362V12.8623C139.362 11.8805 139.176 11.1484 138.804 10.666C138.44 10.1751 137.915 9.92969 137.229 9.92969C136.933 9.92969 136.654 9.97201 136.391 10.0566C136.138 10.1328 135.871 10.2725 135.592 10.4756C135.312 10.6702 135.008 10.9368 134.678 11.2754C134.348 11.6139 133.967 12.0371 133.535 12.5449V21H131.326V3.06152H133.535V8.25391L133.459 10.2598C133.806 9.84505 134.144 9.49805 134.474 9.21875C134.813 8.93099 135.147 8.69824 135.477 8.52051C135.816 8.34277 136.159 8.21582 136.506 8.13965C136.853 8.06348 137.212 8.02539 137.585 8.02539C138.854 8.02539 139.836 8.41471 140.53 9.19336C141.224 9.96354 141.571 11.1273 141.571 12.6846V21ZM155.891 20.8223C155.392 20.9492 154.876 21.0381 154.343 21.0889C153.809 21.1481 153.268 21.1777 152.718 21.1777C151.118 21.1777 149.925 20.818 149.138 20.0986C148.35 19.3708 147.957 18.2578 147.957 16.7598V10.1074H144.39V8.25391H147.957V4.75L150.166 4.17871V8.25391H155.891V10.1074H150.166V16.582C150.166 17.4961 150.407 18.1816 150.89 18.6387C151.38 19.0872 152.1 19.3115 153.048 19.3115C153.454 19.3115 153.898 19.2819 154.381 19.2227C154.863 19.1549 155.367 19.0534 155.891 18.918V20.8223ZM169.006 21V11.8467C169.006 11.4489 168.989 11.123 168.955 10.8691C168.93 10.6152 168.883 10.4163 168.815 10.2725C168.756 10.1201 168.676 10.0143 168.574 9.95508C168.481 9.89583 168.363 9.86621 168.219 9.86621C168.049 9.86621 167.893 9.91699 167.749 10.0186C167.605 10.1201 167.448 10.2852 167.279 10.5137C167.118 10.7422 166.936 11.0469 166.733 11.4277C166.539 11.8001 166.306 12.2614 166.035 12.8115V21H164.016V12.0879C164.016 11.6224 164 11.2458 163.966 10.958C163.94 10.6702 163.894 10.446 163.826 10.2852C163.767 10.1243 163.686 10.0143 163.585 9.95508C163.483 9.89583 163.361 9.86621 163.217 9.86621C163.064 9.86621 162.92 9.90853 162.785 9.99316C162.65 10.0778 162.497 10.2301 162.328 10.4502C162.167 10.6702 161.985 10.9707 161.782 11.3516C161.579 11.7324 161.338 12.2191 161.058 12.8115V21H159.027V8.25391H160.716L160.817 10.6787C161.037 10.1963 161.249 9.78581 161.452 9.44727C161.664 9.10872 161.879 8.83789 162.099 8.63477C162.32 8.42318 162.552 8.27083 162.798 8.17773C163.052 8.07617 163.331 8.02539 163.636 8.02539C164.321 8.02539 164.842 8.24967 165.197 8.69824C165.553 9.14681 165.73 9.84082 165.73 10.7803C165.933 10.3402 166.132 9.95085 166.327 9.6123C166.522 9.2653 166.729 8.97754 166.949 8.74902C167.178 8.51204 167.427 8.33431 167.698 8.21582C167.969 8.08887 168.282 8.02539 168.638 8.02539C170.237 8.02539 171.037 9.25684 171.037 11.7197V21H169.006ZM178.553 4.87695H174.782V3.06152H180.787V19.1592H184.583V21H174.363V19.1592H178.553V4.87695ZM189.128 8.36816L190.499 6.95898L199.03 14.0811L190.499 21.2031L189.128 19.8066L196.047 14.1064L189.128 8.36816Z" fill="white" fill-opacity="0.3"/>
<path d="M39.6874 143.422C38.979 143.693 38.2499 143.891 37.4999 144.016C36.7603 144.151 35.9947 144.219 35.203 144.219C32.7238 144.219 30.8124 143.547 29.4686 142.203C28.1353 140.859 27.4686 138.896 27.4686 136.312C27.4686 135.073 27.6613 133.948 28.0468 132.938C28.4322 131.927 28.9738 131.062 29.6718 130.344C30.3697 129.625 31.203 129.073 32.1718 128.688C33.1405 128.292 34.2082 128.094 35.3749 128.094C36.1874 128.094 36.9478 128.151 37.6561 128.266C38.3645 128.38 39.0415 128.568 39.6874 128.828V131.422C39.0103 131.068 38.3176 130.812 37.6093 130.656C36.9113 130.49 36.1874 130.406 35.4374 130.406C34.7395 130.406 34.078 130.542 33.453 130.812C32.8384 131.073 32.2968 131.453 31.828 131.953C31.3593 132.453 30.9895 133.062 30.7186 133.781C30.4478 134.5 30.3124 135.312 30.3124 136.219C30.3124 138.115 30.7707 139.536 31.6874 140.484C32.6145 141.422 33.8957 141.891 35.5311 141.891C36.2707 141.891 36.9843 141.807 37.6718 141.641C38.3697 141.474 39.0415 141.224 39.6874 140.891V143.422ZM58.7499 136.031C58.7499 137.25 58.578 138.37 58.2343 139.391C57.8905 140.401 57.3957 141.271 56.7499 142C56.104 142.719 55.3176 143.281 54.3905 143.688C53.4634 144.083 52.4113 144.281 51.2343 144.281C50.1093 144.281 49.0988 144.109 48.203 143.766C47.3176 143.411 46.5624 142.896 45.9374 142.219C45.3228 141.542 44.8488 140.703 44.5155 139.703C44.1926 138.703 44.0311 137.552 44.0311 136.25C44.0311 135.031 44.203 133.922 44.5468 132.922C44.8905 131.911 45.3853 131.047 46.0311 130.328C46.677 129.599 47.4634 129.036 48.3905 128.641C49.3176 128.234 50.3697 128.031 51.5468 128.031C52.6718 128.031 53.677 128.208 54.5624 128.562C55.4582 128.906 56.2134 129.417 56.828 130.094C57.453 130.76 57.927 131.594 58.2499 132.594C58.5832 133.594 58.7499 134.74 58.7499 136.031ZM55.9686 136.156C55.9686 135.188 55.8593 134.344 55.6405 133.625C55.4322 132.896 55.1301 132.292 54.7343 131.812C54.3384 131.323 53.854 130.958 53.2811 130.719C52.7186 130.469 52.0884 130.344 51.3905 130.344C50.578 130.344 49.8801 130.505 49.2968 130.828C48.7238 131.141 48.2499 131.562 47.8749 132.094C47.5103 132.625 47.2395 133.245 47.0624 133.953C46.8957 134.651 46.8124 135.385 46.8124 136.156C46.8124 137.125 46.9165 137.974 47.1249 138.703C47.3436 139.432 47.6509 140.042 48.0468 140.531C48.4426 141.01 48.9218 141.375 49.4843 141.625C50.0468 141.865 50.6822 141.984 51.3905 141.984C52.203 141.984 52.8957 141.828 53.4686 141.516C54.052 141.193 54.5259 140.766 54.8905 140.234C55.2655 139.703 55.5363 139.089 55.703 138.391C55.8801 137.682 55.9686 136.938 55.9686 136.156ZM68.0311 124.156H63.3905V121.922H70.7811V141.734H75.453V144H62.8749V141.734H68.0311V124.156ZM93.9374 136.031C93.9374 137.25 93.7655 138.37 93.4218 139.391C93.078 140.401 92.5832 141.271 91.9374 142C91.2915 142.719 90.5051 143.281 89.578 143.688C88.6509 144.083 87.5988 144.281 86.4218 144.281C85.2968 144.281 84.2863 144.109 83.3905 143.766C82.5051 143.411 81.7499 142.896 81.1249 142.219C80.5103 141.542 80.0363 140.703 79.703 139.703C79.3801 138.703 79.2186 137.552 79.2186 136.25C79.2186 135.031 79.3905 133.922 79.7343 132.922C80.078 131.911 80.5728 131.047 81.2186 130.328C81.8645 129.599 82.6509 129.036 83.578 128.641C84.5051 128.234 85.5572 128.031 86.7343 128.031C87.8593 128.031 88.8645 128.208 89.7499 128.562C90.6457 128.906 91.4009 129.417 92.0155 130.094C92.6405 130.76 93.1145 131.594 93.4374 132.594C93.7707 133.594 93.9374 134.74 93.9374 136.031ZM91.1561 136.156C91.1561 135.188 91.0468 134.344 90.828 133.625C90.6197 132.896 90.3176 132.292 89.9218 131.812C89.5259 131.323 89.0415 130.958 88.4686 130.719C87.9061 130.469 87.2759 130.344 86.578 130.344C85.7655 130.344 85.0676 130.505 84.4843 130.828C83.9113 131.141 83.4374 131.562 83.0624 132.094C82.6978 132.625 82.427 133.245 82.2499 133.953C82.0832 134.651 81.9999 135.385 81.9999 136.156C81.9999 137.125 82.104 137.974 82.3124 138.703C82.5311 139.432 82.8384 140.042 83.2343 140.531C83.6301 141.01 84.1093 141.375 84.6718 141.625C85.2343 141.865 85.8697 141.984 86.578 141.984C87.3905 141.984 88.0832 141.828 88.6561 141.516C89.2395 141.193 89.7134 140.766 90.078 140.234C90.453 139.703 90.7238 139.089 90.8905 138.391C91.0676 137.682 91.1561 136.938 91.1561 136.156ZM98.5155 128.312H101L101.078 131.203C102.005 130.089 102.917 129.281 103.812 128.781C104.719 128.281 105.63 128.031 106.547 128.031C108.172 128.031 109.401 128.557 110.234 129.609C111.078 130.661 111.469 132.224 111.406 134.297H108.656C108.687 132.922 108.484 131.927 108.047 131.312C107.62 130.688 106.989 130.375 106.156 130.375C105.792 130.375 105.422 130.443 105.047 130.578C104.682 130.703 104.302 130.911 103.906 131.203C103.521 131.484 103.109 131.849 102.672 132.297C102.234 132.745 101.766 133.286 101.266 133.922V144H98.5155V128.312ZM121.766 128.031C122.088 128.031 122.396 128.099 122.687 128.234C122.979 128.359 123.234 128.531 123.453 128.75C123.672 128.969 123.844 129.224 123.969 129.516C124.104 129.807 124.172 130.115 124.172 130.438C124.172 130.771 124.104 131.083 123.969 131.375C123.844 131.656 123.672 131.906 123.453 132.125C123.234 132.344 122.979 132.516 122.687 132.641C122.396 132.766 122.088 132.828 121.766 132.828C121.432 132.828 121.12 132.766 120.828 132.641C120.547 132.516 120.297 132.344 120.078 132.125C119.859 131.906 119.687 131.656 119.562 131.375C119.437 131.083 119.375 130.771 119.375 130.438C119.375 130.115 119.437 129.807 119.562 129.516C119.687 129.224 119.859 128.969 120.078 128.75C120.297 128.531 120.547 128.359 120.828 128.234C121.12 128.099 121.432 128.031 121.766 128.031ZM121.766 139.484C122.088 139.484 122.396 139.552 122.687 139.688C122.979 139.812 123.234 139.984 123.453 140.203C123.672 140.422 123.844 140.677 123.969 140.969C124.104 141.26 124.172 141.568 124.172 141.891C124.172 142.224 124.104 142.536 123.969 142.828C123.844 143.109 123.672 143.359 123.453 143.578C123.234 143.797 122.979 143.969 122.687 144.094C122.396 144.219 122.088 144.281 121.766 144.281C121.432 144.281 121.12 144.219 120.828 144.094C120.547 143.969 120.297 143.797 120.078 143.578C119.859 143.359 119.687 143.109 119.562 142.828C119.437 142.536 119.375 142.224 119.375 141.891C119.375 141.568 119.437 141.26 119.562 140.969C119.687 140.677 119.859 140.422 120.078 140.203C120.297 139.984 120.547 139.812 120.828 139.688C121.12 139.552 121.432 139.484 121.766 139.484ZM146.656 138.266H143.172L142.594 144H140.281L140.859 138.266H136.875L136.297 144H133.984L134.562 138.266H131.234V136.234H134.766L135.328 130.766H132.031V128.734H135.531L136.062 123.578H138.344L137.828 128.734H141.828L142.359 123.578H144.672L144.125 128.734H147.484V130.766H143.922L143.375 136.234H146.656V138.266ZM141.078 136.234L141.625 130.766H137.625L137.078 136.234H141.078ZM164.578 124.453C163.151 124.151 161.922 124 160.891 124C158.443 124 157.219 125.281 157.219 127.844V130.594H164.094V132.859H157.219V144H154.453V132.859H149.406V130.594H154.453V128C154.453 123.823 156.63 121.734 160.984 121.734C162.068 121.734 163.266 121.859 164.578 122.109V124.453ZM182.172 124.453C180.745 124.151 179.516 124 178.484 124C176.036 124 174.812 125.281 174.812 127.844V130.594H181.687V132.859H174.812V144H172.047V132.859H167V130.594H172.047V128C172.047 123.823 174.224 121.734 178.578 121.734C179.661 121.734 180.859 121.859 182.172 122.109V124.453ZM199.766 124.453C198.338 124.151 197.109 124 196.078 124C193.63 124 192.406 125.281 192.406 127.844V130.594H199.281V132.859H192.406V144H189.641V132.859H184.594V130.594H189.641V128C189.641 123.823 191.818 121.734 196.172 121.734C197.255 121.734 198.453 121.859 199.766 122.109V124.453ZM204.844 147.203C205.375 147.224 205.891 147.177 206.391 147.062C206.891 146.948 207.328 146.776 207.703 146.547C208.088 146.328 208.396 146.052 208.625 145.719C208.854 145.385 208.969 145.005 208.969 144.578C208.969 144.141 208.891 143.786 208.734 143.516C208.588 143.245 208.422 142.995 208.234 142.766C208.047 142.536 207.875 142.292 207.719 142.031C207.573 141.771 207.5 141.422 207.5 140.984C207.5 140.766 207.542 140.536 207.625 140.297C207.708 140.057 207.833 139.839 208 139.641C208.177 139.443 208.396 139.281 208.656 139.156C208.927 139.031 209.245 138.969 209.609 138.969C209.974 138.969 210.323 139.047 210.656 139.203C211 139.349 211.297 139.578 211.547 139.891C211.807 140.203 212.01 140.594 212.156 141.062C212.312 141.531 212.391 142.083 212.391 142.719C212.391 143.583 212.229 144.411 211.906 145.203C211.594 146.005 211.12 146.714 210.484 147.328C209.859 147.943 209.073 148.432 208.125 148.797C207.187 149.161 206.094 149.344 204.844 149.344V147.203ZM209.734 128.031C210.057 128.031 210.364 128.099 210.656 128.234C210.948 128.359 211.203 128.531 211.422 128.75C211.641 128.969 211.812 129.224 211.937 129.516C212.073 129.807 212.141 130.115 212.141 130.438C212.141 130.771 212.073 131.083 211.937 131.375C211.812 131.656 211.641 131.906 211.422 132.125C211.203 132.344 210.948 132.516 210.656 132.641C210.364 132.766 210.057 132.828 209.734 132.828C209.401 132.828 209.088 132.766 208.797 132.641C208.516 132.516 208.266 132.344 208.047 132.125C207.828 131.906 207.656 131.656 207.531 131.375C207.406 131.083 207.344 130.771 207.344 130.438C207.344 130.115 207.406 129.807 207.531 129.516C207.656 129.224 207.828 128.969 208.047 128.75C208.266 128.531 208.516 128.359 208.797 128.234C209.088 128.099 209.401 128.031 209.734 128.031Z" fill="white" fill-opacity="0.3"/>
<path d="M153.264 60.6055H152.252C150.493 60.6055 149.185 60.1908 148.328 59.3613C147.471 58.541 147.043 57.2923 147.043 55.6152V50.9121C147.043 50.4655 146.993 50.069 146.892 49.7227C146.792 49.3672 146.614 49.071 146.359 48.834C146.113 48.5879 145.78 48.401 145.361 48.2734C144.951 48.1458 144.432 48.082 143.803 48.082H143.215V46.1816H143.803C144.468 46.1816 145.01 46.127 145.43 46.0176C145.849 45.9082 146.177 45.7441 146.414 45.5254C146.651 45.2975 146.815 45.0104 146.906 44.6641C146.997 44.3177 147.043 43.9076 147.043 43.4336V40.1934C147.043 39.4277 147.134 38.7396 147.316 38.1289C147.499 37.5091 147.795 36.985 148.205 36.5566C148.624 36.1191 149.162 35.7865 149.818 35.5586C150.484 35.3216 151.295 35.2031 152.252 35.2031H153.264V37.1172H152.457C150.342 37.1172 149.285 38.1426 149.285 40.1934V43.3789C149.285 45.6029 148.323 46.8561 146.4 47.1387C148.342 47.3301 149.312 48.5788 149.312 50.8848V55.5605C149.312 57.6478 150.361 58.6914 152.457 58.6914H153.264V60.6055ZM169.615 55H167.236V46.2363C167.236 45.179 167.036 44.3906 166.635 43.8711C166.243 43.3424 165.678 43.0781 164.939 43.0781C164.62 43.0781 164.32 43.1237 164.037 43.2148C163.764 43.2969 163.476 43.4473 163.176 43.666C162.875 43.8757 162.547 44.1628 162.191 44.5273C161.836 44.8919 161.426 45.3477 160.961 45.8945V55H158.582V35.6816H160.961V41.2734L160.879 43.4336C161.252 42.987 161.617 42.6133 161.973 42.3125C162.337 42.0026 162.697 41.752 163.053 41.5605C163.417 41.3691 163.786 41.2324 164.16 41.1504C164.534 41.0684 164.921 41.0273 165.322 41.0273C166.689 41.0273 167.747 41.4466 168.494 42.2852C169.241 43.1146 169.615 44.3678 169.615 46.0449V55ZM185.57 47.4121C185.57 47.7493 185.566 48.0319 185.557 48.2598C185.547 48.4876 185.534 48.7018 185.516 48.9023H175.877C175.877 50.306 176.269 51.3861 177.053 52.1426C177.836 52.89 178.967 53.2637 180.443 53.2637C180.844 53.2637 181.245 53.25 181.646 53.2227C182.047 53.1862 182.435 53.1406 182.808 53.0859C183.182 53.0312 183.538 52.972 183.875 52.9082C184.221 52.8353 184.54 52.7578 184.832 52.6758V54.6309C184.185 54.8132 183.451 54.959 182.631 55.0684C181.82 55.1868 180.976 55.2461 180.101 55.2461C178.926 55.2461 177.914 55.0866 177.066 54.7676C176.219 54.4486 175.521 53.9883 174.974 53.3867C174.437 52.776 174.036 52.0332 173.771 51.1582C173.516 50.2741 173.389 49.276 173.389 48.1641C173.389 47.1979 173.525 46.2865 173.799 45.4297C174.081 44.5638 174.487 43.8073 175.016 43.1602C175.553 42.5039 176.21 41.9844 176.984 41.6016C177.759 41.2188 178.639 41.0273 179.623 41.0273C180.58 41.0273 181.428 41.1777 182.166 41.4785C182.904 41.7793 183.524 42.2077 184.025 42.7637C184.536 43.3105 184.918 43.9805 185.174 44.7734C185.438 45.5573 185.57 46.4368 185.57 47.4121ZM183.096 47.0703C183.123 46.4596 183.064 45.9036 182.918 45.4023C182.772 44.8919 182.544 44.4544 182.234 44.0898C181.933 43.7253 181.555 43.4427 181.099 43.2422C180.644 43.0326 180.115 42.9277 179.514 42.9277C178.994 42.9277 178.52 43.028 178.092 43.2285C177.663 43.429 177.294 43.7116 176.984 44.0762C176.674 44.4408 176.424 44.8783 176.232 45.3887C176.041 45.8991 175.922 46.4596 175.877 47.0703H183.096ZM194.047 43.2422H189.986V41.2734H196.453V53.0176H200.541V55H189.535V53.0176H194.047V43.2422ZM194.881 35.5176C195.145 35.5176 195.391 35.5677 195.619 35.668C195.847 35.7591 196.043 35.8913 196.207 36.0645C196.38 36.2376 196.512 36.4382 196.603 36.666C196.704 36.8848 196.754 37.1263 196.754 37.3906C196.754 37.6458 196.704 37.8874 196.603 38.1152C196.512 38.3431 196.38 38.5436 196.207 38.7168C196.043 38.89 195.847 39.0267 195.619 39.127C195.391 39.2181 195.145 39.2637 194.881 39.2637C194.616 39.2637 194.37 39.2181 194.142 39.127C193.915 39.0267 193.714 38.89 193.541 38.7168C193.377 38.5436 193.245 38.3431 193.144 38.1152C193.053 37.8874 193.008 37.6458 193.008 37.3906C193.008 37.1263 193.053 36.8848 193.144 36.666C193.245 36.4382 193.377 36.2376 193.541 36.0645C193.714 35.8913 193.915 35.7591 194.142 35.668C194.37 35.5677 194.616 35.5176 194.881 35.5176ZM214.65 43.2148C214.905 43.5339 215.101 43.9076 215.238 44.3359C215.384 44.7552 215.457 45.2109 215.457 45.7031C215.457 46.4141 215.325 47.0658 215.06 47.6582C214.805 48.2415 214.441 48.7428 213.967 49.1621C213.493 49.5814 212.923 49.9095 212.258 50.1465C211.601 50.3743 210.877 50.4883 210.084 50.4883C209.51 50.4883 208.972 50.429 208.471 50.3105C207.969 50.1829 207.573 50.028 207.281 49.8457C207.108 50.1009 206.962 50.3424 206.844 50.5703C206.725 50.7982 206.666 51.0534 206.666 51.3359C206.666 51.6823 206.83 51.9694 207.158 52.1973C207.495 52.4251 207.937 52.5482 208.484 52.5664L212.094 52.7031C212.777 52.7214 213.406 52.8079 213.98 52.9629C214.564 53.1178 215.06 53.3411 215.471 53.6328C215.89 53.9245 216.213 54.2845 216.441 54.7129C216.678 55.1413 216.797 55.638 216.797 56.2031C216.797 56.8138 216.665 57.3926 216.4 57.9395C216.136 58.4863 215.726 58.9648 215.17 59.375C214.623 59.7943 213.926 60.127 213.078 60.373C212.23 60.6191 211.223 60.7422 210.057 60.7422C208.945 60.7422 207.997 60.651 207.213 60.4688C206.438 60.2956 205.8 60.0495 205.299 59.7305C204.797 59.4206 204.433 59.0469 204.205 58.6094C203.977 58.181 203.863 57.707 203.863 57.1875C203.863 56.5221 204.018 55.9388 204.328 55.4375C204.638 54.9362 205.116 54.4531 205.764 53.9883C205.527 53.8789 205.321 53.7422 205.148 53.5781C204.975 53.4141 204.834 53.2363 204.724 53.0449C204.615 52.8444 204.533 52.6348 204.478 52.416C204.424 52.1973 204.396 51.9831 204.396 51.7734C204.396 51.181 204.533 50.6387 204.807 50.1465C205.089 49.6543 205.422 49.1895 205.805 48.752C205.631 48.5423 205.476 48.3372 205.34 48.1367C205.212 47.9362 205.098 47.722 204.998 47.4941C204.907 47.2572 204.834 47.0065 204.779 46.7422C204.734 46.4688 204.711 46.1589 204.711 45.8125C204.711 45.1016 204.838 44.4544 205.094 43.8711C205.358 43.2786 205.723 42.7728 206.187 42.3535C206.661 41.9342 207.226 41.6107 207.883 41.3828C208.548 41.1458 209.282 41.0273 210.084 41.0273C210.421 41.0273 210.745 41.0501 211.055 41.0957C211.364 41.1413 211.638 41.2005 211.875 41.2734H216.851V43.2148H214.65ZM206.392 56.9824C206.392 57.6296 206.73 58.099 207.404 58.3906C208.079 58.6914 209.017 58.8418 210.221 58.8418C210.977 58.8418 211.611 58.7734 212.121 58.6367C212.641 58.5 213.055 58.3177 213.365 58.0898C213.684 57.8711 213.912 57.6159 214.049 57.3242C214.185 57.0417 214.254 56.75 214.254 56.4492C214.254 55.8932 214.026 55.4831 213.57 55.2188C213.114 54.9544 212.417 54.7995 211.478 54.7539L207.896 54.6309C207.596 54.8314 207.345 55.0273 207.144 55.2188C206.953 55.4102 206.803 55.6016 206.693 55.793C206.584 55.9935 206.506 56.1895 206.461 56.3809C206.415 56.5814 206.392 56.7819 206.392 56.9824ZM207.117 45.7578C207.117 46.1953 207.19 46.5964 207.336 46.9609C207.482 47.3255 207.687 47.6354 207.951 47.8906C208.215 48.1458 208.525 48.3464 208.881 48.4922C209.245 48.6289 209.646 48.6973 210.084 48.6973C210.558 48.6973 210.977 48.6198 211.342 48.4648C211.715 48.3008 212.025 48.082 212.271 47.8086C212.527 47.5352 212.718 47.2207 212.846 46.8652C212.982 46.5098 213.051 46.1406 213.051 45.7578C213.051 45.3203 212.978 44.9193 212.832 44.5547C212.686 44.1901 212.481 43.8802 212.217 43.625C211.952 43.3698 211.638 43.1738 211.273 43.0371C210.918 42.8913 210.521 42.8184 210.084 42.8184C209.61 42.8184 209.186 42.9004 208.812 43.0645C208.448 43.2285 208.138 43.4473 207.883 43.7207C207.637 43.985 207.445 44.2949 207.308 44.6504C207.181 45.0059 207.117 45.375 207.117 45.7578ZM231.193 55H228.814V46.2363C228.814 45.179 228.614 44.3906 228.213 43.8711C227.821 43.3424 227.256 43.0781 226.517 43.0781C226.198 43.0781 225.898 43.1237 225.615 43.2148C225.342 43.2969 225.055 43.4473 224.754 43.666C224.453 43.8757 224.125 44.1628 223.769 44.5273C223.414 44.8919 223.004 45.3477 222.539 45.8945V55H220.16V35.6816H222.539V41.2734L222.457 43.4336C222.831 42.987 223.195 42.6133 223.551 42.3125C223.915 42.0026 224.275 41.752 224.631 41.5605C224.995 41.3691 225.364 41.2324 225.738 41.1504C226.112 41.0684 226.499 41.0273 226.9 41.0273C228.267 41.0273 229.325 41.4466 230.072 42.2852C230.82 43.1146 231.193 44.3678 231.193 46.0449V55ZM246.615 54.8086C246.077 54.9453 245.521 55.041 244.947 55.0957C244.373 55.1595 243.79 55.1914 243.197 55.1914C241.474 55.1914 240.189 54.804 239.342 54.0293C238.494 53.2454 238.07 52.0469 238.07 50.4336V43.2695H234.228V41.2734H238.07V37.5L240.449 36.8848V41.2734H246.615V43.2695H240.449V50.2422C240.449 51.2266 240.709 51.9648 241.228 52.457C241.757 52.9401 242.532 53.1816 243.553 53.1816C243.99 53.1816 244.469 53.1497 244.988 53.0859C245.508 53.013 246.05 52.9036 246.615 52.7578V54.8086ZM256.459 41.0273C256.741 41.0273 257.01 41.0866 257.266 41.2051C257.521 41.3145 257.744 41.4648 257.935 41.6562C258.127 41.8477 258.277 42.071 258.387 42.3262C258.505 42.5814 258.564 42.8503 258.564 43.1328C258.564 43.4245 258.505 43.6979 258.387 43.9531C258.277 44.1992 258.127 44.418 257.935 44.6094C257.744 44.8008 257.521 44.9512 257.266 45.0605C257.01 45.1699 256.741 45.2246 256.459 45.2246C256.167 45.2246 255.894 45.1699 255.639 45.0605C255.392 44.9512 255.174 44.8008 254.982 44.6094C254.791 44.418 254.641 44.1992 254.531 43.9531C254.422 43.6979 254.367 43.4245 254.367 43.1328C254.367 42.8503 254.422 42.5814 254.531 42.3262C254.641 42.071 254.791 41.8477 254.982 41.6562C255.174 41.4648 255.392 41.3145 255.639 41.2051C255.894 41.0866 256.167 41.0273 256.459 41.0273ZM256.459 51.0488C256.741 51.0488 257.01 51.1081 257.266 51.2266C257.521 51.3359 257.744 51.4863 257.935 51.6777C258.127 51.8691 258.277 52.0924 258.387 52.3477C258.505 52.6029 258.564 52.8717 258.564 53.1543C258.564 53.446 258.505 53.7194 258.387 53.9746C258.277 54.2207 258.127 54.4395 257.935 54.6309C257.744 54.8223 257.521 54.9727 257.266 55.082C257.01 55.1914 256.741 55.2461 256.459 55.2461C256.167 55.2461 255.894 55.1914 255.639 55.082C255.392 54.9727 255.174 54.8223 254.982 54.6309C254.791 54.4395 254.641 54.2207 254.531 53.9746C254.422 53.7194 254.367 53.446 254.367 53.1543C254.367 52.8717 254.422 52.6029 254.531 52.3477C254.641 52.0924 254.791 51.8691 254.982 51.6777C255.174 51.4863 255.392 51.3359 255.639 51.2266C255.894 51.1081 256.167 51.0488 256.459 51.0488ZM277.787 55H266.562V52.7852H271.156V39.7422L266.877 42.0664L266.002 40.043L271.689 37.0488H273.795V52.7852H277.787V55ZM292.881 49.2852C292.881 50.1693 292.689 50.9759 292.307 51.7051C291.924 52.4342 291.395 53.0632 290.721 53.5918C290.055 54.1113 289.267 54.5169 288.355 54.8086C287.444 55.1003 286.46 55.2461 285.402 55.2461C285.138 55.2461 284.851 55.237 284.541 55.2188C284.24 55.2096 283.939 55.1914 283.639 55.1641C283.338 55.1458 283.042 55.123 282.75 55.0957C282.467 55.0684 282.212 55.0365 281.984 55V52.8398C282.476 52.9583 283.037 53.0449 283.666 53.0996C284.304 53.1543 284.946 53.1816 285.594 53.1816C286.323 53.1816 286.979 53.0951 287.562 52.9219C288.146 52.7487 288.642 52.5026 289.053 52.1836C289.463 51.8555 289.777 51.4635 289.996 51.0078C290.215 50.543 290.324 50.0234 290.324 49.4492C290.324 48.3372 289.923 47.5306 289.121 47.0293C288.328 46.5189 287.184 46.2637 285.689 46.2637H282.299V37.1309H291.924V39.209H284.541V44.2266H286.099C286.956 44.2266 287.79 44.304 288.601 44.459C289.413 44.6139 290.133 44.8874 290.762 45.2793C291.4 45.6621 291.91 46.1816 292.293 46.8379C292.685 47.485 292.881 48.3008 292.881 49.2852ZM308.576 55H297.351V52.7852H301.945V39.7422L297.666 42.0664L296.791 40.043L302.478 37.0488H304.584V52.7852H308.576V55ZM324.258 47.8906C324.258 49.112 324.085 50.1784 323.738 51.0898C323.401 52.0013 322.932 52.7578 322.33 53.3594C321.728 53.9609 321.017 54.4121 320.197 54.7129C319.377 55.0137 318.488 55.1641 317.531 55.1641C317.094 55.1641 316.656 55.1413 316.219 55.0957C315.79 55.0501 315.353 54.9727 314.906 54.8633V60.6055H312.527V41.2734H314.646L314.797 43.5703C315.48 42.6315 316.21 41.9753 316.984 41.6016C317.759 41.2188 318.598 41.0273 319.5 41.0273C320.284 41.0273 320.972 41.1914 321.564 41.5195C322.157 41.8477 322.654 42.3125 323.055 42.9141C323.456 43.5065 323.756 44.2266 323.957 45.0742C324.157 45.9128 324.258 46.8516 324.258 47.8906ZM321.824 48C321.824 47.2799 321.769 46.6191 321.66 46.0176C321.56 45.416 321.396 44.901 321.168 44.4727C320.94 44.0443 320.648 43.7116 320.293 43.4746C319.937 43.2285 319.514 43.1055 319.021 43.1055C318.721 43.1055 318.415 43.1556 318.105 43.2559C317.795 43.347 317.472 43.5065 317.135 43.7344C316.807 43.9531 316.456 44.2493 316.082 44.623C315.717 44.9876 315.325 45.4434 314.906 45.9902V52.6484C315.344 52.8307 315.804 52.9766 316.287 53.0859C316.77 53.1862 317.244 53.2363 317.709 53.2363C318.994 53.2363 320.001 52.8034 320.73 51.9375C321.46 51.0625 321.824 49.75 321.824 48ZM340.295 55H337.137L333.432 49.7637L329.767 55H326.691L332.01 48.1094L326.937 41.2734H329.986L333.596 46.5508L337.137 41.2734H340.076L334.922 48.1641L340.295 55ZM344.547 57.8027C345.012 57.821 345.463 57.7799 345.9 57.6797C346.338 57.5794 346.721 57.429 347.049 57.2285C347.386 57.0371 347.655 56.7956 347.855 56.5039C348.056 56.2122 348.156 55.8796 348.156 55.5059C348.156 55.123 348.088 54.8132 347.951 54.5762C347.823 54.3392 347.678 54.1204 347.514 53.9199C347.349 53.7194 347.199 53.5052 347.062 53.2773C346.935 53.0495 346.871 52.7441 346.871 52.3613C346.871 52.1699 346.907 51.9694 346.98 51.7598C347.053 51.5501 347.163 51.3587 347.308 51.1855C347.463 51.0124 347.655 50.8711 347.883 50.7617C348.12 50.6523 348.398 50.5977 348.717 50.5977C349.036 50.5977 349.341 50.666 349.633 50.8027C349.933 50.9303 350.193 51.1309 350.412 51.4043C350.64 51.6777 350.818 52.0195 350.945 52.4297C351.082 52.8398 351.15 53.3229 351.15 53.8789C351.15 54.6354 351.009 55.36 350.726 56.0527C350.453 56.7546 350.038 57.3743 349.482 57.9121C348.935 58.4499 348.247 58.8783 347.418 59.1973C346.598 59.5163 345.641 59.6758 344.547 59.6758V57.8027ZM348.826 41.0273C349.109 41.0273 349.377 41.0866 349.633 41.2051C349.888 41.3145 350.111 41.4648 350.303 41.6562C350.494 41.8477 350.644 42.071 350.754 42.3262C350.872 42.5814 350.932 42.8503 350.932 43.1328C350.932 43.4245 350.872 43.6979 350.754 43.9531C350.644 44.1992 350.494 44.418 350.303 44.6094C350.111 44.8008 349.888 44.9512 349.633 45.0605C349.377 45.1699 349.109 45.2246 348.826 45.2246C348.534 45.2246 348.261 45.1699 348.006 45.0605C347.76 44.9512 347.541 44.8008 347.349 44.6094C347.158 44.418 347.008 44.1992 346.898 43.9531C346.789 43.6979 346.734 43.4245 346.734 43.1328C346.734 42.8503 346.789 42.5814 346.898 42.3262C347.008 42.071 347.158 41.8477 347.349 41.6562C347.541 41.4648 347.76 41.3145 348.006 41.2051C348.261 41.0866 348.534 41.0273 348.826 41.0273ZM359.654 35.2031H360.666C362.425 35.2031 363.733 35.6178 364.59 36.4473C365.446 37.2676 365.875 38.5163 365.875 40.1934V43.3516C365.875 43.7982 365.925 44.1992 366.025 44.5547C366.126 44.901 366.299 45.1973 366.545 45.4434C366.8 45.6803 367.137 45.8626 367.557 45.9902C367.976 46.1178 368.5 46.1816 369.129 46.1816H369.717V48.082H369.129C368.463 48.082 367.917 48.1367 367.488 48.2461C367.069 48.3555 366.741 48.5241 366.504 48.752C366.267 48.9707 366.103 49.2533 366.012 49.5996C365.92 49.946 365.875 50.3561 365.875 50.8301V55.6152C365.875 56.3809 365.784 57.069 365.601 57.6797C365.419 58.2995 365.123 58.8236 364.713 59.252C364.303 59.6895 363.765 60.0221 363.099 60.25C362.434 60.487 361.623 60.6055 360.666 60.6055H359.654V58.6914H360.474C362.58 58.6914 363.633 57.666 363.633 55.6152V50.8848C363.633 48.6608 364.594 47.4121 366.517 47.1387C364.576 46.929 363.605 45.6758 363.605 43.3789V40.248C363.605 38.1608 362.562 37.1172 360.474 37.1172H359.654V35.2031Z" fill="white" fill-opacity="0.3"/>
<path d="M12.5507 178.715L11.0604 180.219L1.87292 172.549L11.0604 164.879L12.5507 166.396L5.09949 172.521L12.5507 178.715ZM28.246 179.494C27.6262 179.731 26.9882 179.904 26.3319 180.014C25.6848 180.132 25.0149 180.191 24.3221 180.191C22.1529 180.191 20.4803 179.604 19.3046 178.428C18.1379 177.252 17.5546 175.534 17.5546 173.273C17.5546 172.189 17.7232 171.204 18.0604 170.32C18.3977 169.436 18.8716 168.68 19.4823 168.051C20.093 167.422 20.8221 166.939 21.6698 166.602C22.5175 166.255 23.4517 166.082 24.4725 166.082C25.1835 166.082 25.8488 166.132 26.4686 166.232C27.0884 166.333 27.6809 166.497 28.246 166.725V168.994C27.6535 168.684 27.0474 168.461 26.4276 168.324C25.8169 168.178 25.1835 168.105 24.5272 168.105C23.9165 168.105 23.3378 168.224 22.7909 168.461C22.2531 168.689 21.7792 169.021 21.369 169.459C20.9589 169.896 20.6353 170.43 20.3983 171.059C20.1613 171.688 20.0428 172.398 20.0428 173.191C20.0428 174.85 20.4439 176.094 21.246 176.924C22.0572 177.744 23.1783 178.154 24.6093 178.154C25.2564 178.154 25.8807 178.081 26.4823 177.936C27.093 177.79 27.6809 177.571 28.246 177.279V179.494ZM37.6522 162.637H33.5917V160.682H40.0585V178.018H44.1464V180H33.1405V178.018H37.6522V162.637ZM57.1893 180L57.1346 178.154C56.3872 178.893 55.6262 179.426 54.8514 179.754C54.0858 180.082 53.2792 180.246 52.4315 180.246C51.6477 180.246 50.9777 180.146 50.4218 179.945C49.8658 179.745 49.4055 179.471 49.0409 179.125C48.6854 178.77 48.4211 178.355 48.2479 177.881C48.0839 177.407 48.0018 176.892 48.0018 176.336C48.0018 174.96 48.5122 173.884 49.5331 173.109C50.563 172.326 52.0806 171.934 54.0858 171.934H56.9296V170.73C56.9296 169.919 56.6698 169.272 56.1503 168.789C55.6307 168.297 54.8378 168.051 53.7714 168.051C52.9966 168.051 52.231 168.137 51.4745 168.311C50.7271 168.484 49.9524 168.73 49.1503 169.049V166.902C49.451 166.793 49.7837 166.688 50.1483 166.588C50.522 166.479 50.9139 166.383 51.3241 166.301C51.7343 166.219 52.1626 166.155 52.6093 166.109C53.0559 166.055 53.507 166.027 53.9628 166.027C54.7922 166.027 55.5396 166.118 56.205 166.301C56.8703 166.483 57.4309 166.761 57.8866 167.135C58.3514 167.508 58.7069 167.978 58.953 168.543C59.1991 169.108 59.3221 169.773 59.3221 170.539V180H57.1893ZM56.9296 173.752H53.9081C53.3156 173.752 52.8052 173.811 52.3768 173.93C51.9484 174.048 51.5975 174.217 51.3241 174.436C51.0507 174.654 50.8456 174.919 50.7089 175.229C50.5813 175.529 50.5175 175.871 50.5175 176.254C50.5175 176.518 50.5585 176.773 50.6405 177.02C50.7225 177.257 50.8547 177.471 51.037 177.662C51.2193 177.844 51.4563 177.99 51.7479 178.1C52.0396 178.209 52.3951 178.264 52.8143 178.264C53.3612 178.264 53.9856 178.1 54.6874 177.771C55.3983 177.434 56.1457 176.906 56.9296 176.186V173.752ZM74.6346 176.254C74.6346 176.737 74.5526 177.17 74.3885 177.553C74.2245 177.936 74.0012 178.277 73.7186 178.578C73.4361 178.87 73.108 179.12 72.7343 179.33C72.3606 179.54 71.9595 179.713 71.5311 179.85C71.1119 179.986 70.6789 180.087 70.2323 180.15C69.7857 180.214 69.3482 180.246 68.9198 180.246C67.9901 180.246 67.1333 180.205 66.3495 180.123C65.5747 180.041 64.8137 179.909 64.0663 179.727V177.539C64.8684 177.767 65.6659 177.94 66.4589 178.059C67.2518 178.177 68.0402 178.236 68.8241 178.236C69.9634 178.236 70.8065 178.081 71.3534 177.771C71.9003 177.462 72.1737 177.02 72.1737 176.445C72.1737 176.199 72.1281 175.98 72.037 175.789C71.955 175.589 71.8 175.402 71.5721 175.229C71.3443 175.046 70.9888 174.859 70.5057 174.668C70.0318 174.477 69.3801 174.258 68.5507 174.012C67.9309 173.829 67.3566 173.624 66.828 173.396C66.3085 173.16 65.8573 172.882 65.4745 172.562C65.0917 172.243 64.7909 171.87 64.5721 171.441C64.3534 171.013 64.244 170.507 64.244 169.924C64.244 169.541 64.3306 169.122 64.5038 168.666C64.6861 168.21 64.9914 167.786 65.4198 167.395C65.8482 167.003 66.427 166.679 67.1561 166.424C67.8853 166.16 68.7968 166.027 69.8905 166.027C70.4283 166.027 71.0253 166.059 71.6815 166.123C72.3378 166.178 73.0214 166.278 73.7323 166.424V168.543C72.9849 168.361 72.274 168.229 71.5995 168.146C70.9341 168.055 70.3553 168.01 69.8632 168.01C69.2707 168.01 68.7694 168.055 68.3593 168.146C67.9582 168.238 67.6301 168.365 67.3749 168.529C67.1288 168.684 66.951 168.871 66.8417 169.09C66.7323 169.299 66.6776 169.527 66.6776 169.773C66.6776 170.02 66.7232 170.243 66.8143 170.443C66.9146 170.644 67.0923 170.84 67.3475 171.031C67.6119 171.214 67.9764 171.4 68.4413 171.592C68.9061 171.774 69.5122 171.975 70.2596 172.193C71.0708 172.43 71.7544 172.681 72.3104 172.945C72.8664 173.201 73.3176 173.488 73.6639 173.807C74.0103 174.126 74.2564 174.486 74.4022 174.887C74.5572 175.288 74.6346 175.743 74.6346 176.254ZM90.0292 176.254C90.0292 176.737 89.9471 177.17 89.7831 177.553C89.619 177.936 89.3957 178.277 89.1132 178.578C88.8306 178.87 88.5025 179.12 88.1288 179.33C87.7551 179.54 87.354 179.713 86.9257 179.85C86.5064 179.986 86.0734 180.087 85.6268 180.15C85.1802 180.214 84.7427 180.246 84.3143 180.246C83.3846 180.246 82.5279 180.205 81.744 180.123C80.9693 180.041 80.2082 179.909 79.4608 179.727V177.539C80.2629 177.767 81.0604 177.94 81.8534 178.059C82.6464 178.177 83.4348 178.236 84.2186 178.236C85.358 178.236 86.201 178.081 86.7479 177.771C87.2948 177.462 87.5682 177.02 87.5682 176.445C87.5682 176.199 87.5227 175.98 87.4315 175.789C87.3495 175.589 87.1945 175.402 86.9667 175.229C86.7388 175.046 86.3833 174.859 85.9003 174.668C85.4263 174.477 84.7746 174.258 83.9452 174.012C83.3254 173.829 82.7512 173.624 82.2225 173.396C81.703 173.16 81.2518 172.882 80.869 172.562C80.4862 172.243 80.1854 171.87 79.9667 171.441C79.7479 171.013 79.6385 170.507 79.6385 169.924C79.6385 169.541 79.7251 169.122 79.8983 168.666C80.0806 168.21 80.3859 167.786 80.8143 167.395C81.2427 167.003 81.8215 166.679 82.5507 166.424C83.2798 166.16 84.1913 166.027 85.285 166.027C85.8228 166.027 86.4198 166.059 87.076 166.123C87.7323 166.178 88.4159 166.278 89.1268 166.424V168.543C88.3794 168.361 87.6685 168.229 86.994 168.146C86.3287 168.055 85.7499 168.01 85.2577 168.01C84.6652 168.01 84.1639 168.055 83.7538 168.146C83.3527 168.238 83.0246 168.365 82.7694 168.529C82.5233 168.684 82.3456 168.871 82.2362 169.09C82.1268 169.299 82.0721 169.527 82.0721 169.773C82.0721 170.02 82.1177 170.243 82.2089 170.443C82.3091 170.644 82.4869 170.84 82.7421 171.031C83.0064 171.214 83.371 171.4 83.8358 171.592C84.3007 171.774 84.9068 171.975 85.6542 172.193C86.4654 172.43 87.149 172.681 87.705 172.945C88.2609 173.201 88.7121 173.488 89.0585 173.807C89.4048 174.126 89.6509 174.486 89.7968 174.887C89.9517 175.288 90.0292 175.743 90.0292 176.254ZM105.943 171.168H94.1854V169.158H105.943V171.168ZM105.943 175.926H94.1854V173.916H105.943V175.926ZM115.719 167.258C116.111 167.276 116.498 167.24 116.881 167.148C117.264 167.057 117.601 166.921 117.892 166.738C118.184 166.556 118.421 166.328 118.603 166.055C118.786 165.772 118.877 165.453 118.877 165.098C118.877 164.742 118.818 164.46 118.699 164.25C118.581 164.031 118.448 163.826 118.303 163.635C118.157 163.443 118.025 163.238 117.906 163.02C117.788 162.801 117.728 162.514 117.728 162.158C117.728 161.976 117.76 161.789 117.824 161.598C117.897 161.406 118.002 161.233 118.139 161.078C118.284 160.914 118.467 160.782 118.685 160.682C118.904 160.572 119.164 160.518 119.465 160.518C119.766 160.518 120.053 160.581 120.326 160.709C120.599 160.837 120.841 161.028 121.051 161.283C121.26 161.529 121.424 161.848 121.543 162.24C121.67 162.623 121.734 163.074 121.734 163.594C121.734 164.305 121.602 164.988 121.338 165.645C121.083 166.292 120.7 166.866 120.189 167.367C119.688 167.868 119.064 168.27 118.316 168.57C117.569 168.871 116.703 169.021 115.719 169.021V167.258ZM108.541 167.258C108.942 167.276 109.329 167.24 109.703 167.148C110.086 167.057 110.423 166.921 110.715 166.738C111.016 166.556 111.257 166.328 111.439 166.055C111.622 165.772 111.713 165.453 111.713 165.098C111.713 164.742 111.654 164.46 111.535 164.25C111.417 164.031 111.284 163.826 111.139 163.635C110.993 163.443 110.861 163.238 110.742 163.02C110.624 162.801 110.564 162.514 110.564 162.158C110.564 161.976 110.596 161.789 110.66 161.598C110.733 161.406 110.838 161.233 110.974 161.078C111.12 160.914 111.303 160.782 111.521 160.682C111.74 160.572 112 160.518 112.301 160.518C112.601 160.518 112.889 160.581 113.162 160.709C113.435 160.837 113.677 161.028 113.887 161.283C114.096 161.529 114.26 161.848 114.379 162.24C114.506 162.623 114.57 163.074 114.57 163.594C114.57 164.305 114.438 164.988 114.174 165.645C113.918 166.292 113.536 166.866 113.025 167.367C112.524 167.868 111.895 168.27 111.139 168.57C110.391 168.871 109.525 169.021 108.541 169.021V167.258ZM134.162 180L134.107 178.154C133.36 178.893 132.599 179.426 131.824 179.754C131.058 180.082 130.252 180.246 129.404 180.246C128.62 180.246 127.95 180.146 127.394 179.945C126.838 179.745 126.378 179.471 126.014 179.125C125.658 178.77 125.394 178.355 125.221 177.881C125.057 177.407 124.974 176.892 124.974 176.336C124.974 174.96 125.485 173.884 126.506 173.109C127.536 172.326 129.053 171.934 131.058 171.934H133.902V170.73C133.902 169.919 133.642 169.272 133.123 168.789C132.603 168.297 131.81 168.051 130.744 168.051C129.969 168.051 129.204 168.137 128.447 168.311C127.7 168.484 126.925 168.73 126.123 169.049V166.902C126.424 166.793 126.756 166.688 127.121 166.588C127.495 166.479 127.887 166.383 128.297 166.301C128.707 166.219 129.135 166.155 129.582 166.109C130.029 166.055 130.48 166.027 130.935 166.027C131.765 166.027 132.512 166.118 133.178 166.301C133.843 166.483 134.404 166.761 134.859 167.135C135.324 167.508 135.68 167.978 135.926 168.543C136.172 169.108 136.295 169.773 136.295 170.539V180H134.162ZM133.902 173.752H130.881C130.288 173.752 129.778 173.811 129.349 173.93C128.921 174.048 128.57 174.217 128.297 174.436C128.023 174.654 127.818 174.919 127.682 175.229C127.554 175.529 127.49 175.871 127.49 176.254C127.49 176.518 127.531 176.773 127.613 177.02C127.695 177.257 127.827 177.471 128.01 177.662C128.192 177.844 128.429 177.99 128.721 178.1C129.012 178.209 129.368 178.264 129.787 178.264C130.334 178.264 130.958 178.1 131.66 177.771C132.371 177.434 133.118 176.906 133.902 176.186V173.752ZM150.623 168.215C150.878 168.534 151.074 168.908 151.211 169.336C151.357 169.755 151.43 170.211 151.43 170.703C151.43 171.414 151.297 172.066 151.033 172.658C150.778 173.242 150.413 173.743 149.939 174.162C149.465 174.581 148.896 174.91 148.23 175.146C147.574 175.374 146.849 175.488 146.057 175.488C145.482 175.488 144.945 175.429 144.443 175.311C143.942 175.183 143.545 175.028 143.254 174.846C143.081 175.101 142.935 175.342 142.816 175.57C142.698 175.798 142.639 176.053 142.639 176.336C142.639 176.682 142.803 176.969 143.131 177.197C143.468 177.425 143.91 177.548 144.457 177.566L148.066 177.703C148.75 177.721 149.379 177.808 149.953 177.963C150.536 178.118 151.033 178.341 151.443 178.633C151.863 178.924 152.186 179.285 152.414 179.713C152.651 180.141 152.769 180.638 152.769 181.203C152.769 181.814 152.637 182.393 152.373 182.939C152.109 183.486 151.698 183.965 151.142 184.375C150.596 184.794 149.898 185.127 149.051 185.373C148.203 185.619 147.196 185.742 146.029 185.742C144.917 185.742 143.969 185.651 143.185 185.469C142.411 185.296 141.773 185.049 141.271 184.73C140.77 184.421 140.405 184.047 140.178 183.609C139.95 183.181 139.836 182.707 139.836 182.188C139.836 181.522 139.991 180.939 140.301 180.438C140.611 179.936 141.089 179.453 141.736 178.988C141.499 178.879 141.294 178.742 141.121 178.578C140.948 178.414 140.807 178.236 140.697 178.045C140.588 177.844 140.506 177.635 140.451 177.416C140.396 177.197 140.369 176.983 140.369 176.773C140.369 176.181 140.506 175.639 140.779 175.146C141.062 174.654 141.394 174.189 141.777 173.752C141.604 173.542 141.449 173.337 141.312 173.137C141.185 172.936 141.071 172.722 140.971 172.494C140.879 172.257 140.807 172.007 140.752 171.742C140.706 171.469 140.683 171.159 140.683 170.812C140.683 170.102 140.811 169.454 141.066 168.871C141.331 168.279 141.695 167.773 142.16 167.354C142.634 166.934 143.199 166.611 143.855 166.383C144.521 166.146 145.254 166.027 146.057 166.027C146.394 166.027 146.717 166.05 147.027 166.096C147.337 166.141 147.611 166.201 147.848 166.273H152.824V168.215H150.623ZM142.365 181.982C142.365 182.63 142.702 183.099 143.377 183.391C144.051 183.691 144.99 183.842 146.193 183.842C146.95 183.842 147.583 183.773 148.094 183.637C148.613 183.5 149.028 183.318 149.338 183.09C149.657 182.871 149.885 182.616 150.021 182.324C150.158 182.042 150.226 181.75 150.226 181.449C150.226 180.893 149.999 180.483 149.543 180.219C149.087 179.954 148.39 179.799 147.451 179.754L143.869 179.631C143.568 179.831 143.318 180.027 143.117 180.219C142.926 180.41 142.775 180.602 142.666 180.793C142.557 180.993 142.479 181.189 142.433 181.381C142.388 181.581 142.365 181.782 142.365 181.982ZM143.09 170.758C143.09 171.195 143.163 171.596 143.308 171.961C143.454 172.326 143.659 172.635 143.924 172.891C144.188 173.146 144.498 173.346 144.853 173.492C145.218 173.629 145.619 173.697 146.057 173.697C146.53 173.697 146.95 173.62 147.314 173.465C147.688 173.301 147.998 173.082 148.244 172.809C148.499 172.535 148.691 172.221 148.818 171.865C148.955 171.51 149.023 171.141 149.023 170.758C149.023 170.32 148.95 169.919 148.805 169.555C148.659 169.19 148.454 168.88 148.189 168.625C147.925 168.37 147.611 168.174 147.246 168.037C146.891 167.891 146.494 167.818 146.057 167.818C145.583 167.818 145.159 167.9 144.785 168.064C144.42 168.229 144.111 168.447 143.855 168.721C143.609 168.985 143.418 169.295 143.281 169.65C143.154 170.006 143.09 170.375 143.09 170.758ZM167.726 172.412C167.726 172.749 167.722 173.032 167.713 173.26C167.704 173.488 167.69 173.702 167.672 173.902H158.033C158.033 175.306 158.425 176.386 159.209 177.143C159.993 177.89 161.123 178.264 162.599 178.264C163.001 178.264 163.402 178.25 163.803 178.223C164.204 178.186 164.591 178.141 164.965 178.086C165.338 178.031 165.694 177.972 166.031 177.908C166.377 177.835 166.696 177.758 166.988 177.676V179.631C166.341 179.813 165.607 179.959 164.787 180.068C163.976 180.187 163.133 180.246 162.258 180.246C161.082 180.246 160.07 180.087 159.223 179.768C158.375 179.449 157.678 178.988 157.131 178.387C156.593 177.776 156.192 177.033 155.928 176.158C155.672 175.274 155.545 174.276 155.545 173.164C155.545 172.198 155.682 171.286 155.955 170.43C156.238 169.564 156.643 168.807 157.172 168.16C157.71 167.504 158.366 166.984 159.141 166.602C159.915 166.219 160.795 166.027 161.779 166.027C162.736 166.027 163.584 166.178 164.322 166.479C165.06 166.779 165.68 167.208 166.182 167.764C166.692 168.311 167.075 168.98 167.33 169.773C167.594 170.557 167.726 171.437 167.726 172.412ZM165.252 172.07C165.279 171.46 165.22 170.904 165.074 170.402C164.928 169.892 164.7 169.454 164.391 169.09C164.09 168.725 163.711 168.443 163.256 168.242C162.8 168.033 162.271 167.928 161.67 167.928C161.15 167.928 160.676 168.028 160.248 168.229C159.82 168.429 159.45 168.712 159.141 169.076C158.831 169.441 158.58 169.878 158.389 170.389C158.197 170.899 158.079 171.46 158.033 172.07H165.252ZM171.527 166.273H173.646L173.742 168.488C174.143 168.014 174.53 167.622 174.904 167.312C175.278 166.993 175.642 166.738 175.998 166.547C176.363 166.355 176.732 166.223 177.105 166.15C177.479 166.068 177.866 166.027 178.267 166.027C179.68 166.027 180.747 166.447 181.467 167.285C182.196 168.115 182.56 169.368 182.56 171.045V180H180.182V171.236C180.182 170.161 179.981 169.368 179.58 168.857C179.179 168.338 178.582 168.078 177.789 168.078C177.497 168.078 177.21 168.124 176.928 168.215C176.654 168.297 176.367 168.447 176.066 168.666C175.766 168.876 175.437 169.163 175.082 169.527C174.736 169.892 174.344 170.348 173.906 170.895V180H171.527V166.273ZM197.982 179.809C197.445 179.945 196.889 180.041 196.314 180.096C195.74 180.16 195.157 180.191 194.564 180.191C192.842 180.191 191.557 179.804 190.709 179.029C189.861 178.245 189.437 177.047 189.437 175.434V168.27H185.596V166.273H189.437V162.5L191.816 161.885V166.273H197.982V168.27H191.816V175.242C191.816 176.227 192.076 176.965 192.596 177.457C193.124 177.94 193.899 178.182 194.92 178.182C195.357 178.182 195.836 178.15 196.355 178.086C196.875 178.013 197.417 177.904 197.982 177.758V179.809ZM214.799 176.049H211.75V180H209.316V176.049H200.717V173.957L208.332 162.131H211.75V173.957H214.799V176.049ZM209.316 164.428L203.096 173.957H209.316V164.428ZM229.209 164.346L221.717 180H218.996L226.775 164.346H217.123V162.131H229.209V164.346ZM238.875 167.258C239.267 167.276 239.654 167.24 240.037 167.148C240.42 167.057 240.757 166.921 241.049 166.738C241.34 166.556 241.577 166.328 241.76 166.055C241.942 165.772 242.033 165.453 242.033 165.098C242.033 164.742 241.974 164.46 241.855 164.25C241.737 164.031 241.605 163.826 241.459 163.635C241.313 163.443 241.181 163.238 241.062 163.02C240.944 162.801 240.885 162.514 240.885 162.158C240.885 161.976 240.917 161.789 240.98 161.598C241.053 161.406 241.158 161.233 241.295 161.078C241.441 160.914 241.623 160.782 241.842 160.682C242.06 160.572 242.32 160.518 242.621 160.518C242.922 160.518 243.209 160.581 243.482 160.709C243.756 160.837 243.997 161.028 244.207 161.283C244.417 161.529 244.581 161.848 244.699 162.24C244.827 162.623 244.891 163.074 244.891 163.594C244.891 164.305 244.758 164.988 244.494 165.645C244.239 166.292 243.856 166.866 243.346 167.367C242.844 167.868 242.22 168.27 241.473 168.57C240.725 168.871 239.859 169.021 238.875 169.021V167.258ZM231.697 167.258C232.098 167.276 232.486 167.24 232.859 167.148C233.242 167.057 233.579 166.921 233.871 166.738C234.172 166.556 234.413 166.328 234.596 166.055C234.778 165.772 234.869 165.453 234.869 165.098C234.869 164.742 234.81 164.46 234.691 164.25C234.573 164.031 234.441 163.826 234.295 163.635C234.149 163.443 234.017 163.238 233.898 163.02C233.78 162.801 233.721 162.514 233.721 162.158C233.721 161.976 233.752 161.789 233.816 161.598C233.889 161.406 233.994 161.233 234.131 161.078C234.277 160.914 234.459 160.782 234.678 160.682C234.896 160.572 235.156 160.518 235.457 160.518C235.758 160.518 236.045 160.581 236.318 160.709C236.592 160.837 236.833 161.028 237.043 161.283C237.252 161.529 237.417 161.848 237.535 162.24C237.663 162.623 237.726 163.074 237.726 163.594C237.726 164.305 237.594 164.988 237.33 165.645C237.075 166.292 236.692 166.866 236.182 167.367C235.68 167.868 235.051 168.27 234.295 168.57C233.547 168.871 232.682 169.021 231.697 169.021V167.258ZM249.17 166.396L250.646 164.879L259.834 172.549L250.646 180.219L249.17 178.715L256.621 172.576L249.17 166.396Z" fill="white" fill-opacity="0.3"/>
<path d="M206.576 104.682C204.247 105.912 201.347 106.527 197.875 106.527C193.392 106.527 189.804 105.084 187.108 102.199C184.413 99.313 183.065 95.5264 183.065 90.8389C183.065 85.7998 184.581 81.7275 187.614 78.6221C190.646 75.5166 194.491 73.9639 199.149 73.9639C202.138 73.9639 204.613 74.396 206.576 75.2603V79.1934C204.32 77.9336 201.83 77.3037 199.105 77.3037C195.487 77.3037 192.55 78.5122 190.294 80.9292C188.053 83.3462 186.932 86.5762 186.932 90.6191C186.932 94.457 187.98 97.5186 190.075 99.8037C192.184 102.074 194.945 103.209 198.358 103.209C201.522 103.209 204.262 102.506 206.576 101.1V104.682ZM213.77 104.726V100.375C214.268 100.814 214.861 101.21 215.55 101.562C216.253 101.913 216.985 102.213 217.747 102.462C218.523 102.697 219.3 102.88 220.076 103.012C220.852 103.144 221.57 103.209 222.229 103.209C224.5 103.209 226.192 102.792 227.305 101.957C228.433 101.107 228.997 99.8916 228.997 98.3096C228.997 97.46 228.807 96.7202 228.426 96.0903C228.059 95.4604 227.547 94.8892 226.888 94.3765C226.228 93.8491 225.445 93.3511 224.536 92.8823C223.643 92.3989 222.676 91.8936 221.636 91.3662C220.537 90.8096 219.512 90.2456 218.56 89.6743C217.608 89.103 216.78 88.4731 216.077 87.7847C215.374 87.0962 214.817 86.3198 214.407 85.4556C214.012 84.5767 213.814 83.5513 213.814 82.3794C213.814 80.9438 214.129 79.6987 214.759 78.644C215.389 77.5747 216.216 76.6958 217.242 76.0073C218.267 75.3188 219.432 74.8062 220.735 74.4692C222.054 74.1323 223.394 73.9639 224.756 73.9639C227.862 73.9639 230.125 74.3374 231.546 75.0845V79.2373C229.685 77.9482 227.298 77.3037 224.383 77.3037C223.577 77.3037 222.771 77.3916 221.966 77.5674C221.16 77.7285 220.442 77.9995 219.812 78.3804C219.182 78.7612 218.67 79.252 218.274 79.8525C217.879 80.4531 217.681 81.1855 217.681 82.0498C217.681 82.8555 217.828 83.5513 218.12 84.1372C218.428 84.7231 218.875 85.2578 219.461 85.7412C220.047 86.2246 220.757 86.6934 221.592 87.1475C222.442 87.6016 223.416 88.0996 224.515 88.6416C225.642 89.1982 226.712 89.7842 227.723 90.3994C228.733 91.0146 229.62 91.6958 230.381 92.4429C231.143 93.1899 231.744 94.0176 232.183 94.9258C232.637 95.834 232.864 96.874 232.864 98.0459C232.864 99.5986 232.557 100.917 231.941 102.001C231.341 103.07 230.52 103.942 229.48 104.616C228.455 105.29 227.268 105.773 225.921 106.066C224.573 106.374 223.152 106.527 221.658 106.527C221.16 106.527 220.545 106.483 219.812 106.396C219.08 106.322 218.333 106.205 217.571 106.044C216.809 105.897 216.084 105.714 215.396 105.495C214.722 105.26 214.18 105.004 213.77 104.726ZM239.926 104.726V100.375C240.424 100.814 241.017 101.21 241.706 101.562C242.409 101.913 243.141 102.213 243.903 102.462C244.68 102.697 245.456 102.88 246.232 103.012C247.009 103.144 247.726 103.209 248.386 103.209C250.656 103.209 252.348 102.792 253.461 101.957C254.589 101.107 255.153 99.8916 255.153 98.3096C255.153 97.46 254.963 96.7202 254.582 96.0903C254.216 95.4604 253.703 94.8892 253.044 94.3765C252.385 93.8491 251.601 93.3511 250.693 92.8823C249.799 92.3989 248.832 91.8936 247.792 91.3662C246.694 90.8096 245.668 90.2456 244.716 89.6743C243.764 89.103 242.936 88.4731 242.233 87.7847C241.53 87.0962 240.974 86.3198 240.563 85.4556C240.168 84.5767 239.97 83.5513 239.97 82.3794C239.97 80.9438 240.285 79.6987 240.915 78.644C241.545 77.5747 242.372 76.6958 243.398 76.0073C244.423 75.3188 245.588 74.8062 246.891 74.4692C248.21 74.1323 249.55 73.9639 250.912 73.9639C254.018 73.9639 256.281 74.3374 257.702 75.0845V79.2373C255.842 77.9482 253.454 77.3037 250.539 77.3037C249.733 77.3037 248.928 77.3916 248.122 77.5674C247.316 77.7285 246.599 77.9995 245.969 78.3804C245.339 78.7612 244.826 79.252 244.431 79.8525C244.035 80.4531 243.837 81.1855 243.837 82.0498C243.837 82.8555 243.984 83.5513 244.277 84.1372C244.584 84.7231 245.031 85.2578 245.617 85.7412C246.203 86.2246 246.913 86.6934 247.748 87.1475C248.598 87.6016 249.572 88.0996 250.671 88.6416C251.799 89.1982 252.868 89.7842 253.879 90.3994C254.89 91.0146 255.776 91.6958 256.537 92.4429C257.299 93.1899 257.9 94.0176 258.339 94.9258C258.793 95.834 259.02 96.874 259.02 98.0459C259.02 99.5986 258.713 100.917 258.098 102.001C257.497 103.07 256.677 103.942 255.637 104.616C254.611 105.29 253.425 105.773 252.077 106.066C250.729 106.374 249.308 106.527 247.814 106.527C247.316 106.527 246.701 106.483 245.969 106.396C245.236 106.322 244.489 106.205 243.727 106.044C242.966 105.897 242.241 105.714 241.552 105.495C240.878 105.26 240.336 105.004 239.926 104.726ZM284.364 97.0791C284.364 98.5 284.093 99.7964 283.551 100.968C283.023 102.125 282.269 103.122 281.287 103.957C280.321 104.777 279.156 105.414 277.794 105.868C276.432 106.322 274.93 106.549 273.289 106.549C270.286 106.549 267.899 105.978 266.126 104.835V100.968C268.25 102.638 270.682 103.473 273.421 103.473C274.52 103.473 275.509 103.334 276.388 103.056C277.281 102.777 278.043 102.375 278.673 101.847C279.317 101.32 279.808 100.683 280.145 99.9355C280.496 99.1885 280.672 98.3462 280.672 97.4087C280.672 93.2925 277.743 91.2344 271.883 91.2344H269.268V88.1802H271.751C276.937 88.1802 279.53 86.2466 279.53 82.3794C279.53 78.8052 277.552 77.0181 273.597 77.0181C271.37 77.0181 269.283 77.7651 267.335 79.2593V75.7656C269.342 74.5645 271.729 73.9639 274.498 73.9639C275.816 73.9639 277.01 74.147 278.079 74.5132C279.149 74.8794 280.064 75.3921 280.826 76.0513C281.588 76.7104 282.174 77.5015 282.584 78.4243C283.009 79.3472 283.221 80.3652 283.221 81.4785C283.221 85.624 281.126 88.29 276.937 89.4766V89.5645C278.006 89.6816 278.995 89.9453 279.903 90.3555C280.811 90.751 281.595 91.271 282.254 91.9155C282.913 92.5601 283.426 93.3218 283.792 94.2007C284.173 95.0649 284.364 96.0244 284.364 97.0791Z" fill="white" fill-opacity="0.3"/>
<path d="M76.3679 97V79.72H79.5359V86.752H90.8639V79.72H94.0319V97H90.8639V89.968H79.5359V97H76.3679ZM102.95 97V82.912H95.8939V79.72H113.174V82.912H106.142V97H102.95ZM114.969 97V79.72H118.449L124.713 87.184L130.953 79.72H134.457V97H131.265V84.328L124.713 92.128L118.137 84.352V97H114.969ZM137.259 97V79.696H140.427V93.808H154.539V97H137.259ZM159.274 97C158.666 97 158.114 96.848 157.618 96.544C157.122 96.24 156.722 95.84 156.418 95.344C156.114 94.848 155.962 94.296 155.962 93.688V92.56H159.106V93.568C159.106 93.648 159.13 93.72 159.178 93.784C159.242 93.832 159.314 93.856 159.394 93.856H169.642C169.722 93.856 169.786 93.832 169.834 93.784C169.898 93.72 169.93 93.648 169.93 93.568V90.064C169.93 89.984 169.898 89.92 169.834 89.872C169.786 89.808 169.722 89.776 169.642 89.776H155.962V79.72H173.074V82.864H159.394C159.314 82.864 159.242 82.896 159.178 82.96C159.13 83.008 159.106 83.072 159.106 83.152V86.32C159.106 86.4 159.13 86.472 159.178 86.536C159.242 86.584 159.314 86.608 159.394 86.608H169.762C170.37 86.608 170.922 86.76 171.418 87.064C171.93 87.352 172.33 87.752 172.618 88.264C172.922 88.76 173.074 89.312 173.074 89.92V93.688C173.074 94.296 172.922 94.848 172.618 95.344C172.314 95.84 171.914 96.24 171.418 96.544C170.922 96.848 170.37 97 169.762 97H159.274Z" fill="white" fill-opacity="0.3"/>
</svg>
