<svg width="61" height="61" viewBox="0 0 61 61" fill="none" xmlns="http://www.w3.org/2000/svg">
<path d="M61.0025 30.4975C61.0138 36.9401 58.9743 43.2191 55.1792 48.4254C52.1121 52.6476 48.0128 56.0122 43.2736 58.1973C38.5345 60.3824 33.3139 61.3149 28.1113 60.9057C22.9087 60.4964 17.8981 58.759 13.5589 55.8598C9.21964 52.9605 5.69691 48.9964 3.32767 44.3465C0.958422 39.6967 -0.178084 34.5166 0.0268675 29.302C0.231819 24.0873 1.77137 19.0125 4.49825 14.5629C7.22513 10.1134 11.0481 6.43791 15.6015 3.88817C20.1549 1.33842 25.2864 -0.000324264 30.505 5.89134e-08C31.3405 5.89134e-08 32.1715 0.0322239 32.9909 0.0989731C37.718 0.475644 42.2907 1.95703 46.3407 4.42386C50.8192 7.14358 54.5212 10.9717 57.0894 15.5388C59.6576 20.1059 61.0053 25.2578 61.0025 30.4975Z" fill="#4171EA"/>
<g opacity="0.2">
<path d="M37.09 44.8923C36.7056 45.9166 37.3478 45.9603 37.3892 46.3862C37.4306 46.812 37.3892 47.6245 36.1509 48.8651C34.9126 50.1057 32.8618 49.8456 32.4336 50.3589C32.0055 50.8722 31.2828 53.0496 30.2562 53.7769C29.2297 54.5042 29.0594 54.0761 27.607 54.3753C26.1546 54.6746 25.0452 56.5528 24.6148 57.4504C24.1844 58.3481 24.7022 59.8419 23.6757 59.8833C22.6491 59.9247 22.1819 57.7059 21.2405 56.509C20.2991 55.3121 20.0022 54.2464 19.703 52.8263C19.4037 51.4062 19.8733 48.4715 19.703 47.316C19.5326 46.1606 16.4576 44.1144 15.3458 42.7127C14.2341 41.3109 12.6989 38.4844 12.7841 37.5453C12.9136 36.6329 13.369 35.7981 14.0661 35.1953C14.5771 34.8109 14.3653 34.5969 14.4505 34.2562C14.5356 33.9156 14.9615 33.8281 15.0466 33.4023C15.1318 32.9765 14.7911 31.6921 14.3561 31.4804C13.9211 31.2686 13.6288 31.9913 13.3733 31.8647C13.1178 31.7381 12.3467 30.8382 12.0475 30.753C11.7483 30.6679 11.8357 31.3077 11.4076 30.4975C10.9795 29.6873 10.7678 27.6342 10.4248 27.2936C10.0819 26.9529 9.82637 27.892 9.01617 27.2936C8.20598 26.6951 7.86532 25.542 7.52007 25.3717C7.17482 25.2013 6.70987 25.4131 6.35771 24.7295C6.00555 24.0459 6.66614 22.8076 6.35771 22.9365C6.04928 23.0654 5.38409 24.0482 5.20686 23.1068C5.02963 22.1654 6.06079 19.0075 5.89737 17.2973C5.73395 15.5871 6.33699 13.7964 7.53158 12.3556C7.53158 12.3556 7.7042 11.4142 7.87453 10.818C8.04485 10.2219 11.7184 7.82582 12.1465 7.13531C12.3237 6.8499 12.3766 6.40106 12.448 5.92001C17.6779 2.06444 24.0073 -0.0106637 30.5048 4.12105e-05C31.3403 4.12105e-05 32.1712 0.0322651 32.9907 0.0990143C33.0183 0.138143 33.0459 0.17497 33.0758 0.211797C33.4464 0.672137 33.8446 0.980564 34.9172 1.38106C35.9898 1.78156 36.2545 2.30174 36.0289 2.71835C35.8033 3.13495 35.4305 3.23162 35.0023 3.25924C34.5742 3.28686 34.176 3.059 33.7203 3.34441C33.2646 3.62982 32.7996 5.16735 32.2127 5.25252C31.6257 5.33768 30.5601 3.88531 30.3322 3.45949C30.1043 3.03368 30.8455 2.1199 30.4956 1.69409C30.1458 1.26828 29.5358 1.35114 28.5668 1.26597C27.5978 1.18081 25.3444 1.55139 25.4342 1.92196C25.5239 2.29253 28.7371 1.86442 28.8223 2.61247C28.9074 3.36052 26.4607 4.60344 26.0326 4.49065C25.6045 4.37787 25.036 3.63672 24.4099 3.55156C23.7839 3.4664 23.2706 3.97738 22.877 4.03492C22.4834 4.09246 22.0185 3.6091 21.42 3.72189C20.8216 3.83467 20.6789 4.34795 20.3658 4.5482C20.0528 4.74844 19.3117 4.74614 19.2265 5.20188C19.1413 5.65761 20.1656 5.9154 20.4234 6.19851C20.6812 6.48162 20.1104 7.45294 20.3658 7.65088C20.6213 7.84883 22.2072 6.4563 22.6146 6.11335C23.022 5.7704 23.3557 4.29271 24.2097 4.32033C25.0636 4.34795 25.349 5.80032 25.6344 5.94302C25.9198 6.08573 26.5551 5.60237 27.4758 5.80032C28.3965 5.99827 29.0709 8.05138 29.2412 8.67744C29.4115 9.3035 29.8097 9.92957 29.4714 10.1874C29.133 10.4451 27.5909 10.0147 27.3998 9.61654C27.2088 9.21834 28.4241 8.6199 28.3389 8.47719C28.2538 8.33449 27.5425 8.13654 27.172 8.35981C26.8014 8.58307 26.6311 9.05032 26.2329 9.1608C25.8347 9.27128 24.7805 8.079 24.4951 8.41965C24.2097 8.7603 24.7805 9.8444 25.0636 10.0999C25.3467 10.3554 26.4032 10.4981 26.4884 10.7904C26.5735 11.0827 25.7771 11.7111 24.8081 11.6466C23.8391 11.5822 23.0427 10.8479 22.6721 11.161C22.3016 11.474 22.5018 12.3003 22.244 12.5857C21.9862 12.8711 20.5937 12.6709 19.9101 13.4097C19.2265 14.1486 18.9135 15.2511 18.2299 15.8887C17.5463 16.5262 17.2332 15.716 16.3218 16.5999C15.4103 17.4837 15.2699 19.4471 15.24 20.1307C15.21 20.8143 15.24 21.3552 15.0098 21.27C14.7796 21.1849 14.4689 20.5795 14.3837 20.2159C14.2986 19.8522 14.584 19.2192 14.584 18.9913C14.584 18.7635 13.272 17.5965 12.5124 17.4837C11.7529 17.371 11.0601 17.9947 10.4916 18.4504C9.92304 18.9062 8.89648 18.821 8.52591 19.1916C8.15534 19.5622 7.87222 22.8375 8.15533 23.6063C8.43844 24.375 8.81132 24.375 9.72279 23.9745C10.6343 23.574 10.121 22.8076 10.6619 22.9779C10.9054 23.0691 11.1151 23.2327 11.2628 23.4467C11.4106 23.6607 11.4892 23.9148 11.4882 24.1748C11.4882 24.6351 10.4064 25.7123 10.5491 26.0161C10.6918 26.32 11.6309 25.9586 12.0866 26.1013C12.5424 26.244 12.7771 26.5294 12.6275 27.6964C12.4779 28.8633 12.57 29.7679 13.2536 30.1592C13.9372 30.5505 14.3216 29.6045 14.6208 29.7334C14.92 29.8623 15.3458 30.5436 15.7717 30.5021C16.1975 30.4607 15.9857 30.074 16.7959 29.8116C17.6061 29.5492 17.3092 29.3835 17.4864 28.8725C17.6636 28.3616 18.1769 27.9311 18.7247 28.182C19.2725 28.4329 18.8974 28.8219 18.9388 29.25C18.9802 29.6781 19.9653 29.7104 20.7341 29.975C21.5029 30.2397 21.9287 29.975 23.4662 30.4883C25.0038 31.0016 25.0912 32.5391 25.7311 32.79C26.371 33.0409 28.5069 32.6197 30.0445 33.7291C31.582 34.8385 31.1562 36.8894 31.925 37.4878C32.6937 38.0862 35.5547 38.8987 36.6665 39.1105C37.7782 39.3222 37.9462 38.5558 38.8439 38.7698C39.7415 38.9839 40.2548 39.2302 40.5517 40.4777C40.8141 41.5871 37.4744 43.8658 37.09 44.8923Z" fill="#02FF30"/>
<path d="M14.1397 23.0518C14.1673 23.282 14.8787 23.3925 15.7327 23.8759C16.5868 24.3594 16.9022 25.7843 17.358 25.7567C17.8138 25.7291 17.6711 25.0661 17.8414 24.9026C18.0118 24.7392 18.3018 24.3617 17.8414 23.9818C17.381 23.602 16.9413 22.8147 16.1103 22.6996C15.2792 22.5845 15.1365 22.2392 14.7659 22.2714C14.67 22.272 14.5755 22.2939 14.4892 22.3357C14.4029 22.3774 14.327 22.4378 14.2671 22.5126C14.2071 22.5873 14.1645 22.6745 14.1425 22.7678C14.1205 22.8611 14.1195 22.9581 14.1397 23.0518Z" fill="#11FF50"/>
<path d="M18.8375 25.4432C18.7109 25.7908 18.8375 26.0417 19.7583 26.2696C20.6791 26.4975 21.524 26.0394 21.2385 25.8552C20.9531 25.6711 20.5272 25.7562 20.6976 25.4432C20.8679 25.1301 20.8104 24.6743 20.0714 24.7525C19.3324 24.8308 18.9503 25.1301 18.8375 25.4432Z" fill="#11FF50"/>
<path d="M22.0277 25.5396C21.7169 25.5834 21.542 26.1266 21.8551 26.4604C22.1681 26.7942 22.1681 26.7459 22.5457 26.4604C22.9232 26.175 23.4872 26.0346 23.3445 25.7491C23.2018 25.4637 22.3408 25.4936 22.0277 25.5396Z" fill="#11FF50"/>
<path d="M24.5043 26.702C24.6424 26.2761 25.3583 26.702 25.6714 27.1509C25.9845 27.5998 25.8417 28.2627 25.6714 28.7462C25.501 29.2296 25.3859 29.8005 24.9808 29.5726C24.5756 29.3447 25.0107 28.6518 24.9532 28.2627C24.8956 27.8737 24.3892 27.0519 24.5043 26.702Z" fill="#11FF50"/>
<path d="M36.7769 2.94624C36.6273 3.30306 37.3179 3.42967 37.7162 3.65758C38.1144 3.88548 38.4298 4.02821 38.6577 3.65758C38.8856 3.28695 38.5725 2.86107 38.2572 2.77589C37.9418 2.69072 36.9197 2.60554 36.7769 2.94624Z" fill="#11FF50"/>
<path d="M42.1583 6.2792C42.4231 6.55545 42.872 6.5094 43.185 6.90536C43.4981 7.30131 43.383 7.98732 43.7836 8.1853C44.1841 8.38327 44.4742 8.18529 44.4949 7.90214C44.5156 7.61899 43.924 6.90535 43.9815 6.75112C44.0391 6.59688 44.808 6.94909 44.9783 7.37727C45.1487 7.80546 44.808 8.40169 45.2085 8.5283C45.6091 8.65491 45.5216 8.13005 45.6943 8.01494C45.8669 7.89984 46.2352 7.95739 46.2053 7.61669C46.1754 7.27599 45.7219 6.53473 45.3513 6.2792C44.9806 6.02367 44.6975 5.73592 44.069 5.58858C43.4406 5.44125 42.8443 5.55866 42.5312 5.81879C42.2182 6.07892 41.9972 6.10655 42.1583 6.2792Z" fill="#11FF50"/>
<path d="M54.4793 11.6445C54.4626 11.7601 54.4055 11.8661 54.3182 11.9437C53.722 12.3718 53.0085 10.8918 52.1822 10.6064C51.3559 10.321 50.9876 9.26915 50.8173 9.49702C50.647 9.72488 50.7022 10.0379 50.4467 10.4062C50.1912 10.7745 49.8183 10.6916 49.648 11.4028C49.4777 12.114 50.4467 13.426 50.2188 13.8541C49.991 14.2822 49.7056 14.1372 49.2498 14.1096C48.7941 14.082 48.8792 14.4802 48.2831 14.3076C47.687 14.1349 48.1956 13.3869 47.2565 12.5145C46.3175 11.6422 46.0021 11.4604 46.2047 11.0622C46.4072 10.664 46.1172 10.0932 46.5453 10.0379C46.9734 9.98267 47.3141 10.6064 47.5972 10.7768C47.8803 10.9471 48.2532 10.4361 48.2877 9.98037C48.3222 9.52463 47.2911 8.89858 46.9228 8.54411C46.5545 8.18965 46.5223 6.9053 46.665 6.64751C46.8077 6.38972 47.2358 6.47719 47.3555 5.85113C47.4223 5.48286 46.8399 4.8683 46.3474 4.42407C49.4672 6.32627 52.2213 8.77166 54.4793 11.6445Z" fill="#11FF50"/>
<path d="M58.7329 37.1748C58.818 36.2541 58.3623 36.2058 58.818 34.5255C59.2737 32.8453 58.3347 31.0522 57.9917 30.6817C57.6488 30.3111 56.9099 30.4262 56.3115 30.7968C55.713 31.1673 56.1411 31.4504 55.7429 31.5931C55.3447 31.7359 54.9442 31.508 54.576 31.5356C54.2077 31.5632 53.8625 32.5046 53.0661 32.477C52.2697 32.4494 51.7564 31.3077 51.158 30.4975C50.5595 29.6873 49.335 29.1718 48.9368 28.1751C48.5386 27.1785 49.3074 25.6433 49.1371 24.474C48.9667 23.3047 48.1957 23.5533 48.053 22.9088C47.9103 22.2644 48.1681 22.5659 48.366 21.9398C48.5639 21.3138 48.1358 20.9708 48.5386 19.889C48.9414 18.8072 49.648 18.2778 49.4777 17.783C49.3074 17.2881 48.7665 16.5009 48.7366 15.9416C48.7066 15.3823 49.2775 15.4007 50.3593 14.602C51.4411 13.8033 51.7265 13.8632 52.5528 14.1417C53.1456 14.3617 53.7552 14.5333 54.3757 14.6549C54.8591 14.7401 55.5266 15.9922 55.713 15.937C55.8995 15.8818 55.9432 15.5089 56.0284 14.968C56.0817 14.7327 56.2053 14.5192 56.3828 14.3557C59.5938 19.5094 61.1945 25.5037 60.9801 31.572C60.7656 37.6403 58.7458 43.5068 55.179 48.4209C58.0838 43.9924 58.6477 38.0862 58.7329 37.1748Z" fill="#11FF50"/>
</g>
<path opacity="0.1" d="M54.1317 49.7816C50.8783 53.7691 46.6688 56.8685 41.8952 58.7913C37.1215 60.7141 31.939 61.3977 26.83 60.7785C21.7211 60.1593 16.8519 58.2574 12.6758 55.2499C8.49971 52.2424 5.15253 48.2271 2.94592 43.5778C0.739301 38.9285 -0.254997 33.7965 0.0555951 28.6596C0.366187 23.5226 1.97157 18.5478 4.72227 14.1982C7.47297 9.8487 11.2795 6.26592 15.7876 3.78347C20.2956 1.30103 25.3585 -0.000355766 30.5048 0.000488692C31.3426 0.000488692 32.1689 0.0327125 32.9906 0.0994618C33.2208 0.115574 33.451 0.13859 33.6696 0.161607C29.3586 0.630256 25.2158 2.09568 21.5689 4.44194C17.922 6.7882 14.8712 9.95092 12.6577 13.6799C10.4442 17.4088 9.12888 21.6017 8.81572 25.9268C8.50255 30.252 9.20016 34.5906 10.8533 38.5995C12.5065 42.6085 15.0699 46.1777 18.3408 49.0249C21.6116 51.872 25.5001 53.919 29.6987 55.0038C33.8972 56.0886 38.2906 56.1815 42.5313 55.2751C46.7719 54.3687 50.7435 52.488 54.1317 49.7816Z" fill="black"/>
<path opacity="0.3" d="M61.0023 30.4975C61.0136 36.9401 58.974 43.2191 55.179 48.4254C52.3178 52.3543 48.5632 55.5463 44.2252 57.7381C48.0037 55.5766 51.2818 52.6397 53.844 49.1205C57.4356 44.1778 59.4695 38.2753 59.6852 32.1694C59.9009 26.0634 58.2885 20.0321 55.0547 14.8483C54.4681 13.9053 53.8288 12.9963 53.1397 12.1254C50.865 9.23465 48.0906 6.77513 44.948 4.8635C40.8763 2.38315 36.2793 0.893127 31.5268 0.513292C30.7028 0.446543 29.8672 0.412017 29.0271 0.412017C26.545 0.410274 24.0718 0.709375 21.6617 1.30277C24.5293 0.436231 27.5091 -0.0027446 30.5048 1.29107e-05C31.3426 1.29107e-05 32.1689 0.0322368 32.9906 0.098986C37.7176 0.476673 42.29 1.95798 46.3405 4.42387C49.4653 6.32474 52.2241 8.7702 54.4862 11.6443C58.7189 17.0163 61.0169 23.6584 61.0092 30.4975H61.0023Z" fill="white"/>
</svg>
