<svg width="1440" height="127" viewBox="0 0 1440 127" fill="none" xmlns="http://www.w3.org/2000/svg">
<rect width="1440" height="127" fill="#5D5CDC"/>
<g clip-path="url(#clip0_365_310)">
<path d="M1438.46 21.3572C1439.96 19.9743 1439.71 18.8599 1437.87 18.8599C1436.03 18.8599 1433.36 19.9743 1431.8 21.3572C1430.24 22.7401 1430.54 23.8477 1432.37 23.8477C1434.19 23.8477 1436.94 22.7535 1438.46 21.3572Z" fill="#6161DD"/>
<path d="M1401.96 13.4425C1403.48 12.0999 1403.22 10.9453 1401.39 10.9453C1399.57 10.9453 1396.86 12.0663 1395.32 13.4425C1393.78 14.8187 1394.07 15.933 1395.89 15.933C1397.71 15.933 1400.46 14.8187 1401.96 13.4425Z" fill="#6161DD"/>
<path d="M1407.81 71.8122C1406.29 73.1884 1406.56 74.3028 1408.38 74.3028C1410.2 74.3028 1412.91 73.1884 1414.45 71.8122C1415.99 70.4361 1415.71 69.3217 1413.86 69.3217C1412.02 69.3217 1409.33 70.4361 1407.81 71.8122Z" fill="#6161DD"/>
<path d="M1433.63 59.7852C1435.65 57.8586 1435.39 56.2944 1432.82 56.2944C1430.25 56.2944 1426.48 57.8586 1424.38 59.7852C1422.27 61.7118 1422.62 63.2693 1425.17 63.2693C1427.72 63.2693 1431.5 61.7118 1433.63 59.7852Z" fill="#6161DD"/>
<path d="M1273 13.4425C1274.51 12.0395 1274.25 10.9117 1272.41 10.9117C1270.57 10.9117 1267.81 12.0395 1266.34 13.4425C1264.86 14.8455 1265.06 15.9666 1266.92 15.9666C1268.79 15.9666 1271.44 14.8388 1273 13.4425Z" fill="#6161DD"/>
<path d="M1190.42 19.8488C1188.6 21.2282 1188.4 22.5317 1189.98 22.7603C1191.56 22.9888 1194.31 22.056 1196.13 20.6766C1197.95 19.2973 1198.14 17.9938 1196.56 17.7652C1194.98 17.5366 1192.23 18.4695 1190.42 19.8488Z" fill="#6161DD"/>
<path d="M1142.63 35.6626C1144.15 34.2865 1143.89 33.1721 1142.07 33.1721C1140.25 33.1721 1137.53 34.2865 1135.99 35.6626C1134.46 37.0388 1134.74 38.1532 1136.58 38.1532C1138.42 38.1532 1141.12 37.0388 1142.63 35.6626Z" fill="#6161DD"/>
<path d="M1236.92 23.8678C1237.67 23.1965 1237.55 22.6192 1236.64 22.6192C1235.73 22.6192 1234.37 23.1764 1233.62 23.8678C1232.88 24.5593 1233 25.1097 1233.91 25.1097C1234.82 25.1097 1236.18 24.5526 1236.92 23.8678Z" fill="#6161DD"/>
<path d="M1292.96 24.8412C1293.72 24.1699 1293.58 23.5993 1292.67 23.5993C1291.76 23.5993 1290.4 24.1565 1289.66 24.8412C1288.91 25.526 1289.03 26.0898 1289.94 26.0898C1290.85 26.0898 1292.21 25.5327 1292.96 24.8412Z" fill="#6161DD"/>
<path d="M1273.91 39.4018C1272.39 40.7779 1272.65 41.899 1274.47 41.899C1276.3 41.899 1279.01 40.7779 1280.55 39.4018C1282.09 38.0256 1281.8 36.9112 1279.98 36.9112C1278.16 36.9112 1275.49 38.0256 1273.91 39.4018Z" fill="#6161DD"/>
<path d="M1261.32 59.2052C1259.82 60.5814 1260.06 61.6957 1261.9 61.6957C1263.75 61.6957 1266.42 60.5814 1267.98 59.2052C1269.53 57.829 1269.23 56.7079 1267.41 56.7079C1265.59 56.7079 1262.75 57.829 1261.32 59.2052Z" fill="#6161DD"/>
<path d="M1157.27 10.2807C1155.75 11.6636 1156.01 12.778 1157.84 12.778C1159.66 12.778 1162.37 11.6636 1163.91 10.2807C1165.45 8.89783 1165.16 7.79019 1163.34 7.79019C1161.52 7.79019 1158.77 8.90454 1157.27 10.2807Z" fill="#6161DD"/>
<path d="M1379.74 80.2102C1381.25 78.8676 1380.99 77.7197 1379.17 77.7197C1377.35 77.7197 1374.63 78.834 1373.1 80.2102C1371.56 81.5864 1371.84 82.7007 1373.66 82.7007C1375.48 82.7007 1378.24 81.5864 1379.74 80.2102Z" fill="#6161DD"/>
<path d="M1412 31.3059C1414.65 28.8892 1414.21 26.929 1411.01 26.929C1407.81 26.929 1403.05 28.8892 1400.38 31.3059C1397.71 33.7225 1398.2 35.6827 1401.39 35.6827C1404.59 35.6827 1409.35 33.7225 1412 31.3059Z" fill="#6161DD"/>
<path d="M1420.18 51.9014C1420.93 51.2301 1420.81 50.6595 1419.9 50.6595C1418.99 50.6595 1417.63 51.2167 1416.86 51.9014C1416.09 52.5861 1416.23 53.15 1417.14 53.15C1418.05 53.15 1419.41 52.5928 1420.18 51.9014Z" fill="#6161DD"/>
<path d="M1358.97 109.177C1359.74 108.506 1359.59 107.928 1358.68 107.928C1357.77 107.928 1356.42 108.485 1355.67 109.177C1354.92 109.868 1355.04 110.419 1355.95 110.419C1356.86 110.419 1358.22 109.862 1358.97 109.177Z" fill="#6161DD"/>
<path d="M1298.14 71.443C1296.64 72.7856 1296.88 73.9336 1298.7 73.9336C1300.53 73.9336 1303.24 72.8192 1304.78 71.443C1306.32 70.0669 1306.03 68.9525 1304.21 68.9525C1302.39 68.9525 1299.66 70.0669 1298.14 71.443Z" fill="#6161DD"/>
<path d="M1295.73 50.391C1294.21 51.7672 1294.47 52.8815 1296.3 52.8815C1298.12 52.8815 1300.83 51.7672 1302.37 50.391C1303.91 49.0148 1303.62 47.9005 1301.8 47.9005C1299.98 47.9005 1297.19 49.0148 1295.73 50.391Z" fill="#6161DD"/>
<path d="M1183.89 94.368C1182.37 95.7442 1182.63 96.8652 1184.46 96.8652C1186.28 96.8652 1188.99 95.7442 1190.53 94.368C1192.07 92.9918 1191.78 91.8775 1189.94 91.8775C1188.1 91.8775 1185.41 92.9918 1183.89 94.368Z" fill="#6161DD"/>
<path d="M1253.91 119.596C1251.88 121.522 1252.17 123.08 1254.72 123.08C1257.27 123.08 1261.05 121.522 1263.18 119.596C1265.3 117.669 1264.92 116.105 1262.37 116.105C1259.82 116.105 1256.03 117.669 1253.91 119.596Z" fill="#6161DD"/>
<path d="M1213.38 61.4742C1211.86 62.8503 1212.13 63.9647 1213.95 63.9647C1215.77 63.9647 1218.48 62.8503 1220.02 61.4742C1221.56 60.098 1221.28 58.9836 1219.43 58.9836C1217.59 58.9836 1214.88 60.098 1213.38 61.4742Z" fill="#6161DD"/>
<path d="M1208.81 39.1534C1207.29 40.5296 1207.55 41.6439 1209.37 41.6439C1211.2 41.6439 1213.91 40.5296 1215.45 39.1534C1216.99 37.7772 1216.7 36.6629 1214.86 36.6629C1213.02 36.6629 1210.33 37.7772 1208.81 39.1534Z" fill="#6161DD"/>
<path d="M1243.1 76.4711C1241.6 77.8472 1241.84 78.9683 1243.66 78.9683C1245.49 78.9683 1248.2 77.8472 1249.74 76.4711C1251.28 75.0949 1250.99 73.9805 1249.17 73.9805C1247.35 73.9805 1244.56 75.0613 1243.1 76.4711Z" fill="#6161DD"/>
<path d="M1140.47 84.1306C1138.95 85.5068 1139.21 86.6279 1141.04 86.6279C1142.86 86.6279 1145.57 85.5068 1147.11 84.1306C1148.65 82.7545 1148.36 81.6401 1146.52 81.6401C1144.68 81.6401 1141.89 82.7545 1140.47 84.1306Z" fill="#6161DD"/>
<path d="M1136.02 69.3217C1134.52 70.6979 1134.76 71.8123 1136.6 71.8123C1138.44 71.8123 1141.14 70.6979 1142.68 69.3217C1144.21 67.9456 1143.93 66.8312 1142.11 66.8312C1140.29 66.8312 1137.53 67.9456 1136.02 69.3217Z" fill="#6161DD"/>
<path d="M1358.84 22.7468C1360.34 21.3706 1360.1 20.2495 1358.26 20.2495C1356.42 20.2495 1353.74 21.3706 1352.19 22.7468C1350.63 24.1229 1350.93 25.2373 1352.75 25.2373C1354.57 25.2373 1357.33 24.1229 1358.84 22.7468Z" fill="#6161DD"/>
<path d="M1187.53 74.531C1189.56 72.6044 1189.29 71.0402 1186.72 71.0402C1184.15 71.0402 1180.39 72.6044 1178.28 74.531C1176.18 76.4576 1176.52 78.015 1179.07 78.015C1181.62 78.015 1185.41 76.4509 1187.53 74.531Z" fill="#6161DD"/>
<path d="M1171.2 51.9014C1173.22 49.9748 1172.96 48.4174 1170.41 48.4174C1167.86 48.4174 1164.05 49.9748 1161.95 51.9014C1159.84 53.8281 1160.18 55.3922 1162.76 55.3922C1165.33 55.3922 1169.09 53.8281 1171.2 51.9014Z" fill="#6161DD"/>
<path d="M1354.17 68.7108C1352.65 70.087 1352.91 71.2014 1354.74 71.2014C1356.56 71.2014 1359.27 70.087 1360.81 68.7108C1362.35 67.3347 1362.06 66.2203 1360.22 66.2203C1358.38 66.2203 1355.69 67.3347 1354.17 68.7108Z" fill="#6161DD"/>
<path d="M1304.27 85.2517C1306.3 83.3251 1306.03 81.7677 1303.48 81.7677C1300.93 81.7677 1297.13 83.3251 1295.02 85.2517C1292.91 87.1784 1293.26 88.7358 1295.83 88.7358C1298.4 88.7358 1302.17 87.1448 1304.27 85.2517Z" fill="#6161DD"/>
<path d="M1351.86 42.9194C1352.61 42.2481 1352.49 41.6775 1351.58 41.6775C1350.67 41.6775 1349.31 42.2347 1348.56 42.9194C1347.81 43.6041 1347.93 44.168 1348.84 44.168C1349.76 44.168 1351.11 43.6108 1351.86 42.9194Z" fill="#6161DD"/>
<path d="M1212.21 4.03086C1210.28 5.77625 1210.61 7.19269 1212.94 7.19269C1215.26 7.19269 1218.69 5.77625 1220.61 4.03086C1222.53 2.28548 1222.19 0.869034 1219.88 0.869034C1217.57 0.869034 1214.13 2.28548 1212.21 4.03086Z" fill="#6161DD"/>
<path d="M1246.22 98.1072C1245.47 98.7785 1245.59 99.3558 1246.5 99.3558C1247.41 99.3558 1248.77 98.7986 1249.51 98.1072C1250.26 97.4157 1250.14 96.8652 1249.23 96.8652C1248.32 96.8652 1246.96 97.4224 1246.22 98.1072Z" fill="#6161DD"/>
<path d="M1413.14 88.2725C1411.62 89.6151 1411.88 90.7631 1413.7 90.7631C1415.52 90.7631 1418.24 89.6487 1419.77 88.2725C1421.31 86.8964 1421.03 85.7753 1419.21 85.7753C1417.39 85.7753 1414.57 86.8964 1413.14 88.2725Z" fill="#6161DD"/>
<path d="M1302.25 122.012C1300.73 123.355 1300.99 124.509 1302.81 124.509C1304.64 124.509 1307.35 123.388 1308.89 122.012C1310.42 120.636 1310.14 119.522 1308.32 119.522C1306.5 119.522 1303.83 120.636 1302.25 122.012Z" fill="#6161DD"/>
<path d="M1331.72 89.1184C1330.22 90.4946 1330.46 91.6089 1332.31 91.6089C1334.15 91.6089 1336.84 90.4946 1338.38 89.1184C1339.92 87.7423 1339.63 86.6279 1337.81 86.6279C1335.99 86.6279 1333.24 87.7423 1331.72 89.1184Z" fill="#6161DD"/>
<path d="M1360.77 40.6571C1359.25 42.0333 1359.51 43.1544 1361.33 43.1544C1363.16 43.1544 1365.87 42.0333 1367.41 40.6571C1368.95 39.2809 1368.66 38.1666 1366.82 38.1666C1364.98 38.1666 1362.29 39.2809 1360.77 40.6571Z" fill="#6161DD"/>
<path d="M1140.47 98.8456C1138.95 100.188 1139.21 101.336 1141.04 101.336C1142.86 101.336 1145.57 100.222 1147.11 98.8456C1148.65 97.4694 1148.36 96.3551 1146.52 96.3551C1144.68 96.3551 1141.89 97.4694 1140.47 98.8456Z" fill="#6161DD"/>
<path d="M1234.54 88.7358C1233.04 90.0784 1233.28 91.233 1235.12 91.233C1236.96 91.233 1239.64 90.1119 1241.2 88.7358C1242.75 87.3596 1242.45 86.2452 1240.63 86.2452C1238.81 86.2452 1236.05 87.3596 1234.54 88.7358Z" fill="#6161DD"/>
<path d="M1281.84 105.659C1283.87 103.733 1283.58 102.175 1281.03 102.175C1278.48 102.175 1274.7 103.733 1272.59 105.659C1270.49 107.586 1270.83 109.143 1273.38 109.143C1275.93 109.143 1279.72 107.586 1281.84 105.659Z" fill="#6161DD"/>
<path d="M1422.63 112.896C1424.65 110.969 1424.39 109.412 1421.82 109.412C1419.25 109.412 1415.48 110.969 1413.38 112.896C1411.27 114.823 1411.62 116.38 1414.17 116.38C1416.72 116.38 1420.5 114.823 1422.63 112.896Z" fill="#6161DD"/>
<path d="M1320.85 32.8163C1319.05 34.4543 1319.35 35.7835 1321.54 35.7835C1323.72 35.7835 1326.94 34.4409 1328.74 32.8163C1330.55 31.1918 1330.24 29.8425 1328.06 29.8425C1325.87 29.8425 1322.65 31.1716 1320.85 32.8163Z" fill="#6161DD"/>
<path d="M1364.55 125.751C1363.78 126.423 1363.93 127 1364.84 127C1365.75 127 1367.1 126.443 1367.85 125.751C1368.6 125.06 1368.48 124.509 1367.57 124.509C1366.66 124.509 1365.32 125.067 1364.55 125.751Z" fill="#6161DD"/>
<path d="M1134.46 21.4881C1135.96 20.1052 1135.71 18.9909 1133.87 18.9909C1132.03 18.9909 1129.36 20.1052 1127.8 21.4881C1126.24 22.871 1126.54 23.9786 1128.37 23.9786C1130.19 23.9786 1132.94 22.8844 1134.46 21.4881Z" fill="#6161DD"/>
<path d="M1097.96 13.5734C1099.48 12.2308 1099.22 11.0762 1097.4 11.0762C1095.57 11.0762 1092.86 12.1973 1091.32 13.5734C1089.78 14.9496 1090.07 16.064 1091.89 16.064C1093.71 16.064 1096.46 14.9496 1097.96 13.5734Z" fill="#6161DD"/>
<path d="M1103.81 71.9432C1102.29 73.3194 1102.56 74.4337 1104.38 74.4337C1106.2 74.4337 1108.91 73.3194 1110.45 71.9432C1111.99 70.567 1111.71 69.4527 1109.86 69.4527C1108.02 69.4527 1105.33 70.567 1103.81 71.9432Z" fill="#6161DD"/>
<path d="M1129.63 59.9161C1131.65 57.9895 1131.39 56.4254 1128.82 56.4254C1126.25 56.4254 1122.48 57.9895 1120.38 59.9161C1118.27 61.8428 1118.62 63.4002 1121.17 63.4002C1123.72 63.4002 1127.5 61.8428 1129.63 59.9161Z" fill="#6161DD"/>
<path d="M968.996 13.5735C970.515 12.1705 970.252 11.0427 968.409 11.0427C966.567 11.0427 963.814 12.1705 962.337 13.5735C960.859 14.9765 961.061 16.0976 962.924 16.0976C964.786 16.0976 967.438 14.9698 968.996 13.5735Z" fill="#6161DD"/>
<path d="M886.416 19.9798C884.599 21.3591 884.404 22.6626 885.982 22.8912C887.56 23.1198 890.312 22.1869 892.129 20.8075C893.946 19.4282 894.14 18.1247 892.563 17.8961C890.985 17.6675 888.233 18.6004 886.416 19.9798Z" fill="#6161DD"/>
<path d="M838.635 35.7936C840.153 34.4174 839.89 33.3031 838.068 33.3031C836.246 33.3031 833.534 34.4174 831.995 35.7936C830.457 37.1698 830.74 38.2841 832.582 38.2841C834.424 38.2841 837.116 37.1698 838.635 35.7936Z" fill="#6161DD"/>
<path d="M932.924 23.9988C933.673 23.3275 933.552 22.7502 932.641 22.7502C931.73 22.7502 930.374 23.3073 929.625 23.9988C928.876 24.6902 928.997 25.2407 929.908 25.2407C930.819 25.2407 932.175 24.6835 932.924 23.9988Z" fill="#6161DD"/>
<path d="M988.956 24.9722C989.725 24.3009 989.583 23.7302 988.672 23.7302C987.761 23.7302 986.405 24.2874 985.656 24.9722C984.907 25.6569 985.029 26.2208 985.94 26.2208C986.851 26.2208 988.207 25.6636 988.956 24.9722Z" fill="#6161DD"/>
<path d="M969.907 39.5327C968.389 40.9089 968.652 42.03 970.474 42.03C972.296 42.03 975.008 40.9089 976.547 39.5327C978.085 38.1566 977.802 37.0422 975.98 37.0422C974.158 37.0422 971.486 38.1566 969.907 39.5327Z" fill="#6161DD"/>
<path d="M957.317 59.3361C955.819 60.7123 956.062 61.8267 957.904 61.8267C959.746 61.8267 962.418 60.7123 963.976 59.3361C965.535 57.96 965.232 56.8389 963.41 56.8389C961.588 56.8389 958.754 57.96 957.317 59.3361Z" fill="#6161DD"/>
<path d="M853.27 10.4116C851.752 11.7945 852.015 12.9089 853.837 12.9089C855.659 12.9089 858.371 11.7945 859.91 10.4116C861.448 9.02875 861.165 7.92111 859.343 7.92111C857.521 7.92111 854.768 9.03546 853.27 10.4116Z" fill="#6161DD"/>
<path d="M1075.74 80.3412C1077.25 78.9986 1076.99 77.8506 1075.17 77.8506C1073.35 77.8506 1070.63 78.965 1069.1 80.3412C1067.56 81.7173 1067.84 82.8317 1069.66 82.8317C1071.48 82.8317 1074.24 81.7173 1075.74 80.3412Z" fill="#6161DD"/>
<path d="M1108 31.4368C1110.65 29.0201 1110.21 27.0599 1107.01 27.0599C1103.81 27.0599 1099.05 29.0201 1096.38 31.4368C1093.71 33.8535 1094.2 35.8137 1097.39 35.8137C1100.59 35.8137 1105.35 33.8535 1108 31.4368Z" fill="#6161DD"/>
<path d="M1116.18 52.0324C1116.93 51.3611 1116.81 50.7905 1115.9 50.7905C1114.99 50.7905 1113.63 51.3477 1112.86 52.0324C1112.09 52.7171 1112.23 53.281 1113.14 53.281C1114.05 53.281 1115.41 52.7238 1116.18 52.0324Z" fill="#6161DD"/>
<path d="M1054.97 109.308C1055.74 108.637 1055.59 108.059 1054.68 108.059C1053.77 108.059 1052.42 108.616 1051.67 109.308C1050.92 109.999 1051.04 110.55 1051.95 110.55C1052.86 110.55 1054.22 109.993 1054.97 109.308Z" fill="#6161DD"/>
<path d="M994.138 71.574C992.64 72.9166 992.883 74.0645 994.705 74.0645C996.526 74.0645 999.239 72.9501 1000.78 71.574C1002.32 70.1978 1002.03 69.0834 1000.21 69.0834C998.389 69.0834 995.656 70.1978 994.138 71.574Z" fill="#6161DD"/>
<path d="M991.729 50.5219C990.211 51.8981 990.474 53.0125 992.296 53.0125C994.118 53.0125 996.83 51.8981 998.368 50.5219C999.907 49.1458 999.623 48.0314 997.802 48.0314C995.98 48.0314 993.186 49.1458 991.729 50.5219Z" fill="#6161DD"/>
<path d="M879.889 94.4989C878.371 95.8751 878.634 96.9962 880.456 96.9962C882.278 96.9962 884.99 95.8751 886.529 94.4989C888.067 93.1228 887.784 92.0084 885.942 92.0084C884.099 92.0084 881.407 93.1228 879.889 94.4989Z" fill="#6161DD"/>
<path d="M949.908 119.726C947.884 121.653 948.167 123.211 950.718 123.211C953.268 123.211 957.054 121.653 959.179 119.726C961.304 117.8 960.92 116.236 958.369 116.236C955.819 116.236 952.033 117.8 949.908 119.726Z" fill="#6161DD"/>
<path d="M909.382 61.6051C907.864 62.9813 908.127 64.0956 909.949 64.0956C911.771 64.0956 914.483 62.9813 916.022 61.6051C917.56 60.2289 917.277 59.1146 915.435 59.1146C913.593 59.1146 910.88 60.2289 909.382 61.6051Z" fill="#6161DD"/>
<path d="M904.807 39.2843C903.289 40.6605 903.552 41.7749 905.374 41.7749C907.196 41.7749 909.909 40.6605 911.447 39.2843C912.985 37.9082 912.702 36.7938 910.86 36.7938C909.018 36.7938 906.326 37.9082 904.807 39.2843Z" fill="#6161DD"/>
<path d="M939.098 76.602C937.6 77.9782 937.843 79.0993 939.665 79.0993C941.487 79.0993 944.199 77.9782 945.738 76.602C947.276 75.2259 946.993 74.1115 945.171 74.1115C943.349 74.1115 940.556 75.1923 939.098 76.602Z" fill="#6161DD"/>
<path d="M836.469 84.2616C834.95 85.6377 835.214 86.7588 837.035 86.7588C838.857 86.7588 841.57 85.6377 843.108 84.2616C844.647 82.8854 844.363 81.7711 842.521 81.7711C840.679 81.7711 837.886 82.8854 836.469 84.2616Z" fill="#6161DD"/>
<path d="M832.016 69.4527C830.518 70.8288 830.761 71.9432 832.603 71.9432C834.445 71.9432 837.137 70.8288 838.675 69.4527C840.214 68.0765 839.93 66.9621 838.108 66.9621C836.287 66.9621 833.534 68.0765 832.016 69.4527Z" fill="#6161DD"/>
<path d="M1054.85 22.8778C1056.34 21.5016 1056.1 20.3805 1054.26 20.3805C1052.42 20.3805 1049.74 21.5016 1048.19 22.8778C1046.63 24.2539 1046.93 25.3683 1048.75 25.3683C1050.57 25.3683 1053.33 24.2539 1054.85 22.8778Z" fill="#6161DD"/>
<path d="M883.532 74.6619C885.557 72.7353 885.294 71.1712 882.723 71.1712C880.152 71.1712 876.387 72.7353 874.282 74.6619C872.176 76.5886 872.521 78.146 875.071 78.146C877.622 78.146 881.407 76.5819 883.532 74.6619Z" fill="#6161DD"/>
<path d="M867.197 52.0324C869.221 50.1057 868.958 48.5483 866.407 48.5483C863.857 48.5483 860.051 50.1057 857.946 52.0324C855.841 53.959 856.185 55.5231 858.756 55.5231C861.326 55.5231 865.092 53.959 867.197 52.0324Z" fill="#6161DD"/>
<path d="M1050.17 68.8418C1048.65 70.2179 1048.91 71.3323 1050.74 71.3323C1052.56 71.3323 1055.27 70.2179 1056.81 68.8418C1058.35 67.4656 1058.06 66.3512 1056.22 66.3512C1054.38 66.3512 1051.69 67.4656 1050.17 68.8418Z" fill="#6161DD"/>
<path d="M1000.27 85.3827C1002.3 83.456 1002.03 81.8986 999.482 81.8986C996.931 81.8986 993.126 83.456 991.02 85.3827C988.915 87.3093 989.259 88.8667 991.83 88.8667C994.401 88.8667 998.166 87.2757 1000.27 85.3827Z" fill="#6161DD"/>
<path d="M1047.86 43.0503C1048.61 42.379 1048.49 41.8084 1047.58 41.8084C1046.67 41.8084 1045.31 42.3656 1044.56 43.0503C1043.81 43.7351 1043.93 44.299 1044.85 44.299C1045.76 44.299 1047.11 43.7418 1047.86 43.0503Z" fill="#6161DD"/>
<path d="M908.208 4.16178C906.285 5.90717 906.609 7.32361 908.937 7.32361C911.265 7.32361 914.686 5.90717 916.609 4.16178C918.532 2.4164 918.188 0.999955 915.88 0.999955C913.572 0.999955 910.131 2.4164 908.208 4.16178Z" fill="#6161DD"/>
<path d="M942.216 98.2381C941.467 98.9094 941.588 99.4867 942.499 99.4867C943.41 99.4867 944.766 98.9295 945.515 98.2381C946.264 97.5467 946.143 96.9962 945.232 96.9962C944.321 96.9962 942.965 97.5534 942.216 98.2381Z" fill="#6161DD"/>
<path d="M1109.14 88.4035C1107.62 89.7461 1107.88 90.894 1109.7 90.894C1111.52 90.894 1114.24 89.7796 1115.78 88.4035C1117.31 87.0273 1117.03 85.9062 1115.21 85.9062C1113.39 85.9062 1110.57 87.0273 1109.14 88.4035Z" fill="#6161DD"/>
<path d="M998.247 122.143C996.729 123.486 996.992 124.64 998.814 124.64C1000.64 124.64 1003.35 123.519 1004.89 122.143C1006.43 120.767 1006.14 119.653 1004.32 119.653C1002.5 119.653 999.826 120.767 998.247 122.143Z" fill="#6161DD"/>
<path d="M1027.72 89.2494C1026.22 90.6255 1026.47 91.7399 1028.31 91.7399C1030.15 91.7399 1032.84 90.6255 1034.38 89.2494C1035.92 87.8732 1035.63 86.7588 1033.81 86.7588C1031.99 86.7588 1029.24 87.8732 1027.72 89.2494Z" fill="#6161DD"/>
<path d="M1056.77 40.7881C1055.25 42.1642 1055.51 43.2853 1057.33 43.2853C1059.16 43.2853 1061.87 42.1642 1063.41 40.7881C1064.95 39.4119 1064.66 38.2975 1062.82 38.2975C1060.98 38.2975 1058.29 39.4119 1056.77 40.7881Z" fill="#6161DD"/>
<path d="M836.469 98.9765C834.95 100.319 835.214 101.467 837.035 101.467C838.857 101.467 841.57 100.353 843.108 98.9765C844.647 97.6004 844.363 96.486 842.521 96.486C840.679 96.486 837.886 97.6004 836.469 98.9765Z" fill="#6161DD"/>
<path d="M930.536 88.8667C929.038 90.2093 929.281 91.364 931.123 91.364C932.965 91.364 935.637 90.2429 937.196 88.8667C938.754 87.4905 938.451 86.3762 936.629 86.3762C934.807 86.3762 932.054 87.4905 930.536 88.8667Z" fill="#6161DD"/>
<path d="M977.843 105.79C979.867 103.864 979.583 102.306 977.033 102.306C974.482 102.306 970.697 103.864 968.592 105.79C966.487 107.717 966.831 109.274 969.381 109.274C971.932 109.274 975.717 107.717 977.843 105.79Z" fill="#6161DD"/>
<path d="M1118.63 113.027C1120.65 111.1 1120.39 109.543 1117.82 109.543C1115.25 109.543 1111.48 111.1 1109.38 113.027C1107.27 114.954 1107.62 116.511 1110.17 116.511C1112.72 116.511 1116.5 114.954 1118.63 113.027Z" fill="#6161DD"/>
<path d="M1016.85 32.9473C1015.05 34.5853 1015.35 35.9144 1017.54 35.9144C1019.72 35.9144 1022.94 34.5718 1024.74 32.9473C1026.55 31.3227 1026.24 29.9734 1024.06 29.9734C1021.87 29.9734 1018.65 31.3026 1016.85 32.9473Z" fill="#6161DD"/>
<path d="M1060.55 125.882C1059.78 126.554 1059.93 127.131 1060.84 127.131C1061.75 127.131 1063.1 126.574 1063.85 125.882C1064.6 125.191 1064.48 124.64 1063.57 124.64C1062.66 124.64 1061.32 125.198 1060.55 125.882Z" fill="#6161DD"/>
<path d="M830.459 21.4881C831.957 20.1052 831.714 18.9909 829.872 18.9909C828.03 18.9909 825.358 20.1052 823.799 21.4881C822.24 22.871 822.544 23.9786 824.366 23.9786C826.188 23.9786 828.941 22.8844 830.459 21.4881Z" fill="#6161DD"/>
<path d="M793.962 13.5734C795.48 12.2308 795.217 11.0762 793.395 11.0762C791.573 11.0762 788.861 12.1973 787.322 13.5734C785.784 14.9496 786.067 16.064 787.889 16.064C789.711 16.064 792.464 14.9496 793.962 13.5734Z" fill="#6161DD"/>
<path d="M799.812 71.9432C798.294 73.3194 798.557 74.4337 800.379 74.4337C802.2 74.4337 804.913 73.3194 806.451 71.9432C807.99 70.567 807.706 69.4527 805.864 69.4527C804.022 69.4527 801.33 70.567 799.812 71.9432Z" fill="#6161DD"/>
<path d="M825.628 59.9161C827.652 57.9895 827.389 56.4254 824.818 56.4254C822.247 56.4254 818.482 57.9895 816.377 59.9161C814.272 61.8428 814.616 63.4002 817.167 63.4002C819.717 63.4002 823.502 61.8428 825.628 59.9161Z" fill="#6161DD"/>
<path d="M664.996 13.5735C666.515 12.1705 666.252 11.0427 664.409 11.0427C662.567 11.0427 659.814 12.1705 658.337 13.5735C656.859 14.9765 657.061 16.0976 658.924 16.0976C660.786 16.0976 663.438 14.9698 664.996 13.5735Z" fill="#6161DD"/>
<path d="M582.416 19.9798C580.599 21.3591 580.404 22.6626 581.982 22.8912C583.56 23.1198 586.312 22.1869 588.129 20.8075C589.946 19.4282 590.14 18.1247 588.563 17.8961C586.985 17.6675 584.233 18.6004 582.416 19.9798Z" fill="#6161DD"/>
<path d="M534.635 35.7936C536.153 34.4174 535.89 33.3031 534.068 33.3031C532.246 33.3031 529.534 34.4174 527.995 35.7936C526.457 37.1698 526.74 38.2841 528.582 38.2841C530.424 38.2841 533.116 37.1698 534.635 35.7936Z" fill="#6161DD"/>
<path d="M628.924 23.9988C629.673 23.3275 629.552 22.7502 628.641 22.7502C627.73 22.7502 626.374 23.3073 625.625 23.9988C624.876 24.6902 624.997 25.2407 625.908 25.2407C626.819 25.2407 628.175 24.6835 628.924 23.9988Z" fill="#6161DD"/>
<path d="M684.956 24.9722C685.725 24.3009 685.583 23.7302 684.672 23.7302C683.761 23.7302 682.405 24.2874 681.656 24.9722C680.907 25.6569 681.029 26.2208 681.94 26.2208C682.851 26.2208 684.207 25.6636 684.956 24.9722Z" fill="#6161DD"/>
<path d="M665.907 39.5327C664.389 40.9089 664.652 42.03 666.474 42.03C668.296 42.03 671.008 40.9089 672.547 39.5327C674.085 38.1566 673.802 37.0422 671.98 37.0422C670.158 37.0422 667.486 38.1566 665.907 39.5327Z" fill="#6161DD"/>
<path d="M653.317 59.3361C651.819 60.7123 652.062 61.8267 653.904 61.8267C655.746 61.8267 658.418 60.7123 659.976 59.3361C661.535 57.96 661.232 56.8389 659.41 56.8389C657.588 56.8389 654.754 57.96 653.317 59.3361Z" fill="#6161DD"/>
<path d="M549.27 10.4116C547.752 11.7945 548.015 12.9089 549.837 12.9089C551.659 12.9089 554.371 11.7945 555.91 10.4116C557.448 9.02875 557.165 7.92111 555.343 7.92111C553.521 7.92111 550.768 9.03546 549.27 10.4116Z" fill="#6161DD"/>
<path d="M771.735 80.3412C773.254 78.9986 772.991 77.8506 771.169 77.8506C769.347 77.8506 766.634 78.965 765.096 80.3412C763.558 81.7173 763.841 82.8317 765.663 82.8317C767.485 82.8317 770.238 81.7173 771.735 80.3412Z" fill="#6161DD"/>
<path d="M804.002 31.4368C806.654 29.0201 806.208 27.0599 803.01 27.0599C799.812 27.0599 795.055 29.0201 792.383 31.4368C789.711 33.8535 790.197 35.8137 793.395 35.8137C796.593 35.8137 801.35 33.8535 804.002 31.4368Z" fill="#6161DD"/>
<path d="M812.18 52.0324C812.929 51.3611 812.808 50.7905 811.897 50.7905C810.986 50.7905 809.63 51.3477 808.86 52.0324C808.091 52.7171 808.233 53.281 809.144 53.281C810.055 53.281 811.411 52.7238 812.18 52.0324Z" fill="#6161DD"/>
<path d="M750.967 109.308C751.736 108.637 751.594 108.059 750.683 108.059C749.772 108.059 748.416 108.616 747.667 109.308C746.918 109.999 747.04 110.55 747.951 110.55C748.861 110.55 750.218 109.993 750.967 109.308Z" fill="#6161DD"/>
<path d="M690.138 71.574C688.64 72.9166 688.883 74.0645 690.705 74.0645C692.526 74.0645 695.239 72.9501 696.777 71.574C698.316 70.1978 698.032 69.0834 696.211 69.0834C694.389 69.0834 691.656 70.1978 690.138 71.574Z" fill="#6161DD"/>
<path d="M687.729 50.5219C686.211 51.8981 686.474 53.0125 688.296 53.0125C690.118 53.0125 692.83 51.8981 694.368 50.5219C695.907 49.1458 695.623 48.0314 693.802 48.0314C691.98 48.0314 689.186 49.1458 687.729 50.5219Z" fill="#6161DD"/>
<path d="M575.889 94.4989C574.371 95.8751 574.634 96.9962 576.456 96.9962C578.278 96.9962 580.99 95.8751 582.529 94.4989C584.067 93.1228 583.784 92.0084 581.942 92.0084C580.099 92.0084 577.407 93.1228 575.889 94.4989Z" fill="#6161DD"/>
<path d="M645.908 119.726C643.884 121.653 644.167 123.211 646.718 123.211C649.268 123.211 653.054 121.653 655.179 119.726C657.304 117.8 656.92 116.236 654.369 116.236C651.819 116.236 648.033 117.8 645.908 119.726Z" fill="#6161DD"/>
<path d="M605.382 61.6051C603.864 62.9813 604.127 64.0956 605.949 64.0956C607.771 64.0956 610.483 62.9813 612.022 61.6051C613.56 60.2289 613.277 59.1146 611.435 59.1146C609.593 59.1146 606.88 60.2289 605.382 61.6051Z" fill="#6161DD"/>
<path d="M600.807 39.2843C599.289 40.6605 599.552 41.7749 601.374 41.7749C603.196 41.7749 605.909 40.6605 607.447 39.2843C608.985 37.9082 608.702 36.7938 606.86 36.7938C605.018 36.7938 602.326 37.9082 600.807 39.2843Z" fill="#6161DD"/>
<path d="M635.098 76.602C633.6 77.9782 633.843 79.0993 635.665 79.0993C637.487 79.0993 640.199 77.9782 641.738 76.602C643.276 75.2259 642.993 74.1115 641.171 74.1115C639.349 74.1115 636.556 75.1923 635.098 76.602Z" fill="#6161DD"/>
<path d="M532.469 84.2616C530.95 85.6377 531.214 86.7588 533.035 86.7588C534.857 86.7588 537.57 85.6377 539.108 84.2616C540.647 82.8854 540.363 81.7711 538.521 81.7711C536.679 81.7711 533.886 82.8854 532.469 84.2616Z" fill="#6161DD"/>
<path d="M528.016 69.4527C526.518 70.8288 526.761 71.9432 528.603 71.9432C530.445 71.9432 533.137 70.8288 534.675 69.4527C536.214 68.0765 535.93 66.9621 534.108 66.9621C532.287 66.9621 529.534 68.0765 528.016 69.4527Z" fill="#6161DD"/>
<path d="M750.845 22.8778C752.343 21.5016 752.1 20.3805 750.258 20.3805C748.416 20.3805 745.744 21.5016 744.185 22.8778C742.627 24.2539 742.93 25.3683 744.752 25.3683C746.574 25.3683 749.327 24.2539 750.845 22.8778Z" fill="#6161DD"/>
<path d="M579.532 74.6619C581.557 72.7353 581.294 71.1712 578.723 71.1712C576.152 71.1712 572.387 72.7353 570.282 74.6619C568.176 76.5886 568.521 78.146 571.071 78.146C573.622 78.146 577.407 76.5819 579.532 74.6619Z" fill="#6161DD"/>
<path d="M563.197 52.0324C565.221 50.1057 564.958 48.5483 562.407 48.5483C559.857 48.5483 556.051 50.1057 553.946 52.0324C551.841 53.959 552.185 55.5231 554.756 55.5231C557.326 55.5231 561.092 53.959 563.197 52.0324Z" fill="#6161DD"/>
<path d="M746.169 68.8418C744.651 70.2179 744.914 71.3323 746.736 71.3323C748.558 71.3323 751.27 70.2179 752.809 68.8418C754.347 67.4656 754.064 66.3512 752.222 66.3512C750.379 66.3512 747.687 67.4656 746.169 68.8418Z" fill="#6161DD"/>
<path d="M696.271 85.3827C698.295 83.456 698.032 81.8986 695.482 81.8986C692.931 81.8986 689.126 83.456 687.02 85.3827C684.915 87.3093 685.259 88.8667 687.83 88.8667C690.401 88.8667 694.166 87.2757 696.271 85.3827Z" fill="#6161DD"/>
<path d="M743.861 43.0503C744.61 42.379 744.489 41.8084 743.578 41.8084C742.667 41.8084 741.311 42.3656 740.562 43.0503C739.813 43.7351 739.934 44.299 740.845 44.299C741.756 44.299 743.112 43.7418 743.861 43.0503Z" fill="#6161DD"/>
<path d="M604.208 4.16178C602.285 5.90717 602.609 7.32361 604.937 7.32361C607.265 7.32361 610.686 5.90717 612.609 4.16178C614.532 2.4164 614.188 0.999955 611.88 0.999955C609.572 0.999955 606.131 2.4164 604.208 4.16178Z" fill="#6161DD"/>
<path d="M638.216 98.2381C637.467 98.9094 637.588 99.4867 638.499 99.4867C639.41 99.4867 640.766 98.9295 641.515 98.2381C642.264 97.5467 642.143 96.9962 641.232 96.9962C640.321 96.9962 638.965 97.5534 638.216 98.2381Z" fill="#6161DD"/>
<path d="M805.136 88.4035C803.617 89.7461 803.881 90.894 805.702 90.894C807.524 90.894 810.237 89.7796 811.775 88.4035C813.314 87.0273 813.03 85.9062 811.208 85.9062C809.387 85.9062 806.573 87.0273 805.136 88.4035Z" fill="#6161DD"/>
<path d="M694.247 122.143C692.729 123.486 692.992 124.64 694.814 124.64C696.636 124.64 699.348 123.519 700.887 122.143C702.425 120.767 702.142 119.653 700.32 119.653C698.498 119.653 695.826 120.767 694.247 122.143Z" fill="#6161DD"/>
<path d="M723.72 89.2494C722.222 90.6255 722.465 91.7399 724.307 91.7399C726.149 91.7399 728.841 90.6255 730.38 89.2494C731.918 87.8732 731.635 86.7588 729.813 86.7588C727.991 86.7588 725.238 87.8732 723.72 89.2494Z" fill="#6161DD"/>
<path d="M752.768 40.7881C751.25 42.1642 751.513 43.2853 753.335 43.2853C755.157 43.2853 757.869 42.1642 759.408 40.7881C760.946 39.4119 760.663 38.2975 758.821 38.2975C756.979 38.2975 754.286 39.4119 752.768 40.7881Z" fill="#6161DD"/>
<path d="M532.469 98.9765C530.95 100.319 531.214 101.467 533.035 101.467C534.857 101.467 537.57 100.353 539.108 98.9765C540.647 97.6004 540.363 96.486 538.521 96.486C536.679 96.486 533.886 97.6004 532.469 98.9765Z" fill="#6161DD"/>
<path d="M626.536 88.8667C625.038 90.2093 625.281 91.364 627.123 91.364C628.965 91.364 631.637 90.2429 633.196 88.8667C634.754 87.4905 634.451 86.3762 632.629 86.3762C630.807 86.3762 628.054 87.4905 626.536 88.8667Z" fill="#6161DD"/>
<path d="M673.843 105.79C675.867 103.864 675.583 102.306 673.033 102.306C670.482 102.306 666.697 103.864 664.592 105.79C662.487 107.717 662.831 109.274 665.381 109.274C667.932 109.274 671.717 107.717 673.843 105.79Z" fill="#6161DD"/>
<path d="M814.629 113.027C816.653 111.1 816.39 109.543 813.819 109.543C811.249 109.543 807.484 111.1 805.378 113.027C803.273 114.954 803.617 116.511 806.168 116.511C808.718 116.511 812.504 114.954 814.629 113.027Z" fill="#6161DD"/>
<path d="M712.85 32.9473C711.048 34.5853 711.352 35.9144 713.538 35.9144C715.724 35.9144 718.943 34.5718 720.744 32.9473C722.546 31.3227 722.242 29.9734 720.056 29.9734C717.87 29.9734 714.651 31.3026 712.85 32.9473Z" fill="#6161DD"/>
<path d="M756.553 125.882C755.784 126.554 755.926 127.131 756.837 127.131C757.748 127.131 759.104 126.574 759.853 125.882C760.602 125.191 760.481 124.64 759.57 124.64C758.659 124.64 757.323 125.198 756.553 125.882Z" fill="#6161DD"/>
<path d="M527.459 21.4881C528.957 20.1052 528.714 18.9909 526.872 18.9909C525.03 18.9909 522.358 20.1052 520.799 21.4881C519.24 22.871 519.544 23.9786 521.366 23.9786C523.188 23.9786 525.941 22.8844 527.459 21.4881Z" fill="#6161DD"/>
<path d="M490.962 13.5734C492.48 12.2308 492.217 11.0762 490.395 11.0762C488.573 11.0762 485.861 12.1973 484.322 13.5734C482.784 14.9496 483.067 16.064 484.889 16.064C486.711 16.064 489.464 14.9496 490.962 13.5734Z" fill="#6161DD"/>
<path d="M496.812 71.9432C495.294 73.3194 495.557 74.4337 497.379 74.4337C499.2 74.4337 501.913 73.3194 503.451 71.9432C504.99 70.567 504.706 69.4527 502.864 69.4527C501.022 69.4527 498.33 70.567 496.812 71.9432Z" fill="#6161DD"/>
<path d="M522.628 59.9161C524.652 57.9895 524.389 56.4254 521.818 56.4254C519.247 56.4254 515.482 57.9895 513.377 59.9161C511.272 61.8428 511.616 63.4002 514.167 63.4002C516.717 63.4002 520.502 61.8428 522.628 59.9161Z" fill="#6161DD"/>
<path d="M361.996 13.5735C363.515 12.1705 363.252 11.0427 361.409 11.0427C359.567 11.0427 356.814 12.1705 355.337 13.5735C353.859 14.9765 354.061 16.0976 355.924 16.0976C357.786 16.0976 360.438 14.9698 361.996 13.5735Z" fill="#6161DD"/>
<path d="M279.416 19.9798C277.599 21.3591 277.404 22.6626 278.982 22.8912C280.56 23.1198 283.312 22.1869 285.129 20.8075C286.946 19.4282 287.14 18.1247 285.563 17.8961C283.985 17.6675 281.233 18.6004 279.416 19.9798Z" fill="#6161DD"/>
<path d="M231.635 35.7936C233.153 34.4174 232.89 33.3031 231.068 33.3031C229.246 33.3031 226.534 34.4174 224.995 35.7936C223.457 37.1698 223.74 38.2841 225.582 38.2841C227.424 38.2841 230.116 37.1698 231.635 35.7936Z" fill="#6161DD"/>
<path d="M325.924 23.9988C326.673 23.3275 326.552 22.7502 325.641 22.7502C324.73 22.7502 323.374 23.3073 322.625 23.9988C321.876 24.6902 321.997 25.2407 322.908 25.2407C323.819 25.2407 325.175 24.6835 325.924 23.9988Z" fill="#6161DD"/>
<path d="M381.956 24.9722C382.725 24.3009 382.583 23.7302 381.672 23.7302C380.761 23.7302 379.405 24.2874 378.656 24.9722C377.907 25.6569 378.029 26.2208 378.94 26.2208C379.851 26.2208 381.207 25.6636 381.956 24.9722Z" fill="#6161DD"/>
<path d="M362.907 39.5327C361.389 40.9089 361.652 42.03 363.474 42.03C365.296 42.03 368.008 40.9089 369.547 39.5327C371.085 38.1566 370.802 37.0422 368.98 37.0422C367.158 37.0422 364.486 38.1566 362.907 39.5327Z" fill="#6161DD"/>
<path d="M350.317 59.3361C348.819 60.7123 349.062 61.8267 350.904 61.8267C352.746 61.8267 355.418 60.7123 356.976 59.3361C358.535 57.96 358.232 56.8389 356.41 56.8389C354.588 56.8389 351.754 57.96 350.317 59.3361Z" fill="#6161DD"/>
<path d="M246.27 10.4116C244.752 11.7945 245.015 12.9089 246.837 12.9089C248.659 12.9089 251.371 11.7945 252.91 10.4116C254.448 9.02875 254.165 7.92111 252.343 7.92111C250.521 7.92111 247.768 9.03546 246.27 10.4116Z" fill="#6161DD"/>
<path d="M468.735 80.3412C470.254 78.9986 469.991 77.8506 468.169 77.8506C466.347 77.8506 463.634 78.965 462.096 80.3412C460.558 81.7173 460.841 82.8317 462.663 82.8317C464.485 82.8317 467.238 81.7173 468.735 80.3412Z" fill="#6161DD"/>
<path d="M501.002 31.4368C503.654 29.0201 503.208 27.0599 500.01 27.0599C496.812 27.0599 492.055 29.0201 489.383 31.4368C486.711 33.8535 487.197 35.8137 490.395 35.8137C493.593 35.8137 498.35 33.8535 501.002 31.4368Z" fill="#6161DD"/>
<path d="M509.18 52.0324C509.929 51.3611 509.808 50.7905 508.897 50.7905C507.986 50.7905 506.63 51.3477 505.86 52.0324C505.091 52.7171 505.233 53.281 506.144 53.281C507.055 53.281 508.411 52.7238 509.18 52.0324Z" fill="#6161DD"/>
<path d="M447.967 109.308C448.736 108.637 448.594 108.059 447.683 108.059C446.772 108.059 445.416 108.616 444.667 109.308C443.918 109.999 444.04 110.55 444.951 110.55C445.861 110.55 447.218 109.993 447.967 109.308Z" fill="#6161DD"/>
<path d="M387.138 71.574C385.64 72.9166 385.883 74.0645 387.705 74.0645C389.526 74.0645 392.239 72.9501 393.777 71.574C395.316 70.1978 395.032 69.0834 393.211 69.0834C391.389 69.0834 388.656 70.1978 387.138 71.574Z" fill="#6161DD"/>
<path d="M384.729 50.5219C383.211 51.8981 383.474 53.0125 385.296 53.0125C387.118 53.0125 389.83 51.8981 391.368 50.5219C392.907 49.1458 392.623 48.0314 390.802 48.0314C388.98 48.0314 386.186 49.1458 384.729 50.5219Z" fill="#6161DD"/>
<path d="M272.889 94.4989C271.371 95.8751 271.634 96.9962 273.456 96.9962C275.278 96.9962 277.99 95.8751 279.529 94.4989C281.067 93.1228 280.784 92.0084 278.942 92.0084C277.099 92.0084 274.407 93.1228 272.889 94.4989Z" fill="#6161DD"/>
<path d="M342.908 119.726C340.884 121.653 341.167 123.211 343.718 123.211C346.268 123.211 350.054 121.653 352.179 119.726C354.304 117.8 353.92 116.236 351.369 116.236C348.819 116.236 345.033 117.8 342.908 119.726Z" fill="#6161DD"/>
<path d="M302.382 61.6051C300.864 62.9813 301.127 64.0956 302.949 64.0956C304.771 64.0956 307.483 62.9813 309.022 61.6051C310.56 60.2289 310.277 59.1146 308.435 59.1146C306.593 59.1146 303.88 60.2289 302.382 61.6051Z" fill="#6161DD"/>
<path d="M297.807 39.2843C296.289 40.6605 296.552 41.7749 298.374 41.7749C300.196 41.7749 302.909 40.6605 304.447 39.2843C305.985 37.9082 305.702 36.7938 303.86 36.7938C302.018 36.7938 299.326 37.9082 297.807 39.2843Z" fill="#6161DD"/>
<path d="M332.098 76.602C330.6 77.9782 330.843 79.0993 332.665 79.0993C334.487 79.0993 337.199 77.9782 338.738 76.602C340.276 75.2259 339.993 74.1115 338.171 74.1115C336.349 74.1115 333.556 75.1923 332.098 76.602Z" fill="#6161DD"/>
<path d="M229.469 84.2616C227.95 85.6377 228.214 86.7588 230.035 86.7588C231.857 86.7588 234.57 85.6377 236.108 84.2616C237.647 82.8854 237.363 81.7711 235.521 81.7711C233.679 81.7711 230.886 82.8854 229.469 84.2616Z" fill="#6161DD"/>
<path d="M225.016 69.4527C223.518 70.8288 223.761 71.9432 225.603 71.9432C227.445 71.9432 230.137 70.8288 231.675 69.4527C233.214 68.0765 232.93 66.9621 231.108 66.9621C229.287 66.9621 226.534 68.0765 225.016 69.4527Z" fill="#6161DD"/>
<path d="M447.845 22.8778C449.343 21.5016 449.1 20.3805 447.258 20.3805C445.416 20.3805 442.744 21.5016 441.185 22.8778C439.627 24.2539 439.93 25.3683 441.752 25.3683C443.574 25.3683 446.327 24.2539 447.845 22.8778Z" fill="#6161DD"/>
<path d="M276.532 74.6619C278.557 72.7353 278.294 71.1712 275.723 71.1712C273.152 71.1712 269.387 72.7353 267.282 74.6619C265.176 76.5886 265.521 78.146 268.071 78.146C270.622 78.146 274.407 76.5819 276.532 74.6619Z" fill="#6161DD"/>
<path d="M260.197 52.0324C262.221 50.1057 261.958 48.5483 259.407 48.5483C256.857 48.5483 253.051 50.1057 250.946 52.0324C248.841 53.959 249.185 55.5231 251.756 55.5231C254.326 55.5231 258.092 53.959 260.197 52.0324Z" fill="#6161DD"/>
<path d="M443.169 68.8418C441.651 70.2179 441.914 71.3323 443.736 71.3323C445.558 71.3323 448.27 70.2179 449.809 68.8418C451.347 67.4656 451.064 66.3512 449.222 66.3512C447.379 66.3512 444.687 67.4656 443.169 68.8418Z" fill="#6161DD"/>
<path d="M393.271 85.3827C395.295 83.456 395.032 81.8986 392.482 81.8986C389.931 81.8986 386.126 83.456 384.02 85.3827C381.915 87.3093 382.259 88.8667 384.83 88.8667C387.401 88.8667 391.166 87.2757 393.271 85.3827Z" fill="#6161DD"/>
<path d="M440.861 43.0503C441.61 42.379 441.489 41.8084 440.578 41.8084C439.667 41.8084 438.311 42.3656 437.562 43.0503C436.813 43.7351 436.934 44.299 437.845 44.299C438.756 44.299 440.112 43.7418 440.861 43.0503Z" fill="#6161DD"/>
<path d="M301.208 4.16178C299.285 5.90717 299.609 7.32361 301.937 7.32361C304.265 7.32361 307.686 5.90717 309.609 4.16178C311.532 2.4164 311.188 0.999955 308.88 0.999955C306.572 0.999955 303.131 2.4164 301.208 4.16178Z" fill="#6161DD"/>
<path d="M335.216 98.2381C334.467 98.9094 334.588 99.4867 335.499 99.4867C336.41 99.4867 337.766 98.9295 338.515 98.2381C339.264 97.5467 339.143 96.9962 338.232 96.9962C337.321 96.9962 335.965 97.5534 335.216 98.2381Z" fill="#6161DD"/>
<path d="M502.136 88.4035C500.617 89.7461 500.881 90.894 502.702 90.894C504.524 90.894 507.237 89.7796 508.775 88.4035C510.314 87.0273 510.03 85.9062 508.208 85.9062C506.387 85.9062 503.573 87.0273 502.136 88.4035Z" fill="#6161DD"/>
<path d="M391.247 122.143C389.729 123.486 389.992 124.64 391.814 124.64C393.636 124.64 396.348 123.519 397.887 122.143C399.425 120.767 399.142 119.653 397.32 119.653C395.498 119.653 392.826 120.767 391.247 122.143Z" fill="#6161DD"/>
<path d="M420.72 89.2494C419.222 90.6255 419.465 91.7399 421.307 91.7399C423.149 91.7399 425.841 90.6255 427.38 89.2494C428.918 87.8732 428.635 86.7588 426.813 86.7588C424.991 86.7588 422.238 87.8732 420.72 89.2494Z" fill="#6161DD"/>
<path d="M449.768 40.7881C448.25 42.1642 448.513 43.2853 450.335 43.2853C452.157 43.2853 454.869 42.1642 456.408 40.7881C457.946 39.4119 457.663 38.2975 455.821 38.2975C453.979 38.2975 451.286 39.4119 449.768 40.7881Z" fill="#6161DD"/>
<path d="M229.469 98.9765C227.95 100.319 228.214 101.467 230.035 101.467C231.857 101.467 234.57 100.353 236.108 98.9765C237.647 97.6004 237.363 96.486 235.521 96.486C233.679 96.486 230.886 97.6004 229.469 98.9765Z" fill="#6161DD"/>
<path d="M323.536 88.8667C322.038 90.2093 322.281 91.364 324.123 91.364C325.965 91.364 328.637 90.2429 330.196 88.8667C331.754 87.4905 331.451 86.3762 329.629 86.3762C327.807 86.3762 325.054 87.4905 323.536 88.8667Z" fill="#6161DD"/>
<path d="M370.843 105.79C372.867 103.864 372.583 102.306 370.033 102.306C367.482 102.306 363.697 103.864 361.592 105.79C359.487 107.717 359.831 109.274 362.381 109.274C364.932 109.274 368.717 107.717 370.843 105.79Z" fill="#6161DD"/>
<path d="M511.629 113.027C513.653 111.1 513.39 109.543 510.819 109.543C508.249 109.543 504.484 111.1 502.378 113.027C500.273 114.954 500.617 116.511 503.168 116.511C505.718 116.511 509.504 114.954 511.629 113.027Z" fill="#6161DD"/>
<path d="M409.85 32.9473C408.048 34.5853 408.352 35.9144 410.538 35.9144C412.724 35.9144 415.943 34.5718 417.744 32.9473C419.546 31.3227 419.242 29.9734 417.056 29.9734C414.87 29.9734 411.651 31.3026 409.85 32.9473Z" fill="#6161DD"/>
<path d="M453.553 125.882C452.784 126.554 452.926 127.131 453.837 127.131C454.748 127.131 456.104 126.574 456.853 125.882C457.602 125.191 457.481 124.64 456.57 124.64C455.659 124.64 454.323 125.198 453.553 125.882Z" fill="#6161DD"/>
<path d="M227.267 21.4881C228.389 20.1052 228.207 18.9909 226.828 18.9909C225.448 18.9909 223.447 20.1052 222.28 21.4881C221.112 22.871 221.34 23.9786 222.704 23.9786C224.069 23.9786 226.13 22.8844 227.267 21.4881Z" fill="#6161DD"/>
<path d="M199.934 13.5734C201.071 12.2308 200.874 11.0762 199.509 11.0762C198.145 11.0762 196.113 12.1973 194.961 13.5734C193.809 14.9496 194.021 16.064 195.386 16.064C196.75 16.064 198.812 14.9496 199.934 13.5734Z" fill="#6161DD"/>
<path d="M204.315 71.9432C203.178 73.3194 203.375 74.4337 204.74 74.4337C206.104 74.4337 208.135 73.3194 209.288 71.9432C210.44 70.567 210.227 69.4527 208.848 69.4527C207.468 69.4527 205.452 70.567 204.315 71.9432Z" fill="#6161DD"/>
<path d="M223.649 59.9161C225.165 57.9895 224.968 56.4254 223.043 56.4254C221.118 56.4254 218.298 57.9895 216.721 59.9161C215.144 61.8428 215.402 63.4002 217.312 63.4002C219.223 63.4002 222.057 61.8428 223.649 59.9161Z" fill="#6161DD"/>
<path d="M103.349 13.5734C104.486 12.1704 104.289 11.0426 102.909 11.0426C101.529 11.0426 99.4677 12.1704 98.361 13.5734C97.2544 14.9765 97.4059 16.0975 98.8006 16.0975C100.195 16.0975 102.181 14.9697 103.349 13.5734Z" fill="#6161DD"/>
<path d="M41.502 19.9798C40.1411 21.3592 39.9958 22.6627 41.1773 22.8912C42.3589 23.1198 44.4199 22.1869 45.7808 20.8076C47.1418 19.4282 47.2871 18.1248 46.1056 17.8962C44.924 17.6676 42.863 18.6005 41.502 19.9798Z" fill="#6161DD"/>
<path d="M5.71778 35.7936C6.85478 34.4174 6.65771 33.3031 5.2933 33.3031C3.92889 33.3031 1.89744 34.4174 0.74527 35.7936C-0.406897 37.1698 -0.194643 38.2841 1.18493 38.2841C2.56449 38.2841 4.58077 37.1698 5.71778 35.7936Z" fill="#6161DD"/>
<path d="M76.3335 23.9988C76.8944 23.3275 76.8034 22.7502 76.1212 22.7502C75.439 22.7502 74.4233 23.3073 73.8624 23.9988C73.3015 24.6902 73.3924 25.2407 74.0746 25.2407C74.7568 25.2407 75.7726 24.6835 76.3335 23.9988Z" fill="#6161DD"/>
<path d="M118.297 24.9722C118.873 24.3009 118.767 23.7303 118.084 23.7303C117.402 23.7303 116.386 24.2875 115.826 24.9722C115.265 25.6569 115.356 26.2208 116.038 26.2208C116.72 26.2208 117.736 25.6636 118.297 24.9722Z" fill="#6161DD"/>
<path d="M104.031 39.5327C102.894 40.9089 103.091 42.03 104.455 42.03C105.82 42.03 107.851 40.9089 109.003 39.5327C110.156 38.1566 109.943 37.0422 108.579 37.0422C107.215 37.0422 105.213 38.1566 104.031 39.5327Z" fill="#6161DD"/>
<path d="M94.6014 59.3361C93.4796 60.7123 93.6615 61.8267 95.0411 61.8267C96.4206 61.8267 98.4218 60.7123 99.5891 59.3361C100.756 57.96 100.529 56.8389 99.1646 56.8389C97.8002 56.8389 95.6778 57.96 94.6014 59.3361Z" fill="#6161DD"/>
<path d="M16.6786 10.4117C15.5416 11.7946 15.7387 12.9089 17.1031 12.9089C18.4675 12.9089 20.499 11.7946 21.6511 10.4117C22.8033 9.02881 22.591 7.92117 21.2266 7.92117C19.8622 7.92117 17.8005 9.03552 16.6786 10.4117Z" fill="#6161DD"/>
<path d="M183.288 80.3412C184.425 78.9986 184.228 77.8506 182.863 77.8506C181.499 77.8506 179.468 78.965 178.315 80.3412C177.163 81.7173 177.376 82.8317 178.74 82.8317C180.104 82.8317 182.166 81.7173 183.288 80.3412Z" fill="#6161DD"/>
<path d="M207.453 31.4368C209.439 29.0201 209.106 27.0599 206.71 27.0599C204.315 27.0599 200.752 29.0201 198.751 31.4368C196.75 33.8535 197.114 35.8137 199.509 35.8137C201.905 35.8137 205.467 33.8535 207.453 31.4368Z" fill="#6161DD"/>
<path d="M213.578 52.0324C214.139 51.3611 214.048 50.7904 213.366 50.7904C212.684 50.7904 211.668 51.3476 211.092 52.0324C210.516 52.7171 210.622 53.281 211.304 53.281C211.986 53.281 213.002 52.7238 213.578 52.0324Z" fill="#6161DD"/>
<path d="M167.734 109.308C168.31 108.637 168.204 108.059 167.522 108.059C166.839 108.059 165.824 108.616 165.263 109.308C164.702 109.999 164.793 110.55 165.475 110.55C166.157 110.55 167.173 109.993 167.734 109.308Z" fill="#6161DD"/>
<path d="M122.178 71.574C121.056 72.9166 121.238 74.0645 122.602 74.0645C123.967 74.0645 125.998 72.9501 127.15 71.574C128.302 70.1978 128.09 69.0834 126.726 69.0834C125.361 69.0834 123.315 70.1978 122.178 71.574Z" fill="#6161DD"/>
<path d="M120.373 50.5219C119.236 51.8981 119.434 53.0125 120.798 53.0125C122.162 53.0125 124.194 51.8981 125.346 50.5219C126.498 49.1458 126.286 48.0314 124.922 48.0314C123.557 48.0314 121.465 49.1458 120.373 50.5219Z" fill="#6161DD"/>
<path d="M36.6141 94.4989C35.4771 95.8751 35.6742 96.9962 37.0386 96.9962C38.403 96.9962 40.4345 95.8751 41.5867 94.4989C42.7388 93.1228 42.5266 92.0084 41.147 92.0084C39.7674 92.0084 37.7512 93.1228 36.6141 94.4989Z" fill="#6161DD"/>
<path d="M89.0529 119.726C87.5369 121.653 87.7491 123.211 89.6593 123.211C91.5694 123.211 94.4044 121.653 95.9962 119.726C97.588 117.8 97.2999 116.236 95.3898 116.236C93.4796 116.236 90.6447 117.8 89.0529 119.726Z" fill="#6161DD"/>
<path d="M58.7022 61.6051C57.5652 62.9813 57.7623 64.0956 59.1267 64.0956C60.4911 64.0956 62.5226 62.9813 63.6747 61.6051C64.8269 60.2289 64.6146 59.1146 63.2351 59.1146C61.8555 59.1146 59.8241 60.2289 58.7022 61.6051Z" fill="#6161DD"/>
<path d="M55.2761 39.2843C54.1391 40.6605 54.3362 41.7749 55.7006 41.7749C57.065 41.7749 59.0965 40.6605 60.2486 39.2843C61.4008 37.9082 61.1886 36.7938 59.809 36.7938C58.4294 36.7938 56.4131 37.9082 55.2761 39.2843Z" fill="#6161DD"/>
<path d="M80.9572 76.602C79.8354 77.9782 80.0173 79.0993 81.3817 79.0993C82.7461 79.0993 84.7776 77.9782 85.9297 76.602C87.0819 75.2259 86.8697 74.1115 85.5053 74.1115C84.1409 74.1115 82.0488 75.1923 80.9572 76.602Z" fill="#6161DD"/>
<path d="M4.09557 84.2616C2.95856 85.6377 3.15564 86.7588 4.52005 86.7588C5.88446 86.7588 7.91591 85.6377 9.06808 84.2616C10.2202 82.8854 10.008 81.7711 8.62847 81.7711C7.2489 81.7711 5.15678 82.8854 4.09557 84.2616Z" fill="#6161DD"/>
<path d="M0.760562 69.4527C-0.361284 70.8288 -0.17935 71.9432 1.20022 71.9432C2.57979 71.9432 4.59608 70.8288 5.74825 69.4527C6.90041 68.0765 6.68813 66.9621 5.32372 66.9621C3.95931 66.9621 1.89757 68.0765 0.760562 69.4527Z" fill="#6161DD"/>
<path d="M167.643 22.8777C168.765 21.5016 168.583 20.3805 167.203 20.3805C165.824 20.3805 163.822 21.5016 162.655 22.8777C161.488 24.2539 161.715 25.3683 163.08 25.3683C164.444 25.3683 166.506 24.2539 167.643 22.8777Z" fill="#6161DD"/>
<path d="M39.3428 74.6619C40.8588 72.7353 40.6617 71.1712 38.7364 71.1712C36.811 71.1712 33.9913 72.7353 32.4146 74.6619C30.838 76.5886 31.0957 78.146 33.0059 78.146C34.916 78.146 37.751 76.5819 39.3428 74.6619Z" fill="#6161DD"/>
<path d="M27.1086 52.0324C28.6246 50.1058 28.4275 48.5483 26.5173 48.5483C24.6071 48.5483 21.757 50.1058 20.1804 52.0324C18.6037 53.959 18.8614 55.5232 20.7868 55.5232C22.7121 55.5232 25.5319 53.959 27.1086 52.0324Z" fill="#6161DD"/>
<path d="M164.141 68.8418C163.004 70.2179 163.201 71.3323 164.565 71.3323C165.93 71.3323 167.961 70.2179 169.113 68.8418C170.265 67.4656 170.053 66.3512 168.674 66.3512C167.294 66.3512 165.278 67.4656 164.141 68.8418Z" fill="#6161DD"/>
<path d="M126.771 85.3827C128.287 83.456 128.09 81.8986 126.18 81.8986C124.27 81.8986 121.42 83.456 119.843 85.3827C118.266 87.3093 118.524 88.8667 120.449 88.8667C122.375 88.8667 125.194 87.2757 126.771 85.3827Z" fill="#6161DD"/>
<path d="M162.412 43.0504C162.973 42.3791 162.882 41.8085 162.2 41.8085C161.518 41.8085 160.502 42.3656 159.941 43.0504C159.38 43.7351 159.471 44.299 160.154 44.299C160.836 44.299 161.851 43.7418 162.412 43.0504Z" fill="#6161DD"/>
<path d="M57.823 4.16178C56.3828 5.90717 56.6253 7.32361 58.3688 7.32361C60.1122 7.32361 62.6742 5.90717 64.1144 4.16178C65.5547 2.4164 65.2969 0.999955 63.5687 0.999955C61.8404 0.999955 59.2632 2.4164 57.823 4.16178Z" fill="#6161DD"/>
<path d="M83.2919 98.2381C82.731 98.9094 82.8219 99.4867 83.5041 99.4867C84.1863 99.4867 85.2021 98.9295 85.763 98.2381C86.3239 97.5467 86.2329 96.9962 85.5507 96.9962C84.8685 96.9962 83.8528 97.5534 83.2919 98.2381Z" fill="#6161DD"/>
<path d="M208.302 88.4035C207.165 89.7461 207.362 90.894 208.727 90.894C210.091 90.894 212.122 89.7796 213.275 88.4035C214.427 87.0273 214.215 85.9062 212.85 85.9062C211.486 85.9062 209.378 87.0273 208.302 88.4035Z" fill="#6161DD"/>
<path d="M125.255 122.143C124.118 123.486 124.315 124.64 125.68 124.64C127.044 124.64 129.076 123.519 130.228 122.143C131.38 120.767 131.168 119.653 129.803 119.653C128.439 119.653 126.438 120.767 125.255 122.143Z" fill="#6161DD"/>
<path d="M147.328 89.2494C146.206 90.6255 146.388 91.7399 147.768 91.7399C149.147 91.7399 151.164 90.6255 152.316 89.2494C153.468 87.8732 153.256 86.7588 151.891 86.7588C150.527 86.7588 148.465 87.8732 147.328 89.2494Z" fill="#6161DD"/>
<path d="M169.083 40.7881C167.946 42.1642 168.143 43.2853 169.507 43.2853C170.872 43.2853 172.903 42.1642 174.055 40.7881C175.208 39.4119 174.995 38.2975 173.616 38.2975C172.236 38.2975 170.22 39.4119 169.083 40.7881Z" fill="#6161DD"/>
<path d="M4.09557 98.9765C2.95856 100.319 3.15564 101.467 4.52005 101.467C5.88446 101.467 7.91591 100.353 9.06808 98.9765C10.2202 97.6004 10.008 96.486 8.62847 96.486C7.2489 96.486 5.15678 97.6004 4.09557 98.9765Z" fill="#6161DD"/>
<path d="M74.5447 88.8667C73.4229 90.2093 73.6048 91.364 74.9844 91.364C76.3639 91.364 78.3651 90.2429 79.5324 88.8667C80.6997 87.4905 80.4723 86.3762 79.1079 86.3762C77.7435 86.3762 75.6817 87.4905 74.5447 88.8667Z" fill="#6161DD"/>
<path d="M109.974 105.79C111.49 103.864 111.277 102.306 109.367 102.306C107.457 102.306 104.622 103.864 103.046 105.79C101.469 107.717 101.727 109.274 103.637 109.274C105.547 109.274 108.382 107.717 109.974 105.79Z" fill="#6161DD"/>
<path d="M215.412 113.027C216.928 111.1 216.731 109.543 214.806 109.543C212.88 109.543 210.06 111.1 208.484 113.027C206.907 114.954 207.165 116.511 209.075 116.511C210.985 116.511 213.82 114.954 215.412 113.027Z" fill="#6161DD"/>
<path d="M139.187 32.9473C137.838 34.5853 138.065 35.9144 139.703 35.9144C141.34 35.9144 143.75 34.5718 145.1 32.9473C146.449 31.3227 146.221 29.9734 144.584 29.9734C142.947 29.9734 140.536 31.3026 139.187 32.9473Z" fill="#6161DD"/>
<path d="M171.918 125.882C171.342 126.554 171.448 127.131 172.13 127.131C172.812 127.131 173.828 126.574 174.389 125.882C174.95 125.191 174.859 124.64 174.177 124.64C173.494 124.64 172.494 125.198 171.918 125.882Z" fill="#6161DD"/>
</g>
<defs>
<clipPath id="clip0_365_310">
<rect width="1439.44" height="126.262" fill="white" transform="translate(0 0.869019)"/>
</clipPath>
</defs>
</svg>
