<svg width="20" height="20" viewBox="0 0 20 20" fill="none" xmlns="http://www.w3.org/2000/svg">
<path fill-rule="evenodd" clip-rule="evenodd" d="M14.1666 1.66659C14.1666 1.20635 13.7935 0.833252 13.3333 0.833252C12.8731 0.833252 12.5 1.20635 12.5 1.66659V2.49992H7.49996V1.66659C7.49996 1.20635 7.12686 0.833252 6.66663 0.833252C6.20639 0.833252 5.83329 1.20635 5.83329 1.66659V2.49992H4.16663C2.78591 2.49992 1.66663 3.61921 1.66663 4.99992V16.6666C1.66663 18.0473 2.78591 19.1666 4.16663 19.1666H15.8333C17.214 19.1666 18.3333 18.0473 18.3333 16.6666V4.99992C18.3333 3.61921 17.214 2.49992 15.8333 2.49992H14.1666V1.66659ZM16.6666 7.49992V4.99992C16.6666 4.53968 16.2935 4.16658 15.8333 4.16658H14.1666V4.99992C14.1666 5.46016 13.7935 5.83325 13.3333 5.83325C12.8731 5.83325 12.5 5.46016 12.5 4.99992V4.16658H7.49996V4.99992C7.49996 5.46016 7.12686 5.83325 6.66663 5.83325C6.20639 5.83325 5.83329 5.46016 5.83329 4.99992V4.16658H4.16663C3.70639 4.16658 3.33329 4.53968 3.33329 4.99992V7.49992H16.6666ZM3.33329 9.16658H16.6666V16.6666C16.6666 17.1268 16.2935 17.4999 15.8333 17.4999H4.16663C3.70639 17.4999 3.33329 17.1268 3.33329 16.6666V9.16658Z" fill="#5D5CDC"/>
</svg>
