<svg width="1440" height="661" viewBox="0 0 1440 661" fill="none" xmlns="http://www.w3.org/2000/svg">
<g clip-path="url(#clip0_5_1466)">
<rect width="1440" height="660" fill="#5D5CDC"/>
<path d="M53.182 318.557C51.6841 322.727 51.927 326.087 53.7691 326.087C55.6111 326.087 58.2832 322.727 59.8418 318.557C61.4005 314.387 61.0969 311.047 59.275 311.047C57.4532 311.047 54.7002 314.346 53.182 318.557Z" fill="#6161DD"/>
<path d="M89.6792 342.423C88.161 346.471 88.4241 349.953 90.246 349.953C92.0678 349.953 94.7803 346.572 96.3187 342.423C97.8572 338.273 97.5738 334.913 95.7519 334.913C93.9301 334.913 91.1771 338.273 89.6792 342.423Z" fill="#6161DD"/>
<path d="M21.0571 181.434C22.5753 177.385 22.3122 173.924 20.4903 173.924C18.6685 173.924 15.956 177.284 14.4176 181.434C12.8791 185.583 13.1625 188.964 14.9844 188.964C16.8062 188.964 19.5592 185.583 21.0571 181.434Z" fill="#6161DD"/>
<path d="M7.65661 275.055C9.15455 271.007 8.91163 267.545 7.06956 267.545C5.22749 267.545 2.53523 270.906 0.996798 275.055C-0.541634 279.205 -0.258241 282.565 1.56359 282.565C3.38541 282.565 6.13842 279.205 7.65661 275.055Z" fill="#6161DD"/>
<path d="M83.8292 166.414C85.3474 162.264 85.0843 158.904 83.2624 158.904C81.4406 158.904 78.7281 162.264 77.1897 166.414C75.6513 170.564 75.9347 173.924 77.7767 173.924C79.6188 173.924 82.311 170.564 83.8292 166.414Z" fill="#6161DD"/>
<path d="M51.8663 201.312C49.842 207.122 50.1051 211.838 52.676 211.838C55.2468 211.838 59.0119 207.122 61.1171 201.312C63.2223 195.502 62.8782 190.806 60.3276 190.806C57.7771 190.806 53.9917 195.502 51.8663 201.312Z" fill="#6161DD"/>
<path d="M218.644 342.423C217.126 346.653 217.389 350.054 219.231 350.054C221.074 350.054 223.827 346.653 225.304 342.423C226.782 338.192 226.58 334.811 224.717 334.811C222.855 334.811 220.203 338.212 218.644 342.423Z" fill="#6161DD"/>
<path d="M301.225 323.105C303.042 318.946 303.237 315.015 301.659 314.326C300.081 313.637 297.329 316.45 295.512 320.609C293.695 324.768 293.501 328.699 295.078 329.388C296.656 330.077 299.408 327.264 301.225 323.105Z" fill="#6161DD"/>
<path d="M349.006 275.42C347.488 279.57 347.751 282.93 349.573 282.93C351.395 282.93 354.107 279.57 355.646 275.42C357.184 271.27 356.901 267.91 355.059 267.91C353.217 267.91 350.525 271.27 349.006 275.42Z" fill="#6161DD"/>
<path d="M254.717 310.986C253.968 313.01 254.089 314.751 255 314.751C255.911 314.751 257.267 313.071 258.016 310.986C258.765 308.901 258.644 307.241 257.733 307.241C256.822 307.241 255.466 308.921 254.717 310.986Z" fill="#6161DD"/>
<path d="M198.685 308.051C197.916 310.075 198.058 311.796 198.969 311.796C199.88 311.796 201.236 310.116 201.985 308.051C202.734 305.986 202.612 304.286 201.701 304.286C200.791 304.286 199.434 305.966 198.685 308.051Z" fill="#6161DD"/>
<path d="M334.614 407.239C333.865 409.263 333.986 410.984 334.897 410.984C335.808 410.984 337.164 409.304 337.934 407.239C338.703 405.174 338.561 403.474 337.65 403.474C336.739 403.474 335.383 405.154 334.614 407.239Z" fill="#6161DD"/>
<path d="M217.734 264.145C219.252 259.995 218.989 256.615 217.167 256.615C215.345 256.615 212.632 259.995 211.094 264.145C209.556 268.294 209.839 271.655 211.661 271.655C213.483 271.655 216.155 268.294 217.734 264.145Z" fill="#6161DD"/>
<path d="M230.324 204.429C231.822 200.28 231.579 196.919 229.737 196.919C227.895 196.919 225.223 200.28 223.665 204.429C222.106 208.579 222.41 211.959 224.231 211.959C226.053 211.959 228.887 208.579 230.324 204.429Z" fill="#6161DD"/>
<path d="M334.371 351.957C335.889 347.787 335.626 344.427 333.804 344.427C331.982 344.427 329.27 347.787 327.731 351.957C326.193 356.127 326.476 359.467 328.298 359.467C330.12 359.467 332.873 356.107 334.371 351.957Z" fill="#6161DD"/>
<path d="M278.259 413.697C279.777 409.547 279.514 406.187 277.692 406.187C275.87 406.187 273.158 409.547 271.619 413.697C270.081 417.846 270.364 421.207 272.206 421.207C274.048 421.207 276.761 417.927 278.259 413.697Z" fill="#6161DD"/>
<path d="M236.397 383.798C237.915 379.649 237.652 376.288 235.83 376.288C234.009 376.288 231.296 379.649 229.758 383.798C228.219 387.948 228.503 391.308 230.324 391.308C232.146 391.308 234.899 387.948 236.397 383.798Z" fill="#6161DD"/>
<path d="M111.906 141.09C110.387 145.139 110.65 148.6 112.472 148.6C114.294 148.6 117.007 145.24 118.545 141.09C120.083 136.941 119.8 133.58 117.978 133.58C116.156 133.58 113.403 136.941 111.906 141.09Z" fill="#6161DD"/>
<path d="M79.639 288.557C76.9872 295.845 77.4325 301.755 80.6308 301.755C83.8291 301.755 88.5861 295.845 91.2581 288.557C93.9302 281.27 93.4443 275.359 90.246 275.359C87.0477 275.359 82.2907 281.27 79.639 288.557Z" fill="#6161DD"/>
<path d="M71.4609 226.453C70.712 228.477 70.8334 230.198 71.7444 230.198C72.6553 230.198 74.0115 228.518 74.7807 226.453C75.55 224.388 75.4082 222.688 74.4973 222.688C73.5864 222.688 72.2302 224.368 71.4609 226.453Z" fill="#6161DD"/>
<path d="M132.674 53.7439C131.905 55.7682 132.047 57.509 132.958 57.509C133.869 57.509 135.225 55.8289 135.974 53.7439C136.723 51.6589 136.601 49.9991 135.691 49.9991C134.78 49.9991 133.423 51.6792 132.674 53.7439Z" fill="#6161DD"/>
<path d="M193.503 167.527C195.001 163.479 194.758 160.017 192.936 160.017C191.115 160.017 188.402 163.377 186.864 167.527C185.325 171.677 185.609 175.037 187.43 175.037C189.252 175.037 191.985 171.677 193.503 167.527Z" fill="#6161DD"/>
<path d="M195.912 231.008C197.43 226.858 197.167 223.498 195.345 223.498C193.524 223.498 190.811 226.858 189.273 231.008C187.734 235.157 188.018 238.518 189.839 238.518C191.661 238.518 194.455 235.157 195.912 231.008Z" fill="#6161DD"/>
<path d="M307.752 98.3989C309.27 94.2492 309.007 90.8687 307.185 90.8687C305.363 90.8687 302.651 94.2492 301.113 98.3989C299.574 102.549 299.858 105.909 301.7 105.909C303.542 105.909 306.234 102.549 307.752 98.3989Z" fill="#6161DD"/>
<path d="M237.733 22.3275C239.757 16.5179 239.474 11.8217 236.923 11.8217C234.373 11.8217 230.587 16.5179 228.462 22.3275C226.337 28.1371 226.721 32.8536 229.272 32.8536C231.822 32.8536 235.608 28.1371 237.733 22.3275Z" fill="#6161DD"/>
<path d="M278.259 197.587C279.777 193.438 279.514 190.077 277.692 190.077C275.87 190.077 273.158 193.438 271.619 197.587C270.081 201.737 270.364 205.097 272.206 205.097C274.048 205.097 276.761 201.737 278.259 197.587Z" fill="#6161DD"/>
<path d="M282.834 264.894C284.352 260.744 284.089 257.384 282.267 257.384C280.445 257.384 277.732 260.744 276.194 264.894C274.656 269.043 274.939 272.404 276.781 272.404C278.623 272.404 281.315 269.043 282.834 264.894Z" fill="#6161DD"/>
<path d="M248.543 152.365C250.041 148.216 249.798 144.835 247.976 144.835C246.154 144.835 243.442 148.216 241.903 152.365C240.365 156.515 240.648 159.875 242.47 159.875C244.292 159.875 247.085 156.616 248.543 152.365Z" fill="#6161DD"/>
<path d="M351.172 129.269C352.69 125.119 352.427 121.739 350.606 121.739C348.784 121.739 346.071 125.119 344.533 129.269C342.994 133.419 343.278 136.779 345.12 136.779C346.962 136.779 349.755 133.419 351.172 129.269Z" fill="#6161DD"/>
<path d="M355.626 173.924C357.124 169.774 356.881 166.414 355.039 166.414C353.196 166.414 350.504 169.774 348.966 173.924C347.427 178.074 347.711 181.434 349.533 181.434C351.354 181.434 354.107 178.074 355.626 173.924Z" fill="#6161DD"/>
<path d="M132.796 314.366C131.298 318.516 131.541 321.897 133.383 321.897C135.225 321.897 137.897 318.516 139.456 314.366C141.014 310.217 140.711 306.856 138.889 306.856C137.067 306.856 134.314 310.217 132.796 314.366Z" fill="#6161DD"/>
<path d="M304.108 158.216C302.084 164.025 302.347 168.742 304.918 168.742C307.489 168.742 311.254 164.025 313.359 158.216C315.464 152.406 315.12 147.71 312.57 147.71C310.019 147.71 306.234 152.426 304.108 158.216Z" fill="#6161DD"/>
<path d="M320.444 226.453C318.42 232.263 318.683 236.959 321.234 236.959C323.784 236.959 327.59 232.263 329.695 226.453C331.8 220.644 331.456 215.927 328.885 215.927C326.314 215.927 322.549 220.644 320.444 226.453Z" fill="#6161DD"/>
<path d="M137.472 175.766C138.99 171.616 138.727 168.256 136.905 168.256C135.083 168.256 132.371 171.616 130.832 175.766C129.294 179.916 129.577 183.276 131.419 183.276C133.262 183.276 135.954 179.916 137.472 175.766Z" fill="#6161DD"/>
<path d="M187.37 125.888C185.346 131.698 185.609 136.394 188.159 136.394C190.71 136.394 194.515 131.698 196.621 125.888C198.726 120.079 198.382 115.382 195.811 115.382C193.24 115.382 189.475 120.18 187.37 125.888Z" fill="#6161DD"/>
<path d="M139.78 253.538C139.031 255.562 139.152 257.282 140.063 257.282C140.974 257.282 142.33 255.602 143.079 253.538C143.828 251.473 143.707 249.773 142.796 249.773C141.885 249.773 140.529 251.453 139.78 253.538Z" fill="#6161DD"/>
<path d="M279.433 370.803C281.356 365.54 281.032 361.268 278.704 361.268C276.376 361.268 272.955 365.54 271.032 370.803C269.109 376.066 269.453 380.337 271.761 380.337C274.069 380.337 277.51 376.066 279.433 370.803Z" fill="#6161DD"/>
<path d="M245.425 87.1238C246.174 85.0996 246.053 83.3587 245.142 83.3587C244.231 83.3587 242.875 85.0388 242.126 87.1238C241.377 89.2088 241.498 90.8687 242.409 90.8687C243.32 90.8687 244.676 89.1886 245.425 87.1238Z" fill="#6161DD"/>
<path d="M78.5054 116.779C80.0236 112.731 79.7604 109.269 77.9386 109.269C76.1167 109.269 73.4042 112.629 71.8658 116.779C70.3274 120.929 70.6108 124.309 72.4326 124.309C74.2544 124.309 77.0681 120.929 78.5054 116.779Z" fill="#6161DD"/>
<path d="M189.394 15.0402C190.912 10.9917 190.649 7.50998 188.827 7.50998C187.005 7.50998 184.293 10.8905 182.754 15.0402C181.216 19.1899 181.499 22.5502 183.321 22.5502C185.143 22.5502 187.815 19.1899 189.394 15.0402Z" fill="#6161DD"/>
<path d="M159.921 114.229C161.419 110.079 161.176 106.719 159.334 106.719C157.492 106.719 154.8 110.079 153.261 114.229C151.723 118.378 152.006 121.739 153.828 121.739C155.65 121.739 158.403 118.378 159.921 114.229Z" fill="#6161DD"/>
<path d="M130.873 260.359C132.391 256.21 132.128 252.829 130.306 252.829C128.484 252.829 125.772 256.21 124.233 260.359C122.695 264.509 122.978 267.869 124.82 267.869C126.662 267.869 129.355 264.509 130.873 260.359Z" fill="#6161DD"/>
<path d="M351.172 84.8972C352.69 80.8487 352.427 77.3872 350.606 77.3872C348.784 77.3872 346.071 80.7475 344.533 84.8972C342.994 89.0469 343.278 92.4072 345.12 92.4072C346.962 92.4072 349.755 89.0469 351.172 84.8972Z" fill="#6161DD"/>
<path d="M257.105 115.382C258.603 111.334 258.36 107.852 256.518 107.852C254.676 107.852 252.004 111.233 250.445 115.382C248.887 119.532 249.19 122.892 251.012 122.892C252.834 122.892 255.587 119.532 257.105 115.382Z" fill="#6161DD"/>
<path d="M14.4581 231.008C12.9399 235.157 13.2031 238.518 15.0249 238.518C16.8468 238.518 19.5593 235.157 21.0977 231.008C22.6361 226.858 22.3527 223.498 20.5309 223.498C18.709 223.498 15.956 226.858 14.4581 231.008Z" fill="#6161DD"/>
<path d="M209.798 64.351C207.774 70.1606 208.058 74.8569 210.608 74.8569C213.159 74.8569 216.944 70.1606 219.049 64.351C221.155 58.5414 220.81 53.8451 218.26 53.8451C215.709 53.8451 211.924 58.5414 209.798 64.351Z" fill="#6161DD"/>
<path d="M38.4454 92.4071C39.9434 88.2574 39.7005 84.8972 37.8786 84.8972C36.0568 84.8972 33.3443 88.2574 31.8059 92.4071C30.2674 96.5568 30.5508 99.9171 32.3727 99.9171C34.1945 99.9171 36.9272 96.5568 38.4454 92.4071Z" fill="#6161DD"/>
<path d="M69.0117 42.5296C66.9875 48.3392 67.2506 53.0354 69.8214 53.0354C72.3922 53.0354 76.1573 48.3392 78.2626 42.5296C80.3678 36.72 80.0236 32.0237 77.4731 32.0237C74.9225 32.0237 71.1372 36.72 69.0117 42.5296Z" fill="#6161DD"/>
<path d="M33.4861 144.835C32.7169 146.86 32.8585 148.6 33.7694 148.6C34.6804 148.6 36.0367 146.92 36.7856 144.835C37.5346 142.75 37.4131 141.09 36.5022 141.09C35.5913 141.09 34.2351 142.771 33.4861 144.835Z" fill="#6161DD"/>
<path d="M170.791 284.003C172.593 279.063 172.289 275.055 170.103 275.055C167.917 275.055 164.698 279.104 162.897 284.003C161.095 288.901 161.399 292.97 163.585 292.97C165.771 292.97 168.99 288.962 170.791 284.003Z" fill="#6161DD"/>
<path d="M127.088 3.76511C127.857 1.74086 127.715 0 126.804 0C125.893 0 124.537 1.68013 123.788 3.76511C123.039 5.85009 123.16 7.50998 124.071 7.50998C124.982 7.50998 126.318 5.82985 127.088 3.76511Z" fill="#6161DD"/>
<path d="M688.459 102.65C689.957 98.4799 689.714 95.1196 687.872 95.1196C686.03 95.1196 683.358 98.4799 681.799 102.65C680.24 106.82 680.544 110.16 682.366 110.16C684.188 110.16 686.941 106.86 688.459 102.65Z" fill="#6161DD"/>
<path d="M651.962 78.7839C653.48 74.7354 653.217 71.2536 651.395 71.2536C649.573 71.2536 646.861 74.6341 645.322 78.7839C643.784 82.9336 644.067 86.2939 645.889 86.2939C647.711 86.2939 650.464 82.9336 651.962 78.7839Z" fill="#6161DD"/>
<path d="M720.584 239.773C719.066 243.821 719.329 247.283 721.151 247.283C722.972 247.283 725.685 243.922 727.223 239.773C728.762 235.623 728.478 232.242 726.657 232.242C724.835 232.242 722.082 235.623 720.584 239.773Z" fill="#6161DD"/>
<path d="M733.984 146.151C732.486 150.2 732.729 153.661 734.571 153.661C736.414 153.661 739.106 150.301 740.644 146.151C742.183 142.001 741.899 138.641 740.077 138.641C738.256 138.641 735.503 142.001 733.984 146.151Z" fill="#6161DD"/>
<path d="M657.812 254.793C656.294 258.942 656.557 262.303 658.379 262.303C660.2 262.303 662.913 258.942 664.451 254.793C665.99 250.643 665.706 247.283 663.864 247.283C662.022 247.283 659.33 250.643 657.812 254.793Z" fill="#6161DD"/>
<path d="M689.775 219.895C691.799 214.085 691.536 209.368 688.965 209.368C686.394 209.368 682.629 214.085 680.524 219.895C678.419 225.704 678.763 230.4 681.313 230.4C683.864 230.4 687.649 225.704 689.775 219.895Z" fill="#6161DD"/>
<path d="M522.997 78.7839C524.515 74.5532 524.252 71.1525 522.41 71.1525C520.567 71.1525 517.814 74.5532 516.337 78.7839C514.859 83.0146 515.061 86.3951 516.924 86.3951C518.786 86.3951 521.438 82.9943 522.997 78.7839Z" fill="#6161DD"/>
<path d="M440.416 98.1015C438.599 102.261 438.404 106.191 439.982 106.881C441.56 107.57 444.312 104.757 446.129 100.598C447.946 96.4382 448.14 92.5077 446.563 91.8184C444.985 91.1292 442.233 93.9422 440.416 98.1015Z" fill="#6161DD"/>
<path d="M392.635 145.787C394.153 141.637 393.89 138.277 392.068 138.277C390.246 138.277 387.534 141.637 385.995 145.787C384.457 149.936 384.74 153.297 386.582 153.297C388.424 153.297 391.116 149.936 392.635 145.787Z" fill="#6161DD"/>
<path d="M486.924 110.221C487.673 108.196 487.552 106.455 486.641 106.455C485.73 106.455 484.374 108.136 483.625 110.221C482.876 112.305 482.997 113.965 483.908 113.965C484.819 113.965 486.175 112.285 486.924 110.221Z" fill="#6161DD"/>
<path d="M542.956 113.156C543.725 111.131 543.583 109.411 542.672 109.411C541.761 109.411 540.405 111.091 539.656 113.156C538.907 115.22 539.029 116.921 539.94 116.921C540.85 116.921 542.207 115.241 542.956 113.156Z" fill="#6161DD"/>
<path d="M407.027 13.9673C407.776 11.9431 407.655 10.2225 406.744 10.2225C405.833 10.2225 404.477 11.9026 403.707 13.9673C402.938 16.0321 403.08 17.7324 403.991 17.7324C404.902 17.7324 406.258 16.0523 407.027 13.9673Z" fill="#6161DD"/>
<path d="M523.907 157.062C522.389 161.211 522.652 164.592 524.474 164.592C526.296 164.592 529.009 161.211 530.547 157.062C532.085 152.912 531.802 149.552 529.98 149.552C528.158 149.552 525.486 152.912 523.907 157.062Z" fill="#6161DD"/>
<path d="M511.317 216.777C509.819 220.927 510.062 224.287 511.904 224.287C513.746 224.287 516.418 220.927 517.976 216.777C519.535 212.628 519.231 209.247 517.41 209.247C515.588 209.247 512.754 212.628 511.317 216.777Z" fill="#6161DD"/>
<path d="M407.27 69.2497C405.752 73.4196 406.015 76.7799 407.837 76.7799C409.659 76.7799 412.371 73.4196 413.91 69.2497C415.448 65.0797 415.165 61.7397 413.343 61.7397C411.521 61.7397 408.768 65.1 407.27 69.2497Z" fill="#6161DD"/>
<path d="M463.382 7.50994C461.864 11.6597 462.127 15.0199 463.949 15.0199C465.771 15.0199 468.483 11.6597 470.022 7.50994C471.56 3.36022 471.277 -2.28882e-05 469.435 -2.28882e-05C467.593 -2.28882e-05 464.88 3.27925 463.382 7.50994Z" fill="#6161DD"/>
<path d="M505.244 37.4081C503.726 41.5578 503.989 44.9182 505.811 44.9182C507.632 44.9182 510.345 41.5578 511.883 37.4081C513.422 33.2584 513.138 29.8982 511.317 29.8982C509.495 29.8982 506.742 33.2584 505.244 37.4081Z" fill="#6161DD"/>
<path d="M629.735 280.116C631.254 276.068 630.99 272.606 629.169 272.606C627.347 272.606 624.634 275.966 623.096 280.116C621.557 284.266 621.841 287.626 623.663 287.626C625.485 287.626 628.238 284.266 629.735 280.116Z" fill="#6161DD"/>
<path d="M662.002 132.649C664.654 125.362 664.208 119.451 661.01 119.451C657.812 119.451 653.055 125.362 650.383 132.649C647.711 139.937 648.197 145.847 651.395 145.847C654.593 145.847 659.35 139.937 662.002 132.649Z" fill="#6161DD"/>
<path d="M670.18 194.753C670.929 192.729 670.808 191.008 669.897 191.008C668.986 191.008 667.629 192.689 666.86 194.753C666.091 196.818 666.233 198.518 667.144 198.518C668.055 198.518 669.411 196.838 670.18 194.753Z" fill="#6161DD"/>
<path d="M608.967 367.463C609.736 365.438 609.594 363.697 608.683 363.697C607.772 363.697 606.416 365.378 605.667 367.463C604.918 369.548 605.039 371.207 605.95 371.207C606.861 371.207 608.218 369.527 608.967 367.463Z" fill="#6161DD"/>
<path d="M548.138 253.679C546.64 257.728 546.883 261.189 548.705 261.189C550.526 261.189 553.239 257.829 554.777 253.679C556.316 249.53 556.032 246.169 554.211 246.169C552.389 246.169 549.656 249.53 548.138 253.679Z" fill="#6161DD"/>
<path d="M545.729 190.199C544.211 194.348 544.474 197.709 546.296 197.709C548.117 197.709 550.83 194.348 552.368 190.199C553.907 186.049 553.623 182.689 551.802 182.689C549.98 182.689 547.186 186.049 545.729 190.199Z" fill="#6161DD"/>
<path d="M433.889 322.808C432.371 326.957 432.634 330.338 434.456 330.338C436.277 330.338 438.99 326.957 440.528 322.808C442.067 318.658 441.783 315.298 439.941 315.298C438.099 315.298 435.407 318.658 433.889 322.808Z" fill="#6161DD"/>
<path d="M503.908 398.879C501.884 404.689 502.167 409.385 504.718 409.385C507.268 409.385 511.054 404.689 513.179 398.879C515.304 393.069 514.92 388.353 512.369 388.353C509.819 388.353 506.033 393.069 503.908 398.879Z" fill="#6161DD"/>
<path d="M463.382 223.619C461.864 227.769 462.127 231.129 463.949 231.129C465.771 231.129 468.483 227.769 470.022 223.619C471.56 219.469 471.277 216.109 469.435 216.109C467.593 216.109 464.88 219.469 463.382 223.619Z" fill="#6161DD"/>
<path d="M458.807 156.313C457.289 160.462 457.552 163.823 459.374 163.823C461.196 163.823 463.909 160.462 465.447 156.313C466.985 152.163 466.702 148.803 464.86 148.803C463.018 148.803 460.326 152.163 458.807 156.313Z" fill="#6161DD"/>
<path d="M493.098 268.841C491.6 272.991 491.843 276.371 493.665 276.371C495.487 276.371 498.199 272.991 499.738 268.841C501.276 264.691 500.993 261.331 499.171 261.331C497.349 261.331 494.556 264.59 493.098 268.841Z" fill="#6161DD"/>
<path d="M390.469 291.938C388.95 296.087 389.214 299.468 391.035 299.468C392.857 299.468 395.57 296.087 397.108 291.938C398.647 287.788 398.363 284.428 396.521 284.428C394.679 284.428 391.886 287.788 390.469 291.938Z" fill="#6161DD"/>
<path d="M386.015 247.283C384.517 251.432 384.76 254.793 386.602 254.793C388.445 254.793 391.137 251.432 392.675 247.283C394.214 243.133 393.93 239.773 392.108 239.773C390.287 239.773 387.534 243.133 386.015 247.283Z" fill="#6161DD"/>
<path d="M608.845 106.84C610.343 102.69 610.1 99.3099 608.258 99.3099C606.416 99.3099 603.744 102.69 602.185 106.84C600.627 110.99 600.93 114.35 602.752 114.35C604.574 114.35 607.327 110.99 608.845 106.84Z" fill="#6161DD"/>
<path d="M437.533 262.991C439.557 257.181 439.294 252.465 436.723 252.465C434.152 252.465 430.387 257.181 428.282 262.991C426.177 268.801 426.521 273.497 429.071 273.497C431.622 273.497 435.407 268.78 437.533 262.991Z" fill="#6161DD"/>
<path d="M421.197 194.753C423.221 188.944 422.958 184.247 420.407 184.247C417.857 184.247 414.051 188.944 411.946 194.753C409.841 200.563 410.185 205.279 412.756 205.279C415.326 205.279 419.092 200.563 421.197 194.753Z" fill="#6161DD"/>
<path d="M604.169 245.441C602.651 249.59 602.914 252.951 604.736 252.951C606.558 252.951 609.27 249.59 610.809 245.441C612.347 241.291 612.064 237.931 610.222 237.931C608.379 237.931 605.687 241.291 604.169 245.441Z" fill="#6161DD"/>
<path d="M554.271 295.318C556.295 289.509 556.032 284.812 553.482 284.812C550.931 284.812 547.126 289.509 545.02 295.318C542.915 301.128 543.259 305.824 545.83 305.824C548.401 305.824 552.166 301.027 554.271 295.318Z" fill="#6161DD"/>
<path d="M601.861 167.669C602.61 165.645 602.489 163.924 601.578 163.924C600.667 163.924 599.311 165.604 598.562 167.669C597.813 169.734 597.934 171.434 598.845 171.434C599.756 171.434 601.112 169.754 601.861 167.669Z" fill="#6161DD"/>
<path d="M462.208 50.4039C460.285 55.667 460.609 59.9381 462.937 59.9381C465.265 59.9381 468.686 55.667 470.609 50.4039C472.532 45.1408 472.188 40.8697 469.88 40.8697C467.572 40.8697 464.131 45.1408 462.208 50.4039Z" fill="#6161DD"/>
<path d="M496.216 334.083C495.467 336.107 495.588 337.848 496.499 337.848C497.41 337.848 498.766 336.168 499.515 334.083C500.264 331.998 500.143 330.338 499.232 330.338C498.321 330.338 496.965 332.018 496.216 334.083Z" fill="#6161DD"/>
<path d="M663.136 304.427C661.617 308.476 661.881 311.937 663.702 311.937C665.524 311.937 668.237 308.577 669.775 304.427C671.314 300.278 671.03 296.897 669.208 296.897C667.387 296.897 664.573 300.278 663.136 304.427Z" fill="#6161DD"/>
<path d="M552.247 406.166C550.729 410.215 550.992 413.697 552.814 413.697C554.636 413.697 557.348 410.316 558.887 406.166C560.425 402.017 560.142 398.656 558.32 398.656C556.498 398.656 553.826 402.017 552.247 406.166Z" fill="#6161DD"/>
<path d="M581.72 306.978C580.222 311.128 580.465 314.488 582.307 314.488C584.149 314.488 586.841 311.128 588.38 306.978C589.918 302.828 589.635 299.468 587.813 299.468C585.991 299.468 583.238 302.828 581.72 306.978Z" fill="#6161DD"/>
<path d="M610.768 160.847C609.25 164.997 609.513 168.377 611.335 168.377C613.157 168.377 615.869 164.997 617.408 160.847C618.946 156.697 618.663 153.337 616.821 153.337C614.979 153.337 612.286 156.697 610.768 160.847Z" fill="#6161DD"/>
<path d="M390.469 336.309C388.95 340.358 389.214 343.819 391.035 343.819C392.857 343.819 395.57 340.459 397.108 336.309C398.647 332.16 398.363 328.799 396.521 328.799C394.679 328.799 391.886 332.16 390.469 336.309Z" fill="#6161DD"/>
<path d="M484.536 305.824C483.038 309.873 483.281 313.354 485.123 313.354C486.965 313.354 489.637 309.974 491.196 305.824C492.754 301.674 492.451 298.314 490.629 298.314C488.807 298.314 486.054 301.674 484.536 305.824Z" fill="#6161DD"/>
<path d="M727.183 190.199C728.701 186.049 728.438 182.689 726.616 182.689C724.794 182.689 722.082 186.049 720.543 190.199C719.005 194.348 719.288 197.709 721.11 197.709C722.932 197.709 725.685 194.348 727.183 190.199Z" fill="#6161DD"/>
<path d="M531.843 356.855C533.867 351.046 533.583 346.35 531.033 346.35C528.482 346.35 524.697 351.046 522.592 356.855C520.486 362.665 520.831 367.361 523.381 367.361C525.932 367.361 529.717 362.665 531.843 356.855Z" fill="#6161DD"/>
<path d="M703.196 328.799C701.698 332.949 701.941 336.309 703.762 336.309C705.584 336.309 708.297 332.949 709.835 328.799C711.374 324.65 711.09 321.289 709.268 321.289C707.446 321.289 704.714 324.65 703.196 328.799Z" fill="#6161DD"/>
<path d="M672.629 378.677C674.654 372.867 674.39 368.171 671.82 368.171C669.249 368.171 665.484 372.867 663.378 378.677C661.273 384.487 661.617 389.183 664.168 389.183C666.718 389.183 670.504 384.487 672.629 378.677Z" fill="#6161DD"/>
<path d="M708.155 276.371C708.924 274.347 708.782 272.606 707.872 272.606C706.961 272.606 705.604 274.286 704.855 276.371C704.106 278.456 704.228 280.116 705.139 280.116C706.05 280.116 707.406 278.436 708.155 276.371Z" fill="#6161DD"/>
<path d="M570.85 137.204C569.048 142.143 569.352 146.151 571.538 146.151C573.724 146.151 576.943 142.103 578.744 137.204C580.546 132.305 580.242 128.236 578.056 128.236C575.87 128.236 572.651 132.244 570.85 137.204Z" fill="#6161DD"/>
<path d="M614.553 417.441C613.784 419.466 613.926 421.206 614.837 421.206C615.748 421.206 617.104 419.526 617.853 417.441C618.602 415.356 618.48 413.697 617.57 413.697C616.659 413.697 615.323 415.377 614.553 417.441Z" fill="#6161DD"/>
<path d="M1063.46 117.65C1064.96 113.48 1064.71 110.12 1062.87 110.12C1061.03 110.12 1058.36 113.48 1056.8 117.65C1055.24 121.82 1055.54 125.16 1057.37 125.16C1059.19 125.16 1061.94 121.86 1063.46 117.65Z" fill="#6161DD"/>
<path d="M1026.96 93.7839C1028.48 89.7354 1028.22 86.2536 1026.39 86.2536C1024.57 86.2536 1021.86 89.6341 1020.32 93.7839C1018.78 97.9336 1019.07 101.294 1020.89 101.294C1022.71 101.294 1025.46 97.9336 1026.96 93.7839Z" fill="#6161DD"/>
<path d="M1095.58 254.773C1094.07 258.821 1094.33 262.283 1096.15 262.283C1097.97 262.283 1100.68 258.922 1102.22 254.773C1103.76 250.623 1103.48 247.242 1101.66 247.242C1099.83 247.242 1097.08 250.623 1095.58 254.773Z" fill="#6161DD"/>
<path d="M1108.98 161.151C1107.49 165.2 1107.73 168.661 1109.57 168.661C1111.41 168.661 1114.11 165.301 1115.64 161.151C1117.18 157.001 1116.9 153.641 1115.08 153.641C1113.26 153.641 1110.5 157.001 1108.98 161.151Z" fill="#6161DD"/>
<path d="M1032.81 269.793C1031.29 273.942 1031.56 277.303 1033.38 277.303C1035.2 277.303 1037.91 273.942 1039.45 269.793C1040.99 265.643 1040.71 262.283 1038.86 262.283C1037.02 262.283 1034.33 265.643 1032.81 269.793Z" fill="#6161DD"/>
<path d="M1064.77 234.895C1066.8 229.085 1066.54 224.368 1063.97 224.368C1061.39 224.368 1057.63 229.085 1055.52 234.895C1053.42 240.704 1053.76 245.4 1056.31 245.4C1058.86 245.4 1062.65 240.704 1064.77 234.895Z" fill="#6161DD"/>
<path d="M897.997 93.7839C899.515 89.5532 899.252 86.1525 897.41 86.1525C895.567 86.1525 892.814 89.5532 891.337 93.7839C889.859 98.0146 890.061 101.395 891.924 101.395C893.786 101.395 896.438 97.9943 897.997 93.7839Z" fill="#6161DD"/>
<path d="M815.416 113.101C813.599 117.261 813.404 121.191 814.982 121.881C816.56 122.57 819.312 119.757 821.129 115.598C822.946 111.438 823.14 107.508 821.563 106.818C819.985 106.129 817.233 108.942 815.416 113.101Z" fill="#6161DD"/>
<path d="M767.635 160.787C769.153 156.637 768.89 153.277 767.068 153.277C765.246 153.277 762.534 156.637 760.995 160.787C759.457 164.936 759.74 168.297 761.582 168.297C763.424 168.297 766.116 164.936 767.635 160.787Z" fill="#6161DD"/>
<path d="M861.924 125.221C862.673 123.196 862.552 121.455 861.641 121.455C860.73 121.455 859.374 123.136 858.625 125.221C857.876 127.305 857.997 128.965 858.908 128.965C859.819 128.965 861.175 127.285 861.924 125.221Z" fill="#6161DD"/>
<path d="M917.956 128.156C918.725 126.131 918.583 124.411 917.672 124.411C916.761 124.411 915.405 126.091 914.656 128.156C913.907 130.22 914.029 131.921 914.94 131.921C915.85 131.921 917.207 130.241 917.956 128.156Z" fill="#6161DD"/>
<path d="M782.027 28.9673C782.776 26.9431 782.655 25.2225 781.744 25.2225C780.833 25.2225 779.477 26.9026 778.707 28.9673C777.938 31.0321 778.08 32.7324 778.991 32.7324C779.902 32.7324 781.258 31.0523 782.027 28.9673Z" fill="#6161DD"/>
<path d="M898.907 172.062C897.389 176.211 897.652 179.592 899.474 179.592C901.296 179.592 904.009 176.211 905.547 172.062C907.085 167.912 906.802 164.552 904.98 164.552C903.158 164.552 900.486 167.912 898.907 172.062Z" fill="#6161DD"/>
<path d="M886.317 231.777C884.819 235.927 885.062 239.287 886.904 239.287C888.746 239.287 891.418 235.927 892.976 231.777C894.535 227.628 894.231 224.247 892.41 224.247C890.588 224.247 887.754 227.628 886.317 231.777Z" fill="#6161DD"/>
<path d="M782.27 84.2497C780.752 88.4196 781.015 91.7799 782.837 91.7799C784.659 91.7799 787.371 88.4196 788.91 84.2497C790.448 80.0797 790.165 76.7397 788.343 76.7397C786.521 76.7397 783.768 80.1 782.27 84.2497Z" fill="#6161DD"/>
<path d="M838.382 22.5099C836.864 26.6597 837.127 30.0199 838.949 30.0199C840.771 30.0199 843.483 26.6597 845.022 22.5099C846.56 18.3602 846.277 15 844.435 15C842.593 15 839.88 18.2792 838.382 22.5099Z" fill="#6161DD"/>
<path d="M880.244 52.4081C878.726 56.5578 878.989 59.9182 880.811 59.9182C882.632 59.9182 885.345 56.5578 886.883 52.4081C888.422 48.2584 888.138 44.8982 886.317 44.8982C884.495 44.8982 881.742 48.2584 880.244 52.4081Z" fill="#6161DD"/>
<path d="M1004.74 295.116C1006.25 291.068 1005.99 287.606 1004.17 287.606C1002.35 287.606 999.634 290.966 998.096 295.116C996.557 299.266 996.841 302.626 998.663 302.626C1000.48 302.626 1003.24 299.266 1004.74 295.116Z" fill="#6161DD"/>
<path d="M1037 147.649C1039.65 140.362 1039.21 134.451 1036.01 134.451C1032.81 134.451 1028.05 140.362 1025.38 147.649C1022.71 154.937 1023.2 160.847 1026.39 160.847C1029.59 160.847 1034.35 154.937 1037 147.649Z" fill="#6161DD"/>
<path d="M1045.18 209.753C1045.93 207.729 1045.81 206.008 1044.9 206.008C1043.99 206.008 1042.63 207.689 1041.86 209.753C1041.09 211.818 1041.23 213.518 1042.14 213.518C1043.05 213.518 1044.41 211.838 1045.18 209.753Z" fill="#6161DD"/>
<path d="M983.967 382.463C984.736 380.438 984.594 378.697 983.683 378.697C982.772 378.697 981.416 380.378 980.667 382.463C979.918 384.548 980.039 386.207 980.95 386.207C981.861 386.207 983.218 384.527 983.967 382.463Z" fill="#6161DD"/>
<path d="M923.138 268.679C921.64 272.728 921.883 276.189 923.705 276.189C925.526 276.189 928.239 272.829 929.777 268.679C931.316 264.53 931.032 261.169 929.211 261.169C927.389 261.169 924.656 264.53 923.138 268.679Z" fill="#6161DD"/>
<path d="M920.729 205.199C919.211 209.348 919.474 212.709 921.296 212.709C923.117 212.709 925.83 209.348 927.368 205.199C928.907 201.049 928.623 197.689 926.802 197.689C924.98 197.689 922.186 201.049 920.729 205.199Z" fill="#6161DD"/>
<path d="M808.889 337.808C807.371 341.957 807.634 345.338 809.456 345.338C811.277 345.338 813.99 341.957 815.528 337.808C817.067 333.658 816.783 330.298 814.941 330.298C813.099 330.298 810.407 333.658 808.889 337.808Z" fill="#6161DD"/>
<path d="M878.908 413.879C876.884 419.689 877.167 424.385 879.718 424.385C882.268 424.385 886.054 419.689 888.179 413.879C890.304 408.069 889.92 403.353 887.369 403.353C884.819 403.353 881.033 408.069 878.908 413.879Z" fill="#6161DD"/>
<path d="M838.382 238.619C836.864 242.769 837.127 246.129 838.949 246.129C840.771 246.129 843.483 242.769 845.022 238.619C846.56 234.469 846.277 231.109 844.435 231.109C842.593 231.109 839.88 234.469 838.382 238.619Z" fill="#6161DD"/>
<path d="M833.807 171.313C832.289 175.462 832.552 178.823 834.374 178.823C836.196 178.823 838.909 175.462 840.447 171.313C841.985 167.163 841.702 163.803 839.86 163.803C838.018 163.803 835.326 167.163 833.807 171.313Z" fill="#6161DD"/>
<path d="M868.098 283.841C866.6 287.991 866.843 291.371 868.665 291.371C870.487 291.371 873.199 287.991 874.738 283.841C876.276 279.691 875.993 276.331 874.171 276.331C872.349 276.331 869.556 279.59 868.098 283.841Z" fill="#6161DD"/>
<path d="M765.469 306.938C763.95 311.087 764.214 314.468 766.035 314.468C767.857 314.468 770.57 311.087 772.108 306.938C773.647 302.788 773.363 299.428 771.521 299.428C769.679 299.428 766.886 302.788 765.469 306.938Z" fill="#6161DD"/>
<path d="M761.015 262.283C759.517 266.432 759.76 269.793 761.602 269.793C763.445 269.793 766.137 266.432 767.675 262.283C769.214 258.133 768.93 254.773 767.108 254.773C765.287 254.773 762.534 258.133 761.015 262.283Z" fill="#6161DD"/>
<path d="M983.845 121.84C985.343 117.69 985.1 114.31 983.258 114.31C981.416 114.31 978.744 117.69 977.185 121.84C975.627 125.99 975.93 129.35 977.752 129.35C979.574 129.35 982.327 125.99 983.845 121.84Z" fill="#6161DD"/>
<path d="M812.533 277.991C814.557 272.181 814.294 267.465 811.723 267.465C809.152 267.465 805.387 272.181 803.282 277.991C801.177 283.801 801.521 288.497 804.071 288.497C806.622 288.497 810.407 283.78 812.533 277.991Z" fill="#6161DD"/>
<path d="M796.197 209.753C798.221 203.944 797.958 199.247 795.407 199.247C792.857 199.247 789.051 203.944 786.946 209.753C784.841 215.563 785.185 220.279 787.756 220.279C790.326 220.279 794.092 215.563 796.197 209.753Z" fill="#6161DD"/>
<path d="M979.169 260.441C977.651 264.59 977.914 267.951 979.736 267.951C981.558 267.951 984.27 264.59 985.809 260.441C987.347 256.291 987.064 252.931 985.222 252.931C983.379 252.931 980.687 256.291 979.169 260.441Z" fill="#6161DD"/>
<path d="M929.271 310.318C931.295 304.509 931.032 299.812 928.482 299.812C925.931 299.812 922.126 304.509 920.02 310.318C917.915 316.128 918.259 320.824 920.83 320.824C923.401 320.824 927.166 316.027 929.271 310.318Z" fill="#6161DD"/>
<path d="M976.861 182.669C977.61 180.645 977.489 178.924 976.578 178.924C975.667 178.924 974.311 180.604 973.562 182.669C972.813 184.734 972.934 186.434 973.845 186.434C974.756 186.434 976.112 184.754 976.861 182.669Z" fill="#6161DD"/>
<path d="M837.208 65.4039C835.285 70.667 835.609 74.9381 837.937 74.9381C840.265 74.9381 843.686 70.667 845.609 65.4039C847.532 60.1408 847.188 55.8697 844.88 55.8697C842.572 55.8697 839.131 60.1408 837.208 65.4039Z" fill="#6161DD"/>
<path d="M871.216 349.083C870.467 351.107 870.588 352.848 871.499 352.848C872.41 352.848 873.766 351.168 874.515 349.083C875.264 346.998 875.143 345.338 874.232 345.338C873.321 345.338 871.965 347.018 871.216 349.083Z" fill="#6161DD"/>
<path d="M1038.14 319.427C1036.62 323.476 1036.88 326.937 1038.7 326.937C1040.52 326.937 1043.24 323.577 1044.78 319.427C1046.31 315.278 1046.03 311.897 1044.21 311.897C1042.39 311.897 1039.57 315.278 1038.14 319.427Z" fill="#6161DD"/>
<path d="M927.247 421.166C925.729 425.215 925.992 428.697 927.814 428.697C929.636 428.697 932.348 425.316 933.887 421.166C935.425 417.017 935.142 413.656 933.32 413.656C931.498 413.656 928.826 417.017 927.247 421.166Z" fill="#6161DD"/>
<path d="M956.72 321.978C955.222 326.128 955.465 329.488 957.307 329.488C959.149 329.488 961.841 326.128 963.38 321.978C964.918 317.828 964.635 314.468 962.813 314.468C960.991 314.468 958.238 317.828 956.72 321.978Z" fill="#6161DD"/>
<path d="M985.768 175.847C984.25 179.997 984.513 183.377 986.335 183.377C988.157 183.377 990.869 179.997 992.408 175.847C993.946 171.697 993.663 168.337 991.821 168.337C989.979 168.337 987.286 171.697 985.768 175.847Z" fill="#6161DD"/>
<path d="M765.469 351.309C763.95 355.358 764.214 358.819 766.035 358.819C767.857 358.819 770.57 355.459 772.108 351.309C773.647 347.16 773.363 343.799 771.521 343.799C769.679 343.799 766.886 347.16 765.469 351.309Z" fill="#6161DD"/>
<path d="M859.536 320.824C858.038 324.873 858.281 328.354 860.123 328.354C861.965 328.354 864.637 324.974 866.196 320.824C867.754 316.674 867.451 313.314 865.629 313.314C863.807 313.314 861.054 316.674 859.536 320.824Z" fill="#6161DD"/>
<path d="M1102.18 205.199C1103.7 201.049 1103.44 197.689 1101.62 197.689C1099.79 197.689 1097.08 201.049 1095.54 205.199C1094 209.348 1094.29 212.709 1096.11 212.709C1097.93 212.709 1100.68 209.348 1102.18 205.199Z" fill="#6161DD"/>
<path d="M906.843 371.855C908.867 366.046 908.583 361.35 906.033 361.35C903.482 361.35 899.697 366.046 897.592 371.855C895.486 377.665 895.831 382.361 898.381 382.361C900.932 382.361 904.717 377.665 906.843 371.855Z" fill="#6161DD"/>
<path d="M1078.2 343.799C1076.7 347.949 1076.94 351.309 1078.76 351.309C1080.58 351.309 1083.3 347.949 1084.84 343.799C1086.37 339.65 1086.09 336.289 1084.27 336.289C1082.45 336.289 1079.71 339.65 1078.2 343.799Z" fill="#6161DD"/>
<path d="M1047.63 393.677C1049.65 387.867 1049.39 383.171 1046.82 383.171C1044.25 383.171 1040.48 387.867 1038.38 393.677C1036.27 399.487 1036.62 404.183 1039.17 404.183C1041.72 404.183 1045.5 399.487 1047.63 393.677Z" fill="#6161DD"/>
<path d="M1083.15 291.371C1083.92 289.347 1083.78 287.606 1082.87 287.606C1081.96 287.606 1080.6 289.286 1079.86 291.371C1079.11 293.456 1079.23 295.116 1080.14 295.116C1081.05 295.116 1082.41 293.436 1083.15 291.371Z" fill="#6161DD"/>
<path d="M945.85 152.204C944.048 157.143 944.352 161.151 946.538 161.151C948.724 161.151 951.943 157.103 953.744 152.204C955.546 147.305 955.242 143.236 953.056 143.236C950.87 143.236 947.651 147.244 945.85 152.204Z" fill="#6161DD"/>
<path d="M989.553 432.441C988.784 434.466 988.926 436.206 989.837 436.206C990.748 436.206 992.104 434.526 992.853 432.441C993.602 430.356 993.48 428.697 992.57 428.697C991.659 428.697 990.323 430.377 989.553 432.441Z" fill="#6161DD"/>
<path d="M1438.46 62.6498C1439.96 58.4799 1439.71 55.1196 1437.87 55.1196C1436.03 55.1196 1433.36 58.4799 1431.8 62.6498C1430.24 66.8198 1430.54 70.1598 1432.37 70.1598C1434.19 70.1598 1436.94 66.8603 1438.46 62.6498Z" fill="#6161DD"/>
<path d="M1401.96 38.7839C1403.48 34.7354 1403.22 31.2536 1401.39 31.2536C1399.57 31.2536 1396.86 34.6341 1395.32 38.7839C1393.78 42.9336 1394.07 46.2939 1395.89 46.2939C1397.71 46.2939 1400.46 42.9336 1401.96 38.7839Z" fill="#6161DD"/>
<path d="M1407.81 214.793C1406.29 218.942 1406.56 222.303 1408.38 222.303C1410.2 222.303 1412.91 218.942 1414.45 214.793C1415.99 210.643 1415.71 207.283 1413.86 207.283C1412.02 207.283 1409.33 210.643 1407.81 214.793Z" fill="#6161DD"/>
<path d="M1433.63 178.526C1435.65 172.717 1435.39 168 1432.82 168C1430.25 168 1426.48 172.717 1424.38 178.526C1422.27 184.336 1422.62 189.032 1425.17 189.032C1427.72 189.032 1431.5 184.336 1433.63 178.526Z" fill="#6161DD"/>
<path d="M1273 38.7839C1274.51 34.5532 1274.25 31.1525 1272.41 31.1525C1270.57 31.1525 1267.81 34.5532 1266.34 38.7839C1264.86 43.0146 1265.06 46.3951 1266.92 46.3951C1268.79 46.3951 1271.44 42.9943 1273 38.7839Z" fill="#6161DD"/>
<path d="M1190.42 58.1015C1188.6 62.2608 1188.4 66.1913 1189.98 66.8806C1191.56 67.5699 1194.31 64.7569 1196.13 60.5976C1197.95 56.4382 1198.14 52.5077 1196.56 51.8184C1194.98 51.1292 1192.23 53.9422 1190.42 58.1015Z" fill="#6161DD"/>
<path d="M1142.63 105.787C1144.15 101.637 1143.89 98.2767 1142.07 98.2767C1140.25 98.2767 1137.53 101.637 1135.99 105.787C1134.46 109.936 1134.74 113.297 1136.58 113.297C1138.42 113.297 1141.12 109.936 1142.63 105.787Z" fill="#6161DD"/>
<path d="M1236.92 70.2205C1237.67 68.1963 1237.55 66.4554 1236.64 66.4554C1235.73 66.4554 1234.37 68.1355 1233.62 70.2205C1232.88 72.3055 1233 73.9654 1233.91 73.9654C1234.82 73.9654 1236.18 72.2853 1236.92 70.2205Z" fill="#6161DD"/>
<path d="M1292.96 73.1557C1293.72 71.1314 1293.58 69.4108 1292.67 69.4108C1291.76 69.4108 1290.41 71.091 1289.66 73.1557C1288.91 75.2204 1289.03 76.9208 1289.94 76.9208C1290.85 76.9208 1292.21 75.2407 1292.96 73.1557Z" fill="#6161DD"/>
<path d="M1273.91 117.062C1272.39 121.211 1272.65 124.592 1274.47 124.592C1276.3 124.592 1279.01 121.211 1280.55 117.062C1282.09 112.912 1281.8 109.552 1279.98 109.552C1278.16 109.552 1275.49 112.912 1273.91 117.062Z" fill="#6161DD"/>
<path d="M1261.32 176.777C1259.82 180.927 1260.06 184.287 1261.9 184.287C1263.75 184.287 1266.42 180.927 1267.98 176.777C1269.54 172.628 1269.23 169.247 1267.41 169.247C1265.59 169.247 1262.75 172.628 1261.32 176.777Z" fill="#6161DD"/>
<path d="M1157.27 29.2497C1155.75 33.4196 1156.01 36.7799 1157.84 36.7799C1159.66 36.7799 1162.37 33.4196 1163.91 29.2497C1165.45 25.0797 1165.16 21.7397 1163.34 21.7397C1161.52 21.7397 1158.77 25.1 1157.27 29.2497Z" fill="#6161DD"/>
<path d="M1379.74 240.116C1381.25 236.068 1380.99 232.606 1379.17 232.606C1377.35 232.606 1374.63 235.966 1373.1 240.116C1371.56 244.266 1371.84 247.626 1373.66 247.626C1375.48 247.626 1378.24 244.266 1379.74 240.116Z" fill="#6161DD"/>
<path d="M1412 92.6492C1414.65 85.3619 1414.21 79.4511 1411.01 79.4511C1407.81 79.4511 1403.05 85.3619 1400.38 92.6492C1397.71 99.9366 1398.2 105.847 1401.39 105.847C1404.59 105.847 1409.35 99.9366 1412 92.6492Z" fill="#6161DD"/>
<path d="M1420.18 154.753C1420.93 152.729 1420.81 151.008 1419.9 151.008C1418.99 151.008 1417.63 152.689 1416.86 154.753C1416.09 156.818 1416.23 158.518 1417.14 158.518C1418.05 158.518 1419.41 156.838 1420.18 154.753Z" fill="#6161DD"/>
<path d="M1358.97 327.463C1359.74 325.438 1359.59 323.697 1358.68 323.697C1357.77 323.697 1356.42 325.378 1355.67 327.463C1354.92 329.548 1355.04 331.207 1355.95 331.207C1356.86 331.207 1358.22 329.527 1358.97 327.463Z" fill="#6161DD"/>
<path d="M1298.14 213.679C1296.64 217.728 1296.88 221.189 1298.7 221.189C1300.53 221.189 1303.24 217.829 1304.78 213.679C1306.32 209.53 1306.03 206.169 1304.21 206.169C1302.39 206.169 1299.66 209.53 1298.14 213.679Z" fill="#6161DD"/>
<path d="M1295.73 150.199C1294.21 154.348 1294.47 157.709 1296.3 157.709C1298.12 157.709 1300.83 154.348 1302.37 150.199C1303.91 146.049 1303.62 142.689 1301.8 142.689C1299.98 142.689 1297.19 146.049 1295.73 150.199Z" fill="#6161DD"/>
<path d="M1183.89 282.808C1182.37 286.957 1182.63 290.338 1184.46 290.338C1186.28 290.338 1188.99 286.957 1190.53 282.808C1192.07 278.658 1191.78 275.298 1189.94 275.298C1188.1 275.298 1185.41 278.658 1183.89 282.808Z" fill="#6161DD"/>
<path d="M1253.91 358.879C1251.88 364.689 1252.17 369.385 1254.72 369.385C1257.27 369.385 1261.05 364.689 1263.18 358.879C1265.3 353.069 1264.92 348.353 1262.37 348.353C1259.82 348.353 1256.03 353.069 1253.91 358.879Z" fill="#6161DD"/>
<path d="M1213.38 183.619C1211.86 187.769 1212.13 191.129 1213.95 191.129C1215.77 191.129 1218.48 187.769 1220.02 183.619C1221.56 179.469 1221.28 176.109 1219.43 176.109C1217.59 176.109 1214.88 179.469 1213.38 183.619Z" fill="#6161DD"/>
<path d="M1208.81 116.313C1207.29 120.462 1207.55 123.823 1209.37 123.823C1211.2 123.823 1213.91 120.462 1215.45 116.313C1216.99 112.163 1216.7 108.803 1214.86 108.803C1213.02 108.803 1210.33 112.163 1208.81 116.313Z" fill="#6161DD"/>
<path d="M1243.1 228.841C1241.6 232.991 1241.84 236.371 1243.67 236.371C1245.49 236.371 1248.2 232.991 1249.74 228.841C1251.28 224.691 1250.99 221.331 1249.17 221.331C1247.35 221.331 1244.56 224.59 1243.1 228.841Z" fill="#6161DD"/>
<path d="M1140.47 251.938C1138.95 256.087 1139.21 259.468 1141.04 259.468C1142.86 259.468 1145.57 256.087 1147.11 251.938C1148.65 247.788 1148.36 244.428 1146.52 244.428C1144.68 244.428 1141.89 247.788 1140.47 251.938Z" fill="#6161DD"/>
<path d="M1136.02 207.283C1134.52 211.432 1134.76 214.793 1136.6 214.793C1138.44 214.793 1141.14 211.432 1142.68 207.283C1144.21 203.133 1143.93 199.773 1142.11 199.773C1140.29 199.773 1137.53 203.133 1136.02 207.283Z" fill="#6161DD"/>
<path d="M1358.85 66.8401C1360.34 62.6904 1360.1 59.3099 1358.26 59.3099C1356.42 59.3099 1353.74 62.6904 1352.19 66.8401C1350.63 70.9898 1350.93 74.35 1352.75 74.35C1354.57 74.35 1357.33 70.9898 1358.85 66.8401Z" fill="#6161DD"/>
<path d="M1187.53 222.991C1189.56 217.181 1189.29 212.465 1186.72 212.465C1184.15 212.465 1180.39 217.181 1178.28 222.991C1176.18 228.801 1176.52 233.497 1179.07 233.497C1181.62 233.497 1185.41 228.78 1187.53 222.991Z" fill="#6161DD"/>
<path d="M1171.2 154.753C1173.22 148.944 1172.96 144.247 1170.41 144.247C1167.86 144.247 1164.05 148.944 1161.95 154.753C1159.84 160.563 1160.18 165.279 1162.76 165.279C1165.33 165.279 1169.09 160.563 1171.2 154.753Z" fill="#6161DD"/>
<path d="M1354.17 205.441C1352.65 209.59 1352.91 212.951 1354.74 212.951C1356.56 212.951 1359.27 209.59 1360.81 205.441C1362.35 201.291 1362.06 197.931 1360.22 197.931C1358.38 197.931 1355.69 201.291 1354.17 205.441Z" fill="#6161DD"/>
<path d="M1304.27 255.318C1306.3 249.509 1306.03 244.812 1303.48 244.812C1300.93 244.812 1297.13 249.509 1295.02 255.318C1292.92 261.128 1293.26 265.824 1295.83 265.824C1298.4 265.824 1302.17 261.027 1304.27 255.318Z" fill="#6161DD"/>
<path d="M1351.86 127.669C1352.61 125.645 1352.49 123.924 1351.58 123.924C1350.67 123.924 1349.31 125.604 1348.56 127.669C1347.81 129.734 1347.93 131.434 1348.85 131.434C1349.76 131.434 1351.11 129.754 1351.86 127.669Z" fill="#6161DD"/>
<path d="M1212.21 10.4039C1210.29 15.667 1210.61 19.9381 1212.94 19.9381C1215.26 19.9381 1218.69 15.667 1220.61 10.4039C1222.53 5.14084 1222.19 0.869684 1219.88 0.869684C1217.57 0.869684 1214.13 5.14084 1212.21 10.4039Z" fill="#6161DD"/>
<path d="M1246.22 294.083C1245.47 296.107 1245.59 297.848 1246.5 297.848C1247.41 297.848 1248.77 296.168 1249.52 294.083C1250.26 291.998 1250.14 290.338 1249.23 290.338C1248.32 290.338 1246.96 292.018 1246.22 294.083Z" fill="#6161DD"/>
<path d="M1413.14 264.427C1411.62 268.476 1411.88 271.937 1413.7 271.937C1415.52 271.937 1418.24 268.577 1419.78 264.427C1421.31 260.278 1421.03 256.897 1419.21 256.897C1417.39 256.897 1414.57 260.278 1413.14 264.427Z" fill="#6161DD"/>
<path d="M1302.25 366.166C1300.73 370.215 1300.99 373.697 1302.81 373.697C1304.64 373.697 1307.35 370.316 1308.89 366.166C1310.42 362.017 1310.14 358.656 1308.32 358.656C1306.5 358.656 1303.83 362.017 1302.25 366.166Z" fill="#6161DD"/>
<path d="M1331.72 266.978C1330.22 271.128 1330.46 274.488 1332.31 274.488C1334.15 274.488 1336.84 271.128 1338.38 266.978C1339.92 262.828 1339.63 259.468 1337.81 259.468C1335.99 259.468 1333.24 262.828 1331.72 266.978Z" fill="#6161DD"/>
<path d="M1360.77 120.847C1359.25 124.997 1359.51 128.377 1361.33 128.377C1363.16 128.377 1365.87 124.997 1367.41 120.847C1368.95 116.697 1368.66 113.337 1366.82 113.337C1364.98 113.337 1362.29 116.697 1360.77 120.847Z" fill="#6161DD"/>
<path d="M1140.47 296.309C1138.95 300.358 1139.21 303.819 1141.04 303.819C1142.86 303.819 1145.57 300.459 1147.11 296.309C1148.65 292.16 1148.36 288.799 1146.52 288.799C1144.68 288.799 1141.89 292.16 1140.47 296.309Z" fill="#6161DD"/>
<path d="M1234.54 265.824C1233.04 269.873 1233.28 273.354 1235.12 273.354C1236.96 273.354 1239.64 269.974 1241.2 265.824C1242.75 261.674 1242.45 258.314 1240.63 258.314C1238.81 258.314 1236.05 261.674 1234.54 265.824Z" fill="#6161DD"/>
<path d="M1281.84 316.855C1283.87 311.046 1283.58 306.35 1281.03 306.35C1278.48 306.35 1274.7 311.046 1272.59 316.855C1270.49 322.665 1270.83 327.361 1273.38 327.361C1275.93 327.361 1279.72 322.665 1281.84 316.855Z" fill="#6161DD"/>
<path d="M1422.63 338.677C1424.65 332.867 1424.39 328.171 1421.82 328.171C1419.25 328.171 1415.48 332.867 1413.38 338.677C1411.27 344.487 1411.62 349.183 1414.17 349.183C1416.72 349.183 1420.5 344.487 1422.63 338.677Z" fill="#6161DD"/>
<path d="M1320.85 97.2039C1319.05 102.143 1319.35 106.151 1321.54 106.151C1323.72 106.151 1326.94 102.103 1328.74 97.2039C1330.55 92.3052 1330.24 88.2364 1328.06 88.2364C1325.87 88.2364 1322.65 92.2444 1320.85 97.2039Z" fill="#6161DD"/>
<path d="M1364.55 377.441C1363.78 379.466 1363.93 381.206 1364.84 381.206C1365.75 381.206 1367.1 379.526 1367.85 377.441C1368.6 375.356 1368.48 373.697 1367.57 373.697C1366.66 373.697 1365.32 375.377 1364.55 377.441Z" fill="#6161DD"/>
<path d="M1371.46 463.65C1372.96 459.48 1372.71 456.12 1370.87 456.12C1369.03 456.12 1366.36 459.48 1364.8 463.65C1363.24 467.82 1363.54 471.16 1365.37 471.16C1367.19 471.16 1369.94 467.86 1371.46 463.65Z" fill="#6161DD"/>
<path d="M1334.96 439.784C1336.48 435.735 1336.22 432.254 1334.4 432.254C1332.57 432.254 1329.86 435.634 1328.32 439.784C1326.78 443.934 1327.07 447.294 1328.89 447.294C1330.71 447.294 1333.46 443.934 1334.96 439.784Z" fill="#6161DD"/>
<path d="M1403.58 600.773C1402.07 604.821 1402.33 608.283 1404.15 608.283C1405.97 608.283 1408.68 604.922 1410.22 600.773C1411.76 596.623 1411.48 593.243 1409.66 593.243C1407.83 593.243 1405.08 596.623 1403.58 600.773Z" fill="#6161DD"/>
<path d="M1416.98 507.151C1415.49 511.2 1415.73 514.661 1417.57 514.661C1419.41 514.661 1422.11 511.301 1423.64 507.151C1425.18 503.001 1424.9 499.641 1423.08 499.641C1421.26 499.641 1418.5 503.001 1416.98 507.151Z" fill="#6161DD"/>
<path d="M1340.81 615.793C1339.29 619.942 1339.56 623.303 1341.38 623.303C1343.2 623.303 1345.91 619.942 1347.45 615.793C1348.99 611.643 1348.71 608.283 1346.86 608.283C1345.02 608.283 1342.33 611.643 1340.81 615.793Z" fill="#6161DD"/>
<path d="M1372.77 580.895C1374.8 575.085 1374.54 570.368 1371.97 570.368C1369.39 570.368 1365.63 575.085 1363.52 580.895C1361.42 586.704 1361.76 591.4 1364.31 591.4C1366.86 591.4 1370.65 586.704 1372.77 580.895Z" fill="#6161DD"/>
<path d="M1206 439.784C1207.51 435.553 1207.25 432.153 1205.41 432.153C1203.57 432.153 1200.81 435.553 1199.34 439.784C1197.86 444.015 1198.06 447.395 1199.92 447.395C1201.79 447.395 1204.44 443.994 1206 439.784Z" fill="#6161DD"/>
<path d="M1123.42 459.102C1121.6 463.261 1121.4 467.191 1122.98 467.881C1124.56 468.57 1127.31 465.757 1129.13 461.598C1130.95 457.438 1131.14 453.508 1129.56 452.818C1127.98 452.129 1125.23 454.942 1123.42 459.102Z" fill="#6161DD"/>
<path d="M1075.63 506.787C1077.15 502.637 1076.89 499.277 1075.07 499.277C1073.25 499.277 1070.53 502.637 1069 506.787C1067.46 510.936 1067.74 514.297 1069.58 514.297C1071.42 514.297 1074.12 510.936 1075.63 506.787Z" fill="#6161DD"/>
<path d="M1169.92 471.221C1170.67 469.196 1170.55 467.455 1169.64 467.455C1168.73 467.455 1167.37 469.136 1166.62 471.221C1165.88 473.306 1166 474.965 1166.91 474.965C1167.82 474.965 1169.18 473.285 1169.92 471.221Z" fill="#6161DD"/>
<path d="M1225.96 474.156C1226.72 472.132 1226.58 470.411 1225.67 470.411C1224.76 470.411 1223.41 472.091 1222.66 474.156C1221.91 476.22 1222.03 477.921 1222.94 477.921C1223.85 477.921 1225.21 476.241 1225.96 474.156Z" fill="#6161DD"/>
<path d="M1090.03 374.967C1090.78 372.943 1090.65 371.223 1089.74 371.223C1088.83 371.223 1087.48 372.903 1086.71 374.967C1085.94 377.032 1086.08 378.732 1086.99 378.732C1087.9 378.732 1089.26 377.052 1090.03 374.967Z" fill="#6161DD"/>
<path d="M1206.91 518.062C1205.39 522.212 1205.65 525.592 1207.47 525.592C1209.3 525.592 1212.01 522.212 1213.55 518.062C1215.09 513.912 1214.8 510.552 1212.98 510.552C1211.16 510.552 1208.49 513.912 1206.91 518.062Z" fill="#6161DD"/>
<path d="M1194.32 577.777C1192.82 581.927 1193.06 585.287 1194.9 585.287C1196.75 585.287 1199.42 581.927 1200.98 577.777C1202.54 573.628 1202.23 570.247 1200.41 570.247C1198.59 570.247 1195.75 573.628 1194.32 577.777Z" fill="#6161DD"/>
<path d="M1090.27 430.25C1088.75 434.42 1089.01 437.78 1090.84 437.78C1092.66 437.78 1095.37 434.42 1096.91 430.25C1098.45 426.08 1098.16 422.74 1096.34 422.74C1094.52 422.74 1091.77 426.1 1090.27 430.25Z" fill="#6161DD"/>
<path d="M1146.38 368.51C1144.86 372.66 1145.13 376.02 1146.95 376.02C1148.77 376.02 1151.48 372.66 1153.02 368.51C1154.56 364.36 1154.28 361 1152.43 361C1150.59 361 1147.88 364.279 1146.38 368.51Z" fill="#6161DD"/>
<path d="M1188.24 398.408C1186.73 402.558 1186.99 405.918 1188.81 405.918C1190.63 405.918 1193.34 402.558 1194.88 398.408C1196.42 394.258 1196.14 390.898 1194.32 390.898C1192.49 390.898 1189.74 394.258 1188.24 398.408Z" fill="#6161DD"/>
<path d="M1312.74 641.116C1314.25 637.068 1313.99 633.606 1312.17 633.606C1310.35 633.606 1307.63 636.966 1306.1 641.116C1304.56 645.266 1304.84 648.626 1306.66 648.626C1308.48 648.626 1311.24 645.266 1312.74 641.116Z" fill="#6161DD"/>
<path d="M1345 493.649C1347.65 486.362 1347.21 480.451 1344.01 480.451C1340.81 480.451 1336.05 486.362 1333.38 493.649C1330.71 500.937 1331.2 506.847 1334.39 506.847C1337.59 506.847 1342.35 500.937 1345 493.649Z" fill="#6161DD"/>
<path d="M1353.18 555.753C1353.93 553.729 1353.81 552.009 1352.9 552.009C1351.99 552.009 1350.63 553.689 1349.86 555.753C1349.09 557.818 1349.23 559.518 1350.14 559.518C1351.05 559.518 1352.41 557.838 1353.18 555.753Z" fill="#6161DD"/>
<path d="M1231.14 614.679C1229.64 618.728 1229.88 622.189 1231.7 622.189C1233.53 622.189 1236.24 618.829 1237.78 614.679C1239.32 610.53 1239.03 607.169 1237.21 607.169C1235.39 607.169 1232.66 610.53 1231.14 614.679Z" fill="#6161DD"/>
<path d="M1228.73 551.199C1227.21 555.349 1227.47 558.709 1229.3 558.709C1231.12 558.709 1233.83 555.349 1235.37 551.199C1236.91 547.049 1236.62 543.689 1234.8 543.689C1232.98 543.689 1230.19 547.049 1228.73 551.199Z" fill="#6161DD"/>
<path d="M1146.38 584.619C1144.86 588.769 1145.13 592.129 1146.95 592.129C1148.77 592.129 1151.48 588.769 1153.02 584.619C1154.56 580.47 1154.28 577.109 1152.43 577.109C1150.59 577.109 1147.88 580.47 1146.38 584.619Z" fill="#6161DD"/>
<path d="M1141.81 517.313C1140.29 521.463 1140.55 524.823 1142.37 524.823C1144.2 524.823 1146.91 521.463 1148.45 517.313C1149.99 513.163 1149.7 509.803 1147.86 509.803C1146.02 509.803 1143.33 513.163 1141.81 517.313Z" fill="#6161DD"/>
<path d="M1176.1 629.841C1174.6 633.991 1174.84 637.371 1176.67 637.371C1178.49 637.371 1181.2 633.991 1182.74 629.841C1184.28 625.691 1183.99 622.331 1182.17 622.331C1180.35 622.331 1177.56 625.59 1176.1 629.841Z" fill="#6161DD"/>
<path d="M1073.47 652.938C1071.95 657.087 1072.21 660.468 1074.04 660.468C1075.86 660.468 1078.57 657.087 1080.11 652.938C1081.65 648.788 1081.36 645.428 1079.52 645.428C1077.68 645.428 1074.89 648.788 1073.47 652.938Z" fill="#6161DD"/>
<path d="M1069.02 608.283C1067.52 612.432 1067.76 615.793 1069.6 615.793C1071.44 615.793 1074.14 612.432 1075.68 608.283C1077.21 604.133 1076.93 600.773 1075.11 600.773C1073.29 600.773 1070.53 604.133 1069.02 608.283Z" fill="#6161DD"/>
<path d="M1291.85 467.84C1293.34 463.69 1293.1 460.31 1291.26 460.31C1289.42 460.31 1286.74 463.69 1285.19 467.84C1283.63 471.99 1283.93 475.35 1285.75 475.35C1287.57 475.35 1290.33 471.99 1291.85 467.84Z" fill="#6161DD"/>
<path d="M1120.53 623.991C1122.56 618.181 1122.29 613.465 1119.72 613.465C1117.15 613.465 1113.39 618.181 1111.28 623.991C1109.18 629.801 1109.52 634.497 1112.07 634.497C1114.62 634.497 1118.41 629.78 1120.53 623.991Z" fill="#6161DD"/>
<path d="M1104.2 555.753C1106.22 549.944 1105.96 545.247 1103.41 545.247C1100.86 545.247 1097.05 549.944 1094.95 555.753C1092.84 561.563 1093.18 566.279 1095.76 566.279C1098.33 566.279 1102.09 561.563 1104.2 555.753Z" fill="#6161DD"/>
<path d="M1287.17 606.441C1285.65 610.59 1285.91 613.951 1287.74 613.951C1289.56 613.951 1292.27 610.59 1293.81 606.441C1295.35 602.291 1295.06 598.931 1293.22 598.931C1291.38 598.931 1288.69 602.291 1287.17 606.441Z" fill="#6161DD"/>
<path d="M1251.63 646.506C1253.65 640.696 1253.39 636 1250.84 636C1248.29 636 1244.48 640.696 1242.38 646.506C1240.27 652.315 1240.61 657.012 1243.18 657.012C1245.76 657.012 1249.52 652.214 1251.63 646.506Z" fill="#6161DD"/>
<path d="M1284.86 528.669C1285.61 526.645 1285.49 524.924 1284.58 524.924C1283.67 524.924 1282.31 526.604 1281.56 528.669C1280.81 530.734 1280.93 532.434 1281.85 532.434C1282.76 532.434 1284.11 530.754 1284.86 528.669Z" fill="#6161DD"/>
<path d="M1145.21 411.404C1143.29 416.667 1143.61 420.938 1145.94 420.938C1148.26 420.938 1151.69 416.667 1153.61 411.404C1155.53 406.141 1155.19 401.87 1152.88 401.87C1150.57 401.87 1147.13 406.141 1145.21 411.404Z" fill="#6161DD"/>
<path d="M1293.77 521.847C1292.25 525.997 1292.51 529.377 1294.33 529.377C1296.16 529.377 1298.87 525.997 1300.41 521.847C1301.95 517.697 1301.66 514.337 1299.82 514.337C1297.98 514.337 1295.29 517.697 1293.77 521.847Z" fill="#6161DD"/>
<path d="M1410.18 551.199C1411.7 547.049 1411.44 543.689 1409.62 543.689C1407.79 543.689 1405.08 547.049 1403.54 551.199C1402 555.349 1402.29 558.709 1404.11 558.709C1405.93 558.709 1408.68 555.349 1410.18 551.199Z" fill="#6161DD"/>
<path d="M1391.15 637.371C1391.92 635.347 1391.78 633.606 1390.87 633.606C1389.96 633.606 1388.6 635.286 1387.86 637.371C1387.11 639.456 1387.23 641.116 1388.14 641.116C1389.05 641.116 1390.41 639.436 1391.15 637.371Z" fill="#6161DD"/>
<path d="M1253.85 498.204C1252.05 503.143 1252.35 507.151 1254.54 507.151C1256.72 507.151 1259.94 503.103 1261.74 498.204C1263.55 493.305 1263.24 489.236 1261.06 489.236C1258.87 489.236 1255.65 493.245 1253.85 498.204Z" fill="#6161DD"/>
<path d="M1015.46 488.65C1016.96 484.48 1016.71 481.12 1014.87 481.12C1013.03 481.12 1010.36 484.48 1008.8 488.65C1007.24 492.82 1007.54 496.16 1009.37 496.16C1011.19 496.16 1013.94 492.86 1015.46 488.65Z" fill="#6161DD"/>
<path d="M978.962 464.784C980.48 460.735 980.217 457.254 978.395 457.254C976.573 457.254 973.861 460.634 972.322 464.784C970.784 468.934 971.067 472.294 972.889 472.294C974.711 472.294 977.464 468.934 978.962 464.784Z" fill="#6161DD"/>
<path d="M1047.58 625.773C1046.07 629.821 1046.33 633.283 1048.15 633.283C1049.97 633.283 1052.68 629.922 1054.22 625.773C1055.76 621.623 1055.48 618.243 1053.66 618.243C1051.83 618.243 1049.08 621.623 1047.58 625.773Z" fill="#6161DD"/>
<path d="M1060.98 532.151C1059.49 536.2 1059.73 539.661 1061.57 539.661C1063.41 539.661 1066.11 536.301 1067.64 532.151C1069.18 528.001 1068.9 524.641 1067.08 524.641C1065.26 524.641 1062.5 528.001 1060.98 532.151Z" fill="#6161DD"/>
<path d="M984.812 640.793C983.294 644.942 983.557 648.303 985.379 648.303C987.2 648.303 989.913 644.942 991.451 640.793C992.99 636.643 992.706 633.283 990.864 633.283C989.022 633.283 986.33 636.643 984.812 640.793Z" fill="#6161DD"/>
<path d="M1016.77 605.895C1018.8 600.085 1018.54 595.368 1015.97 595.368C1013.39 595.368 1009.63 600.085 1007.52 605.895C1005.42 611.704 1005.76 616.4 1008.31 616.4C1010.86 616.4 1014.65 611.704 1016.77 605.895Z" fill="#6161DD"/>
<path d="M849.997 464.784C851.515 460.553 851.252 457.152 849.41 457.152C847.567 457.152 844.814 460.553 843.337 464.784C841.859 469.015 842.061 472.395 843.924 472.395C845.786 472.395 848.438 468.994 849.997 464.784Z" fill="#6161DD"/>
<path d="M767.416 484.102C765.599 488.261 765.404 492.191 766.982 492.881C768.56 493.57 771.312 490.757 773.129 486.598C774.946 482.438 775.14 478.508 773.563 477.818C771.985 477.129 769.233 479.942 767.416 484.102Z" fill="#6161DD"/>
<path d="M719.635 531.787C721.153 527.637 720.89 524.277 719.068 524.277C717.246 524.277 714.534 527.637 712.995 531.787C711.457 535.936 711.74 539.297 713.582 539.297C715.424 539.297 718.116 535.936 719.635 531.787Z" fill="#6161DD"/>
<path d="M813.924 496.221C814.673 494.196 814.552 492.455 813.641 492.455C812.73 492.455 811.374 494.136 810.625 496.221C809.876 498.306 809.997 499.965 810.908 499.965C811.819 499.965 813.175 498.285 813.924 496.221Z" fill="#6161DD"/>
<path d="M869.956 499.156C870.725 497.131 870.583 495.411 869.672 495.411C868.761 495.411 867.405 497.091 866.656 499.156C865.907 501.22 866.029 502.921 866.94 502.921C867.85 502.921 869.207 501.241 869.956 499.156Z" fill="#6161DD"/>
<path d="M734.027 399.967C734.776 397.943 734.655 396.222 733.744 396.222C732.833 396.222 731.477 397.903 730.707 399.967C729.938 402.032 730.08 403.732 730.991 403.732C731.902 403.732 733.258 402.052 734.027 399.967Z" fill="#6161DD"/>
<path d="M850.907 543.062C849.389 547.211 849.652 550.592 851.474 550.592C853.296 550.592 856.009 547.211 857.547 543.062C859.085 538.912 858.802 535.552 856.98 535.552C855.158 535.552 852.486 538.912 850.907 543.062Z" fill="#6161DD"/>
<path d="M838.317 602.777C836.819 606.927 837.062 610.287 838.904 610.287C840.746 610.287 843.418 606.927 844.976 602.777C846.535 598.628 846.231 595.247 844.41 595.247C842.588 595.247 839.754 598.628 838.317 602.777Z" fill="#6161DD"/>
<path d="M734.27 455.25C732.752 459.42 733.015 462.78 734.837 462.78C736.659 462.78 739.371 459.42 740.91 455.25C742.448 451.08 742.165 447.74 740.343 447.74C738.521 447.74 735.768 451.1 734.27 455.25Z" fill="#6161DD"/>
<path d="M790.382 393.51C788.864 397.66 789.127 401.02 790.949 401.02C792.771 401.02 795.483 397.66 797.022 393.51C798.56 389.36 798.277 386 796.435 386C794.593 386 791.88 389.279 790.382 393.51Z" fill="#6161DD"/>
<path d="M832.244 423.408C830.726 427.558 830.989 430.918 832.811 430.918C834.632 430.918 837.345 427.558 838.883 423.408C840.422 419.258 840.138 415.898 838.317 415.898C836.495 415.898 833.742 419.258 832.244 423.408Z" fill="#6161DD"/>
<path d="M989.002 518.649C991.654 511.362 991.208 505.451 988.01 505.451C984.812 505.451 980.055 511.362 977.383 518.649C974.711 525.937 975.197 531.847 978.395 531.847C981.593 531.847 986.35 525.937 989.002 518.649Z" fill="#6161DD"/>
<path d="M997.18 580.753C997.929 578.729 997.808 577.008 996.897 577.008C995.986 577.008 994.629 578.689 993.86 580.753C993.091 582.818 993.233 584.518 994.144 584.518C995.055 584.518 996.411 582.838 997.18 580.753Z" fill="#6161DD"/>
<path d="M875.138 639.679C873.64 643.728 873.883 647.189 875.705 647.189C877.526 647.189 880.239 643.829 881.777 639.679C883.316 635.53 883.032 632.169 881.211 632.169C879.389 632.169 876.656 635.53 875.138 639.679Z" fill="#6161DD"/>
<path d="M872.729 576.199C871.211 580.348 871.474 583.709 873.296 583.709C875.117 583.709 877.83 580.348 879.368 576.199C880.907 572.049 880.623 568.689 878.802 568.689C876.98 568.689 874.186 572.049 872.729 576.199Z" fill="#6161DD"/>
<path d="M790.382 609.619C788.864 613.769 789.127 617.129 790.949 617.129C792.771 617.129 795.483 613.769 797.022 609.619C798.56 605.469 798.277 602.109 796.435 602.109C794.593 602.109 791.88 605.469 790.382 609.619Z" fill="#6161DD"/>
<path d="M785.807 542.313C784.289 546.462 784.552 549.823 786.374 549.823C788.196 549.823 790.909 546.462 792.447 542.313C793.985 538.163 793.702 534.803 791.86 534.803C790.018 534.803 787.326 538.163 785.807 542.313Z" fill="#6161DD"/>
<path d="M817.98 647.51C816.482 651.66 816.725 655.04 818.547 655.04C820.369 655.04 823.081 651.66 824.62 647.51C826.158 643.36 825.875 640 824.053 640C822.231 640 819.437 643.259 817.98 647.51Z" fill="#6161DD"/>
<path d="M713.015 633.283C711.517 637.432 711.76 640.793 713.602 640.793C715.445 640.793 718.137 637.432 719.675 633.283C721.214 629.133 720.93 625.773 719.108 625.773C717.287 625.773 714.534 629.133 713.015 633.283Z" fill="#6161DD"/>
<path d="M935.845 492.84C937.343 488.69 937.1 485.31 935.258 485.31C933.416 485.31 930.744 488.69 929.185 492.84C927.627 496.99 927.93 500.35 929.752 500.35C931.574 500.35 934.327 496.99 935.845 492.84Z" fill="#6161DD"/>
<path d="M764.533 648.991C766.557 643.181 766.294 638.465 763.723 638.465C761.152 638.465 757.387 643.181 755.282 648.991C753.177 654.801 753.521 659.497 756.071 659.497C758.622 659.497 762.407 654.78 764.533 648.991Z" fill="#6161DD"/>
<path d="M748.197 580.753C750.221 574.944 749.958 570.247 747.407 570.247C744.857 570.247 741.051 574.944 738.946 580.753C736.841 586.563 737.185 591.279 739.756 591.279C742.326 591.279 746.092 586.563 748.197 580.753Z" fill="#6161DD"/>
<path d="M931.169 631.441C929.651 635.59 929.914 638.951 931.736 638.951C933.558 638.951 936.27 635.59 937.809 631.441C939.347 627.291 939.064 623.931 937.222 623.931C935.379 623.931 932.687 627.291 931.169 631.441Z" fill="#6161DD"/>
<path d="M928.861 553.669C929.61 551.645 929.489 549.924 928.578 549.924C927.667 549.924 926.311 551.604 925.562 553.669C924.813 555.734 924.934 557.434 925.845 557.434C926.756 557.434 928.112 555.754 928.861 553.669Z" fill="#6161DD"/>
<path d="M789.208 436.404C787.285 441.667 787.609 445.938 789.937 445.938C792.265 445.938 795.686 441.667 797.609 436.404C799.532 431.141 799.188 426.87 796.88 426.87C794.572 426.87 791.131 431.141 789.208 436.404Z" fill="#6161DD"/>
<path d="M937.768 546.847C936.25 550.997 936.513 554.377 938.335 554.377C940.157 554.377 942.869 550.997 944.408 546.847C945.946 542.697 945.663 539.337 943.821 539.337C941.979 539.337 939.286 542.697 937.768 546.847Z" fill="#6161DD"/>
<path d="M1054.18 576.199C1055.7 572.049 1055.44 568.689 1053.62 568.689C1051.79 568.689 1049.08 572.049 1047.54 576.199C1046 580.348 1046.29 583.709 1048.11 583.709C1049.93 583.709 1052.68 580.348 1054.18 576.199Z" fill="#6161DD"/>
<path d="M897.85 523.204C896.048 528.143 896.352 532.151 898.538 532.151C900.724 532.151 903.943 528.103 905.744 523.204C907.546 518.305 907.242 514.236 905.056 514.236C902.87 514.236 899.651 518.244 897.85 523.204Z" fill="#6161DD"/>
<path d="M635.459 466.65C636.957 462.48 636.714 459.12 634.872 459.12C633.03 459.12 630.358 462.48 628.799 466.65C627.24 470.82 627.544 474.16 629.366 474.16C631.188 474.16 633.941 470.86 635.459 466.65Z" fill="#6161DD"/>
<path d="M598.962 442.784C600.48 438.735 600.217 435.254 598.395 435.254C596.573 435.254 593.861 438.634 592.322 442.784C590.784 446.934 591.067 450.294 592.889 450.294C594.711 450.294 597.464 446.934 598.962 442.784Z" fill="#6161DD"/>
<path d="M667.584 603.773C666.066 607.821 666.329 611.283 668.151 611.283C669.972 611.283 672.685 607.922 674.223 603.773C675.762 599.623 675.478 596.243 673.657 596.243C671.835 596.243 669.082 599.623 667.584 603.773Z" fill="#6161DD"/>
<path d="M680.984 510.151C679.486 514.2 679.729 517.661 681.571 517.661C683.414 517.661 686.106 514.301 687.644 510.151C689.183 506.001 688.899 502.641 687.077 502.641C685.256 502.641 682.503 506.001 680.984 510.151Z" fill="#6161DD"/>
<path d="M604.812 618.793C603.294 622.942 603.557 626.303 605.379 626.303C607.2 626.303 609.913 622.942 611.451 618.793C612.99 614.643 612.706 611.283 610.864 611.283C609.022 611.283 606.33 614.643 604.812 618.793Z" fill="#6161DD"/>
<path d="M636.775 583.895C638.799 578.085 638.536 573.368 635.965 573.368C633.394 573.368 629.629 578.085 627.524 583.895C625.419 589.704 625.763 594.4 628.313 594.4C630.864 594.4 634.649 589.704 636.775 583.895Z" fill="#6161DD"/>
<path d="M469.997 442.784C471.515 438.553 471.252 435.153 469.41 435.153C467.567 435.153 464.814 438.553 463.337 442.784C461.859 447.015 462.061 450.395 463.924 450.395C465.786 450.395 468.438 446.994 469.997 442.784Z" fill="#6161DD"/>
<path d="M387.416 462.102C385.599 466.261 385.404 470.191 386.982 470.881C388.56 471.57 391.312 468.757 393.129 464.598C394.946 460.438 395.14 456.508 393.563 455.818C391.985 455.129 389.233 457.942 387.416 462.102Z" fill="#6161DD"/>
<path d="M339.635 509.787C341.153 505.637 340.89 502.277 339.068 502.277C337.246 502.277 334.534 505.637 332.995 509.787C331.457 513.936 331.74 517.297 333.582 517.297C335.424 517.297 338.116 513.936 339.635 509.787Z" fill="#6161DD"/>
<path d="M433.924 474.221C434.673 472.196 434.552 470.455 433.641 470.455C432.73 470.455 431.374 472.136 430.625 474.221C429.876 476.306 429.997 477.965 430.908 477.965C431.819 477.965 433.175 476.285 433.924 474.221Z" fill="#6161DD"/>
<path d="M489.956 477.156C490.725 475.131 490.583 473.411 489.672 473.411C488.761 473.411 487.405 475.091 486.656 477.156C485.907 479.22 486.029 480.921 486.94 480.921C487.85 480.921 489.207 479.241 489.956 477.156Z" fill="#6161DD"/>
<path d="M354.027 377.967C354.776 375.943 354.655 374.223 353.744 374.223C352.833 374.223 351.477 375.903 350.707 377.967C349.938 380.032 350.08 381.732 350.991 381.732C351.902 381.732 353.258 380.052 354.027 377.967Z" fill="#6161DD"/>
<path d="M470.907 521.062C469.389 525.212 469.652 528.592 471.474 528.592C473.296 528.592 476.009 525.212 477.547 521.062C479.085 516.912 478.802 513.552 476.98 513.552C475.158 513.552 472.486 516.912 470.907 521.062Z" fill="#6161DD"/>
<path d="M458.317 580.777C456.819 584.927 457.062 588.287 458.904 588.287C460.746 588.287 463.418 584.927 464.976 580.777C466.535 576.628 466.231 573.247 464.41 573.247C462.588 573.247 459.754 576.628 458.317 580.777Z" fill="#6161DD"/>
<path d="M354.27 433.25C352.752 437.42 353.015 440.78 354.837 440.78C356.659 440.78 359.371 437.42 360.91 433.25C362.448 429.08 362.165 425.74 360.343 425.74C358.521 425.74 355.768 429.1 354.27 433.25Z" fill="#6161DD"/>
<path d="M410.382 371.51C408.864 375.66 409.127 379.02 410.949 379.02C412.771 379.02 415.483 375.66 417.022 371.51C418.56 367.36 418.277 364 416.435 364C414.593 364 411.88 367.279 410.382 371.51Z" fill="#6161DD"/>
<path d="M452.244 401.408C450.726 405.558 450.989 408.918 452.811 408.918C454.632 408.918 457.345 405.558 458.883 401.408C460.422 397.258 460.138 393.898 458.317 393.898C456.495 393.898 453.742 397.258 452.244 401.408Z" fill="#6161DD"/>
<path d="M576.735 644.116C578.254 640.068 577.99 636.606 576.169 636.606C574.347 636.606 571.634 639.966 570.096 644.116C568.557 648.266 568.841 651.626 570.663 651.626C572.485 651.626 575.238 648.266 576.735 644.116Z" fill="#6161DD"/>
<path d="M609.002 496.649C611.654 489.362 611.208 483.451 608.01 483.451C604.812 483.451 600.055 489.362 597.383 496.649C594.711 503.937 595.197 509.847 598.395 509.847C601.593 509.847 606.35 503.937 609.002 496.649Z" fill="#6161DD"/>
<path d="M617.18 558.753C617.929 556.729 617.808 555.009 616.897 555.009C615.986 555.009 614.629 556.689 613.86 558.753C613.091 560.818 613.233 562.518 614.144 562.518C615.055 562.518 616.411 560.838 617.18 558.753Z" fill="#6161DD"/>
<path d="M495.138 617.679C493.64 621.728 493.883 625.189 495.705 625.189C497.526 625.189 500.239 621.829 501.777 617.679C503.316 613.53 503.032 610.169 501.211 610.169C499.389 610.169 496.656 613.53 495.138 617.679Z" fill="#6161DD"/>
<path d="M492.729 554.199C491.211 558.349 491.474 561.709 493.296 561.709C495.117 561.709 497.83 558.349 499.368 554.199C500.907 550.049 500.623 546.689 498.802 546.689C496.98 546.689 494.186 550.049 492.729 554.199Z" fill="#6161DD"/>
<path d="M410.382 587.619C408.864 591.769 409.127 595.129 410.949 595.129C412.771 595.129 415.483 591.769 417.022 587.619C418.56 583.47 418.277 580.109 416.435 580.109C414.593 580.109 411.88 583.47 410.382 587.619Z" fill="#6161DD"/>
<path d="M405.807 520.313C404.289 524.463 404.552 527.823 406.374 527.823C408.196 527.823 410.909 524.463 412.447 520.313C413.985 516.163 413.702 512.803 411.86 512.803C410.018 512.803 407.326 516.163 405.807 520.313Z" fill="#6161DD"/>
<path d="M440.098 632.841C438.6 636.991 438.843 640.371 440.665 640.371C442.487 640.371 445.199 636.991 446.738 632.841C448.276 628.691 447.993 625.331 446.171 625.331C444.349 625.331 441.556 628.59 440.098 632.841Z" fill="#6161DD"/>
<path d="M338.988 645.51C337.47 649.66 337.733 653.04 339.555 653.04C341.377 653.04 344.09 649.66 345.628 645.51C347.166 641.36 346.883 638 345.041 638C343.199 638 340.405 641.36 338.988 645.51Z" fill="#6161DD"/>
<path d="M333.015 611.283C331.517 615.432 331.76 618.793 333.602 618.793C335.445 618.793 338.137 615.432 339.675 611.283C341.214 607.133 340.93 603.773 339.108 603.773C337.287 603.773 334.534 607.133 333.015 611.283Z" fill="#6161DD"/>
<path d="M555.845 470.84C557.343 466.69 557.1 463.31 555.258 463.31C553.416 463.31 550.744 466.69 549.185 470.84C547.627 474.99 547.93 478.35 549.752 478.35C551.574 478.35 554.327 474.99 555.845 470.84Z" fill="#6161DD"/>
<path d="M384.533 626.991C386.557 621.181 386.294 616.465 383.723 616.465C381.152 616.465 377.387 621.181 375.282 626.991C373.177 632.801 373.521 637.497 376.071 637.497C378.622 637.497 382.407 632.78 384.533 626.991Z" fill="#6161DD"/>
<path d="M368.197 558.753C370.221 552.944 369.958 548.247 367.407 548.247C364.857 548.247 361.051 552.944 358.946 558.753C356.841 564.563 357.185 569.279 359.756 569.279C362.326 569.279 366.092 564.563 368.197 558.753Z" fill="#6161DD"/>
<path d="M551.169 609.441C549.651 613.59 549.914 616.951 551.736 616.951C553.558 616.951 556.27 613.59 557.809 609.441C559.347 605.291 559.064 601.931 557.222 601.931C555.379 601.931 552.687 605.291 551.169 609.441Z" fill="#6161DD"/>
<path d="M513.626 646.506C515.65 640.696 515.387 636 512.837 636C510.286 636 506.481 640.696 504.375 646.506C502.27 652.315 502.614 657.012 505.185 657.012C507.756 657.012 511.521 652.214 513.626 646.506Z" fill="#6161DD"/>
<path d="M548.861 531.669C549.61 529.645 549.489 527.924 548.578 527.924C547.667 527.924 546.311 529.604 545.562 531.669C544.813 533.734 544.934 535.434 545.845 535.434C546.756 535.434 548.112 533.754 548.861 531.669Z" fill="#6161DD"/>
<path d="M409.208 414.404C407.285 419.667 407.609 423.938 409.937 423.938C412.265 423.938 415.686 419.667 417.609 414.404C419.532 409.141 419.188 404.87 416.88 404.87C414.572 404.87 411.131 409.141 409.208 414.404Z" fill="#6161DD"/>
<path d="M557.768 524.847C556.25 528.997 556.513 532.377 558.335 532.377C560.157 532.377 562.869 528.997 564.408 524.847C565.946 520.697 565.663 517.337 563.821 517.337C561.979 517.337 559.286 520.697 557.768 524.847Z" fill="#6161DD"/>
<path d="M674.183 554.199C675.701 550.049 675.438 546.689 673.616 546.689C671.794 546.689 669.082 550.049 667.543 554.199C666.005 558.349 666.288 561.709 668.11 561.709C669.932 561.709 672.685 558.349 674.183 554.199Z" fill="#6161DD"/>
<path d="M655.155 640.371C655.924 638.347 655.782 636.606 654.872 636.606C653.961 636.606 652.604 638.286 651.855 640.371C651.106 642.456 651.228 644.116 652.139 644.116C653.05 644.116 654.406 642.436 655.155 640.371Z" fill="#6161DD"/>
<path d="M517.85 501.204C516.048 506.143 516.352 510.151 518.538 510.151C520.724 510.151 523.943 506.103 525.744 501.204C527.546 496.305 527.242 492.236 525.056 492.236C522.87 492.236 519.651 496.244 517.85 501.204Z" fill="#6161DD"/>
<path d="M257.459 447.65C258.957 443.48 258.714 440.12 256.872 440.12C255.03 440.12 252.358 443.48 250.799 447.65C249.24 451.82 249.544 455.16 251.366 455.16C253.188 455.16 255.941 451.86 257.459 447.65Z" fill="#6161DD"/>
<path d="M220.962 423.784C222.48 419.735 222.217 416.254 220.395 416.254C218.573 416.254 215.861 419.634 214.322 423.784C212.784 427.934 213.067 431.294 214.889 431.294C216.711 431.294 219.464 427.934 220.962 423.784Z" fill="#6161DD"/>
<path d="M289.584 584.773C288.066 588.821 288.329 592.283 290.151 592.283C291.973 592.283 294.685 588.922 296.223 584.773C297.762 580.623 297.478 577.242 295.657 577.242C293.835 577.242 291.082 580.623 289.584 584.773Z" fill="#6161DD"/>
<path d="M302.984 491.151C301.486 495.2 301.729 498.661 303.571 498.661C305.414 498.661 308.106 495.301 309.644 491.151C311.183 487.001 310.899 483.641 309.077 483.641C307.256 483.641 304.503 487.001 302.984 491.151Z" fill="#6161DD"/>
<path d="M226.812 599.793C225.294 603.942 225.557 607.303 227.379 607.303C229.2 607.303 231.913 603.942 233.451 599.793C234.99 595.643 234.706 592.283 232.864 592.283C231.022 592.283 228.33 595.643 226.812 599.793Z" fill="#6161DD"/>
<path d="M258.775 564.895C260.799 559.085 260.536 554.368 257.965 554.368C255.394 554.368 251.629 559.085 249.524 564.895C247.419 570.704 247.763 575.4 250.313 575.4C252.864 575.4 256.649 570.704 258.775 564.895Z" fill="#6161DD"/>
<path d="M91.9966 423.784C93.5148 419.553 93.2516 416.152 91.4096 416.152C89.5675 416.152 86.8145 419.553 85.3368 423.784C83.8591 428.015 84.0615 431.395 85.9238 431.395C87.7861 431.395 90.4379 427.994 91.9966 423.784Z" fill="#6161DD"/>
<path d="M9.41578 443.101C7.59862 447.261 7.4045 451.191 8.98217 451.881C10.5598 452.57 13.3119 449.757 15.1291 445.598C16.9462 441.438 17.1403 437.508 15.5627 436.818C13.985 436.129 11.2329 438.942 9.41578 443.101Z" fill="#6161DD"/>
<path d="M55.9244 455.22C56.6734 453.196 56.5519 451.455 55.641 451.455C54.7301 451.455 53.3739 453.136 52.6249 455.22C51.8759 457.305 51.9973 458.965 52.9083 458.965C53.8192 458.965 55.1755 457.285 55.9244 455.22Z" fill="#6161DD"/>
<path d="M111.956 458.156C112.725 456.131 112.583 454.411 111.672 454.411C110.761 454.411 109.405 456.091 108.656 458.156C107.907 460.22 108.029 461.921 108.94 461.921C109.851 461.921 111.207 460.241 111.956 458.156Z" fill="#6161DD"/>
<path d="M92.9075 502.062C91.3893 506.211 91.6524 509.592 93.4743 509.592C95.2961 509.592 98.0086 506.211 99.547 502.062C101.085 497.912 100.802 494.552 98.9802 494.552C97.1584 494.552 94.4864 497.912 92.9075 502.062Z" fill="#6161DD"/>
<path d="M80.3167 561.777C78.8187 565.927 79.0616 569.287 80.9037 569.287C82.7458 569.287 85.4178 565.927 86.9765 561.777C88.5351 557.627 88.2315 554.247 86.4097 554.247C84.5879 554.247 81.7539 557.627 80.3167 561.777Z" fill="#6161DD"/>
<path d="M32.3823 352.51C30.8641 356.66 31.1273 360.02 32.9491 360.02C34.7709 360.02 37.4834 356.66 39.0219 352.51C40.5603 348.36 40.2769 345 38.4348 345C36.5927 345 33.8803 348.279 32.3823 352.51Z" fill="#6161DD"/>
<path d="M74.2439 382.408C72.7257 386.558 72.9889 389.918 74.8107 389.918C76.6325 389.918 79.345 386.558 80.8835 382.408C82.4219 378.258 82.1385 374.898 80.3167 374.898C78.4948 374.898 75.7419 378.258 74.2439 382.408Z" fill="#6161DD"/>
<path d="M198.735 625.116C200.254 621.068 199.991 617.606 198.169 617.606C196.347 617.606 193.634 620.966 192.096 625.116C190.558 629.266 190.841 632.626 192.663 632.626C194.485 632.626 197.238 629.266 198.735 625.116Z" fill="#6161DD"/>
<path d="M231.002 477.649C233.654 470.362 233.208 464.451 230.01 464.451C226.812 464.451 222.055 470.362 219.383 477.649C216.711 484.937 217.197 490.847 220.395 490.847C223.593 490.847 228.35 484.937 231.002 477.649Z" fill="#6161DD"/>
<path d="M239.18 539.753C239.929 537.729 239.808 536.008 238.897 536.008C237.986 536.008 236.629 537.689 235.86 539.753C235.091 541.818 235.233 543.518 236.144 543.518C237.055 543.518 238.411 541.838 239.18 539.753Z" fill="#6161DD"/>
<path d="M117.138 598.679C115.64 602.728 115.883 606.189 117.705 606.189C119.526 606.189 122.239 602.829 123.777 598.679C125.316 594.53 125.032 591.169 123.211 591.169C121.389 591.169 118.656 594.53 117.138 598.679Z" fill="#6161DD"/>
<path d="M114.729 535.199C113.211 539.348 113.474 542.709 115.296 542.709C117.118 542.709 119.83 539.348 121.368 535.199C122.907 531.049 122.623 527.689 120.802 527.689C118.98 527.689 116.186 531.049 114.729 535.199Z" fill="#6161DD"/>
<path d="M32.3823 568.619C30.8641 572.769 31.1273 576.129 32.9491 576.129C34.7709 576.129 37.4834 572.769 39.0219 568.619C40.5603 564.469 40.2769 561.109 38.4348 561.109C36.5927 561.109 33.8803 564.469 32.3823 568.619Z" fill="#6161DD"/>
<path d="M27.8075 501.313C26.2893 505.462 26.5524 508.823 28.3743 508.823C30.1961 508.823 32.9086 505.462 34.447 501.313C35.9855 497.163 35.7021 493.803 33.86 493.803C32.0179 493.803 29.3257 497.163 27.8075 501.313Z" fill="#6161DD"/>
<path d="M62.0984 613.841C60.6004 617.991 60.8434 621.371 62.6652 621.371C64.487 621.371 67.1995 617.991 68.7379 613.841C70.2764 609.691 69.993 606.331 68.1712 606.331C66.3493 606.331 63.5559 609.59 62.0984 613.841Z" fill="#6161DD"/>
<path d="M177.845 451.84C179.343 447.69 179.1 444.31 177.258 444.31C175.416 444.31 172.744 447.69 171.185 451.84C169.627 455.99 169.93 459.35 171.752 459.35C173.574 459.35 176.327 455.99 177.845 451.84Z" fill="#6161DD"/>
<path d="M17.6278 603.526C19.6521 597.717 19.3889 593 16.8181 593C14.2473 593 10.4823 597.717 8.37703 603.526C6.27181 609.336 6.6159 614.032 9.16646 614.032C11.717 614.032 15.5024 609.315 17.6278 603.526Z" fill="#6161DD"/>
<path d="M173.169 590.441C171.651 594.59 171.914 597.951 173.736 597.951C175.558 597.951 178.27 594.59 179.809 590.441C181.347 586.291 181.064 582.931 179.222 582.931C177.379 582.931 174.687 586.291 173.169 590.441Z" fill="#6161DD"/>
<path d="M123.271 640.318C125.295 634.509 125.032 629.812 122.482 629.812C119.931 629.812 116.126 634.509 114.02 640.318C111.915 646.128 112.259 650.824 114.83 650.824C117.401 650.824 121.166 646.027 123.271 640.318Z" fill="#6161DD"/>
<path d="M170.861 512.669C171.61 510.645 171.489 508.924 170.578 508.924C169.667 508.924 168.311 510.604 167.562 512.669C166.813 514.734 166.934 516.434 167.845 516.434C168.756 516.434 170.112 514.754 170.861 512.669Z" fill="#6161DD"/>
<path d="M31.2082 395.404C29.2851 400.667 29.6091 404.938 31.937 404.938C34.2648 404.938 37.6858 400.667 39.6089 395.404C41.5319 390.141 41.1878 385.87 38.8801 385.87C36.5725 385.87 33.1312 390.141 31.2082 395.404Z" fill="#6161DD"/>
<path d="M232.136 649.427C230.617 653.476 230.881 656.937 232.702 656.937C234.524 656.937 237.237 653.577 238.775 649.427C240.314 645.278 240.03 641.897 238.208 641.897C236.387 641.897 233.573 645.278 232.136 649.427Z" fill="#6161DD"/>
<path d="M150.72 651.978C149.222 656.128 149.465 659.488 151.307 659.488C153.149 659.488 155.841 656.128 157.38 651.978C158.918 647.828 158.635 644.468 156.813 644.468C154.991 644.468 152.238 647.828 150.72 651.978Z" fill="#6161DD"/>
<path d="M179.768 505.847C178.25 509.997 178.513 513.377 180.335 513.377C182.157 513.377 184.869 509.997 186.408 505.847C187.946 501.697 187.663 498.337 185.821 498.337C183.979 498.337 181.286 501.697 179.768 505.847Z" fill="#6161DD"/>
<path d="M53.5358 650.824C52.0378 654.873 52.2808 658.354 54.1228 658.354C55.9649 658.354 58.6369 654.974 60.1956 650.824C61.7543 646.674 61.4506 643.314 59.6288 643.314C57.807 643.314 55.054 646.674 53.5358 650.824Z" fill="#6161DD"/>
<path d="M296.183 535.199C297.701 531.049 297.438 527.689 295.616 527.689C293.794 527.689 291.082 531.049 289.543 535.199C288.005 539.348 288.288 542.709 290.11 542.709C291.932 542.709 294.685 539.348 296.183 535.199Z" fill="#6161DD"/>
<path d="M277.155 621.371C277.924 619.347 277.782 617.606 276.872 617.606C275.961 617.606 274.604 619.286 273.855 621.371C273.106 623.456 273.228 625.116 274.139 625.116C275.05 625.116 276.406 623.436 277.155 621.371Z" fill="#6161DD"/>
<path d="M139.85 482.204C138.048 487.143 138.352 491.151 140.538 491.151C142.724 491.151 145.943 487.103 147.744 482.204C149.546 477.305 149.242 473.236 147.056 473.236C144.87 473.236 141.651 477.244 139.85 482.204Z" fill="#6161DD"/>
<path d="M732.431 2.43091C743.681 35.314 758.314 59.1814 790.575 74.8079C815.863 87.0565 846.062 89.6209 873.703 91.4637C896.438 92.9793 916.508 91.0448 938.358 85.1042C965.338 77.7685 994.125 74.8005 1021.79 70.8711C1062.7 65.0602 1111.21 72.9961 1145.34 97.2175C1164.77 111.006 1178.71 130.827 1195.69 147.261C1207.88 159.063 1221.09 169.202 1235.97 177.392C1267.06 194.512 1299.78 205.11 1335.37 206.692C1372.02 208.32 1414.36 203.312 1442.42 231.372" stroke="#6E6CE5" stroke-width="1.5" stroke-linecap="round"/>
<path d="M755 -15C766.249 17.8831 780.883 41.7505 813.144 57.377C838.431 69.6256 868.63 72.19 896.271 74.0328C919.006 75.5484 939.077 73.6139 960.926 67.6733C987.906 60.3376 1016.69 57.3696 1044.36 53.4402C1085.27 47.6293 1133.78 55.5652 1167.91 79.7866C1187.34 93.5754 1201.28 113.396 1218.26 129.83C1230.45 141.632 1243.66 151.771 1258.53 159.962C1289.63 177.081 1322.35 187.679 1357.94 189.261C1394.59 190.889 1436.93 185.881 1464.99 213.941" stroke="#6E6CE5" stroke-width="1.5" stroke-linecap="round"/>
<path d="M777.569 -32.4309C788.818 0.452187 803.451 24.3195 835.712 39.9461C861 52.1947 891.199 54.7591 918.84 56.6019C941.575 58.1175 961.645 56.183 983.495 50.2424C1010.48 42.9067 1039.26 39.9387 1066.93 36.0093C1107.83 30.1983 1156.35 38.1343 1190.48 62.3557C1209.91 76.1445 1223.85 95.965 1240.83 112.399C1253.02 124.201 1266.23 134.34 1281.1 142.531C1312.2 159.65 1344.92 170.248 1380.51 171.83C1417.15 173.458 1459.5 168.45 1487.56 196.511" stroke="#6E6CE5" stroke-width="1.5" stroke-linecap="round"/>
<path d="M800.137 -49.8618C811.387 -16.9787 826.02 6.88864 858.281 22.5152C883.568 34.7638 913.767 37.3282 941.409 39.171C964.143 40.6866 984.214 38.7521 1006.06 32.8115C1033.04 25.4758 1061.83 22.5078 1089.49 18.5784C1130.4 12.7674 1178.92 20.7033 1213.05 44.9248C1232.48 58.7136 1246.42 78.5341 1263.4 94.9679C1275.59 106.77 1288.8 116.909 1303.67 125.1C1334.77 142.219 1367.48 152.817 1403.08 154.399C1439.72 156.027 1482.07 151.02 1510.13 179.08" stroke="#6E6CE5" stroke-width="1.5" stroke-linecap="round"/>
<path d="M822.706 -67.2927C833.955 -34.4096 848.588 -10.5423 880.85 5.08427C906.137 17.3329 936.336 19.8973 963.977 21.7401C986.712 23.2557 1006.78 21.3212 1028.63 15.3806C1055.61 8.04492 1084.4 5.07688 1112.06 1.14745C1152.97 -4.66347 1201.49 3.27244 1235.62 27.4939C1255.05 41.2827 1268.99 61.1032 1285.96 77.537C1298.16 89.3389 1311.36 99.4781 1326.24 107.669C1357.34 124.788 1390.05 135.386 1425.65 136.968C1462.29 138.597 1504.64 133.589 1532.7 161.649" stroke="#6E6CE5" stroke-width="1.5" stroke-linecap="round"/>
<path d="M845.274 -84.7236C856.524 -51.8405 871.157 -27.9732 903.418 -12.3466C928.706 -0.0980358 958.905 2.4664 986.546 4.30916C1009.28 5.82481 1029.35 3.89028 1051.2 -2.05033C1078.18 -9.38599 1106.97 -12.354 1134.63 -16.2835C1175.54 -22.0944 1224.06 -14.1585 1258.19 10.063C1277.62 23.8518 1291.56 43.6723 1308.53 60.1061C1320.72 71.908 1333.93 82.0472 1348.81 90.2379C1379.9 107.357 1412.62 117.955 1448.21 119.537C1484.86 121.166 1527.21 116.158 1555.27 144.218" stroke="#6E6CE5" stroke-width="1.5" stroke-linecap="round"/>
<path d="M867.843 -102.155C879.092 -69.2714 893.726 -45.4041 925.987 -29.7775C951.274 -17.5289 981.473 -14.9645 1009.11 -13.1217C1031.85 -11.6061 1051.92 -13.5406 1073.77 -19.4812C1100.75 -26.8169 1129.54 -29.7849 1157.2 -33.7144C1198.11 -39.5253 1246.63 -31.5894 1280.76 -7.36793C1300.19 6.4209 1314.13 26.2413 1331.1 42.6752C1343.29 54.4771 1356.5 64.6162 1371.38 72.807C1402.47 89.9264 1435.19 100.524 1470.78 102.106C1507.43 103.735 1549.77 98.7268 1577.83 126.787" stroke="#6E6CE5" stroke-width="1.5" stroke-linecap="round"/>
<path d="M890.412 -119.585C901.661 -86.7024 916.294 -62.835 948.555 -47.2085C973.843 -34.9599 1004.04 -32.3954 1031.68 -30.5527C1054.42 -29.037 1074.49 -30.9715 1096.34 -36.9121C1123.32 -44.2478 1152.1 -47.2158 1179.77 -51.1453C1220.68 -56.9562 1269.19 -49.0203 1303.32 -24.7988C1322.75 -11.01 1336.69 8.81043 1353.67 25.2442C1365.86 37.0462 1379.07 47.1853 1393.95 55.3761C1425.04 72.4954 1457.76 83.0933 1493.35 84.6752C1530 86.3038 1572.34 81.2959 1600.4 109.356" stroke="#6E6CE5" stroke-width="1.5" stroke-linecap="round"/>
<path d="M912.98 -137.016C924.23 -104.133 938.863 -80.2659 971.124 -64.6394C996.412 -52.3908 1026.61 -49.8263 1054.25 -47.9836C1076.99 -46.4679 1097.06 -48.4024 1118.91 -54.3431C1145.89 -61.6787 1174.67 -64.6467 1202.34 -68.5762C1243.25 -74.3871 1291.76 -66.4512 1325.89 -42.2297C1345.32 -28.4409 1359.26 -8.62047 1376.24 7.81334C1388.43 19.6153 1401.64 29.7544 1416.52 37.9452C1447.61 55.0645 1480.33 65.6624 1515.92 67.2442C1552.57 68.8729 1594.91 63.865 1622.97 91.9251" stroke="#6E6CE5" stroke-width="1.5" stroke-linecap="round"/>
<path d="M935.549 -154.447C946.798 -121.564 961.431 -97.6968 993.693 -82.0703C1018.98 -69.8217 1049.18 -67.2572 1076.82 -65.4145C1099.55 -63.8988 1119.63 -65.8334 1141.48 -71.774C1168.46 -79.1096 1197.24 -82.0777 1224.91 -86.0071C1265.81 -91.818 1314.33 -83.8821 1348.46 -59.6607C1367.89 -45.8718 1381.83 -26.0514 1398.81 -9.61757C1411 2.1844 1424.21 12.3235 1439.08 20.5143C1470.18 37.6336 1502.9 48.2315 1538.49 49.8133C1575.13 51.442 1617.48 46.4341 1645.54 74.4942" stroke="#6E6CE5" stroke-width="1.5" stroke-linecap="round"/>
<path d="M-54.3717 394.278C-0.219608 390.41 62.4579 403.861 105.902 437.432C151.082 472.343 178.076 520.831 201.9 571.587C211.68 592.422 222.211 612.475 242.783 624.431C265.821 637.821 290.771 640.254 316.825 640.86C331.432 641.199 346.875 641.985 361.417 640.254C384.926 637.455 406.622 633.974 430.463 637.453C455.617 641.123 480.777 643.826 504.809 652.443C526.331 660.161 545.461 666.888 568.555 667.888C594.232 668.999 618.744 670.945 644.263 674.399C657.321 676.166 673.541 674.997 684.691 682.726C694.626 689.613 704.624 696.19 713.309 704.682C715.213 706.543 717.493 707.998 718.306 710.436" stroke="#6E6CE5" stroke-width="1.5" stroke-linecap="round"/>
<path d="M-75.7433 406.913C-21.5913 403.045 41.0863 416.495 84.5308 450.066C129.71 484.978 156.705 533.466 180.529 584.221C190.309 605.056 200.84 625.109 221.411 637.065C244.449 650.455 269.399 652.888 295.454 653.494C310.061 653.834 325.503 654.62 340.046 652.888C363.554 650.09 385.25 646.608 409.092 650.087C434.246 653.758 459.406 656.46 483.437 665.077C504.96 672.795 524.09 679.522 547.183 680.522C572.86 681.633 597.373 683.579 622.891 687.033C635.95 688.8 652.169 687.631 663.32 695.361C673.255 702.247 683.252 708.824 691.937 717.316C693.841 719.177 696.122 720.632 696.934 723.07" stroke="#6E6CE5" stroke-width="1.5" stroke-linecap="round"/>
<path d="M-97.115 419.547C-42.9629 415.679 19.7146 429.13 63.1592 462.701C108.338 497.612 135.333 546.1 159.157 596.855C168.937 617.691 179.468 637.744 200.04 649.7C223.077 663.089 248.028 665.522 274.082 666.128C288.689 666.468 304.131 667.254 318.674 665.523C342.183 662.724 363.879 659.242 387.72 662.721C412.874 666.392 438.034 669.094 462.065 677.712C483.588 685.429 502.718 692.156 525.812 693.156C551.488 694.268 576.001 696.213 601.52 699.667C614.578 701.434 630.797 700.266 641.948 707.995C651.883 714.882 661.881 721.458 670.566 729.95C672.469 731.812 674.75 733.267 675.562 735.704" stroke="#6E6CE5" stroke-width="1.5" stroke-linecap="round"/>
<path d="M-118.487 432.181C-64.3345 428.313 -1.65702 441.764 41.7875 475.335C86.9668 510.246 113.961 558.734 137.785 609.49C147.565 630.325 158.096 650.378 178.668 662.334C201.706 675.724 226.656 678.157 252.71 678.763C267.317 679.102 282.76 679.888 297.303 678.157C320.811 675.358 342.507 671.877 366.348 675.356C391.502 679.026 416.662 681.729 440.694 690.346C462.216 698.064 481.346 704.791 504.44 705.79C530.117 706.902 554.629 708.848 580.148 712.301C593.207 714.069 609.426 712.9 620.576 720.629C630.511 727.516 640.509 734.092 649.194 742.585C651.098 744.446 653.378 745.901 654.191 748.338" stroke="#6E6CE5" stroke-width="1.5" stroke-linecap="round"/>
<path d="M-139.858 444.815C-85.7062 440.947 -23.0287 454.398 20.4159 487.969C65.5951 522.88 92.5898 571.368 116.414 622.124C126.194 642.959 136.725 663.012 157.296 674.968C180.334 688.358 205.284 690.791 231.339 691.397C245.946 691.737 261.388 692.523 275.931 690.791C299.439 687.993 321.135 684.511 344.977 687.99C370.131 691.661 395.291 694.363 419.322 702.98C440.845 710.698 459.975 717.425 483.068 718.425C508.745 719.536 533.258 721.482 558.777 724.936C571.835 726.703 588.054 725.534 599.205 733.263C609.14 740.15 619.137 746.727 627.822 755.219C629.726 757.08 632.007 758.535 632.819 760.973" stroke="#6E6CE5" stroke-width="1.5" stroke-linecap="round"/>
<path d="M-161.23 457.45C-107.078 453.582 -44.4003 467.033 -0.955759 500.603C44.2235 535.515 71.2181 584.003 95.0422 634.758C104.822 655.594 115.353 675.646 135.925 687.603C158.963 700.992 183.913 703.425 209.967 704.031C224.574 704.371 240.016 705.157 254.559 703.426C278.068 700.627 299.764 697.145 323.605 700.624C348.759 704.295 373.919 706.997 397.95 715.615C419.473 723.332 438.603 730.059 461.697 731.059C487.373 732.171 511.886 734.116 537.405 737.57C550.463 739.337 566.683 738.168 577.833 745.898C587.768 752.785 597.766 759.361 606.451 767.853C608.354 769.715 610.635 771.169 611.447 773.607" stroke="#6E6CE5" stroke-width="1.5" stroke-linecap="round"/>
<path d="M-182.602 470.084C-128.449 466.216 -65.772 479.667 -22.3274 513.238C22.8519 548.149 49.8465 596.637 73.6705 647.392C83.4504 668.228 93.9814 688.281 114.553 700.237C137.591 713.626 162.541 716.06 188.595 716.665C203.202 717.005 218.645 717.791 233.188 716.06C256.696 713.261 278.392 709.78 302.233 713.259C327.387 716.929 352.547 719.631 376.579 728.249C398.101 735.966 417.231 742.694 440.325 743.693C466.002 744.805 490.514 746.751 516.033 750.204C529.092 751.971 545.311 750.803 556.461 758.532C566.396 765.419 576.394 771.995 585.079 780.487C586.983 782.349 589.263 783.804 590.076 786.241" stroke="#6E6CE5" stroke-width="1.5" stroke-linecap="round"/>
<path d="M-203.973 482.718C-149.821 478.85 -87.1436 492.301 -43.699 525.872C1.48022 560.783 28.4748 609.271 52.2989 660.027C62.0787 680.862 72.6097 700.915 93.1813 712.871C116.219 726.261 141.17 728.694 167.224 729.3C181.831 729.639 197.273 730.425 211.816 728.694C235.324 725.895 257.02 722.414 280.862 725.893C306.016 729.563 331.176 732.266 355.207 740.883C376.73 748.601 395.86 755.328 418.953 756.328C444.63 757.439 469.143 759.385 494.662 762.838C507.72 764.606 523.939 763.437 535.09 771.166C545.025 778.053 555.022 784.63 563.707 793.122C565.611 794.983 567.892 796.438 568.704 798.876" stroke="#6E6CE5" stroke-width="1.5" stroke-linecap="round"/>
<path d="M-225.345 495.353C-171.193 491.485 -108.515 504.935 -65.0707 538.506C-19.8914 573.417 7.10318 621.905 30.9272 672.661C40.7071 693.496 51.2381 713.549 71.8096 725.505C94.8476 738.895 119.798 741.328 145.852 741.934C160.459 742.274 175.901 743.06 190.444 741.328C213.953 738.53 235.649 735.048 259.49 738.527C284.644 742.198 309.804 744.9 333.836 753.517C355.358 761.235 374.488 767.962 397.582 768.962C423.258 770.073 447.771 772.019 473.29 775.473C486.348 777.24 502.568 776.071 513.718 783.801C523.653 790.687 533.651 797.264 542.336 805.756C544.24 807.617 546.52 809.072 547.333 811.51" stroke="#6E6CE5" stroke-width="1.5" stroke-linecap="round"/>
</g>
<defs>
<clipPath id="clip0_5_1466">
<rect width="1440" height="660.468" fill="white"/>
</clipPath>
</defs>
</svg>
