<svg width="346" height="108" viewBox="0 0 346 108" fill="none" xmlns="http://www.w3.org/2000/svg">
<path d="M20.5899 91.4454C23.0908 90.0915 24.0206 86.9665 22.6667 84.4655C21.3128 81.9646 18.1877 81.0348 15.6868 82.3887C13.1859 83.7426 12.256 86.8677 13.61 89.3686C14.9639 91.8695 18.0889 92.7994 20.5899 91.4454Z" fill="#EBEBEB"/>
<path d="M23.061 88.42C22.5817 88.0034 22.0395 87.6654 21.4543 87.4185C20.4341 86.9687 17.6572 86.476 16.3666 85.8279C14.5591 84.9148 14.3341 83.9321 14.3448 83.4179C14.7943 82.9319 15.3335 82.5372 15.9328 82.2558C16.0613 82.7753 16.546 84.398 19.5478 85.4691C21.0982 86.0047 22.5817 85.6512 23.0851 85.528C23.355 86.4743 23.3467 87.4783 23.061 88.42Z" fill="#DBDBDB"/>
<path d="M20.9591 91.229C19.9711 91.8761 18.7909 92.1646 17.6158 92.0462C16.4407 91.9277 15.3419 91.4096 14.5029 90.5783C14.7948 90.4189 15.1051 90.2957 15.4268 90.2114C16.8112 89.874 18.3375 90.5381 18.8918 90.8487C19.5133 91.2184 20.2467 91.3533 20.9591 91.229Z" fill="#DBDBDB"/>
<path d="M22.7585 89.1938L22.6942 89.3197L22.6353 89.4321C22.5871 89.5152 22.5389 89.5982 22.4881 89.6785C22.4372 89.7588 22.3943 89.8231 22.3461 89.89L22.2899 89.9677L22.2256 90.0534L22.1614 90.1391C22.1346 90.1712 22.1078 90.206 22.0784 90.2381C22.0489 90.2703 22.0248 90.3024 21.998 90.3319L21.9257 90.4122C21.8722 90.4711 21.8159 90.53 21.7597 90.5836C21.4384 90.6827 21.0099 90.6398 20.3806 90.3935C19.4461 90.0266 18.4366 89.1429 16.6317 88.4922C15.5195 88.1038 14.3222 88.0269 13.1694 88.27C12.8902 87.244 12.9369 86.1566 13.3033 85.1584C13.6326 85.145 14.6903 85.295 16.9477 87.1587C17.6492 87.7551 18.4112 88.2766 19.2212 88.7145C21.1492 89.724 22.2631 89.4241 22.729 89.1911H22.7585V89.1938Z" fill="#DBDBDB"/>
<path d="M17.8608 91.1326C17.9519 90.921 18.2732 90.8648 18.5785 90.9933C18.8837 91.1218 19.0578 91.403 18.9641 91.6119C18.8704 91.8207 18.5517 91.8797 18.2464 91.7511C17.9412 91.6226 17.7698 91.3414 17.8608 91.1326Z" fill="#C7C7C7"/>
<path d="M19.3174 90.7657C19.371 90.6479 19.5611 90.6158 19.7432 90.6961C19.9253 90.7764 20.0324 90.9344 19.9815 91.0549C19.9306 91.1754 19.7405 91.2022 19.5557 91.1246C19.371 91.0469 19.2772 90.8836 19.3174 90.7657Z" fill="#C7C7C7"/>
<path d="M15.325 84.4408C15.4027 84.2614 15.6812 84.2105 15.949 84.3256C16.2167 84.4408 16.3694 84.6818 16.2917 84.8612C16.2141 85.0406 15.9329 85.0915 15.6651 84.9736C15.3973 84.8558 15.2608 84.6202 15.325 84.4408Z" fill="#C7C7C7"/>
<path d="M16.2729 84.2614C16.2783 84.2048 16.3016 84.1514 16.3394 84.1089C16.3772 84.0664 16.4276 84.037 16.4832 84.0251C16.5389 84.0131 16.5969 84.0192 16.6488 84.0424C16.7007 84.0657 16.7439 84.1049 16.7721 84.1543C16.8003 84.2037 16.812 84.2608 16.8055 84.3173C16.799 84.3739 16.7747 84.4269 16.7361 84.4686C16.6975 84.5104 16.6465 84.5388 16.5907 84.5497C16.5349 84.5606 16.477 84.5534 16.4255 84.5292C16.3708 84.5124 16.3245 84.4753 16.2961 84.4256C16.2678 84.3758 16.2594 84.3171 16.2729 84.2614Z" fill="#C7C7C7"/>
<path d="M16.4256 84.738C16.4462 84.7083 16.4774 84.6877 16.5127 84.6803C16.548 84.6728 16.5848 84.6791 16.6157 84.6978C16.696 84.7326 16.7416 84.8076 16.7148 84.8665C16.6914 84.8929 16.6602 84.9111 16.6258 84.9186C16.5913 84.9261 16.5554 84.9224 16.5232 84.908C16.4909 84.8937 16.4641 84.8695 16.4466 84.839C16.429 84.8084 16.4217 84.773 16.4256 84.738Z" fill="#C7C7C7"/>
<path d="M19.6388 84.7514C19.6503 84.6603 19.69 84.575 19.7525 84.5077C19.8149 84.4403 19.8969 84.3942 19.9869 84.3759C20.077 84.3576 20.1705 84.3679 20.2543 84.4055C20.3381 84.4431 20.408 84.5061 20.4542 84.5855C20.5003 84.6649 20.5204 84.7568 20.5116 84.8482C20.5029 84.9397 20.4656 85.0261 20.4052 85.0952C20.3447 85.1644 20.2641 85.2129 20.1746 85.2338C20.0852 85.2548 19.9914 85.2471 19.9066 85.212C19.8109 85.185 19.7294 85.1219 19.6794 85.0359C19.6295 84.95 19.6149 84.8479 19.6388 84.7514Z" fill="#C7C7C7"/>
<path d="M19.5156 85.453C19.539 85.4064 19.5794 85.3705 19.6285 85.3528C19.6775 85.3352 19.7315 85.337 19.7793 85.3579C19.827 85.3789 19.8649 85.4174 19.8851 85.4655C19.9053 85.5136 19.9063 85.5676 19.8878 85.6163C19.8644 85.6629 19.824 85.6988 19.775 85.7164C19.7259 85.7341 19.6719 85.7323 19.6242 85.7113C19.5764 85.6904 19.5385 85.6519 19.5183 85.6038C19.4981 85.5558 19.4972 85.5018 19.5156 85.453Z" fill="#C7C7C7"/>
<path d="M152.786 49.9109C154.698 49.9109 156.249 48.3607 156.249 46.4485C156.249 44.5363 154.698 42.9861 152.786 42.9861C150.874 42.9861 149.324 44.5363 149.324 46.4485C149.324 48.3607 150.874 49.9109 152.786 49.9109Z" fill="#EBEBEB"/>
<path d="M154.045 44.3918C154.054 44.5587 154.009 44.7242 153.916 44.8631C153.824 45.0057 153.694 45.1205 153.541 45.1951C153.384 45.2758 153.201 45.2912 153.033 45.238C152.872 45.1878 152.735 45.0826 152.644 44.9408C152.767 45.0327 152.909 45.0958 153.059 45.1255C153.13 45.1376 153.203 45.1376 153.274 45.1255C153.344 45.115 153.412 45.0924 153.474 45.0586L153.571 45.0077C153.6 44.9863 153.632 44.9675 153.662 44.9434C153.721 44.8999 153.775 44.8495 153.823 44.7935C153.922 44.6752 153.997 44.5388 154.045 44.3918Z" fill="#C7C7C7"/>
<path d="M152.8 44.5927C152.785 44.477 152.81 44.3597 152.872 44.2607C152.936 44.1576 153.029 44.0757 153.14 44.025C153.248 43.9699 153.373 43.9593 153.488 43.9953C153.604 44.0313 153.701 44.1112 153.758 44.2178C153.67 44.165 153.573 44.1296 153.472 44.1134C153.38 44.1029 153.287 44.1187 153.204 44.1589C153.02 44.2486 152.876 44.4031 152.8 44.5927Z" fill="#C7C7C7"/>
<path d="M152.784 48.0899C152.824 48.196 152.824 48.3132 152.784 48.4193C152.744 48.5261 152.674 48.6191 152.583 48.687C152.489 48.7595 152.371 48.7928 152.253 48.7798C152.135 48.7668 152.027 48.7086 151.951 48.6174C152.047 48.6492 152.147 48.6637 152.248 48.6603C152.337 48.6538 152.422 48.6212 152.492 48.5665C152.565 48.5097 152.626 48.4398 152.674 48.3604C152.727 48.2777 152.764 48.186 152.784 48.0899Z" fill="#C7C7C7"/>
<path d="M152.069 48.4701C152.049 48.4348 152.037 48.396 152.033 48.3561C152.029 48.3161 152.033 48.2757 152.045 48.2372C152.067 48.1558 152.116 48.0843 152.184 48.0337C152.218 48.0063 152.258 47.9867 152.3 47.976C152.343 47.9654 152.387 47.9641 152.43 47.9721C152.47 47.979 152.508 47.9939 152.542 48.016C152.576 48.0381 152.606 48.0669 152.628 48.1006C152.561 48.0904 152.492 48.0904 152.425 48.1006C152.37 48.1091 152.319 48.1312 152.275 48.1649C152.175 48.2416 152.102 48.3487 152.069 48.4701Z" fill="#C7C7C7"/>
<path d="M151.536 44.9596C151.567 44.9877 151.591 45.022 151.609 45.0603C151.626 45.0986 151.634 45.1399 151.635 45.1818C151.636 45.2272 151.628 45.2723 151.611 45.3146C151.594 45.3569 151.57 45.3955 151.538 45.4282C151.505 45.4606 151.465 45.4851 151.421 45.4999C151.377 45.5147 151.33 45.5195 151.284 45.5139C151.202 45.5055 151.125 45.4686 151.067 45.4094C151.139 45.4122 151.21 45.4077 151.281 45.396C151.337 45.3872 151.389 45.361 151.429 45.3211C151.47 45.2796 151.501 45.2279 151.517 45.1711C151.536 45.1023 151.542 45.0306 151.536 44.9596Z" fill="#C7C7C7"/>
<path d="M151.107 45.297C151.083 45.2794 151.063 45.2566 151.048 45.2302C151.034 45.2037 151.026 45.1744 151.024 45.1444C151.022 45.1112 151.027 45.0778 151.039 45.0468C151.051 45.0157 151.07 44.9878 151.094 44.965C151.118 44.9405 151.147 44.9221 151.18 44.9113C151.213 44.9006 151.247 44.8979 151.281 44.9034C151.341 44.9118 151.395 44.9436 151.431 44.9918C151.382 44.9985 151.332 45.0083 151.284 45.0212C151.253 45.0303 151.224 45.0469 151.201 45.0694C151.176 45.0951 151.156 45.1251 151.142 45.1578C151.125 45.2025 151.113 45.2493 151.107 45.297Z" fill="#C7C7C7"/>
<path d="M153.943 48.6094C153.902 48.6833 153.834 48.7381 153.753 48.762C153.708 48.774 153.661 48.7768 153.615 48.7704C153.569 48.7639 153.525 48.7483 153.485 48.7246C153.445 48.7011 153.41 48.6686 153.385 48.6295C153.359 48.5905 153.343 48.546 153.338 48.4996C153.328 48.4179 153.345 48.3352 153.386 48.264C153.403 48.3343 153.425 48.4032 153.453 48.4702C153.476 48.5222 153.514 48.566 153.563 48.596C153.613 48.6248 153.67 48.6413 153.729 48.6442C153.802 48.6455 153.874 48.6337 153.943 48.6094Z" fill="#C7C7C7"/>
<path d="M153.512 48.2773C153.522 48.2483 153.539 48.2221 153.561 48.2011C153.584 48.18 153.611 48.1649 153.641 48.1568C153.672 48.1464 153.706 48.1428 153.739 48.1465C153.773 48.1502 153.805 48.1611 153.833 48.1783C153.863 48.1955 153.889 48.22 153.907 48.2494C153.925 48.2789 153.936 48.3124 153.938 48.347C153.941 48.3767 153.938 48.4067 153.93 48.4353C153.921 48.4639 153.906 48.4903 153.887 48.513C153.869 48.4667 153.848 48.4219 153.823 48.3791C153.808 48.3491 153.784 48.3241 153.756 48.3068C153.725 48.2896 153.691 48.2778 153.657 48.272C153.608 48.2672 153.56 48.269 153.512 48.2773Z" fill="#C7C7C7"/>
<path d="M155.129 46.1726C155.134 46.2144 155.13 46.2566 155.117 46.2967C155.105 46.3367 155.084 46.3738 155.057 46.4056C154.997 46.4745 154.912 46.5168 154.821 46.5234C154.775 46.5261 154.728 46.5181 154.685 46.5C154.642 46.4819 154.603 46.4542 154.572 46.419C154.517 46.3573 154.485 46.2791 154.479 46.1967C154.531 46.2459 154.589 46.2898 154.65 46.3279C154.697 46.3599 154.754 46.3758 154.811 46.3735C154.87 46.3686 154.927 46.3493 154.977 46.3172C155.035 46.2778 155.087 46.229 155.129 46.1726Z" fill="#C7C7C7"/>
<path d="M154.586 46.1405C154.579 46.111 154.578 46.0802 154.585 46.0505C154.591 46.0209 154.604 45.993 154.623 45.9692C154.643 45.9424 154.669 45.9204 154.699 45.9047C154.728 45.889 154.761 45.8799 154.795 45.8781C154.827 45.8768 154.859 45.8824 154.888 45.8945C154.918 45.9066 154.945 45.925 154.967 45.9483C154.989 45.9717 155.006 45.9995 155.016 46.0298C155.027 46.0602 155.031 46.0925 155.028 46.1245C154.987 46.0953 154.944 46.0701 154.899 46.0495C154.871 46.0331 154.838 46.0256 154.805 46.0281C154.77 46.031 154.736 46.04 154.703 46.0548C154.66 46.0775 154.621 46.1064 154.586 46.1405Z" fill="#C7C7C7"/>
<path d="M150.542 46.9571C150.546 46.999 150.542 47.0413 150.529 47.0814C150.516 47.1214 150.495 47.1584 150.467 47.1901C150.438 47.2246 150.402 47.2529 150.361 47.2732C150.321 47.2934 150.277 47.3052 150.232 47.3079C150.185 47.3104 150.139 47.3022 150.096 47.2841C150.054 47.266 150.016 47.2385 149.985 47.2035C149.929 47.1424 149.896 47.0639 149.891 46.9812C149.944 47.0303 150.002 47.0743 150.063 47.1124C150.11 47.1443 150.166 47.1603 150.224 47.158C150.282 47.1535 150.338 47.1341 150.387 47.1017C150.447 47.0632 150.499 47.0142 150.542 46.9571Z" fill="#C7C7C7"/>
<path d="M149.999 46.9251C149.991 46.8956 149.99 46.8647 149.997 46.8349C150.003 46.8051 150.017 46.7773 150.036 46.7537C150.056 46.7267 150.082 46.7045 150.111 46.6887C150.141 46.673 150.174 46.6641 150.208 46.6627C150.242 46.6603 150.277 46.6664 150.308 46.6804C150.34 46.6944 150.368 46.7159 150.39 46.743C150.427 46.7898 150.445 46.8492 150.44 46.909C150.4 46.8809 150.357 46.8559 150.312 46.834C150.283 46.818 150.251 46.8105 150.218 46.8126C150.183 46.8152 150.148 46.8243 150.116 46.8394C150.073 46.862 150.034 46.8909 149.999 46.9251Z" fill="#C7C7C7"/>
<path d="M43.8808 12.7432L44.7645 11.8622C44.8852 11.7404 44.9529 11.5758 44.9529 11.4043C44.9529 11.2328 44.8852 11.0683 44.7645 10.9464C44.6426 10.8257 44.4781 10.758 44.3066 10.758C44.1351 10.758 43.9705 10.8257 43.8487 10.9464L42.965 11.8301C42.905 11.89 42.8574 11.9612 42.8249 12.0395C42.7925 12.1179 42.7758 12.2018 42.7758 12.2867C42.7758 12.3715 42.7925 12.4554 42.8249 12.5338C42.8574 12.6121 42.905 12.6833 42.965 12.7432C43.025 12.8036 43.0963 12.8515 43.1749 12.8843C43.2535 12.917 43.3378 12.9338 43.4229 12.9338C43.508 12.9338 43.5923 12.917 43.6709 12.8843C43.7495 12.8515 43.8208 12.8036 43.8808 12.7432Z" fill="#EBEBEB"/>
<path d="M55.9335 21.4888L56.4958 20.3749C56.5341 20.2988 56.5569 20.2159 56.563 20.1309C56.5692 20.046 56.5585 19.9606 56.5317 19.8798C56.5048 19.799 56.4623 19.7242 56.4065 19.6598C56.3507 19.5955 56.2828 19.5427 56.2066 19.5046C56.0532 19.4283 55.8757 19.4159 55.7131 19.4701C55.5505 19.5243 55.416 19.6407 55.339 19.7938L54.7794 20.9078C54.702 21.0612 54.6887 21.239 54.7425 21.4022C54.7962 21.5654 54.9125 21.7006 55.0659 21.778C55.1418 21.8166 55.2245 21.8396 55.3093 21.8459C55.3942 21.8522 55.4794 21.8416 55.5601 21.8147C55.6408 21.7878 55.7154 21.7452 55.7795 21.6892C55.8436 21.6333 55.8959 21.5652 55.9335 21.4888Z" fill="#EBEBEB"/>
<path d="M48.1973 10.2502L48.8614 10.1538C49.0288 10.1267 49.1789 10.0349 49.2791 9.89808C49.3793 9.76127 49.4217 9.59052 49.397 9.42274C49.3693 9.25511 49.2769 9.10506 49.1397 9.00489C49.0024 8.90472 48.8314 8.86245 48.6633 8.88719L48.0018 8.98091C47.8318 9.00543 47.6784 9.0965 47.5754 9.23409C47.4725 9.37169 47.4284 9.54453 47.4529 9.71462C47.4662 9.79885 47.4961 9.8796 47.5408 9.9522C47.5856 10.0248 47.6442 10.0878 47.7134 10.1376C47.7827 10.1874 47.8611 10.223 47.9441 10.2423C48.0272 10.2617 48.1132 10.2643 48.1973 10.2502Z" fill="#EBEBEB"/>
<path d="M42.9409 19.0066L42.8471 18.3425C42.8195 18.1749 42.7271 18.0248 42.5898 17.9246C42.4526 17.8245 42.2815 17.7822 42.1134 17.8069C41.9433 17.8314 41.79 17.9225 41.687 18.0601C41.5841 18.1977 41.54 18.3705 41.5645 18.5406L41.6609 19.2047C41.6879 19.3721 41.7798 19.5222 41.9166 19.6224C42.0534 19.7226 42.2241 19.765 42.3919 19.7403C42.562 19.7158 42.7154 19.6247 42.8183 19.4871C42.9213 19.3495 42.9653 19.1767 42.9409 19.0066Z" fill="#EBEBEB"/>
<path d="M57.1733 17.6784V16.8697C57.1733 16.5503 56.9144 16.2913 56.5949 16.2913H56.4584C56.1389 16.2913 55.88 16.5503 55.88 16.8697V17.6784C55.88 17.9979 56.1389 18.2568 56.4584 18.2568H56.5949C56.9144 18.2568 57.1733 17.9979 57.1733 17.6784Z" fill="#EBEBEB"/>
<path d="M47.0058 24.6325L47.6538 24.8066C47.7366 24.83 47.8233 24.8368 47.9088 24.8264C47.9942 24.816 48.0768 24.7887 48.1515 24.7461C48.2263 24.7035 48.2919 24.6464 48.3443 24.5781C48.3968 24.5099 48.4352 24.4319 48.4572 24.3487C48.481 24.2658 48.4881 24.1791 48.4779 24.0935C48.4676 24.0079 48.4404 23.9253 48.3977 23.8504C48.355 23.7755 48.2978 23.7099 48.2294 23.6575C48.1609 23.6051 48.0827 23.567 47.9993 23.5453L47.3512 23.3713C47.2684 23.3478 47.1818 23.341 47.0963 23.3514C47.0108 23.3618 46.9283 23.3891 46.8535 23.4317C46.7787 23.4743 46.7132 23.5314 46.6607 23.5997C46.6082 23.6679 46.5699 23.7459 46.5479 23.8292C46.5244 23.912 46.5177 23.9987 46.528 24.0841C46.5384 24.1696 46.5657 24.2521 46.6083 24.3269C46.651 24.4017 46.7081 24.4672 46.7763 24.5197C46.8446 24.5722 46.9226 24.6105 47.0058 24.6325Z" fill="#EBEBEB"/>
<path d="M49.2498 24.4585C53.373 24.4585 56.7155 21.116 56.7155 16.9929C56.7155 12.8697 53.373 9.52722 49.2498 9.52722C45.1267 9.52722 41.7842 12.8697 41.7842 16.9929C41.7842 21.116 45.1267 24.4585 49.2498 24.4585Z" fill="#EBEBEB"/>
<path d="M51.965 12.5638C51.9854 12.9219 51.8917 13.2772 51.6973 13.5786C51.4993 13.8854 51.2216 14.1325 50.8939 14.2936C50.5538 14.4655 50.1604 14.499 49.796 14.3873C49.4511 14.2771 49.1556 14.0497 48.9606 13.7447C49.2267 13.9413 49.533 14.0766 49.8576 14.141C50.0091 14.1678 50.1641 14.1678 50.3155 14.141C50.4667 14.1183 50.6132 14.0713 50.7493 14.0017C50.8225 13.966 50.8921 13.9285 50.9582 13.8893C51.0251 13.8437 51.0921 13.8036 51.1537 13.7527C51.2808 13.6582 51.3967 13.5495 51.4991 13.4287C51.709 13.1733 51.8672 12.8795 51.965 12.5638Z" fill="#C7C7C7"/>
<path d="M49.2819 12.9948C49.2482 12.7457 49.3031 12.4926 49.4372 12.2799C49.5713 12.0586 49.7666 11.881 49.9996 11.7684C50.2407 11.6475 50.52 11.6272 50.7761 11.7122C51.0168 11.7936 51.217 11.9642 51.3358 12.1888C51.1468 12.072 50.9366 11.9937 50.7172 11.9585C50.5192 11.9362 50.319 11.9725 50.1415 12.063C49.7488 12.2555 49.4422 12.5879 49.2819 12.9948Z" fill="#C7C7C7"/>
<path d="M46.7513 18.1229C46.8442 18.3491 46.8518 18.6012 46.7728 18.8326C46.6934 19.0739 46.542 19.2851 46.339 19.4377C46.2359 19.5178 46.118 19.5766 45.992 19.6106C45.8661 19.6446 45.7346 19.6532 45.6052 19.6359C45.361 19.6016 45.138 19.4786 44.9786 19.2905C45.1837 19.3594 45.3997 19.3903 45.616 19.3815C45.811 19.3697 45.9978 19.2987 46.1515 19.178C46.3121 19.0571 46.4476 18.9061 46.5505 18.7335C46.6518 18.5429 46.7197 18.3364 46.7513 18.1229Z" fill="#C7C7C7"/>
<path d="M45.2063 18.969C45.1238 18.8154 45.1055 18.6353 45.1555 18.4683C45.206 18.2944 45.3111 18.1413 45.4554 18.0318C45.5302 17.9731 45.6166 17.9309 45.7089 17.9078C45.8012 17.8848 45.8973 17.8814 45.9909 17.8979C46.0759 17.9117 46.1572 17.9425 46.2299 17.9885C46.3026 18.0345 46.3652 18.0948 46.414 18.1657C46.2703 18.1374 46.1231 18.1311 45.9775 18.1469C45.8593 18.1647 45.7477 18.2126 45.6535 18.2862C45.4329 18.4579 45.2756 18.6981 45.2063 18.969Z" fill="#C7C7C7"/>
<path d="M44.0763 16.46C44.1424 16.5213 44.1952 16.5954 44.2316 16.6778C44.2679 16.7603 44.2871 16.8492 44.2879 16.9393C44.291 17.0383 44.2739 17.1369 44.2375 17.229C44.2011 17.3211 44.1462 17.4048 44.0763 17.4749C44.007 17.5445 43.9228 17.5976 43.83 17.6301C43.7373 17.6625 43.6384 17.6736 43.5408 17.6623C43.363 17.6447 43.1971 17.5651 43.0721 17.4374C43.2272 17.4413 43.3823 17.4305 43.5354 17.4053C43.6567 17.3868 43.7692 17.3306 43.8567 17.2446C43.9456 17.1542 44.0101 17.0427 44.0442 16.9206C44.0803 16.7699 44.0912 16.6143 44.0763 16.46Z" fill="#C7C7C7"/>
<path d="M43.1497 17.1856C43.0954 17.1482 43.0505 17.0988 43.0185 17.0412C42.9865 16.9836 42.9681 16.9194 42.9649 16.8536C42.9602 16.7817 42.971 16.7096 42.9964 16.6422C43.0218 16.5748 43.0613 16.5136 43.1122 16.4626C43.1645 16.4097 43.2288 16.3701 43.2997 16.3473C43.3705 16.3244 43.4458 16.319 43.5192 16.3314C43.6477 16.3506 43.7632 16.4199 43.8406 16.5242C43.7338 16.5378 43.6282 16.5593 43.5246 16.5885C43.4563 16.6061 43.3942 16.6423 43.3452 16.6929C43.2904 16.7458 43.2475 16.8097 43.2193 16.8804C43.1823 16.9785 43.1588 17.0812 43.1497 17.1856Z" fill="#C7C7C7"/>
<path d="M54.3055 14.2482C54.3134 14.3381 54.3033 14.4288 54.2757 14.5148C54.2481 14.6008 54.2036 14.6804 54.1448 14.7489C54.0823 14.8254 54.0051 14.8885 53.9177 14.9345C53.8302 14.9805 53.7345 15.0085 53.636 15.0167C53.5355 15.0228 53.4349 15.0058 53.342 14.9667C53.2491 14.9277 53.1665 14.8679 53.1005 14.7918C52.9799 14.6602 52.9089 14.4907 52.8997 14.3125C53.0133 14.4185 53.1361 14.5144 53.2665 14.599C53.3699 14.6656 53.4919 14.6975 53.6146 14.69C53.741 14.6812 53.8632 14.6417 53.9708 14.5749C54.0994 14.485 54.2125 14.3746 54.3055 14.2482Z" fill="#C7C7C7"/>
<path d="M53.1325 14.1759C53.1165 14.1122 53.1154 14.0458 53.1293 13.9817C53.1433 13.9176 53.1718 13.8576 53.2128 13.8063C53.2572 13.7496 53.313 13.7028 53.3767 13.6691C53.4404 13.6354 53.5104 13.6156 53.5823 13.6109C53.657 13.6065 53.7317 13.6201 53.8002 13.6503C53.8686 13.6806 53.9289 13.7267 53.976 13.7849C54.0169 13.8341 54.0476 13.8909 54.0665 13.952C54.0853 14.0131 54.0919 14.0774 54.0857 14.1411C54.0001 14.0816 53.9107 14.028 53.818 13.9804C53.7544 13.9478 53.6831 13.933 53.6118 13.9375C53.5356 13.9416 53.461 13.9607 53.3922 13.9938C53.2977 14.0423 53.2103 14.1036 53.1325 14.1759Z" fill="#C7C7C7"/>
<path d="M50.1199 19.3198C50.4186 19.4549 50.7506 19.4983 51.0739 19.4445C51.3973 19.3906 51.6973 19.242 51.936 19.0174C52.1748 18.7928 52.3414 18.5024 52.4149 18.1829C52.4883 17.8635 52.4653 17.5294 52.3486 17.2231C52.232 16.9168 52.027 16.652 51.7596 16.4624C51.4923 16.2727 51.1747 16.1667 50.847 16.1578C50.5194 16.1489 50.1964 16.2375 49.9192 16.4124C49.642 16.5873 49.4229 16.8405 49.2898 17.1401C49.2005 17.3376 49.1511 17.5508 49.1446 17.7675C49.138 17.9842 49.1743 18.2 49.2515 18.4026C49.3286 18.6052 49.4451 18.7905 49.5941 18.9479C49.7431 19.1053 49.9219 19.2317 50.1199 19.3198Z" fill="#DBDBDB"/>
<path d="M51.5662 17.0276C51.7813 17.123 51.9707 17.2682 52.1187 17.4512C52.2668 17.6341 52.3692 17.8496 52.4177 18.08C52.4622 17.807 52.4373 17.5273 52.3452 17.2665C52.2531 17.0057 52.0968 16.7723 51.8908 16.5879C51.6847 16.4034 51.4355 16.2738 51.1662 16.2111C50.8969 16.1483 50.616 16.1543 50.3497 16.2287C50.0833 16.303 49.8399 16.4432 49.642 16.6364C49.4441 16.8296 49.2981 17.0695 49.2173 17.334C49.1365 17.5985 49.1237 17.879 49.1799 18.1498C49.2362 18.4206 49.3597 18.6728 49.5391 18.8833C49.417 18.5267 49.4352 18.1371 49.59 17.7934C49.6693 17.6132 49.7833 17.4504 49.9256 17.3144C50.0679 17.1783 50.2356 17.0717 50.4192 17.0005C50.6028 16.9294 50.7986 16.8952 50.9954 16.8998C51.1922 16.9045 51.3862 16.9479 51.5662 17.0276Z" fill="#C7C7C7"/>
<path d="M53.0736 18.0987C53.0827 18.5379 52.9555 18.9692 52.7095 19.3332C52.4608 19.7051 52.118 20.0045 51.716 20.2008C51.301 20.4087 50.8226 20.4517 50.3771 20.3213C49.9549 20.1907 49.589 19.9219 49.3381 19.5581C49.7274 19.8889 50.2174 20.0777 50.7279 20.0937C50.824 20.0951 50.9199 20.087 51.0144 20.0696C51.2012 20.0408 51.382 19.982 51.55 19.8955C51.6384 19.8527 51.7267 19.8045 51.8178 19.7536C51.9088 19.7027 51.9838 19.6465 52.0588 19.5822C52.2171 19.4618 52.3616 19.3245 52.4899 19.1725C52.7551 18.8577 52.9536 18.4924 53.0736 18.0987Z" fill="#C7C7C7"/>
<path d="M54.8918 18.7146C55.0104 18.7427 55.1347 18.735 55.2489 18.6924C55.3632 18.6498 55.4622 18.5742 55.5334 18.4753C55.6047 18.3764 55.645 18.2586 55.6493 18.1368C55.6535 18.0149 55.6215 17.8946 55.5573 17.7909C55.4931 17.6873 55.3996 17.6051 55.2886 17.5546C55.1776 17.5042 55.0541 17.4878 54.9339 17.5076C54.8136 17.5273 54.7018 17.5824 54.6128 17.6657C54.5238 17.749 54.4616 17.8568 54.4339 17.9756C54.4149 18.0542 54.4116 18.1358 54.4244 18.2157C54.4372 18.2956 54.4657 18.3721 54.5083 18.4409C54.5509 18.5096 54.6067 18.5692 54.6726 18.6162C54.7384 18.6632 54.8129 18.6967 54.8918 18.7146Z" fill="#DBDBDB"/>
<path d="M55.248 17.7748C55.3334 17.7943 55.4129 17.8339 55.4799 17.8902C55.547 17.9465 55.5997 18.018 55.6336 18.0988C55.6303 17.9959 55.6013 17.8956 55.5491 17.8069C55.4968 17.7183 55.4232 17.6442 55.3348 17.5915C55.2464 17.5388 55.1462 17.5092 55.0434 17.5053C54.9406 17.5015 54.8385 17.5237 54.7464 17.5697C54.6544 17.6157 54.5755 17.6841 54.5168 17.7686C54.4582 17.8532 54.4217 17.9511 54.4109 18.0534C54.4 18.1557 54.4151 18.2591 54.4547 18.3541C54.4943 18.4491 54.5571 18.5326 54.6375 18.5969C54.5839 18.5025 54.5589 18.3946 54.5655 18.2863C54.5722 18.178 54.6102 18.074 54.6749 17.9869C54.7395 17.8998 54.8282 17.8333 54.9299 17.7957C55.0317 17.758 55.1422 17.7508 55.248 17.7748Z" fill="#C7C7C7"/>
<path d="M55.8746 18.0533C55.9171 18.2138 55.9067 18.3837 55.8452 18.5379C55.7818 18.6963 55.6762 18.8343 55.5399 18.9369C55.3995 19.0445 55.2232 19.0943 55.0472 19.0762C54.8812 19.0545 54.7279 18.976 54.6134 18.8539C54.7523 18.9162 54.903 18.9482 55.0552 18.9476C55.1956 18.9428 55.3308 18.8931 55.4408 18.8057C55.5602 18.7161 55.6601 18.6032 55.7347 18.4739C55.8093 18.3445 55.8569 18.2015 55.8746 18.0533Z" fill="#C7C7C7"/>
<path d="M50.6476 22.7098C50.8206 22.7196 50.9926 22.6779 51.1419 22.5899C51.2912 22.5019 51.411 22.3715 51.4862 22.2154C51.5613 22.0592 51.5885 21.8843 51.5642 21.7127C51.5398 21.5411 51.4651 21.3806 51.3495 21.2515C51.234 21.1224 51.0826 21.0305 50.9148 20.9874C50.7469 20.9444 50.57 20.9521 50.4066 21.0096C50.2431 21.0671 50.1004 21.1718 49.9964 21.3105C49.8925 21.4492 49.8321 21.6156 49.8228 21.7887C49.8163 21.9033 49.8325 22.0182 49.8704 22.1266C49.9084 22.235 49.9674 22.3349 50.044 22.4204C50.1206 22.506 50.2134 22.5756 50.3169 22.6253C50.4205 22.6749 50.5329 22.7037 50.6476 22.7098Z" fill="#DBDBDB"/>
<path d="M50.9286 21.3122C51.0529 21.3197 51.1737 21.3561 51.2815 21.4184C51.3894 21.4807 51.4812 21.5671 51.5499 21.671C51.5201 21.5276 51.4548 21.3939 51.3598 21.2824C51.2649 21.1708 51.1434 21.085 51.0066 21.0327C50.8697 20.9804 50.7219 20.9635 50.5768 20.9833C50.4316 21.0032 50.2938 21.0592 50.1761 21.1463C50.0583 21.2334 49.9643 21.3488 49.9028 21.4817C49.8413 21.6147 49.8143 21.7609 49.8241 21.9071C49.834 22.0532 49.8805 22.1946 49.9594 22.318C50.0382 22.4415 50.1468 22.5431 50.2753 22.6136C50.1804 22.4936 50.1217 22.3491 50.1061 22.197C50.0906 22.0448 50.1187 21.8914 50.1874 21.7547C50.256 21.618 50.3622 21.5038 50.4935 21.4254C50.6248 21.347 50.7758 21.3077 50.9286 21.3122Z" fill="#C7C7C7"/>
<path d="M51.8767 21.5397C51.9597 21.7566 51.9765 21.9934 51.9249 22.2199C51.8723 22.4504 51.7596 22.6629 51.5982 22.8358C51.4346 23.0157 51.2087 23.1267 50.9662 23.1464C50.733 23.1631 50.501 23.1008 50.3075 22.9696C50.5148 23.0366 50.7349 23.0541 50.9502 23.0205C51.1568 22.9838 51.3453 22.8792 51.4857 22.7233C51.6322 22.571 51.7428 22.3881 51.8097 22.1877C51.8771 21.9788 51.8999 21.758 51.8767 21.5397Z" fill="#C7C7C7"/>
<path d="M46.7407 14.2534C46.3471 14.8586 45.4741 14.9872 44.7913 14.54C44.1084 14.0928 43.8755 13.2439 44.2691 12.6387C44.6627 12.0336 45.5384 11.9077 46.2212 12.3549C46.904 12.8021 47.1263 13.6509 46.7407 14.2534Z" fill="#DBDBDB"/>
<path d="M44.5716 13.2064C44.4681 13.3691 44.4078 13.5557 44.3966 13.7483C44.3853 13.9409 44.4234 14.1332 44.5074 14.3069C44.2825 14.0982 44.1362 13.8187 44.0928 13.515C44.0494 13.2113 44.1116 12.902 44.269 12.6387C44.6653 12.0362 45.5383 11.9076 46.2211 12.3521C46.447 12.4927 46.6314 12.6908 46.7556 12.926C46.8798 13.1613 46.9393 13.4253 46.9281 13.691C46.825 13.3773 46.617 13.1087 46.339 12.9305C46.0679 12.7332 45.7296 12.6514 45.3983 12.7031C45.067 12.7549 44.7697 12.9358 44.5716 13.2064Z" fill="#C7C7C7"/>
<path d="M47.2227 13.2572C47.3242 13.4141 47.3936 13.5895 47.4267 13.7734C47.4598 13.9573 47.456 14.146 47.4155 14.3284C47.3726 14.5179 47.2895 14.696 47.1718 14.8505C47.0537 15.0064 46.9086 15.1397 46.7433 15.2442C46.5775 15.3378 46.396 15.4004 46.2078 15.4289C46.0198 15.4545 45.829 15.4491 45.6428 15.4129C45.2841 15.3505 44.9454 15.2036 44.6547 14.9844C44.9861 15.0815 45.3275 15.1408 45.6722 15.1612C45.991 15.184 46.3097 15.1153 46.5907 14.963C46.7241 14.8808 46.8434 14.7777 46.9442 14.6577C47.0492 14.5403 47.131 14.404 47.1852 14.2561C47.2892 13.9329 47.3022 13.5873 47.2227 13.2572Z" fill="#C7C7C7"/>
<path d="M148.716 97.87L150.248 98.1538L150.591 99.7685L150.931 98.1538L152.462 97.87L150.939 97.4978L150.591 95.9714L150.24 97.4978L148.716 97.87Z" fill="#C7C7C7"/>
<path d="M73.7568 95.9741L75.2885 96.2553L75.6313 97.87L75.974 96.2553L77.5057 95.9715L75.9794 95.5993L75.6313 94.0756L75.2832 95.5993L73.7568 95.9741Z" fill="#C7C7C7"/>
<path d="M126.753 18.0051L128.285 18.289L128.627 19.9037L128.97 18.289L130.502 18.0051L128.975 17.6329L128.627 16.1066L128.279 17.6329L126.753 18.0051Z" fill="#C7C7C7"/>
<path d="M11.8706 74.2787L12.7275 74.4367L12.9176 75.3391L13.1104 74.4367L13.9673 74.2787L13.1131 74.0699L12.9176 73.2183L12.7248 74.0699L11.8706 74.2787Z" fill="#C7C7C7"/>
<path d="M38.0566 100.178L38.9135 100.336L39.1037 101.239L39.2938 100.336L40.1507 100.178L39.2991 99.9693L39.1037 99.1178L38.9082 99.9693L38.0566 100.178Z" fill="#C7C7C7"/>
<path d="M140.075 54.4685L140.929 54.6265L141.122 55.5289L141.312 54.6265L142.169 54.4685L141.317 54.2597L141.122 53.4081L140.926 54.2597L140.075 54.4685Z" fill="#C7C7C7"/>
<path d="M125.639 36.1524L126.493 36.3104L126.686 37.2128L126.876 36.3104L127.733 36.1497L126.882 35.9435L126.686 35.0893L126.491 35.9435L125.639 36.1524Z" fill="#C7C7C7"/>
<path d="M105.368 15.5789L106.222 15.7369L106.415 16.6393L106.605 15.7369L107.462 15.5789L106.61 15.3701L106.415 14.5185L106.219 15.3701L105.368 15.5789Z" fill="#C7C7C7"/>
<path d="M158.463 53.4081L159.32 53.566L159.51 54.4685L159.703 53.566L160.557 53.4081L159.705 53.1992L159.51 52.3477L159.315 53.1992L158.463 53.4081Z" fill="#C7C7C7"/>
<path d="M61.913 7.44399L62.7672 7.60198L62.96 8.50439L63.1501 7.60198L64.007 7.44399L63.1555 7.23513L62.96 6.38359L62.7645 7.23513L61.913 7.44399Z" fill="#C7C7C7"/>
<path d="M114.384 94.7825L115.238 94.9405L115.431 95.8429L115.621 94.9405L116.478 94.7825L115.627 94.5736L115.431 93.7221L115.236 94.5736L114.384 94.7825Z" fill="#C7C7C7"/>
<path d="M137.1 44.2715C137.161 44.2779 137.218 44.3067 137.259 44.3525C137.3 44.3982 137.323 44.4576 137.323 44.5192C137.323 44.5808 137.3 44.6402 137.259 44.6859C137.218 44.7317 137.161 44.7605 137.1 44.7669C137.039 44.7605 136.982 44.7317 136.941 44.6859C136.9 44.6402 136.877 44.5808 136.877 44.5192C136.877 44.4576 136.9 44.3982 136.941 44.3525C136.982 44.3067 137.039 44.2779 137.1 44.2715Z" fill="#C7C7C7"/>
<path d="M168.989 60.6301C169.051 60.6365 169.107 60.6654 169.149 60.7111C169.19 60.7568 169.213 60.8162 169.213 60.8778C169.213 60.9394 169.19 60.9988 169.149 61.0446C169.107 61.0903 169.051 61.1191 168.989 61.1255C168.928 61.1191 168.872 61.0903 168.83 61.0446C168.789 60.9988 168.766 60.9394 168.766 60.8778C168.766 60.8162 168.789 60.7568 168.83 60.7111C168.872 60.6654 168.928 60.6365 168.989 60.6301Z" fill="#C7C7C7"/>
<path d="M24.5177 37.1111C24.5838 37.1111 24.6471 37.1373 24.6938 37.184C24.7405 37.2307 24.7667 37.2941 24.7667 37.3601C24.7667 37.4262 24.7405 37.4895 24.6938 37.5362C24.6471 37.5829 24.5838 37.6092 24.5177 37.6092C24.4517 37.6092 24.3883 37.5829 24.3416 37.5362C24.2949 37.4895 24.2687 37.4262 24.2687 37.3601C24.2687 37.2941 24.2949 37.2307 24.3416 37.184C24.3883 37.1373 24.4517 37.1111 24.5177 37.1111Z" fill="#C7C7C7"/>
<path d="M51.5768 86.8642C51.638 86.8706 51.6947 86.8994 51.736 86.9452C51.7772 86.9909 51.8 87.0503 51.8 87.1119C51.8 87.1735 51.7772 87.2329 51.736 87.2786C51.6947 87.3244 51.638 87.3532 51.5768 87.3596C51.5155 87.3532 51.4588 87.3244 51.4176 87.2786C51.3763 87.2329 51.3535 87.1735 51.3535 87.1119C51.3535 87.0503 51.3763 86.9909 51.4176 86.9452C51.4588 86.8994 51.5155 86.8706 51.5768 86.8642Z" fill="#C7C7C7"/>
<path d="M29.1236 95.6688C29.1664 95.6741 29.2058 95.6948 29.2344 95.7271C29.2629 95.7594 29.2787 95.801 29.2787 95.8442C29.2787 95.8873 29.2629 95.9289 29.2344 95.9612C29.2058 95.9935 29.1664 96.0143 29.1236 96.0196C29.0809 96.0143 29.0415 95.9935 29.0129 95.9612C28.9844 95.9289 28.9686 95.8873 28.9686 95.8442C28.9686 95.801 28.9844 95.7594 29.0129 95.7271C29.0415 95.6948 29.0809 95.6741 29.1236 95.6688Z" fill="#C7C7C7"/>
<path d="M38.7449 11.8542C38.7876 11.8595 38.827 11.8803 38.8556 11.9126C38.8841 11.9449 38.8999 11.9865 38.8999 12.0296C38.8999 12.0727 38.8841 12.1143 38.8556 12.1467C38.827 12.179 38.7876 12.1997 38.7449 12.205C38.7021 12.1997 38.6627 12.179 38.6342 12.1467C38.6056 12.1143 38.5898 12.0727 38.5898 12.0296C38.5898 11.9865 38.6056 11.9449 38.6342 11.9126C38.6627 11.8803 38.7021 11.8595 38.7449 11.8542Z" fill="#C7C7C7"/>
<path d="M149.806 43.27C149.849 43.2753 149.888 43.296 149.916 43.3283C149.945 43.3606 149.961 43.4022 149.961 43.4454C149.961 43.4885 149.945 43.5301 149.916 43.5624C149.888 43.5947 149.849 43.6155 149.806 43.6207C149.763 43.6155 149.724 43.5947 149.695 43.5624C149.667 43.5301 149.651 43.4885 149.651 43.4454C149.651 43.4022 149.667 43.3606 149.695 43.3283C149.724 43.296 149.763 43.2753 149.806 43.27Z" fill="#C7C7C7"/>
<path d="M7.6398 33.9781C7.75969 33.9872 7.87176 34.0411 7.95353 34.1293C8.0353 34.2174 8.08074 34.3332 8.08074 34.4535C8.08074 34.5737 8.0353 34.6895 7.95353 34.7776C7.87176 34.8658 7.75969 34.9198 7.6398 34.9288C7.5199 34.9198 7.40784 34.8658 7.32606 34.7776C7.24429 34.6895 7.19885 34.5737 7.19885 34.4535C7.19885 34.3332 7.24429 34.2174 7.32606 34.1293C7.40784 34.0411 7.5199 33.9872 7.6398 33.9781Z" fill="#C7C7C7"/>
<path d="M47.2709 34.9313L48.8026 35.2125L49.1453 36.8272L49.4854 35.2125L51.0171 34.9287L49.4934 34.5564L49.1453 33.0328L48.7945 34.5564L47.2709 34.9313Z" fill="#C7C7C7"/>
<path d="M81.9803 3.0604L82.8372 3.21839L83.0274 4.1208L83.2202 3.21839L84.0744 3.0604L83.2228 2.85153L83.0274 2L82.8346 2.85153L81.9803 3.0604Z" fill="#C7C7C7"/>
<path d="M30.093 26.2205C30.1542 26.2269 30.211 26.2557 30.2522 26.3015C30.2934 26.3472 30.3162 26.4066 30.3162 26.4682C30.3162 26.5298 30.2934 26.5892 30.2522 26.6349C30.211 26.6807 30.1542 26.7095 30.093 26.7159C30.0317 26.7095 29.975 26.6807 29.9338 26.6349C29.8926 26.5892 29.8698 26.5298 29.8698 26.4682C29.8698 26.4066 29.8926 26.3472 29.9338 26.3015C29.975 26.2557 30.0317 26.2269 30.093 26.2205Z" fill="#C7C7C7"/>
<path d="M7.17381 96.9782C7.23506 96.9846 7.29177 97.0134 7.333 97.0592C7.37423 97.1049 7.39705 97.1643 7.39705 97.2259C7.39705 97.2875 7.37423 97.3469 7.333 97.3926C7.29177 97.4384 7.23506 97.4672 7.17381 97.4736C7.11255 97.4672 7.05584 97.4384 7.01461 97.3926C6.97338 97.3469 6.95056 97.2875 6.95056 97.2259C6.95056 97.1643 6.97338 97.1049 7.01461 97.0592C7.05584 97.0134 7.11255 96.9846 7.17381 96.9782Z" fill="#C7C7C7"/>
<path d="M85.3115 101.627C85.3776 101.627 85.4409 101.653 85.4876 101.7C85.5343 101.747 85.5606 101.81 85.5606 101.876C85.5606 101.942 85.5343 102.005 85.4876 102.052C85.4409 102.099 85.3776 102.125 85.3115 102.125C85.2455 102.125 85.1821 102.099 85.1354 102.052C85.0887 102.005 85.0625 101.942 85.0625 101.876C85.0625 101.81 85.0887 101.747 85.1354 101.7C85.1821 101.653 85.2455 101.627 85.3115 101.627Z" fill="#C7C7C7"/>
<path d="M41.3182 39.9871C41.361 39.9924 41.4004 40.0131 41.4289 40.0454C41.4575 40.0777 41.4733 40.1193 41.4733 40.1625C41.4733 40.2056 41.4575 40.2472 41.4289 40.2795C41.4004 40.3118 41.361 40.3326 41.3182 40.3378C41.2754 40.3326 41.2361 40.3118 41.2075 40.2795C41.179 40.2472 41.1632 40.2056 41.1632 40.1625C41.1632 40.1193 41.179 40.0777 41.2075 40.0454C41.2361 40.0131 41.2754 39.9924 41.3182 39.9871Z" fill="#C7C7C7"/>
<path d="M60.0011 107.649C60.0439 107.654 60.0832 107.675 60.1118 107.708C60.1403 107.74 60.1561 107.781 60.1561 107.825C60.1561 107.868 60.1403 107.909 60.1118 107.942C60.0832 107.974 60.0439 107.995 60.0011 108C59.9583 107.995 59.9189 107.974 59.8904 107.942C59.8618 107.909 59.8461 107.868 59.8461 107.825C59.8461 107.781 59.8618 107.74 59.8904 107.708C59.9189 107.675 59.9583 107.654 60.0011 107.649Z" fill="#C7C7C7"/>
<path d="M142.187 22.3832C142.23 22.3885 142.27 22.4092 142.298 22.4415C142.327 22.4739 142.343 22.5155 142.343 22.5586C142.343 22.6017 142.327 22.6433 142.298 22.6756C142.27 22.7079 142.23 22.7287 142.187 22.734C142.145 22.7287 142.105 22.7079 142.077 22.6756C142.048 22.6433 142.032 22.6017 142.032 22.5586C142.032 22.5155 142.048 22.4739 142.077 22.4415C142.105 22.4092 142.145 22.3885 142.187 22.3832Z" fill="#C7C7C7"/>
<path d="M81.1797 11.6453C81.2225 11.6506 81.2618 11.6714 81.2904 11.7037C81.3189 11.736 81.3347 11.7776 81.3347 11.8207C81.3347 11.8638 81.3189 11.9055 81.2904 11.9378C81.2618 11.9701 81.2225 11.9908 81.1797 11.9961C81.1369 11.9908 81.0975 11.9701 81.069 11.9378C81.0404 11.9055 81.0247 11.8638 81.0247 11.8207C81.0247 11.7776 81.0404 11.736 81.069 11.7037C81.0975 11.6714 81.1369 11.6506 81.1797 11.6453Z" fill="#C7C7C7"/>
<path d="M56.8385 27.9798C56.9584 27.9888 57.0705 28.0428 57.1523 28.131C57.234 28.2191 57.2795 28.3349 57.2795 28.4551C57.2795 28.5754 57.234 28.6912 57.1523 28.7793C57.0705 28.8675 56.9584 28.9214 56.8385 28.9304C56.7186 28.9214 56.6066 28.8675 56.5248 28.7793C56.443 28.6912 56.3976 28.5754 56.3976 28.4551C56.3976 28.3349 56.443 28.2191 56.5248 28.131C56.6066 28.0428 56.7186 27.9888 56.8385 27.9798Z" fill="#C7C7C7"/>
<path d="M162.603 38.0215C162.723 38.0305 162.835 38.0844 162.917 38.1726C162.998 38.2607 163.044 38.3765 163.044 38.4968C163.044 38.617 162.998 38.7328 162.917 38.8209C162.835 38.9091 162.723 38.9631 162.603 38.9721C162.483 38.9631 162.371 38.9091 162.289 38.8209C162.207 38.7328 162.162 38.617 162.162 38.4968C162.162 38.3765 162.207 38.2607 162.289 38.1726C162.371 38.0844 162.483 38.0305 162.603 38.0215Z" fill="#C7C7C7"/>
<path d="M9.14998 84.6738C9.2764 84.6738 9.39764 84.724 9.48702 84.8134C9.57641 84.9028 9.62663 85.024 9.62663 85.1504C9.62663 85.2769 9.57641 85.3981 9.48702 85.4875C9.39764 85.5769 9.2764 85.6271 9.14998 85.6271C9.02357 85.6271 8.90233 85.5769 8.81295 85.4875C8.72356 85.3981 8.67334 85.2769 8.67334 85.1504C8.67334 85.024 8.72356 84.9028 8.81295 84.8134C8.90233 84.724 9.02357 84.6738 9.14998 84.6738Z" fill="#C7C7C7"/>
<path d="M152.529 33.9781L153.383 34.1361L153.576 35.0385L153.766 34.1361L154.623 33.9781L153.772 33.7692L153.576 32.9177L153.381 33.7692L152.529 33.9781Z" fill="#C7C7C7"/>
<path d="M123.408 104.578L124.262 104.738L124.455 105.641L124.645 104.738L125.502 104.578L124.648 104.372L124.455 103.517L124.26 104.372L123.408 104.578Z" fill="#C7C7C7"/>
<path d="M107.462 101.68C107.523 101.687 107.58 101.716 107.621 101.761C107.663 101.807 107.685 101.867 107.685 101.928C107.685 101.99 107.663 102.049 107.621 102.095C107.58 102.141 107.523 102.169 107.462 102.176C107.401 102.169 107.344 102.141 107.303 102.095C107.262 102.049 107.239 101.99 107.239 101.928C107.239 101.867 107.262 101.807 107.303 101.761C107.344 101.716 107.401 101.687 107.462 101.68Z" fill="#C7C7C7"/>
<path d="M153.576 94.6539C153.642 94.6539 153.706 94.6802 153.752 94.7269C153.799 94.7736 153.825 94.8369 153.825 94.903C153.825 94.969 153.799 95.0323 153.752 95.0791C153.706 95.1258 153.642 95.152 153.576 95.152C153.51 95.152 153.447 95.1258 153.4 95.0791C153.353 95.0323 153.327 94.969 153.327 94.903C153.327 94.8369 153.353 94.7736 153.4 94.7269C153.447 94.6802 153.51 94.6539 153.576 94.6539Z" fill="#C7C7C7"/>
<path d="M0 51.2605L0.85689 51.4185L1.04701 52.3209L1.23981 51.4185L2.09403 51.2578L1.24249 51.0516L1.04701 50.1974L0.851535 51.0516L0 51.2605Z" fill="#C7C7C7"/>
<path d="M112.196 18.3479C112.258 18.3542 112.314 18.3831 112.355 18.4288C112.397 18.4746 112.42 18.534 112.42 18.5956C112.42 18.6571 112.397 18.7165 112.355 18.7623C112.314 18.808 112.258 18.8369 112.196 18.8433C112.135 18.8369 112.078 18.808 112.037 18.7623C111.996 18.7165 111.973 18.6571 111.973 18.5956C111.973 18.534 111.996 18.4746 112.037 18.4288C112.078 18.3831 112.135 18.3542 112.196 18.3479Z" fill="#C7C7C7"/>
<path d="M125.502 18.1927C125.545 18.198 125.584 18.2187 125.613 18.251C125.642 18.2833 125.657 18.325 125.657 18.3681C125.657 18.4112 125.642 18.4528 125.613 18.4851C125.584 18.5174 125.545 18.5382 125.502 18.5435C125.46 18.5382 125.42 18.5174 125.392 18.4851C125.363 18.4528 125.347 18.4112 125.347 18.3681C125.347 18.325 125.363 18.2833 125.392 18.251C125.42 18.2187 125.46 18.198 125.502 18.1927Z" fill="#C7C7C7"/>
<path d="M21.7623 19.2984L22.6165 19.4564L22.8093 20.3588L22.9995 19.4564L23.8564 19.2984L23.0021 19.0895L22.8093 18.238L22.6139 19.0895L21.7623 19.2984Z" fill="#C7C7C7"/>
<path d="M7.17384 68.3233C7.23989 68.3233 7.30323 68.3495 7.34993 68.3962C7.39663 68.4429 7.42287 68.5063 7.42287 68.5723C7.42287 68.6384 7.39663 68.7017 7.34993 68.7484C7.30323 68.7951 7.23989 68.8214 7.17384 68.8214C7.10779 68.8214 7.04445 68.7951 6.99774 68.7484C6.95104 68.7017 6.9248 68.6384 6.9248 68.5723C6.9248 68.5063 6.95104 68.4429 6.99774 68.3962C7.04445 68.3495 7.10779 68.3233 7.17384 68.3233Z" fill="#C7C7C7"/>
<path d="M67.8202 53.1778C67.8814 53.1841 67.9381 53.213 67.9794 53.2587C68.0206 53.3045 68.0434 53.3639 68.0434 53.4255C68.0434 53.487 68.0206 53.5464 67.9794 53.5922C67.9381 53.6379 67.8814 53.6668 67.8202 53.6732C67.7589 53.6668 67.7022 53.6379 67.661 53.5922C67.6197 53.5464 67.5969 53.487 67.5969 53.4255C67.5969 53.3639 67.6197 53.3045 67.661 53.2587C67.7022 53.213 67.7589 53.1841 67.8202 53.1778Z" fill="#C7C7C7"/>
<path d="M38.7449 28.119C38.7876 28.1243 38.827 28.1451 38.8556 28.1774C38.8841 28.2097 38.8999 28.2513 38.8999 28.2944C38.8999 28.3376 38.8841 28.3792 38.8556 28.4115C38.827 28.4438 38.7876 28.4645 38.7449 28.4698C38.7021 28.4645 38.6627 28.4438 38.6342 28.4115C38.6056 28.3792 38.5898 28.3376 38.5898 28.2944C38.5898 28.2513 38.6056 28.2097 38.6342 28.1774C38.6627 28.1451 38.7021 28.1243 38.7449 28.119Z" fill="#C7C7C7"/>
<path d="M36.4981 26.5043C36.6245 26.5043 36.7458 26.5545 36.8352 26.6439C36.9246 26.7333 36.9748 26.8545 36.9748 26.9809C36.9748 27.1074 36.9246 27.2286 36.8352 27.318C36.7458 27.4074 36.6245 27.4576 36.4981 27.4576C36.3717 27.4576 36.2505 27.4074 36.1611 27.318C36.0717 27.2286 36.0215 27.1074 36.0215 26.9809C36.0215 26.8545 36.0717 26.7333 36.1611 26.6439C36.2505 26.5545 36.3717 26.5043 36.4981 26.5043Z" fill="#C7C7C7"/>
<path d="M99.5948 101.204C99.7212 101.204 99.8425 101.254 99.9318 101.343C100.021 101.433 100.071 101.554 100.071 101.681C100.071 101.807 100.021 101.928 99.9318 102.018C99.8425 102.107 99.7212 102.157 99.5948 102.157C99.4684 102.157 99.3472 102.107 99.2578 102.018C99.1684 101.928 99.1182 101.807 99.1182 101.681C99.1182 101.554 99.1684 101.433 99.2578 101.343C99.3472 101.254 99.4684 101.204 99.5948 101.204Z" fill="#C7C7C7"/>
<path d="M324.623 16.5546C322.122 17.9085 321.192 21.0335 322.546 23.5345C323.9 26.0354 327.025 26.9652 329.526 25.6113C332.027 24.2573 332.957 21.1323 331.603 18.6314C330.249 16.1304 327.124 15.2006 324.623 16.5546Z" fill="#EBEBEB"/>
<path d="M322.152 19.58C322.631 19.9966 323.173 20.3346 323.759 20.5814C324.779 21.0313 327.556 21.524 328.846 22.172C330.654 23.0852 330.879 24.0679 330.868 24.582C330.419 25.0681 329.879 25.4627 329.28 25.7442C329.152 25.2247 328.667 23.602 325.665 22.5309C324.115 21.9953 322.631 22.3488 322.128 22.472C321.858 21.5256 321.866 20.5216 322.152 19.58Z" fill="#DBDBDB"/>
<path d="M324.254 16.771C325.242 16.1239 326.422 15.8354 327.597 15.9538C328.772 16.0723 329.871 16.5904 330.71 17.4217C330.418 17.5811 330.108 17.7043 329.786 17.7886C328.402 18.126 326.875 17.4619 326.321 17.1513C325.7 16.7816 324.966 16.6467 324.254 16.771Z" fill="#DBDBDB"/>
<path d="M322.454 18.8062L322.519 18.6803L322.578 18.5679C322.626 18.4848 322.674 18.4018 322.725 18.3215C322.776 18.2412 322.819 18.1769 322.867 18.11L322.923 18.0323L322.987 17.9466L323.052 17.8609C323.078 17.8288 323.105 17.794 323.135 17.7619C323.164 17.7297 323.188 17.6976 323.215 17.6681L323.287 17.5878C323.341 17.5289 323.397 17.47 323.453 17.4164C323.775 17.3173 324.203 17.3602 324.832 17.6065C325.767 17.9734 326.776 18.8571 328.581 19.5078C329.693 19.8962 330.891 19.9731 332.044 19.73C332.323 20.756 332.276 21.8434 331.91 22.8416C331.58 22.855 330.523 22.705 328.265 20.8413C327.564 20.2449 326.802 19.7234 325.992 19.2855C324.064 18.276 322.95 18.5759 322.484 18.8089H322.454V18.8062Z" fill="#DBDBDB"/>
<path d="M327.352 16.8674C327.261 17.079 326.94 17.1352 326.634 17.0067C326.329 16.8781 326.155 16.597 326.249 16.3881C326.343 16.1792 326.661 16.1203 326.966 16.2488C327.272 16.3774 327.443 16.6585 327.352 16.8674Z" fill="#C7C7C7"/>
<path d="M325.895 17.2343C325.842 17.3521 325.652 17.3842 325.47 17.3039C325.287 17.2235 325.18 17.0656 325.231 16.9451C325.282 16.8246 325.472 16.7978 325.657 16.8754C325.842 16.9531 325.936 17.1164 325.895 17.2343Z" fill="#C7C7C7"/>
<path d="M329.888 23.5592C329.81 23.7386 329.532 23.7895 329.264 23.6743C328.996 23.5592 328.844 23.3182 328.921 23.1388C328.999 22.9594 329.28 22.9085 329.548 23.0263C329.816 23.1441 329.952 23.3798 329.888 23.5592Z" fill="#C7C7C7"/>
<path d="M328.94 23.7386C328.935 23.7952 328.911 23.8486 328.873 23.8911C328.836 23.9336 328.785 23.963 328.73 23.9749C328.674 23.9869 328.616 23.9808 328.564 23.9576C328.512 23.9343 328.469 23.8951 328.441 23.8457C328.413 23.7963 328.401 23.7392 328.407 23.6827C328.414 23.6261 328.438 23.5731 328.477 23.5314C328.515 23.4896 328.566 23.4612 328.622 23.4503C328.678 23.4394 328.736 23.4466 328.787 23.4708C328.842 23.4876 328.888 23.5247 328.917 23.5744C328.945 23.6242 328.953 23.6829 328.94 23.7386Z" fill="#C7C7C7"/>
<path d="M328.787 23.262C328.767 23.2916 328.736 23.3123 328.7 23.3197C328.665 23.3272 328.628 23.3209 328.597 23.3022C328.517 23.2674 328.471 23.1924 328.498 23.1335C328.522 23.1071 328.553 23.0889 328.587 23.0814C328.622 23.0739 328.658 23.0776 328.69 23.0919C328.722 23.1062 328.749 23.1304 328.766 23.161C328.784 23.1916 328.791 23.227 328.787 23.262Z" fill="#C7C7C7"/>
<path d="M325.574 23.2486C325.563 23.3397 325.523 23.4249 325.46 23.4923C325.398 23.5597 325.316 23.6058 325.226 23.6241C325.136 23.6424 325.042 23.632 324.959 23.5944C324.875 23.5568 324.805 23.4939 324.759 23.4145C324.712 23.3351 324.692 23.2432 324.701 23.1517C324.71 23.0603 324.747 22.9739 324.808 22.9047C324.868 22.8356 324.949 22.7871 325.038 22.7662C325.128 22.7452 325.221 22.7528 325.306 22.788C325.402 22.815 325.483 22.8781 325.533 22.9641C325.583 23.05 325.598 23.152 325.574 23.2486Z" fill="#C7C7C7"/>
<path d="M325.697 22.547C325.674 22.5936 325.633 22.6294 325.584 22.6471C325.535 22.6648 325.481 22.663 325.434 22.642C325.386 22.6211 325.348 22.5826 325.328 22.5345C325.308 22.4864 325.307 22.4324 325.325 22.3836C325.348 22.337 325.389 22.3012 325.438 22.2835C325.487 22.2658 325.541 22.2677 325.589 22.2886C325.636 22.3096 325.674 22.3481 325.695 22.3961C325.715 22.4442 325.716 22.4982 325.697 22.547Z" fill="#C7C7C7"/>
<path d="M192.427 58.0891C190.514 58.0891 188.964 59.6393 188.964 61.5515C188.964 63.4637 190.514 65.0139 192.427 65.0139C194.339 65.0139 195.889 63.4637 195.889 61.5515C195.889 59.6393 194.339 58.0891 192.427 58.0891Z" fill="#EBEBEB"/>
<path d="M191.168 63.6082C191.159 63.4413 191.204 63.2758 191.297 63.1369C191.389 62.9942 191.519 62.8794 191.672 62.8048C191.829 62.7242 192.012 62.7088 192.18 62.762C192.341 62.8121 192.478 62.9174 192.569 63.0592C192.446 62.9673 192.304 62.9041 192.154 62.8744C192.083 62.8624 192.01 62.8624 191.939 62.8744C191.869 62.8849 191.801 62.9076 191.738 62.9414L191.642 62.9923C191.613 63.0137 191.581 63.0324 191.551 63.0565C191.492 63.1001 191.438 63.1504 191.39 63.2065C191.291 63.3247 191.216 63.4612 191.168 63.6082Z" fill="#C7C7C7"/>
<path d="M192.413 63.4073C192.428 63.523 192.403 63.6403 192.341 63.7393C192.277 63.8424 192.184 63.9243 192.073 63.975C191.965 64.0301 191.84 64.0407 191.725 64.0047C191.609 63.9687 191.512 63.8888 191.455 63.7822C191.543 63.835 191.64 63.8704 191.741 63.8866C191.833 63.8971 191.926 63.8813 192.009 63.8411C192.193 63.7514 192.337 63.5969 192.413 63.4073Z" fill="#C7C7C7"/>
<path d="M192.429 59.9101C192.389 59.804 192.389 59.6868 192.429 59.5807C192.469 59.4739 192.539 59.3809 192.63 59.313C192.724 59.2405 192.842 59.2072 192.96 59.2202C193.078 59.2332 193.186 59.2914 193.262 59.3826C193.166 59.3508 193.066 59.3363 192.965 59.3397C192.876 59.3462 192.791 59.3788 192.721 59.4335C192.648 59.4903 192.587 59.5602 192.539 59.6396C192.486 59.7223 192.449 59.814 192.429 59.9101Z" fill="#C7C7C7"/>
<path d="M193.144 59.5298C193.163 59.5652 193.175 59.6039 193.18 59.6439C193.184 59.6839 193.18 59.7243 193.168 59.7628C193.146 59.8441 193.097 59.9157 193.029 59.9663C192.995 59.9937 192.955 60.0133 192.913 60.0239C192.87 60.0346 192.826 60.0359 192.783 60.0279C192.743 60.021 192.705 60.0061 192.67 59.984C192.636 59.9619 192.607 59.9331 192.585 59.8994C192.652 59.9096 192.721 59.9096 192.788 59.8994C192.843 59.8909 192.894 59.8688 192.938 59.8351C193.038 59.7584 193.11 59.6513 193.144 59.5298Z" fill="#C7C7C7"/>
<path d="M193.677 63.0404C193.646 63.0122 193.621 62.9779 193.604 62.9397C193.587 62.9014 193.578 62.86 193.578 62.8181C193.577 62.7728 193.585 62.7276 193.602 62.6854C193.618 62.6431 193.643 62.6045 193.675 62.5718C193.708 62.5394 193.748 62.5149 193.792 62.5001C193.836 62.4852 193.883 62.4805 193.929 62.4861C194.011 62.4945 194.088 62.5314 194.146 62.5905C194.074 62.5878 194.002 62.5923 193.932 62.6039C193.876 62.6128 193.824 62.639 193.784 62.6789C193.742 62.7204 193.712 62.7721 193.696 62.8289C193.677 62.8977 193.671 62.9693 193.677 63.0404Z" fill="#C7C7C7"/>
<path d="M194.106 62.7029C194.13 62.7205 194.15 62.7434 194.165 62.7698C194.179 62.7962 194.187 62.8255 194.189 62.8556C194.191 62.8888 194.186 62.9221 194.174 62.9532C194.162 62.9842 194.143 63.0122 194.119 63.035C194.095 63.0595 194.065 63.0779 194.033 63.0886C194 63.0994 193.965 63.1021 193.932 63.0966C193.872 63.0881 193.818 63.0564 193.782 63.0082C193.831 63.0015 193.881 62.9917 193.929 62.9787C193.96 62.9696 193.989 62.9531 194.012 62.9305C194.037 62.9048 194.057 62.8749 194.071 62.8422C194.088 62.7974 194.1 62.7506 194.106 62.7029Z" fill="#C7C7C7"/>
<path d="M191.27 59.3906C191.311 59.3167 191.379 59.2619 191.46 59.238C191.505 59.226 191.552 59.2232 191.598 59.2296C191.644 59.2361 191.688 59.2517 191.728 59.2754C191.768 59.2989 191.803 59.3314 191.828 59.3705C191.854 59.4095 191.87 59.454 191.875 59.5004C191.885 59.5821 191.868 59.6648 191.827 59.736C191.81 59.6657 191.788 59.5968 191.76 59.5298C191.737 59.4778 191.699 59.434 191.65 59.404C191.599 59.3752 191.543 59.3587 191.484 59.3558C191.411 59.3545 191.339 59.3663 191.27 59.3906Z" fill="#C7C7C7"/>
<path d="M191.701 59.7226C191.691 59.7517 191.674 59.7779 191.652 59.7989C191.629 59.8199 191.602 59.8351 191.572 59.8431C191.541 59.8536 191.507 59.8571 191.474 59.8534C191.44 59.8497 191.408 59.8389 191.38 59.8217C191.35 59.8044 191.324 59.78 191.306 59.7505C191.288 59.7211 191.277 59.6876 191.275 59.653C191.272 59.6233 191.275 59.5932 191.283 59.5647C191.292 59.5361 191.307 59.5097 191.326 59.487C191.344 59.5333 191.365 59.5781 191.39 59.6209C191.405 59.6508 191.429 59.6759 191.457 59.6932C191.488 59.7104 191.522 59.7221 191.556 59.728C191.605 59.7327 191.653 59.7309 191.701 59.7226Z" fill="#C7C7C7"/>
<path d="M190.084 61.8274C190.079 61.7856 190.083 61.7434 190.095 61.7033C190.108 61.6633 190.128 61.6262 190.156 61.5944C190.216 61.5255 190.3 61.4832 190.392 61.4766C190.438 61.4739 190.485 61.4819 190.528 61.5C190.571 61.5181 190.61 61.5458 190.641 61.581C190.695 61.6427 190.728 61.7209 190.734 61.8033C190.681 61.7541 190.624 61.7102 190.563 61.6721C190.516 61.6401 190.459 61.6242 190.402 61.6265C190.343 61.6314 190.286 61.6507 190.236 61.6828C190.178 61.7222 190.126 61.771 190.084 61.8274Z" fill="#C7C7C7"/>
<path d="M190.627 61.8594C190.634 61.889 190.635 61.9197 190.628 61.9494C190.622 61.9791 190.609 62.0069 190.59 62.0308C190.57 62.0575 190.544 62.0795 190.514 62.0953C190.485 62.111 190.452 62.1201 190.418 62.1219C190.386 62.1232 190.354 62.1176 190.324 62.1055C190.295 62.0933 190.268 62.075 190.246 62.0517C190.224 62.0283 190.207 62.0005 190.197 61.9701C190.186 61.9397 190.182 61.9075 190.185 61.8755C190.226 61.9047 190.269 61.9298 190.314 61.9505C190.342 61.9669 190.375 61.9743 190.408 61.9719C190.443 61.969 190.477 61.9599 190.509 61.9451C190.553 61.9225 190.592 61.8936 190.627 61.8594Z" fill="#C7C7C7"/>
<path d="M194.671 61.0428C194.667 61.001 194.671 60.9587 194.684 60.9186C194.697 60.8785 194.718 60.8415 194.746 60.8099C194.775 60.7753 194.811 60.7471 194.851 60.7268C194.892 60.7066 194.936 60.6947 194.981 60.6921C195.028 60.6896 195.074 60.6978 195.117 60.7158C195.159 60.7339 195.197 60.7615 195.228 60.7965C195.284 60.8575 195.317 60.9361 195.321 61.0187C195.269 60.9696 195.211 60.9257 195.15 60.8875C195.103 60.8556 195.046 60.8397 194.989 60.842C194.931 60.8465 194.875 60.8659 194.826 60.8982C194.766 60.9368 194.713 60.9858 194.671 61.0428Z" fill="#C7C7C7"/>
<path d="M195.214 61.0749C195.222 61.1044 195.223 61.1353 195.216 61.1651C195.21 61.1949 195.196 61.2227 195.177 61.2463C195.157 61.2733 195.131 61.2955 195.101 61.3113C195.072 61.327 195.039 61.3359 195.005 61.3373C194.971 61.3397 194.936 61.3336 194.904 61.3196C194.873 61.3056 194.845 61.2841 194.823 61.257C194.786 61.2102 194.768 61.1508 194.772 61.091C194.813 61.1191 194.856 61.1441 194.901 61.166C194.929 61.182 194.962 61.1895 194.995 61.1874C195.03 61.1848 195.064 61.1757 195.096 61.1606C195.14 61.138 195.179 61.1091 195.214 61.0749Z" fill="#C7C7C7"/>
<path d="M301.332 95.2568L300.448 96.1378C300.328 96.2596 300.26 96.4242 300.26 96.5957C300.26 96.7672 300.328 96.9317 300.448 97.0536C300.57 97.1742 300.735 97.2419 300.906 97.2419C301.078 97.2419 301.242 97.1742 301.364 97.0536L302.248 96.1699C302.308 96.11 302.355 96.0388 302.388 95.9604C302.42 95.8821 302.437 95.7981 302.437 95.7133C302.437 95.6285 302.42 95.5446 302.388 95.4662C302.355 95.3879 302.308 95.3167 302.248 95.2568C302.188 95.1964 302.116 95.1484 302.038 95.1157C301.959 95.083 301.875 95.0662 301.79 95.0662C301.705 95.0662 301.62 95.083 301.542 95.1157C301.463 95.1484 301.392 95.1964 301.332 95.2568Z" fill="#EBEBEB"/>
<path d="M289.279 86.5112L288.717 87.6251C288.679 87.7012 288.656 87.7841 288.65 87.8691C288.644 87.954 288.654 88.0394 288.681 88.1202C288.708 88.201 288.751 88.2758 288.806 88.3402C288.862 88.4045 288.93 88.4573 289.006 88.4954C289.16 88.5717 289.337 88.5841 289.5 88.5299C289.662 88.4757 289.797 88.3593 289.874 88.2062L290.434 87.0922C290.511 86.9388 290.524 86.761 290.47 86.5978C290.417 86.4346 290.3 86.2994 290.147 86.222C290.071 86.1834 289.988 86.1604 289.904 86.1541C289.819 86.1478 289.733 86.1584 289.653 86.1853C289.572 86.2122 289.497 86.2548 289.433 86.3108C289.369 86.3667 289.317 86.4348 289.279 86.5112Z" fill="#EBEBEB"/>
<path d="M297.016 97.7498L296.351 97.8462C296.184 97.8732 296.034 97.9651 295.934 98.1019C295.834 98.2387 295.791 98.4094 295.816 98.5772C295.844 98.7449 295.936 98.8949 296.073 98.9951C296.21 99.0953 296.382 99.1375 296.55 99.1128L297.211 99.0191C297.381 98.9945 297.535 98.9035 297.637 98.7659C297.74 98.6283 297.784 98.4554 297.76 98.2853C297.747 98.2011 297.717 98.1204 297.672 98.0478C297.627 97.9752 297.569 97.9121 297.499 97.8623C297.43 97.8125 297.352 97.777 297.269 97.7576C297.186 97.7383 297.1 97.7357 297.016 97.7498Z" fill="#EBEBEB"/>
<path d="M302.272 88.9934L302.366 89.6575C302.393 89.8251 302.486 89.9752 302.623 90.0753C302.76 90.1755 302.931 90.2178 303.099 90.193C303.27 90.1685 303.423 90.0775 303.526 89.9399C303.629 89.8023 303.673 89.6294 303.648 89.4593L303.552 88.7952C303.525 88.6278 303.433 88.4778 303.296 88.3776C303.16 88.2773 302.989 88.235 302.821 88.2597C302.651 88.2842 302.498 88.3753 302.395 88.5129C302.292 88.6505 302.248 88.8233 302.272 88.9934Z" fill="#EBEBEB"/>
<path d="M288.04 90.3216V91.1302C288.04 91.4497 288.299 91.7086 288.618 91.7086H288.755C289.074 91.7086 289.333 91.4497 289.333 91.1302V90.3216C289.333 90.0021 289.074 89.7432 288.755 89.7432H288.618C288.299 89.7432 288.04 90.0021 288.04 90.3216Z" fill="#EBEBEB"/>
<path d="M298.207 83.3675L297.559 83.1934C297.476 83.17 297.39 83.1632 297.304 83.1736C297.219 83.184 297.136 83.2113 297.061 83.2539C296.987 83.2965 296.921 83.3536 296.869 83.4219C296.816 83.4901 296.778 83.5681 296.756 83.6513C296.732 83.7342 296.725 83.8209 296.735 83.9065C296.745 83.9921 296.773 84.0747 296.815 84.1496C296.858 84.2245 296.915 84.2901 296.984 84.3425C297.052 84.3949 297.13 84.433 297.214 84.4547L297.862 84.6287C297.945 84.6522 298.031 84.659 298.117 84.6486C298.202 84.6382 298.285 84.6109 298.359 84.5683C298.434 84.5257 298.5 84.4686 298.552 84.4003C298.605 84.3321 298.643 84.2541 298.665 84.1708C298.689 84.088 298.695 84.0013 298.685 83.9159C298.675 83.8304 298.647 83.7479 298.605 83.6731C298.562 83.5983 298.505 83.5328 298.437 83.4803C298.368 83.4278 298.29 83.3895 298.207 83.3675Z" fill="#EBEBEB"/>
<path d="M295.963 83.5415C291.84 83.5415 288.497 86.884 288.497 91.0071C288.497 95.1303 291.84 98.4728 295.963 98.4728C300.086 98.4728 303.429 95.1303 303.429 91.0071C303.429 86.884 300.086 83.5415 295.963 83.5415Z" fill="#EBEBEB"/>
<path d="M293.248 95.4362C293.228 95.0781 293.321 94.7228 293.516 94.4213C293.714 94.1146 293.991 93.8675 294.319 93.7064C294.659 93.5345 295.053 93.5009 295.417 93.6126C295.762 93.7229 296.057 93.9503 296.252 94.2553C295.986 94.0587 295.68 93.9234 295.355 93.859C295.204 93.8322 295.049 93.8322 294.897 93.859C294.746 93.8817 294.6 93.9287 294.464 93.9983C294.39 94.034 294.321 94.0714 294.255 94.1107C294.188 94.1562 294.121 94.1964 294.059 94.2473C293.932 94.3418 293.816 94.4505 293.714 94.5713C293.504 94.8267 293.346 95.1205 293.248 95.4362Z" fill="#C7C7C7"/>
<path d="M295.931 95.0052C295.965 95.2543 295.91 95.5074 295.776 95.7201C295.642 95.9414 295.446 96.119 295.213 96.2316C294.972 96.3525 294.693 96.3728 294.437 96.2878C294.196 96.2063 293.996 96.0358 293.877 95.8112C294.066 95.928 294.276 96.0062 294.496 96.0415C294.694 96.0638 294.894 96.0275 295.071 95.937C295.464 95.7444 295.771 95.4121 295.931 95.0052Z" fill="#C7C7C7"/>
<path d="M298.461 89.877C298.369 89.6509 298.361 89.3988 298.44 89.1674C298.519 88.9261 298.671 88.7149 298.874 88.5623C298.977 88.4822 299.095 88.4234 299.221 88.3894C299.347 88.3554 299.478 88.3468 299.608 88.3641C299.852 88.3984 300.075 88.5214 300.234 88.7095C300.029 88.6405 299.813 88.6097 299.597 88.6185C299.402 88.6303 299.215 88.7013 299.061 88.822C298.901 88.9429 298.765 89.0938 298.662 89.2665C298.561 89.4571 298.493 89.6636 298.461 89.877Z" fill="#C7C7C7"/>
<path d="M300.007 89.0309C300.089 89.1845 300.108 89.3646 300.058 89.5317C300.007 89.7056 299.902 89.8586 299.758 89.9682C299.683 90.0268 299.596 90.0691 299.504 90.0921C299.412 90.1152 299.316 90.1186 299.222 90.1021C299.137 90.0883 299.056 90.0575 298.983 90.0115C298.91 89.9654 298.848 89.9052 298.799 89.8343C298.943 89.8626 299.09 89.8689 299.235 89.853C299.354 89.8353 299.465 89.7873 299.559 89.7138C299.78 89.542 299.937 89.3018 300.007 89.0309Z" fill="#C7C7C7"/>
<path d="M301.137 91.54C301.071 91.4787 301.018 91.4046 300.981 91.3222C300.945 91.2397 300.926 91.1507 300.925 91.0607C300.922 90.9617 300.939 90.8631 300.976 90.771C301.012 90.6789 301.067 90.5952 301.137 90.5251C301.206 90.4554 301.29 90.4024 301.383 90.3699C301.476 90.3375 301.575 90.3264 301.672 90.3377C301.85 90.3553 302.016 90.4349 302.141 90.5626C301.986 90.5587 301.831 90.5695 301.678 90.5947C301.556 90.6132 301.444 90.6694 301.356 90.7554C301.267 90.8458 301.203 90.9573 301.169 91.0794C301.133 91.2301 301.122 91.3857 301.137 91.54Z" fill="#C7C7C7"/>
<path d="M302.063 90.8143C302.117 90.8517 302.162 90.9011 302.194 90.9587C302.226 91.0163 302.245 91.0805 302.248 91.1464C302.253 91.2183 302.242 91.2903 302.217 91.3578C302.191 91.4252 302.152 91.4864 302.101 91.5373C302.048 91.5903 301.984 91.6299 301.913 91.6527C301.842 91.6755 301.767 91.681 301.694 91.6685C301.565 91.6494 301.45 91.58 301.372 91.4757C301.479 91.4622 301.585 91.4407 301.688 91.4115C301.757 91.3938 301.819 91.3577 301.868 91.307C301.922 91.2542 301.965 91.1903 301.994 91.1196C302.031 91.0215 302.054 90.9188 302.063 90.8143Z" fill="#C7C7C7"/>
<path d="M290.907 93.7518C290.899 93.6618 290.91 93.5712 290.937 93.4852C290.965 93.3992 291.009 93.3196 291.068 93.2511C291.131 93.1746 291.208 93.1115 291.295 93.0655C291.383 93.0195 291.478 92.9915 291.577 92.9833C291.677 92.9771 291.778 92.9942 291.871 93.0332C291.964 93.0722 292.046 93.1321 292.112 93.2082C292.233 93.3398 292.304 93.5093 292.313 93.6875C292.2 93.5815 292.077 93.4856 291.946 93.401C291.843 93.3344 291.721 93.3025 291.598 93.31C291.472 93.3187 291.35 93.3583 291.242 93.4251C291.113 93.515 291 93.6254 290.907 93.7518Z" fill="#C7C7C7"/>
<path d="M292.08 93.8241C292.096 93.8877 292.097 93.9542 292.084 94.0183C292.07 94.0824 292.041 94.1424 292 94.1937C291.956 94.2504 291.9 94.2972 291.836 94.3309C291.773 94.3646 291.702 94.3844 291.631 94.3891C291.556 94.3935 291.481 94.3799 291.413 94.3497C291.344 94.3194 291.284 94.2733 291.237 94.2151C291.196 94.1659 291.165 94.1091 291.146 94.048C291.128 93.9869 291.121 93.9226 291.127 93.8589C291.213 93.9183 291.302 93.972 291.395 94.0196C291.459 94.0522 291.53 94.067 291.601 94.0624C291.677 94.0584 291.752 94.0393 291.821 94.0062C291.915 93.9576 292.003 93.8964 292.08 93.8241Z" fill="#C7C7C7"/>
<path d="M295.093 88.6802C294.794 88.5451 294.462 88.5017 294.139 88.5555C293.816 88.6093 293.516 88.758 293.277 88.9826C293.038 89.2072 292.871 89.4976 292.798 89.8171C292.725 90.1365 292.748 90.4706 292.864 90.7769C292.981 91.0832 293.186 91.348 293.453 91.5376C293.721 91.7273 294.038 91.8333 294.366 91.8422C294.694 91.8511 295.016 91.7624 295.294 91.5876C295.571 91.4127 295.79 91.1594 295.923 90.8599C296.012 90.6624 296.062 90.4491 296.068 90.2325C296.075 90.0158 296.039 89.7999 295.961 89.5974C295.884 89.3948 295.768 89.2094 295.619 89.052C295.47 88.8946 295.291 88.7683 295.093 88.6802Z" fill="#DBDBDB"/>
<path d="M293.647 90.9724C293.432 90.8769 293.242 90.7318 293.094 90.5488C292.946 90.3658 292.844 90.1503 292.795 89.92C292.751 90.193 292.776 90.4727 292.868 90.7335C292.96 90.9943 293.116 91.2276 293.322 91.4121C293.528 91.5965 293.777 91.7261 294.047 91.7889C294.316 91.8517 294.597 91.8456 294.863 91.7713C295.13 91.697 295.373 91.5567 295.571 91.3636C295.769 91.1704 295.915 90.9305 295.996 90.666C296.076 90.4015 296.089 90.1209 296.033 89.8502C295.977 89.5794 295.853 89.3271 295.674 89.1167C295.796 89.4733 295.778 89.8629 295.623 90.2066C295.544 90.3867 295.43 90.5495 295.287 90.6856C295.145 90.8217 294.977 90.9283 294.794 90.9994C294.61 91.0706 294.414 91.1048 294.218 91.1002C294.021 91.0955 293.827 91.0521 293.647 90.9724Z" fill="#C7C7C7"/>
<path d="M292.139 89.9013C292.13 89.462 292.257 89.0308 292.503 88.6668C292.752 88.2949 293.095 87.9955 293.497 87.7992C293.912 87.5913 294.39 87.5483 294.836 87.6787C295.258 87.8093 295.624 88.0781 295.875 88.4419C295.486 88.1111 294.996 87.9223 294.485 87.9063C294.389 87.9049 294.293 87.913 294.198 87.9304C294.012 87.9592 293.831 88.018 293.663 88.1045C293.575 88.1473 293.486 88.1955 293.395 88.2464C293.304 88.2973 293.229 88.3535 293.154 88.4178C292.996 88.5381 292.851 88.6755 292.723 88.8275C292.458 89.1423 292.259 89.5076 292.139 89.9013Z" fill="#C7C7C7"/>
<path d="M290.321 89.2854C290.202 89.2573 290.078 89.265 289.964 89.3076C289.85 89.3502 289.751 89.4258 289.679 89.5247C289.608 89.6236 289.568 89.7414 289.564 89.8632C289.559 89.9851 289.591 90.1054 289.656 90.2091C289.72 90.3127 289.813 90.3949 289.924 90.4454C290.035 90.4958 290.159 90.5122 290.279 90.4924C290.399 90.4727 290.511 90.4176 290.6 90.3343C290.689 90.251 290.751 90.1432 290.779 90.0244C290.798 89.9458 290.801 89.8642 290.788 89.7843C290.776 89.7044 290.747 89.6279 290.705 89.5591C290.662 89.4904 290.606 89.4308 290.54 89.3838C290.474 89.3368 290.4 89.3033 290.321 89.2854Z" fill="#DBDBDB"/>
<path d="M289.965 90.2252C289.88 90.2057 289.8 90.1661 289.733 90.1098C289.666 90.0534 289.613 89.9819 289.579 89.9012C289.583 90.004 289.612 90.1044 289.664 90.1931C289.716 90.2817 289.79 90.3558 289.878 90.4085C289.966 90.4612 290.067 90.4908 290.169 90.4946C290.272 90.4984 290.374 90.4763 290.466 90.4303C290.558 90.3843 290.637 90.3159 290.696 90.2313C290.755 90.1468 290.791 90.0489 290.802 89.9465C290.813 89.8442 290.798 89.7408 290.758 89.6459C290.719 89.5509 290.656 89.4674 290.575 89.4031C290.629 89.4975 290.654 89.6054 290.647 89.7137C290.641 89.822 290.603 89.926 290.538 90.0131C290.473 90.1002 290.385 90.1666 290.283 90.2043C290.181 90.242 290.071 90.2492 289.965 90.2252Z" fill="#C7C7C7"/>
<path d="M289.338 89.9467C289.296 89.7862 289.306 89.6163 289.368 89.462C289.431 89.3037 289.537 89.1657 289.673 89.063C289.814 88.9555 289.99 88.9057 290.166 88.9238C290.332 88.9454 290.485 89.024 290.6 89.1461C290.461 89.0838 290.31 89.0518 290.158 89.0523C290.017 89.0571 289.882 89.1069 289.772 89.1943C289.653 89.2839 289.553 89.3968 289.478 89.5261C289.404 89.6554 289.356 89.7985 289.338 89.9467Z" fill="#C7C7C7"/>
<path d="M294.565 85.2902C294.392 85.2804 294.22 85.3221 294.071 85.4101C293.922 85.4981 293.802 85.6285 293.727 85.7846C293.652 85.9408 293.625 86.1157 293.649 86.2873C293.673 86.4589 293.748 86.6194 293.863 86.7485C293.979 86.8776 294.13 86.9695 294.298 87.0126C294.466 87.0556 294.643 87.0479 294.806 86.9904C294.97 86.9329 295.113 86.8282 295.217 86.6895C295.32 86.5508 295.381 86.3844 295.39 86.2113C295.397 86.0967 295.381 85.9818 295.343 85.8734C295.305 85.765 295.246 85.6651 295.169 85.5796C295.092 85.494 295 85.4244 294.896 85.3747C294.792 85.3251 294.68 85.2963 294.565 85.2902Z" fill="#DBDBDB"/>
<path d="M294.284 86.6878C294.16 86.6803 294.039 86.6439 293.931 86.5816C293.823 86.5193 293.732 86.4329 293.663 86.329C293.693 86.4724 293.758 86.6061 293.853 86.7176C293.948 86.8292 294.069 86.915 294.206 86.9673C294.343 87.0196 294.491 87.0365 294.636 87.0167C294.781 86.9968 294.919 86.9408 295.037 86.8537C295.154 86.7666 295.248 86.6512 295.31 86.5183C295.371 86.3853 295.399 86.2391 295.389 86.0929C295.379 85.9468 295.332 85.8054 295.253 85.682C295.175 85.5585 295.066 85.4569 294.938 85.3864C295.032 85.5064 295.091 85.6509 295.107 85.803C295.122 85.9552 295.094 86.1086 295.025 86.2453C294.957 86.382 294.851 86.4962 294.719 86.5746C294.588 86.653 294.437 86.6923 294.284 86.6878Z" fill="#C7C7C7"/>
<path d="M293.336 86.4603C293.253 86.2434 293.236 86.0066 293.288 85.7801C293.341 85.5496 293.453 85.3371 293.615 85.1642C293.778 84.9843 294.004 84.8733 294.247 84.8536C294.48 84.8369 294.712 84.8992 294.906 85.0304C294.698 84.9634 294.478 84.9459 294.263 84.9795C294.056 85.0162 293.868 85.1208 293.727 85.2767C293.581 85.429 293.47 85.6119 293.403 85.8123C293.336 86.0212 293.313 86.242 293.336 86.4603Z" fill="#C7C7C7"/>
<path d="M298.472 93.7466C298.866 93.1414 299.739 93.0128 300.422 93.46C301.104 93.9072 301.337 94.7561 300.944 95.3613C300.55 95.9664 299.674 96.0923 298.992 95.6451C298.309 95.1979 298.086 94.3491 298.472 93.7466Z" fill="#DBDBDB"/>
<path d="M300.641 94.7936C300.745 94.6308 300.805 94.4443 300.816 94.2517C300.828 94.0591 300.789 93.8668 300.706 93.6931C300.93 93.9018 301.077 94.1813 301.12 94.485C301.163 94.7887 301.101 95.098 300.944 95.3613C300.548 95.9638 299.675 96.0923 298.992 95.6478C298.766 95.5072 298.581 95.3092 298.457 95.074C298.333 94.8387 298.274 94.5747 298.285 94.3089C298.388 94.6227 298.596 94.8913 298.874 95.0694C299.145 95.2668 299.483 95.3485 299.815 95.2968C300.146 95.2451 300.443 95.0642 300.641 94.7936Z" fill="#C7C7C7"/>
<path d="M297.99 94.7427C297.889 94.5859 297.819 94.4104 297.786 94.2266C297.753 94.0427 297.757 93.854 297.798 93.6716C297.84 93.4821 297.924 93.304 298.041 93.1495C298.159 92.9936 298.304 92.8603 298.47 92.7558C298.635 92.6622 298.817 92.5996 299.005 92.5711C299.193 92.5454 299.384 92.5509 299.57 92.5871C299.929 92.6495 300.268 92.7964 300.558 93.0156C300.227 92.9185 299.886 92.8592 299.541 92.8388C299.222 92.816 298.903 92.8847 298.622 93.037C298.489 93.1192 298.37 93.2223 298.269 93.3423C298.164 93.4597 298.082 93.596 298.028 93.7439C297.924 94.0671 297.911 94.4127 297.99 94.7427Z" fill="#C7C7C7"/>
<path d="M196.497 10.13L194.965 9.84617L194.622 8.23147L194.282 9.84617L192.751 10.13L194.274 10.5022L194.622 12.0286L194.973 10.5022L196.497 10.13Z" fill="#C7C7C7"/>
<path d="M271.456 12.0259L269.924 11.7447L269.582 10.13L269.239 11.7447L267.707 12.0285L269.233 12.4007L269.582 13.9244L269.93 12.4007L271.456 12.0259Z" fill="#C7C7C7"/>
<path d="M218.46 89.9949L216.928 89.711L216.586 88.0963L216.243 89.711L214.711 89.9949L216.237 90.3671L216.586 91.8934L216.934 90.3671L218.46 89.9949Z" fill="#C7C7C7"/>
<path d="M333.342 33.7213L332.485 33.5633L332.295 32.6609L332.102 33.5633L331.246 33.7213L332.1 33.9301L332.295 34.7817L332.488 33.9301L333.342 33.7213Z" fill="#C7C7C7"/>
<path d="M307.156 7.82179L306.299 7.6638L306.109 6.76138L305.919 7.6638L305.062 7.82179L305.914 8.03065L306.109 8.88219L306.305 8.03065L307.156 7.82179Z" fill="#C7C7C7"/>
<path d="M205.138 53.5315L204.284 53.3735L204.091 52.4711L203.901 53.3735L203.044 53.5315L203.895 53.7403L204.091 54.5919L204.286 53.7403L205.138 53.5315Z" fill="#C7C7C7"/>
<path d="M219.574 71.8476L218.72 71.6896L218.527 70.7872L218.337 71.6896L217.48 71.8503L218.331 72.0565L218.527 72.9107L218.722 72.0565L219.574 71.8476Z" fill="#C7C7C7"/>
<path d="M239.845 92.421L238.991 92.2631L238.798 91.3606L238.608 92.2631L237.751 92.421L238.602 92.6299L238.798 93.4814L238.993 92.6299L239.845 92.421Z" fill="#C7C7C7"/>
<path d="M186.75 54.5919L185.893 54.434L185.703 53.5315L185.51 54.434L184.656 54.5919L185.507 54.8008L185.703 55.6523L185.898 54.8008L186.75 54.5919Z" fill="#C7C7C7"/>
<path d="M283.3 100.556L282.446 100.398L282.253 99.4956L282.063 100.398L281.206 100.556L282.057 100.765L282.253 101.616L282.448 100.765L283.3 100.556Z" fill="#C7C7C7"/>
<path d="M230.829 13.2175L229.975 13.0595L229.782 12.1571L229.592 13.0595L228.735 13.2175L229.586 13.4264L229.782 14.2779L229.977 13.4264L230.829 13.2175Z" fill="#C7C7C7"/>
<path d="M208.113 63.7285C208.052 63.7221 207.995 63.6933 207.954 63.6475C207.913 63.6018 207.89 63.5424 207.89 63.4808C207.89 63.4192 207.913 63.3598 207.954 63.3141C207.995 63.2683 208.052 63.2395 208.113 63.2331C208.174 63.2395 208.231 63.2683 208.272 63.3141C208.313 63.3598 208.336 63.4192 208.336 63.4808C208.336 63.5424 208.313 63.6018 208.272 63.6475C208.231 63.6933 208.174 63.7221 208.113 63.7285Z" fill="#C7C7C7"/>
<path d="M176.223 47.3699C176.162 47.3635 176.105 47.3346 176.064 47.2889C176.023 47.2432 176 47.1838 176 47.1222C176 47.0606 176.023 47.0012 176.064 46.9554C176.105 46.9097 176.162 46.8809 176.223 46.8745C176.285 46.8809 176.341 46.9097 176.383 46.9554C176.424 47.0012 176.447 47.0606 176.447 47.1222C176.447 47.1838 176.424 47.2432 176.383 47.2889C176.341 47.3346 176.285 47.3635 176.223 47.3699Z" fill="#C7C7C7"/>
<path d="M320.695 70.8889C320.629 70.8889 320.566 70.8627 320.519 70.816C320.472 70.7693 320.446 70.7059 320.446 70.6399C320.446 70.5738 320.472 70.5105 320.519 70.4638C320.566 70.4171 320.629 70.3908 320.695 70.3908C320.761 70.3908 320.824 70.4171 320.871 70.4638C320.918 70.5105 320.944 70.5738 320.944 70.6399C320.944 70.7059 320.918 70.7693 320.871 70.816C320.824 70.8627 320.761 70.8889 320.695 70.8889Z" fill="#C7C7C7"/>
<path d="M293.636 21.1358C293.575 21.1294 293.518 21.1006 293.477 21.0548C293.436 21.0091 293.413 20.9497 293.413 20.8881C293.413 20.8265 293.436 20.7671 293.477 20.7214C293.518 20.6756 293.575 20.6468 293.636 20.6404C293.697 20.6468 293.754 20.6756 293.795 20.7214C293.837 20.7671 293.859 20.8265 293.859 20.8881C293.859 20.9497 293.837 21.0091 293.795 21.0548C293.754 21.1006 293.697 21.1294 293.636 21.1358Z" fill="#C7C7C7"/>
<path d="M316.089 12.3312C316.047 12.3259 316.007 12.3052 315.979 12.2729C315.95 12.2406 315.934 12.199 315.934 12.1558C315.934 12.1127 315.95 12.0711 315.979 12.0388C316.007 12.0065 316.047 11.9857 316.089 11.9804C316.132 11.9857 316.172 12.0065 316.2 12.0388C316.229 12.0711 316.244 12.1127 316.244 12.1558C316.244 12.199 316.229 12.2406 316.2 12.2729C316.172 12.3052 316.132 12.3259 316.089 12.3312Z" fill="#C7C7C7"/>
<path d="M306.468 96.1458C306.425 96.1405 306.386 96.1197 306.357 96.0874C306.329 96.0551 306.313 96.0135 306.313 95.9704C306.313 95.9273 306.329 95.8857 306.357 95.8533C306.386 95.821 306.425 95.8003 306.468 95.795C306.511 95.8003 306.55 95.821 306.579 95.8533C306.607 95.8857 306.623 95.9273 306.623 95.9704C306.623 96.0135 306.607 96.0551 306.579 96.0874C306.55 96.1197 306.511 96.1405 306.468 96.1458Z" fill="#C7C7C7"/>
<path d="M195.407 64.73C195.364 64.7247 195.325 64.704 195.296 64.6717C195.268 64.6394 195.252 64.5978 195.252 64.5546C195.252 64.5115 195.268 64.4699 195.296 64.4376C195.325 64.4053 195.364 64.3845 195.407 64.3793C195.45 64.3845 195.489 64.4053 195.518 64.4376C195.546 64.4699 195.562 64.5115 195.562 64.5546C195.562 64.5978 195.546 64.6394 195.518 64.6717C195.489 64.704 195.45 64.7247 195.407 64.73Z" fill="#C7C7C7"/>
<path d="M337.573 74.0219C337.453 74.0128 337.341 73.9589 337.259 73.8707C337.178 73.7826 337.132 73.6668 337.132 73.5465C337.132 73.4263 337.178 73.3105 337.259 73.2224C337.341 73.1342 337.453 73.0802 337.573 73.0712C337.693 73.0802 337.805 73.1342 337.887 73.2224C337.969 73.3105 338.014 73.4263 338.014 73.5465C338.014 73.6668 337.969 73.7826 337.887 73.8707C337.805 73.9589 337.693 74.0128 337.573 74.0219Z" fill="#C7C7C7"/>
<path d="M297.942 73.0686L296.41 72.7875L296.067 71.1728L295.727 72.7875L294.196 73.0713L295.719 73.4435L296.067 74.9672L296.418 73.4435L297.942 73.0686Z" fill="#C7C7C7"/>
<path d="M263.233 104.94L262.376 104.782L262.186 103.879L261.993 104.782L261.139 104.94L261.99 105.148L262.186 106L262.378 105.148L263.233 104.94Z" fill="#C7C7C7"/>
<path d="M315.12 81.7795C315.059 81.7731 315.002 81.7443 314.961 81.6985C314.92 81.6528 314.897 81.5934 314.897 81.5318C314.897 81.4702 314.92 81.4108 314.961 81.3651C315.002 81.3193 315.059 81.2905 315.12 81.2841C315.181 81.2905 315.238 81.3193 315.279 81.3651C315.32 81.4108 315.343 81.4702 315.343 81.5318C315.343 81.5934 315.32 81.6528 315.279 81.6985C315.238 81.7443 315.181 81.7731 315.12 81.7795Z" fill="#C7C7C7"/>
<path d="M338.039 11.0218C337.978 11.0154 337.921 10.9866 337.88 10.9408C337.839 10.8951 337.816 10.8357 337.816 10.7741C337.816 10.7125 337.839 10.6531 337.88 10.6074C337.921 10.5616 337.978 10.5328 338.039 10.5264C338.1 10.5328 338.157 10.5616 338.198 10.6074C338.24 10.6531 338.262 10.7125 338.262 10.7741C338.262 10.8357 338.24 10.8951 338.198 10.9408C338.157 10.9866 338.1 11.0154 338.039 11.0218Z" fill="#C7C7C7"/>
<path d="M259.901 6.37312C259.835 6.37312 259.772 6.34688 259.725 6.30018C259.679 6.25348 259.652 6.19014 259.652 6.12409C259.652 6.05804 259.679 5.9947 259.725 5.94799C259.772 5.90129 259.835 5.87505 259.901 5.87505C259.967 5.87505 260.031 5.90129 260.077 5.94799C260.124 5.9947 260.15 6.05804 260.15 6.12409C260.15 6.19014 260.124 6.25348 260.077 6.30018C260.031 6.34688 259.967 6.37312 259.901 6.37312Z" fill="#C7C7C7"/>
<path d="M303.895 68.0129C303.852 68.0076 303.812 67.9869 303.784 67.9546C303.755 67.9223 303.74 67.8807 303.74 67.8375C303.74 67.7944 303.755 67.7528 303.784 67.7205C303.812 67.6882 303.852 67.6674 303.895 67.6622C303.937 67.6674 303.977 67.6882 304.005 67.7205C304.034 67.7528 304.05 67.7944 304.05 67.8375C304.05 67.8807 304.034 67.9223 304.005 67.9546C303.977 67.9869 303.937 68.0076 303.895 68.0129Z" fill="#C7C7C7"/>
<path d="M285.212 0.35083C285.169 0.345533 285.13 0.324786 285.101 0.292482C285.073 0.260179 285.057 0.218548 285.057 0.175436C285.057 0.132323 285.073 0.0907006 285.101 0.0583971C285.13 0.0260937 285.169 0.00533801 285.212 4.1306e-05C285.255 0.00533801 285.294 0.0260937 285.323 0.0583971C285.351 0.0907006 285.367 0.132323 285.367 0.175436C285.367 0.218548 285.351 0.260179 285.323 0.292482C285.294 0.324786 285.255 0.345533 285.212 0.35083Z" fill="#C7C7C7"/>
<path d="M203.025 85.6168C202.983 85.6115 202.943 85.5908 202.915 85.5585C202.886 85.5262 202.87 85.4845 202.87 85.4414C202.87 85.3983 202.886 85.3567 202.915 85.3244C202.943 85.2921 202.983 85.2713 203.025 85.266C203.068 85.2713 203.108 85.2921 203.136 85.3244C203.165 85.3567 203.18 85.3983 203.18 85.4414C203.18 85.4845 203.165 85.5262 203.136 85.5585C203.108 85.5908 203.068 85.6115 203.025 85.6168Z" fill="#C7C7C7"/>
<path d="M264.033 96.3547C263.99 96.3494 263.951 96.3286 263.923 96.2963C263.894 96.264 263.878 96.2224 263.878 96.1793C263.878 96.1362 263.894 96.0945 263.923 96.0622C263.951 96.0299 263.99 96.0092 264.033 96.0039C264.076 96.0092 264.115 96.0299 264.144 96.0622C264.172 96.0945 264.188 96.1362 264.188 96.1793C264.188 96.2224 264.172 96.264 264.144 96.2963C264.115 96.3286 264.076 96.3494 264.033 96.3547Z" fill="#C7C7C7"/>
<path d="M288.374 80.0202C288.254 80.0112 288.142 79.9572 288.061 79.869C287.979 79.7809 287.933 79.6651 287.933 79.5449C287.933 79.4246 287.979 79.3088 288.061 79.2207C288.142 79.1325 288.254 79.0786 288.374 79.0696C288.494 79.0786 288.606 79.1325 288.688 79.2207C288.77 79.3088 288.815 79.4246 288.815 79.5449C288.815 79.6651 288.77 79.7809 288.688 79.869C288.606 79.9572 288.494 80.0112 288.374 80.0202Z" fill="#C7C7C7"/>
<path d="M182.61 69.9785C182.49 69.9695 182.378 69.9156 182.296 69.8274C182.215 69.7393 182.169 69.6235 182.169 69.5032C182.169 69.383 182.215 69.2672 182.296 69.1791C182.378 69.0909 182.49 69.0369 182.61 69.0279C182.73 69.0369 182.842 69.0909 182.924 69.1791C183.006 69.2672 183.051 69.383 183.051 69.5032C183.051 69.6235 183.006 69.7393 182.924 69.8274C182.842 69.9156 182.73 69.9695 182.61 69.9785Z" fill="#C7C7C7"/>
<path d="M336.063 23.3262C335.936 23.3262 335.815 23.276 335.726 23.1866C335.636 23.0972 335.586 22.976 335.586 22.8496C335.586 22.7231 335.636 22.6019 335.726 22.5125C335.815 22.4231 335.936 22.3729 336.063 22.3729C336.189 22.3729 336.311 22.4231 336.4 22.5125C336.489 22.6019 336.54 22.7231 336.54 22.8496C336.54 22.976 336.489 23.0972 336.4 23.1866C336.311 23.276 336.189 23.3262 336.063 23.3262Z" fill="#C7C7C7"/>
<path d="M192.684 74.0219L191.83 73.8639L191.637 72.9615L191.447 73.8639L190.59 74.0219L191.441 74.2308L191.637 75.0823L191.832 74.2308L192.684 74.0219Z" fill="#C7C7C7"/>
<path d="M221.805 3.42223L220.95 3.26157L220.758 2.35915L220.568 3.26157L219.711 3.42223L220.565 3.62842L220.758 4.48264L220.953 3.62842L221.805 3.42223Z" fill="#C7C7C7"/>
<path d="M237.751 6.31955C237.69 6.31317 237.633 6.28433 237.592 6.23858C237.55 6.19284 237.528 6.13344 237.528 6.07186C237.528 6.01028 237.55 5.95087 237.592 5.90513C237.633 5.85938 237.69 5.83054 237.751 5.82416C237.812 5.83054 237.869 5.85938 237.91 5.90513C237.951 5.95087 237.974 6.01028 237.974 6.07186C237.974 6.13344 237.951 6.19284 237.91 6.23858C237.869 6.28433 237.812 6.31317 237.751 6.31955Z" fill="#C7C7C7"/>
<path d="M191.637 13.3461C191.571 13.3461 191.507 13.3198 191.461 13.2731C191.414 13.2264 191.388 13.1631 191.388 13.097C191.388 13.031 191.414 12.9676 191.461 12.9209C191.507 12.8742 191.571 12.848 191.637 12.848C191.703 12.848 191.766 12.8742 191.813 12.9209C191.86 12.9676 191.886 13.031 191.886 13.097C191.886 13.1631 191.86 13.2264 191.813 13.2731C191.766 13.3198 191.703 13.3461 191.637 13.3461Z" fill="#C7C7C7"/>
<path d="M345.213 56.7395L344.356 56.5815L344.166 55.6791L343.973 56.5815L343.119 56.7422L343.97 56.9484L344.166 57.8026L344.361 56.9484L345.213 56.7395Z" fill="#C7C7C7"/>
<path d="M233.017 89.6521C232.955 89.6458 232.899 89.6169 232.858 89.5712C232.816 89.5254 232.794 89.466 232.794 89.4044C232.794 89.3429 232.816 89.2835 232.858 89.2377C232.899 89.192 232.955 89.1631 233.017 89.1567C233.078 89.1631 233.135 89.192 233.176 89.2377C233.217 89.2835 233.24 89.3429 233.24 89.4044C233.24 89.466 233.217 89.5254 233.176 89.5712C233.135 89.6169 233.078 89.6458 233.017 89.6521Z" fill="#C7C7C7"/>
<path d="M219.711 89.8073C219.668 89.802 219.628 89.7813 219.6 89.749C219.571 89.7167 219.556 89.6751 219.556 89.6319C219.556 89.5888 219.571 89.5472 219.6 89.5149C219.628 89.4826 219.668 89.4618 219.711 89.4566C219.753 89.4618 219.793 89.4826 219.821 89.5149C219.85 89.5472 219.866 89.5888 219.866 89.6319C219.866 89.6751 219.85 89.7167 219.821 89.749C219.793 89.7813 219.753 89.802 219.711 89.8073Z" fill="#C7C7C7"/>
<path d="M323.451 88.7016L322.596 88.5436L322.404 87.6412L322.214 88.5436L321.357 88.7016L322.211 88.9105L322.404 89.762L322.599 88.9105L323.451 88.7016Z" fill="#C7C7C7"/>
<path d="M338.039 39.6767C337.973 39.6767 337.91 39.6505 337.863 39.6038C337.816 39.5571 337.79 39.4937 337.79 39.4277C337.79 39.3616 337.816 39.2983 337.863 39.2516C337.91 39.2049 337.973 39.1786 338.039 39.1786C338.105 39.1786 338.168 39.2049 338.215 39.2516C338.262 39.2983 338.288 39.3616 338.288 39.4277C338.288 39.4937 338.262 39.5571 338.215 39.6038C338.168 39.6505 338.105 39.6767 338.039 39.6767Z" fill="#C7C7C7"/>
<path d="M277.393 54.8222C277.331 54.8159 277.275 54.787 277.234 54.7413C277.192 54.6955 277.169 54.6361 277.169 54.5745C277.169 54.513 277.192 54.4536 277.234 54.4078C277.275 54.3621 277.331 54.3332 277.393 54.3268C277.454 54.3332 277.511 54.3621 277.552 54.4078C277.593 54.4536 277.616 54.513 277.616 54.5745C277.616 54.6361 277.593 54.6955 277.552 54.7413C277.511 54.787 277.454 54.8159 277.393 54.8222Z" fill="#C7C7C7"/>
<path d="M306.468 79.881C306.425 79.8757 306.386 79.8549 306.357 79.8226C306.329 79.7903 306.313 79.7487 306.313 79.7056C306.313 79.6624 306.329 79.6208 306.357 79.5885C306.386 79.5562 306.425 79.5355 306.468 79.5302C306.511 79.5355 306.55 79.5562 306.579 79.5885C306.607 79.6208 306.623 79.6624 306.623 79.7056C306.623 79.7487 306.607 79.7903 306.579 79.8226C306.55 79.8549 306.511 79.8757 306.468 79.881Z" fill="#C7C7C7"/>
<path d="M308.715 81.4957C308.588 81.4957 308.467 81.4455 308.378 81.3561C308.288 81.2667 308.238 81.1455 308.238 81.0191C308.238 80.8926 308.288 80.7714 308.378 80.682C308.467 80.5926 308.588 80.5424 308.715 80.5424C308.841 80.5424 308.962 80.5926 309.052 80.682C309.141 80.7714 309.191 80.8926 309.191 81.0191C309.191 81.1455 309.141 81.2667 309.052 81.3561C308.962 81.4455 308.841 81.4957 308.715 81.4957Z" fill="#C7C7C7"/>
<path d="M245.618 6.79614C245.492 6.79614 245.37 6.74593 245.281 6.65654C245.192 6.56715 245.141 6.44591 245.141 6.3195C245.141 6.19308 245.192 6.07185 245.281 5.98246C245.37 5.89307 245.492 5.84285 245.618 5.84285C245.744 5.84285 245.866 5.89307 245.955 5.98246C246.045 6.07185 246.095 6.19308 246.095 6.3195C246.095 6.44591 246.045 6.56715 245.955 6.65654C245.866 6.74593 245.744 6.79614 245.618 6.79614Z" fill="#C7C7C7"/>
</svg>
