<svg width="53" height="53" viewBox="0 0 53 53" fill="none" xmlns="http://www.w3.org/2000/svg">
<path d="M26.2754 28.688C27.6077 28.688 28.6878 27.6079 28.6878 26.2755C28.6878 24.9431 27.6077 23.863 26.2754 23.863C24.943 23.863 23.8629 24.9431 23.8629 26.2755C23.8629 27.6079 24.943 28.688 26.2754 28.688Z" fill="white"/>
<path opacity="0.4" d="M32.0595 29.6471L52.5509 26.2754L32.0595 22.9038L38.1633 14.3875L29.6471 20.4914L26.2754 0L22.9038 20.4914L14.3875 14.3875L20.4913 22.9038L0 26.2754L20.4913 29.6471L14.3875 38.1633L22.9038 32.0595L26.2754 52.5509L29.6471 32.0595L38.1633 38.1633L32.0595 29.6471Z" fill="#FEB12F"/>
<path opacity="0.5" d="M29.2838 28.3101L41.6803 26.2755L29.2838 24.2263L31.7253 20.8256L28.3246 23.2671L26.2755 10.8706L24.2409 23.2671L20.8256 20.8256L23.2671 24.2263L10.8706 26.2755L23.2671 28.3101L20.8256 31.7253L24.2409 29.2838L26.2755 41.6803L28.3246 29.2838L31.7253 31.7253L29.2838 28.3101Z" fill="white"/>
</svg>
