<svg width="119" height="94" viewBox="0 0 119 94" fill="none" xmlns="http://www.w3.org/2000/svg">
<path d="M93.0567 55.4252C97.5732 36.2893 85.7218 17.1152 66.5858 12.5987C47.4499 8.08222 28.2758 19.9336 23.7593 39.0696C19.2428 58.2055 31.0942 77.3796 50.2301 81.8961C69.3661 86.4126 88.5402 74.5612 93.0567 55.4252Z" fill="#9190F5"/>
<path d="M53.7852 58.3627C53.7871 59.5129 53.4475 60.6378 52.8097 61.5949C52.1718 62.5521 51.2643 63.2984 50.2019 63.7394C49.1396 64.1805 47.9703 64.2963 46.8421 64.0724C45.7139 63.8484 44.6775 63.2948 43.8642 62.4814C43.0509 61.6681 42.4972 60.6317 42.2732 59.5035C42.0493 58.3753 42.1652 57.206 42.6062 56.1437C43.0472 55.0814 43.7936 54.1738 44.7507 53.5359C45.7079 52.8981 46.8328 52.5586 47.983 52.5604C49.5211 52.5629 50.9954 53.175 52.083 54.2626C53.1706 55.3502 53.7827 56.8246 53.7852 58.3627Z" fill="#5D5CEA"/>
<path d="M45.5459 41.6121C45.544 42.2791 45.3445 42.9306 44.9726 43.4843C44.6007 44.038 44.073 44.4691 43.4563 44.723C42.8395 44.977 42.1613 45.0425 41.5073 44.9112C40.8534 44.78 40.253 44.4578 39.782 43.9855C39.311 43.5132 38.9905 42.912 38.8611 42.2576C38.7316 41.6033 38.799 40.9253 39.0547 40.3092C39.3104 39.6932 39.7429 39.1667 40.2976 38.7963C40.8523 38.4259 41.5044 38.2283 42.1714 38.2283C42.6153 38.2283 43.0549 38.3159 43.4649 38.486C43.8749 38.6562 44.2474 38.9056 44.5608 39.2199C44.8743 39.5343 45.1227 39.9074 45.2917 40.3179C45.4607 40.7284 45.5471 41.1682 45.5459 41.6121Z" fill="#5D5CEA"/>
<path d="M23.8743 55.9067C24.0336 56.5254 -6.59911 85.902 1.30278 92.1823C9.20467 98.4626 42.4057 82.3776 70.7232 59.5062C99.0406 36.6347 124.902 8.88905 117.816 1.52146C110.729 -5.84614 75.3537 15.938 75.3537 15.938L79.5906 18.6282C79.5906 18.6282 100.981 4.9053 107.711 10.192C114.441 15.4787 95.1881 36.3348 67.958 56.2067C40.7279 76.0786 14.4351 90.0264 10.3482 84.5897C6.26138 79.1531 25.5334 60.9778 25.5334 60.9778L23.8743 55.9067Z" fill="#5D5CEA"/>
</svg>
