<svg width="90" height="79" viewBox="0 0 90 79" fill="none" xmlns="http://www.w3.org/2000/svg">
<path fill-rule="evenodd" clip-rule="evenodd" d="M48.826 0C60.6414 0 70.2857 9.642 70.2857 21.6189C70.2857 32.598 59.657 39.4286 48.826 39.4286C40.1294 39.4286 35.1429 30.4345 35.1429 21.6189C35.1429 11.588 38.9304 0 48.826 0Z" fill="#AEAEEE"/>
<path fill-rule="evenodd" clip-rule="evenodd" d="M19.2016 36.939C24.6469 36.5783 30.5712 37.2951 34.0884 41.4165C37.6904 45.6373 36.9792 51.5193 36.3225 57.001C35.5146 63.7447 35.6995 71.504 30.0247 75.3382C23.6406 79.6515 14.6082 80.0918 7.98394 76.1475C1.81941 72.4769 0.30518 64.5708 0.0117997 57.4674C-0.214821 51.9805 2.85288 47.2706 6.62462 43.2357C9.97909 39.6473 14.2676 37.2658 19.2016 36.939Z" fill="#AEAEEE"/>
<path fill-rule="evenodd" clip-rule="evenodd" d="M75.0309 41.1449C78.8225 41.0562 81.7907 43.8583 84.3499 46.6836C87.238 49.8719 90.3999 53.3273 89.9585 57.6244C89.463 62.4489 86.5381 67.1575 82.065 68.9291C77.8428 70.6013 73.6162 67.7021 69.53 65.7152C65.4447 63.7288 60.0268 62.3316 59.2297 57.8257C58.4453 53.392 63.1544 50.3624 66.238 47.1072C68.8053 44.397 71.317 41.2318 75.0309 41.1449Z" fill="#AEAEEE"/>
</svg>
