<svg width="55" height="52" viewBox="0 0 55 52" fill="none" xmlns="http://www.w3.org/2000/svg">
<path d="M27.85 2.37468L33.692 12.0859C34.0356 12.6235 34.8561 14.1744 35.41 14.4911C35.9639 14.8078 36.5299 14.124 37.1675 14.1475L49.1539 11.0551C49.8953 11.0716 52.312 10.3068 52.9334 10.7115C53.5548 11.1163 53.6494 10.9888 53.9642 11.6603C54.279 12.3318 54.3941 13.4109 54.3078 14.1475C54.2215 14.884 51.7762 19.5747 51.3147 20.1552L44.3908 28.8501C43.9873 29.3509 43.7128 29.9431 43.5916 30.5748C43.4704 31.2064 43.5062 31.8582 43.6957 32.4728L45.3743 39.5736C45.5924 40.2843 45.5645 40.573 45.3743 41.2916C45.1841 42.0103 44.1326 43.3814 43.5916 43.8912C43.0506 44.401 43.0106 44.4388 42.2819 44.586C41.5533 44.7332 37.864 42.9258 37.1675 42.666L35.7536 41.9788C35.1519 41.7461 30.0648 43.8103 29.4247 43.8912C28.7847 43.9721 28.1748 44.2109 27.6499 44.586L18.5335 50.9372C17.9247 51.3571 17.211 51.5991 16.4724 51.6363C15.7338 51.6734 14.9995 51.5042 14.3516 51.1475C13.7038 50.7908 13.1681 50.2608 12.8045 49.6168C12.4409 48.9728 12.2638 48.2403 12.2931 47.5013L12.7846 36.3868C12.8109 35.7569 12.6852 35.13 12.4182 34.5589C12.1512 33.9878 11.7506 33.4894 11.2504 33.1058L2.38487 26.3884C1.7786 25.9471 1.30924 25.3436 1.03083 24.6473C0.752424 23.951 0.676266 23.1902 0.811121 22.4526C0.945975 21.7149 1.28638 21.0303 1.79313 20.4775C2.29988 19.9248 2.95239 19.5263 3.67559 19.3281L14.7942 17.927C15.4132 17.7545 16.6131 18.0232 17.0817 17.5834C17.5502 17.1437 18.0186 14.7543 18.2302 14.1475L20.7019 3.2964C20.9335 2.57695 21.365 1.93825 21.9461 1.45493C22.5272 0.971619 23.2338 0.663634 23.9834 0.566976C24.733 0.470317 25.4947 0.588984 26.1793 0.909086C26.864 1.22919 27.4435 1.73751 27.85 2.37468Z" fill="#FEB12F"/>
</svg>
