<svg width="483" height="303" viewBox="0 0 483 303" fill="none" xmlns="http://www.w3.org/2000/svg">
<path d="M58.7715 255.313C65.9102 251.448 68.5643 242.528 64.6996 235.389C60.8349 228.25 51.9149 225.596 44.7762 229.461C37.6375 233.326 34.9834 242.246 38.8481 249.384C42.7128 256.523 51.6328 259.177 58.7715 255.313Z" fill="#EBEBEB"/>
<path d="M65.8253 246.677C64.4573 245.488 62.9094 244.523 61.2392 243.818C58.3271 242.534 50.4008 241.128 46.7167 239.278C41.5574 236.672 40.9153 233.867 40.9459 232.399C42.2289 231.012 43.768 229.885 45.4785 229.082C45.8453 230.565 47.2288 235.197 55.7971 238.254C60.2227 239.783 64.4571 238.774 65.8941 238.422C66.6645 241.123 66.6406 243.989 65.8253 246.677Z" fill="#DBDBDB"/>
<path d="M59.8252 254.695C57.0052 256.542 53.6365 257.366 50.2823 257.028C46.9281 256.689 43.7915 255.21 41.3969 252.838C42.2301 252.383 43.1156 252.031 44.0338 251.79C47.9855 250.827 52.3423 252.723 53.9245 253.61C55.6985 254.665 57.7918 255.05 59.8252 254.695Z" fill="#DBDBDB"/>
<path d="M64.9616 248.886L64.7782 249.245L64.61 249.566C64.4724 249.803 64.3348 250.04 64.1896 250.269C64.0444 250.499 63.9221 250.682 63.7845 250.873L63.624 251.095L63.4405 251.34L63.2571 251.584C63.1807 251.676 63.1042 251.775 63.0202 251.867C62.9361 251.959 62.8673 252.05 62.7909 252.134L62.5845 252.364C62.4316 252.532 62.2711 252.7 62.1106 252.853C61.1934 253.136 59.9704 253.013 58.1742 252.31C55.5066 251.263 52.6251 248.741 47.4734 246.883C44.2986 245.775 40.8809 245.555 37.5904 246.249C36.7934 243.32 36.927 240.217 37.9726 237.367C38.9127 237.329 41.9319 237.757 48.3753 243.077C50.3777 244.779 52.5526 246.268 54.8646 247.518C60.3679 250.399 63.5476 249.543 64.8775 248.878H64.9616V248.886Z" fill="#DBDBDB"/>
<path d="M50.9818 254.42C51.2417 253.816 52.1589 253.655 53.0302 254.022C53.9016 254.389 54.3984 255.192 54.1309 255.788C53.8634 256.384 52.9538 256.552 52.0824 256.185C51.2111 255.818 50.7219 255.016 50.9818 254.42Z" fill="#C7C7C7"/>
<path d="M55.1397 253.373C55.2926 253.036 55.8353 252.945 56.3551 253.174C56.8748 253.403 57.1805 253.854 57.0353 254.198C56.8901 254.542 56.3474 254.619 55.82 254.397C55.2926 254.175 55.0251 253.709 55.1397 253.373Z" fill="#C7C7C7"/>
<path d="M43.7434 235.319C43.9651 234.807 44.76 234.661 45.5243 234.99C46.2887 235.319 46.7244 236.007 46.5027 236.519C46.281 237.031 45.4785 237.176 44.7141 236.84C43.9498 236.504 43.56 235.831 43.7434 235.319Z" fill="#C7C7C7"/>
<path d="M46.4492 234.807C46.4646 234.645 46.5311 234.492 46.6391 234.371C46.747 234.25 46.8908 234.166 47.0496 234.132C47.2084 234.098 47.3739 234.115 47.5222 234.182C47.6704 234.248 47.7937 234.36 47.8741 234.501C47.9545 234.642 47.9879 234.805 47.9694 234.966C47.9509 235.128 47.8816 235.279 47.7713 235.398C47.6611 235.517 47.5157 235.598 47.3563 235.63C47.197 235.661 47.0318 235.64 46.8848 235.571C46.7285 235.523 46.5965 235.417 46.5155 235.275C46.4345 235.133 46.4108 234.966 46.4492 234.807Z" fill="#C7C7C7"/>
<path d="M46.8849 236.167C46.9438 236.083 47.0327 236.024 47.1335 236.002C47.2343 235.981 47.3395 235.999 47.4275 236.053C47.6569 236.152 47.7868 236.366 47.7104 236.534C47.6436 236.609 47.5546 236.661 47.4562 236.683C47.3579 236.704 47.2553 236.693 47.1634 236.653C47.0714 236.612 46.9949 236.543 46.9448 236.455C46.8947 236.368 46.8737 236.267 46.8849 236.167Z" fill="#C7C7C7"/>
<path d="M56.057 236.205C56.0898 235.945 56.2032 235.702 56.3815 235.51C56.5598 235.317 56.7939 235.186 57.0508 235.134C57.3077 235.081 57.5746 235.111 57.8139 235.218C58.0531 235.326 58.2527 235.505 58.3845 235.732C58.5162 235.959 58.5736 236.221 58.5485 236.482C58.5234 236.743 58.4172 236.989 58.2446 237.187C58.072 237.384 57.8419 237.523 57.5866 237.582C57.3313 237.642 57.0637 237.62 56.8214 237.52C56.5482 237.443 56.3158 237.263 56.1731 237.018C56.0305 236.772 55.9888 236.481 56.057 236.205Z" fill="#C7C7C7"/>
<path d="M55.7054 238.208C55.7722 238.075 55.8875 237.973 56.0275 237.922C56.1676 237.872 56.3216 237.877 56.4579 237.937C56.5942 237.996 56.7024 238.106 56.76 238.244C56.8177 238.381 56.8205 238.535 56.7678 238.674C56.701 238.807 56.5857 238.909 56.4457 238.96C56.3056 239.01 56.1516 239.005 56.0152 238.945C55.8789 238.886 55.7708 238.776 55.7131 238.639C55.6555 238.501 55.6527 238.347 55.7054 238.208Z" fill="#C7C7C7"/>
<path d="M436.112 136.756C441.57 136.756 445.995 132.332 445.995 126.873C445.995 121.415 441.57 116.99 436.112 116.99C430.654 116.99 426.229 121.415 426.229 126.873C426.229 132.332 430.654 136.756 436.112 136.756Z" fill="#EBEBEB"/>
<path d="M439.705 121.003C439.732 121.48 439.603 121.952 439.338 122.349C439.074 122.756 438.704 123.083 438.268 123.296C437.818 123.527 437.297 123.571 436.815 123.419C436.357 123.276 435.965 122.975 435.707 122.57C436.057 122.833 436.462 123.013 436.892 123.098C437.094 123.132 437.301 123.132 437.503 123.098C437.704 123.068 437.898 123.003 438.077 122.907L438.352 122.761C438.436 122.7 438.527 122.647 438.612 122.578C438.781 122.454 438.934 122.31 439.07 122.15C439.354 121.812 439.569 121.423 439.705 121.003Z" fill="#C7C7C7"/>
<path d="M436.15 121.577C436.108 121.246 436.181 120.912 436.357 120.629C436.54 120.335 436.806 120.101 437.121 119.956C437.429 119.799 437.786 119.769 438.116 119.871C438.446 119.974 438.723 120.202 438.887 120.507C438.636 120.356 438.358 120.255 438.069 120.209C437.807 120.179 437.542 120.224 437.305 120.338C436.78 120.594 436.369 121.036 436.15 121.577Z" fill="#C7C7C7"/>
<path d="M436.105 131.559C436.22 131.862 436.22 132.196 436.105 132.499C435.991 132.804 435.792 133.07 435.531 133.264C435.263 133.47 434.926 133.565 434.589 133.528C434.253 133.491 433.944 133.325 433.727 133.065C434.001 133.156 434.288 133.197 434.576 133.187C434.829 133.169 435.071 133.076 435.271 132.92C435.48 132.757 435.656 132.558 435.791 132.331C435.942 132.095 436.048 131.833 436.105 131.559Z" fill="#C7C7C7"/>
<path d="M434.064 132.644C434.009 132.544 433.975 132.433 433.963 132.319C433.951 132.205 433.962 132.089 433.995 131.979C434.06 131.747 434.2 131.543 434.393 131.399C434.49 131.32 434.604 131.264 434.725 131.234C434.846 131.204 434.973 131.2 435.096 131.223C435.21 131.242 435.319 131.285 435.416 131.348C435.513 131.411 435.597 131.493 435.661 131.59C435.469 131.56 435.273 131.56 435.08 131.59C434.925 131.614 434.777 131.677 434.652 131.773C434.367 131.992 434.16 132.298 434.064 132.644Z" fill="#C7C7C7"/>
<path d="M432.543 122.624C432.631 122.704 432.702 122.802 432.751 122.911C432.799 123.021 432.825 123.139 432.826 123.258C432.828 123.388 432.805 123.517 432.758 123.637C432.711 123.758 432.64 123.868 432.55 123.961C432.455 124.054 432.341 124.124 432.215 124.166C432.089 124.208 431.956 124.222 431.824 124.206C431.589 124.182 431.37 124.077 431.205 123.908C431.41 123.916 431.615 123.903 431.817 123.87C431.976 123.844 432.123 123.77 432.237 123.656C432.357 123.537 432.444 123.39 432.489 123.228C432.543 123.031 432.562 122.827 432.543 122.624Z" fill="#C7C7C7"/>
<path d="M431.32 123.587C431.25 123.537 431.193 123.471 431.152 123.396C431.111 123.321 431.087 123.237 431.083 123.151C431.075 123.056 431.089 122.961 431.124 122.872C431.158 122.784 431.212 122.704 431.282 122.639C431.35 122.569 431.435 122.516 431.528 122.486C431.621 122.455 431.72 122.448 431.817 122.463C431.987 122.487 432.141 122.578 432.245 122.715C432.103 122.735 431.962 122.763 431.824 122.8C431.735 122.826 431.654 122.873 431.587 122.937C431.517 123.011 431.46 123.096 431.419 123.189C431.369 123.317 431.336 123.451 431.32 123.587Z" fill="#C7C7C7"/>
<path d="M439.414 133.042C439.298 133.253 439.103 133.409 438.871 133.477C438.743 133.511 438.61 133.519 438.478 133.501C438.347 133.483 438.221 133.438 438.107 133.37C437.992 133.303 437.894 133.211 437.821 133.099C437.748 132.988 437.702 132.861 437.687 132.728C437.658 132.495 437.706 132.259 437.824 132.056C437.873 132.256 437.937 132.453 438.015 132.644C438.081 132.793 438.191 132.918 438.329 133.003C438.474 133.086 438.636 133.133 438.803 133.141C439.011 133.145 439.218 133.111 439.414 133.042Z" fill="#C7C7C7"/>
<path d="M438.184 132.094C438.212 132.011 438.26 131.936 438.324 131.876C438.388 131.816 438.466 131.773 438.551 131.75C438.641 131.72 438.737 131.71 438.832 131.721C438.927 131.731 439.019 131.762 439.101 131.811C439.187 131.86 439.259 131.93 439.311 132.014C439.363 132.098 439.393 132.194 439.399 132.293C439.409 132.377 439.401 132.463 439.376 132.545C439.351 132.626 439.309 132.702 439.254 132.767C439.203 132.634 439.142 132.507 439.07 132.384C439.027 132.299 438.961 132.227 438.879 132.178C438.791 132.129 438.696 132.095 438.596 132.079C438.459 132.065 438.32 132.07 438.184 132.094Z" fill="#C7C7C7"/>
<path d="M442.8 126.086C442.813 126.205 442.802 126.326 442.766 126.44C442.731 126.555 442.672 126.66 442.594 126.751C442.423 126.948 442.181 127.069 441.921 127.087C441.788 127.095 441.655 127.072 441.531 127.021C441.408 126.969 441.298 126.89 441.21 126.789C441.054 126.613 440.96 126.39 440.943 126.155C441.094 126.295 441.257 126.421 441.432 126.53C441.567 126.621 441.728 126.666 441.891 126.659C442.059 126.646 442.222 126.591 442.365 126.499C442.532 126.386 442.679 126.247 442.8 126.086Z" fill="#C7C7C7"/>
<path d="M441.249 125.994C441.228 125.91 441.227 125.822 441.246 125.738C441.264 125.653 441.302 125.573 441.356 125.505C441.413 125.429 441.487 125.366 441.571 125.321C441.656 125.276 441.749 125.251 441.845 125.245C441.936 125.242 442.028 125.258 442.113 125.292C442.198 125.327 442.274 125.379 442.337 125.446C442.4 125.512 442.448 125.592 442.478 125.678C442.508 125.765 442.519 125.857 442.51 125.949C442.395 125.865 442.272 125.794 442.143 125.735C442.062 125.688 441.969 125.667 441.875 125.673C441.775 125.682 441.676 125.708 441.585 125.75C441.461 125.814 441.348 125.897 441.249 125.994Z" fill="#C7C7C7"/>
<path d="M429.707 128.326C429.719 128.445 429.706 128.566 429.669 128.68C429.632 128.795 429.572 128.9 429.493 128.991C429.409 129.089 429.307 129.17 429.191 129.228C429.076 129.286 428.949 129.319 428.82 129.327C428.688 129.334 428.556 129.311 428.434 129.259C428.313 129.207 428.204 129.129 428.117 129.029C427.957 128.855 427.863 128.63 427.85 128.394C428 128.535 428.164 128.66 428.339 128.769C428.474 128.86 428.635 128.906 428.797 128.899C428.964 128.886 429.125 128.831 429.264 128.738C429.435 128.628 429.585 128.489 429.707 128.326Z" fill="#C7C7C7"/>
<path d="M428.155 128.234C428.133 128.15 428.131 128.062 428.15 127.977C428.169 127.892 428.207 127.812 428.262 127.745C428.319 127.668 428.393 127.604 428.478 127.56C428.562 127.515 428.656 127.489 428.752 127.485C428.85 127.478 428.949 127.496 429.04 127.536C429.13 127.576 429.21 127.637 429.271 127.714C429.378 127.848 429.43 128.018 429.417 128.188C429.3 128.108 429.177 128.037 429.05 127.974C428.968 127.928 428.875 127.907 428.782 127.913C428.681 127.92 428.583 127.946 428.492 127.99C428.368 128.054 428.255 128.137 428.155 128.234Z" fill="#C7C7C7"/>
<path d="M125.253 30.6655L127.775 28.1508C128.12 27.803 128.313 27.3333 128.313 26.8438C128.313 26.3543 128.12 25.8845 127.775 25.5367C127.428 25.1923 126.958 24.999 126.468 24.999C125.979 24.999 125.509 25.1923 125.161 25.5367L122.639 28.0591C122.468 28.2302 122.332 28.4333 122.239 28.6569C122.147 28.8805 122.099 29.1202 122.099 29.3623C122.099 29.6043 122.147 29.844 122.239 30.0676C122.332 30.2913 122.468 30.4944 122.639 30.6655C122.81 30.8379 123.014 30.9747 123.238 31.0681C123.463 31.1615 123.703 31.2095 123.946 31.2095C124.189 31.2095 124.43 31.1615 124.654 31.0681C124.878 30.9747 125.082 30.8379 125.253 30.6655Z" fill="#EBEBEB"/>
<path d="M159.656 55.6288L161.261 52.4492C161.371 52.2319 161.436 51.9952 161.453 51.7527C161.471 51.5103 161.44 51.2667 161.364 51.036C161.287 50.8053 161.166 50.5919 161.006 50.4082C160.847 50.2244 160.653 50.0738 160.436 49.965C159.998 49.7472 159.491 49.7117 159.027 49.8664C158.563 50.0211 158.179 50.3534 157.96 50.7905L156.362 53.9702C156.141 54.4081 156.103 54.9158 156.257 55.3816C156.41 55.8474 156.742 56.2333 157.18 56.4543C157.396 56.5643 157.633 56.6302 157.875 56.6481C158.117 56.6661 158.36 56.6358 158.591 56.559C158.821 56.4822 159.034 56.3605 159.217 56.2008C159.4 56.0411 159.549 55.8467 159.656 55.6288Z" fill="#EBEBEB"/>
<path d="M137.574 23.5494L139.47 23.2742C139.948 23.197 140.376 22.9348 140.662 22.5444C140.948 22.1539 141.069 21.6665 140.999 21.1876C140.92 20.7091 140.656 20.2808 140.264 19.9948C139.872 19.7089 139.384 19.5883 138.904 19.6589L137.016 19.9264C136.531 19.9964 136.093 20.2563 135.799 20.6491C135.505 21.0418 135.38 21.5352 135.449 22.0207C135.488 22.2611 135.573 22.4916 135.7 22.6988C135.828 22.9061 135.996 23.086 136.193 23.2281C136.391 23.3703 136.615 23.4719 136.852 23.527C137.089 23.5821 137.334 23.5898 137.574 23.5494Z" fill="#EBEBEB"/>
<path d="M122.57 48.5436L122.303 46.648C122.224 46.1695 121.96 45.7412 121.568 45.4553C121.177 45.1694 120.688 45.0487 120.208 45.1193C119.723 45.1893 119.285 45.4493 118.991 45.842C118.697 46.2348 118.572 46.7281 118.642 47.2136L118.917 49.1092C118.994 49.5871 119.256 50.0153 119.647 50.3014C120.037 50.5875 120.524 50.7084 121.003 50.6379C121.489 50.5679 121.927 50.3079 122.22 49.9152C122.514 49.5225 122.64 49.0291 122.57 48.5436Z" fill="#EBEBEB"/>
<path d="M163.195 44.7523V42.444C163.195 41.5321 162.456 40.793 161.544 40.793H161.154C160.243 40.793 159.503 41.5321 159.503 42.444V44.7523C159.503 45.6641 160.243 46.4033 161.154 46.4033H161.544C162.456 46.4033 163.195 45.6641 163.195 44.7523Z" fill="#EBEBEB"/>
<path d="M134.173 64.6024L136.023 65.0992C136.259 65.1662 136.507 65.1855 136.75 65.1559C136.994 65.1263 137.23 65.0483 137.443 64.9267C137.657 64.805 137.844 64.642 137.994 64.4472C138.144 64.2524 138.253 64.0297 138.316 63.7922C138.384 63.5558 138.404 63.3081 138.375 63.0639C138.346 62.8196 138.268 62.5836 138.146 62.3699C138.024 62.1561 137.861 61.969 137.666 61.8194C137.47 61.6699 137.247 61.561 137.009 61.4991L135.159 61.0023C134.923 60.9353 134.675 60.916 134.431 60.9456C134.187 60.9752 133.952 61.0532 133.738 61.1749C133.525 61.2965 133.338 61.4595 133.188 61.6543C133.038 61.8491 132.929 62.0718 132.866 62.3093C132.799 62.5457 132.78 62.7931 132.809 63.037C132.839 63.281 132.917 63.5165 133.039 63.73C133.16 63.9435 133.323 64.1306 133.518 64.2804C133.713 64.4301 133.935 64.5396 134.173 64.6024Z" fill="#EBEBEB"/>
<path d="M140.578 64.1055C152.347 64.1055 161.888 54.5647 161.888 42.7955C161.888 31.0264 152.347 21.4856 140.578 21.4856C128.809 21.4856 119.268 31.0264 119.268 42.7955C119.268 54.5647 128.809 64.1055 140.578 64.1055Z" fill="#EBEBEB"/>
<path d="M148.329 30.1533C148.387 31.1755 148.119 32.1898 147.564 33.0502C146.999 33.9258 146.207 34.6312 145.271 35.091C144.3 35.5815 143.177 35.6774 142.138 35.3585C141.153 35.0437 140.31 34.3948 139.753 33.5241C140.512 34.0853 141.387 34.4716 142.313 34.6553C142.746 34.7318 143.188 34.7318 143.62 34.6553C144.052 34.5905 144.47 34.4563 144.859 34.2578C145.068 34.1559 145.266 34.0489 145.455 33.9368C145.646 33.8069 145.837 33.6922 146.013 33.547C146.375 33.2772 146.706 32.9669 146.999 32.6222C147.598 31.8931 148.049 31.0546 148.329 30.1533Z" fill="#C7C7C7"/>
<path d="M140.67 31.3839C140.574 30.6727 140.731 29.9502 141.113 29.3431C141.496 28.7116 142.054 28.2045 142.718 27.8832C143.407 27.5379 144.204 27.4802 144.935 27.7227C145.622 27.9552 146.194 28.4421 146.533 29.0832C145.993 28.7498 145.393 28.5264 144.767 28.4259C144.202 28.3622 143.63 28.4659 143.124 28.724C142.003 29.2737 141.128 30.2223 140.67 31.3839Z" fill="#C7C7C7"/>
<path d="M133.447 46.0212C133.712 46.6667 133.734 47.3864 133.508 48.0468C133.282 48.7356 132.849 49.3385 132.27 49.7742C131.976 50.0028 131.639 50.1705 131.28 50.2676C130.92 50.3647 130.545 50.3893 130.176 50.3398C129.479 50.2419 128.842 49.8909 128.387 49.3538C128.972 49.5507 129.589 49.6388 130.206 49.6137C130.763 49.5799 131.296 49.3773 131.735 49.0328C132.193 48.6878 132.58 48.2568 132.874 47.764C133.163 47.22 133.357 46.6306 133.447 46.0212Z" fill="#C7C7C7"/>
<path d="M129.037 48.4364C128.801 47.998 128.749 47.484 128.891 47.0071C129.036 46.5107 129.336 46.0738 129.747 45.7612C129.961 45.5938 130.208 45.4732 130.471 45.4073C130.735 45.3415 131.009 45.3319 131.276 45.379C131.519 45.4183 131.751 45.5063 131.958 45.6376C132.166 45.769 132.345 45.941 132.484 46.1434C132.074 46.0627 131.654 46.0446 131.238 46.0899C130.901 46.1405 130.582 46.2774 130.313 46.4873C129.683 46.9776 129.234 47.6632 129.037 48.4364Z" fill="#C7C7C7"/>
<path d="M125.811 41.2747C126 41.4496 126.15 41.6611 126.254 41.8964C126.358 42.1317 126.413 42.3857 126.415 42.6428C126.424 42.9254 126.375 43.2067 126.271 43.4696C126.167 43.7325 126.011 43.9714 125.811 44.1715C125.613 44.3704 125.373 44.5218 125.108 44.6145C124.843 44.7071 124.561 44.7386 124.282 44.7066C123.775 44.6563 123.301 44.429 122.945 44.0645C123.388 44.0756 123.83 44.0449 124.267 43.9728C124.613 43.9202 124.934 43.7597 125.184 43.5142C125.438 43.2561 125.622 42.9379 125.719 42.5893C125.822 42.1592 125.853 41.7149 125.811 41.2747Z" fill="#C7C7C7"/>
<path d="M123.166 43.346C123.012 43.2392 122.883 43.0982 122.792 42.9338C122.701 42.7694 122.648 42.5861 122.639 42.3982C122.626 42.193 122.656 41.9873 122.729 41.7949C122.801 41.6024 122.914 41.4277 123.059 41.2823C123.209 41.1311 123.392 41.0181 123.595 40.9529C123.797 40.8877 124.012 40.8722 124.221 40.9078C124.588 40.9624 124.918 41.1604 125.139 41.4581C124.834 41.4968 124.532 41.5581 124.237 41.6415C124.042 41.6918 123.864 41.795 123.724 41.9396C123.568 42.0904 123.446 42.2728 123.365 42.4747C123.259 42.7547 123.193 43.0478 123.166 43.346Z" fill="#C7C7C7"/>
<path d="M155.009 34.9612C155.032 35.218 155.003 35.4767 154.924 35.7222C154.845 35.9676 154.718 36.1949 154.55 36.3905C154.372 36.6088 154.151 36.789 153.902 36.9203C153.653 37.0516 153.379 37.1314 153.098 37.1548C152.811 37.1724 152.524 37.1236 152.259 37.0122C151.994 36.9009 151.758 36.73 151.57 36.5128C151.225 36.1371 151.023 35.6534 150.996 35.1446C151.321 35.4474 151.671 35.7211 152.043 35.9625C152.339 36.1525 152.687 36.2436 153.037 36.2223C153.398 36.1973 153.747 36.0845 154.054 35.8937C154.421 35.6371 154.744 35.3221 155.009 34.9612Z" fill="#C7C7C7"/>
<path d="M151.661 34.7547C151.616 34.5731 151.613 34.3834 151.652 34.2004C151.692 34.0174 151.774 33.8461 151.891 33.6999C152.017 33.5378 152.177 33.4044 152.358 33.3082C152.54 33.212 152.74 33.1554 152.945 33.1419C153.159 33.1295 153.372 33.1682 153.567 33.2546C153.763 33.341 153.935 33.4726 154.069 33.6387C154.186 33.7791 154.273 33.9412 154.327 34.1157C154.381 34.2902 154.4 34.4736 154.382 34.6553C154.138 34.4857 153.883 34.3325 153.618 34.1967C153.436 34.1036 153.233 34.0613 153.029 34.0744C152.812 34.086 152.599 34.1406 152.403 34.2349C152.133 34.3735 151.884 34.5484 151.661 34.7547Z" fill="#C7C7C7"/>
<path d="M143.062 49.4377C143.915 49.8234 144.863 49.9472 145.785 49.7936C146.708 49.6399 147.565 49.2156 148.246 48.5745C148.928 47.9334 149.403 47.1044 149.613 46.1926C149.823 45.2808 149.757 44.3273 149.424 43.4529C149.091 42.5786 148.506 41.8228 147.743 41.2814C146.98 40.7401 146.073 40.4375 145.138 40.4121C144.202 40.3868 143.281 40.6397 142.489 41.1388C141.698 41.638 141.073 42.3609 140.693 43.2159C140.438 43.7797 140.297 44.3884 140.278 45.0069C140.259 45.6254 140.363 46.2415 140.583 46.8197C140.804 47.398 141.136 47.927 141.561 48.3763C141.987 48.8256 142.497 49.1863 143.062 49.4377Z" fill="#DBDBDB"/>
<path d="M147.19 42.895C147.804 43.1675 148.344 43.5819 148.767 44.1042C149.19 44.6264 149.482 45.2415 149.62 45.8989C149.748 45.1198 149.676 44.3213 149.413 43.577C149.151 42.8326 148.704 42.1665 148.116 41.64C147.528 41.1135 146.817 40.7436 146.048 40.5644C145.279 40.3852 144.478 40.4025 143.717 40.6147C142.957 40.8268 142.262 41.2271 141.698 41.7785C141.133 42.3298 140.716 43.0146 140.485 43.7696C140.255 44.5246 140.218 45.3254 140.379 46.0983C140.539 46.8712 140.892 47.5912 141.404 48.192C141.055 47.1742 141.107 46.0619 141.549 45.0811C141.775 44.5667 142.101 44.102 142.507 43.7137C142.913 43.3253 143.392 43.0209 143.916 42.8178C144.44 42.6148 144.999 42.5171 145.561 42.5303C146.122 42.5436 146.676 42.6675 147.19 42.895Z" fill="#C7C7C7"/>
<path d="M151.493 45.9524C151.519 47.2061 151.156 48.4371 150.454 49.476C149.744 50.5377 148.765 51.3922 147.618 51.9525C146.433 52.5459 145.068 52.6688 143.796 52.2965C142.591 51.9239 141.546 51.1565 140.831 50.1181C141.941 51.0623 143.34 51.6013 144.797 51.6468C145.072 51.6508 145.346 51.6277 145.615 51.578C146.148 51.4959 146.665 51.3281 147.144 51.0811C147.396 50.9589 147.648 50.8213 147.908 50.676C148.168 50.5308 148.382 50.3703 148.596 50.1869C149.048 49.8433 149.461 49.4512 149.827 49.0174C150.584 48.1189 151.151 47.0762 151.493 45.9524Z" fill="#C7C7C7"/>
<path d="M156.683 47.7104C157.022 47.7906 157.376 47.7685 157.702 47.6469C158.028 47.5253 158.311 47.3097 158.514 47.0273C158.718 46.745 158.833 46.4087 158.845 46.0609C158.857 45.7131 158.766 45.3696 158.583 45.0738C158.399 44.778 158.132 44.5433 157.816 44.3993C157.499 44.2553 157.146 44.2085 156.803 44.265C156.46 44.3214 156.141 44.4785 155.887 44.7163C155.633 44.9541 155.455 45.2619 155.376 45.6008C155.322 45.8252 155.312 46.0582 155.349 46.2862C155.385 46.5142 155.467 46.7327 155.588 46.9289C155.71 47.1252 155.869 47.2954 156.057 47.4295C156.245 47.5637 156.458 47.6591 156.683 47.7104Z" fill="#DBDBDB"/>
<path d="M157.7 45.0276C157.943 45.0833 158.17 45.1962 158.362 45.357C158.553 45.5179 158.703 45.722 158.8 45.9524C158.791 45.6589 158.708 45.3724 158.559 45.1194C158.41 44.8663 158.2 44.6548 157.947 44.5044C157.695 44.354 157.409 44.2694 157.116 44.2585C156.822 44.2476 156.531 44.3108 156.268 44.4421C156.005 44.5734 155.78 44.7688 155.612 45.0101C155.445 45.2514 155.341 45.5309 155.31 45.823C155.279 46.115 155.322 46.4102 155.435 46.6812C155.548 46.9523 155.728 47.1906 155.957 47.3741C155.804 47.1048 155.733 46.7968 155.752 46.4877C155.771 46.1786 155.879 45.8816 156.064 45.633C156.248 45.3844 156.501 45.1948 156.792 45.0873C157.082 44.9798 157.397 44.959 157.7 45.0276Z" fill="#C7C7C7"/>
<path d="M159.488 45.8225C159.609 46.2807 159.58 46.7658 159.404 47.206C159.223 47.658 158.922 48.0519 158.533 48.3448C158.132 48.6519 157.629 48.794 157.126 48.7423C156.653 48.6805 156.215 48.4563 155.888 48.1079C156.285 48.2857 156.715 48.3769 157.149 48.3754C157.55 48.3617 157.936 48.2197 158.25 47.9703C158.591 47.7144 158.876 47.3922 159.089 47.0231C159.302 46.6539 159.437 46.2455 159.488 45.8225Z" fill="#C7C7C7"/>
<path d="M144.568 59.1144C145.062 59.1425 145.553 59.0233 145.979 58.7721C146.405 58.5208 146.747 58.1488 146.962 57.7031C147.176 57.2574 147.254 56.758 147.184 56.2683C147.115 55.7785 146.902 55.3203 146.572 54.9518C146.242 54.5833 145.81 54.3209 145.331 54.198C144.852 54.0751 144.347 54.0971 143.88 54.2613C143.414 54.4255 143.006 54.7244 142.71 55.1203C142.413 55.5162 142.24 55.9911 142.214 56.4851C142.195 56.8124 142.242 57.1402 142.35 57.4496C142.458 57.7591 142.627 58.0441 142.845 58.2884C143.064 58.5326 143.329 58.7313 143.624 58.8731C143.92 59.0148 144.241 59.0969 144.568 59.1144Z" fill="#DBDBDB"/>
<path d="M145.371 55.1245C145.725 55.1462 146.07 55.25 146.378 55.4277C146.686 55.6055 146.948 55.8523 147.144 56.1488C147.059 55.7393 146.873 55.3579 146.602 55.0395C146.33 54.7211 145.984 54.476 145.593 54.3268C145.202 54.1776 144.781 54.1292 144.366 54.1858C143.952 54.2425 143.559 54.4025 143.223 54.6511C142.886 54.8998 142.618 55.229 142.443 55.6085C142.267 55.9879 142.19 56.4055 142.218 56.8227C142.246 57.2399 142.379 57.6432 142.604 57.9956C142.829 58.3481 143.139 58.6382 143.506 58.8393C143.235 58.4969 143.067 58.0843 143.023 57.6501C142.978 57.2158 143.059 56.7779 143.255 56.3878C143.451 55.9976 143.754 55.6715 144.129 55.4478C144.503 55.224 144.934 55.1119 145.371 55.1245Z" fill="#C7C7C7"/>
<path d="M148.076 55.7742C148.314 56.3934 148.361 57.0691 148.214 57.7156C148.064 58.3737 147.742 58.9802 147.282 59.4736C146.814 59.9873 146.17 60.3042 145.478 60.3602C144.812 60.4078 144.15 60.2302 143.597 59.8558C144.189 60.047 144.817 60.0968 145.432 60.001C146.022 59.8963 146.56 59.5977 146.96 59.1526C147.378 58.718 147.694 58.1958 147.885 57.6239C148.078 57.0275 148.143 56.3973 148.076 55.7742Z" fill="#C7C7C7"/>
<path d="M133.416 34.9764C132.293 36.7039 129.801 37.0708 127.852 35.7943C125.903 34.5178 125.238 32.0949 126.361 30.3675C127.485 28.64 129.984 28.2808 131.933 29.5572C133.883 30.8337 134.517 33.2567 133.416 34.9764Z" fill="#DBDBDB"/>
<path d="M127.225 31.9878C126.93 32.4524 126.758 32.9849 126.725 33.5347C126.693 34.0844 126.802 34.6333 127.042 35.1292C126.4 34.5335 125.982 33.7355 125.858 32.8687C125.735 32.0019 125.912 31.1189 126.361 30.3673C127.493 28.6476 129.984 28.2807 131.933 29.5495C132.578 29.9508 133.105 30.5161 133.459 31.1876C133.814 31.859 133.983 32.6126 133.951 33.3712C133.657 32.4758 133.063 31.7091 132.27 31.2005C131.496 30.6372 130.53 30.4038 129.585 30.5514C128.639 30.699 127.791 31.2155 127.225 31.9878Z" fill="#C7C7C7"/>
<path d="M134.792 32.1331C135.082 32.5807 135.28 33.0815 135.375 33.6064C135.469 34.1313 135.458 34.6698 135.343 35.1904C135.22 35.7314 134.983 36.2397 134.647 36.6809C134.31 37.1257 133.896 37.5063 133.424 37.8045C132.951 38.0717 132.433 38.2505 131.895 38.3319C131.359 38.405 130.814 38.3895 130.283 38.286C129.259 38.1079 128.292 37.6887 127.462 37.0631C128.408 37.3401 129.383 37.5093 130.367 37.5675C131.277 37.6328 132.186 37.4366 132.988 37.0019C133.369 36.7673 133.71 36.4731 133.997 36.1306C134.297 35.7954 134.531 35.4063 134.685 34.9841C134.982 34.0616 135.019 33.0752 134.792 32.1331Z" fill="#C7C7C7"/>
<path d="M424.494 273.651L428.866 274.461L429.845 279.07L430.815 274.461L435.187 273.651L430.838 272.588L429.845 268.231L428.843 272.588L424.494 273.651Z" fill="#C7C7C7"/>
<path d="M210.531 268.239L214.903 269.042L215.882 273.651L216.86 269.042L221.232 268.232L216.875 267.169L215.882 262.82L214.888 267.169L210.531 268.239Z" fill="#C7C7C7"/>
<path d="M361.803 45.6848L366.175 46.495L367.153 51.104L368.131 46.495L372.503 45.6848L368.147 44.6224L367.153 40.2656L366.159 44.6224L361.803 45.6848Z" fill="#C7C7C7"/>
<path d="M33.8834 206.312L36.3293 206.763L36.872 209.339L37.4223 206.763L39.8682 206.312L37.4299 205.716L36.872 203.285L36.3216 205.716L33.8834 206.312Z" fill="#C7C7C7"/>
<path d="M108.629 280.239L111.075 280.69L111.617 283.266L112.16 280.69L114.606 280.239L112.175 279.643L111.617 277.213L111.059 279.643L108.629 280.239Z" fill="#C7C7C7"/>
<path d="M399.829 149.766L402.267 150.217L402.817 152.793L403.36 150.217L405.806 149.766L403.375 149.17L402.817 146.739L402.259 149.17L399.829 149.766Z" fill="#C7C7C7"/>
<path d="M358.623 97.4846L361.061 97.9356L361.612 100.511L362.154 97.9356L364.6 97.477L362.17 96.8885L361.612 94.4502L361.054 96.8885L358.623 97.4846Z" fill="#C7C7C7"/>
<path d="M300.762 38.76L303.2 39.2109L303.751 41.7868L304.293 39.2109L306.739 38.76L304.309 38.1638L303.751 35.7332L303.193 38.1638L300.762 38.76Z" fill="#C7C7C7"/>
<path d="M452.316 146.739L454.762 147.19L455.305 149.766L455.855 147.19L458.294 146.739L455.863 146.143L455.305 143.712L454.747 146.143L452.316 146.739Z" fill="#C7C7C7"/>
<path d="M176.724 15.539L179.163 15.99L179.713 18.5658L180.256 15.99L182.701 15.539L180.271 14.9428L179.713 12.5122L179.155 14.9428L176.724 15.539Z" fill="#C7C7C7"/>
<path d="M326.498 264.838L328.936 265.289L329.486 267.865L330.029 265.289L332.475 264.838L330.044 264.242L329.486 261.811L328.928 264.242L326.498 264.838Z" fill="#C7C7C7"/>
<path d="M391.337 120.659C391.512 120.678 391.674 120.76 391.791 120.891C391.909 121.021 391.974 121.191 391.974 121.366C391.974 121.542 391.909 121.712 391.791 121.842C391.674 121.973 391.512 122.055 391.337 122.073C391.162 122.055 391 121.973 390.883 121.842C390.765 121.712 390.7 121.542 390.7 121.366C390.7 121.191 390.765 121.021 390.883 120.891C391 120.76 391.162 120.678 391.337 120.659Z" fill="#C7C7C7"/>
<path d="M482.363 167.353C482.538 167.371 482.699 167.454 482.817 167.584C482.935 167.715 483 167.885 483 168.06C483 168.236 482.935 168.406 482.817 168.536C482.699 168.667 482.538 168.749 482.363 168.767C482.188 168.749 482.026 168.667 481.908 168.536C481.791 168.406 481.726 168.236 481.726 168.06C481.726 167.885 481.791 167.715 481.908 167.584C482.026 167.454 482.188 167.371 482.363 167.353Z" fill="#C7C7C7"/>
<path d="M69.9834 100.221C70.1719 100.221 70.3527 100.296 70.486 100.429C70.6193 100.562 70.6942 100.743 70.6942 100.932C70.6942 101.12 70.6193 101.301 70.486 101.434C70.3527 101.568 70.1719 101.643 69.9834 101.643C69.7949 101.643 69.6141 101.568 69.4807 101.434C69.3474 101.301 69.2726 101.12 69.2726 100.932C69.2726 100.743 69.3474 100.562 69.4807 100.429C69.6141 100.296 69.7949 100.221 69.9834 100.221Z" fill="#C7C7C7"/>
<path d="M147.22 242.236C147.395 242.254 147.557 242.337 147.675 242.467C147.793 242.598 147.858 242.767 147.858 242.943C147.858 243.119 147.793 243.288 147.675 243.419C147.557 243.55 147.395 243.632 147.22 243.65C147.046 243.632 146.884 243.55 146.766 243.419C146.648 243.288 146.583 243.119 146.583 242.943C146.583 242.767 146.648 242.598 146.766 242.467C146.884 242.337 147.046 242.254 147.22 242.236Z" fill="#C7C7C7"/>
<path d="M83.1301 267.368C83.2523 267.383 83.3647 267.442 83.4462 267.534C83.5277 267.626 83.5726 267.745 83.5726 267.868C83.5726 267.991 83.5277 268.11 83.4462 268.202C83.3647 268.295 83.2523 268.354 83.1301 268.369C83.008 268.354 82.8956 268.295 82.8141 268.202C82.7326 268.11 82.6877 267.991 82.6877 267.868C82.6877 267.745 82.7326 267.626 82.8141 267.534C82.8956 267.442 83.008 267.383 83.1301 267.368Z" fill="#C7C7C7"/>
<path d="M110.593 28.1279C110.715 28.143 110.828 28.2023 110.909 28.2945C110.991 28.3867 111.036 28.5055 111.036 28.6286C111.036 28.7516 110.991 28.8704 110.909 28.9627C110.828 29.0549 110.715 29.1141 110.593 29.1292C110.471 29.1141 110.359 29.0549 110.277 28.9627C110.196 28.8704 110.151 28.7516 110.151 28.6286C110.151 28.5055 110.196 28.3867 110.277 28.2945C110.359 28.2023 110.471 28.143 110.593 28.1279Z" fill="#C7C7C7"/>
<path d="M427.605 117.801C427.727 117.816 427.84 117.875 427.921 117.967C428.003 118.06 428.048 118.178 428.048 118.301C428.048 118.424 428.003 118.543 427.921 118.636C427.84 118.728 427.727 118.787 427.605 118.802C427.483 118.787 427.371 118.728 427.289 118.636C427.208 118.543 427.163 118.424 427.163 118.301C427.163 118.178 427.208 118.06 427.289 117.967C427.371 117.875 427.483 117.816 427.605 117.801Z" fill="#C7C7C7"/>
<path d="M21.8068 91.2781C22.149 91.3038 22.4689 91.4579 22.7023 91.7095C22.9357 91.9611 23.0654 92.2916 23.0654 92.6348C23.0654 92.978 22.9357 93.3085 22.7023 93.5601C22.4689 93.8117 22.149 93.9658 21.8068 93.9915C21.4646 93.9658 21.1447 93.8117 20.9113 93.5601C20.6779 93.3085 20.5482 92.978 20.5482 92.6348C20.5482 92.2916 20.6779 91.9611 20.9113 91.7095C21.1447 91.4579 21.4646 91.3038 21.8068 91.2781Z" fill="#C7C7C7"/>
<path d="M134.93 93.999L139.302 94.8016L140.28 99.4106L141.251 94.8016L145.623 93.9914L141.274 92.929L140.28 88.5798L139.279 92.929L134.93 93.999Z" fill="#C7C7C7"/>
<path d="M234.004 3.0268L236.45 3.47777L236.993 6.05361L237.543 3.47777L239.981 3.0268L237.551 2.43062L236.993 0L236.442 2.43062L234.004 3.0268Z" fill="#C7C7C7"/>
<path d="M85.8971 69.135C86.072 69.1532 86.2338 69.2355 86.3515 69.3661C86.4692 69.4967 86.5343 69.6662 86.5343 69.842C86.5343 70.0178 86.4692 70.1874 86.3515 70.3179C86.2338 70.4485 86.072 70.5308 85.8971 70.549C85.7223 70.5308 85.5604 70.4485 85.4427 70.3179C85.325 70.1874 85.2599 70.0178 85.2599 69.842C85.2599 69.6662 85.325 69.4967 85.4427 69.3661C85.5604 69.2355 85.7223 69.1532 85.8971 69.135Z" fill="#C7C7C7"/>
<path d="M20.4768 271.105C20.6517 271.124 20.8135 271.206 20.9312 271.337C21.0489 271.467 21.114 271.637 21.114 271.812C21.114 271.988 21.0489 272.158 20.9312 272.288C20.8135 272.419 20.6517 272.501 20.4768 272.52C20.302 272.501 20.1401 272.419 20.0224 272.288C19.9047 272.158 19.8396 271.988 19.8396 271.812C19.8396 271.637 19.9047 271.467 20.0224 271.337C20.1401 271.206 20.302 271.124 20.4768 271.105Z" fill="#C7C7C7"/>
<path d="M243.513 284.375C243.701 284.375 243.882 284.449 244.015 284.583C244.149 284.716 244.223 284.897 244.223 285.085C244.223 285.274 244.149 285.455 244.015 285.588C243.882 285.721 243.701 285.796 243.513 285.796C243.324 285.796 243.143 285.721 243.01 285.588C242.877 285.455 242.802 285.274 242.802 285.085C242.802 284.897 242.877 284.716 243.01 284.583C243.143 284.449 243.324 284.375 243.513 284.375Z" fill="#C7C7C7"/>
<path d="M117.938 108.43C118.061 108.445 118.173 108.504 118.254 108.596C118.336 108.689 118.381 108.808 118.381 108.931C118.381 109.054 118.336 109.172 118.254 109.265C118.173 109.357 118.061 109.416 117.938 109.431C117.816 109.416 117.704 109.357 117.622 109.265C117.541 109.172 117.496 109.054 117.496 108.931C117.496 108.808 117.541 108.689 117.622 108.596C117.704 108.504 117.816 108.445 117.938 108.43Z" fill="#C7C7C7"/>
<path d="M171.267 301.565C171.389 301.58 171.501 301.639 171.583 301.731C171.664 301.823 171.709 301.942 171.709 302.065C171.709 302.188 171.664 302.307 171.583 302.399C171.501 302.492 171.389 302.551 171.267 302.566C171.145 302.551 171.032 302.492 170.951 302.399C170.869 302.307 170.824 302.188 170.824 302.065C170.824 301.942 170.869 301.823 170.951 301.731C171.032 301.639 171.145 301.58 171.267 301.565Z" fill="#C7C7C7"/>
<path d="M405.859 58.1819C405.982 58.197 406.094 58.2562 406.176 58.3484C406.257 58.4407 406.302 58.5595 406.302 58.6825C406.302 58.8056 406.257 58.9244 406.176 59.0166C406.094 59.1088 405.982 59.1681 405.859 59.1832C405.737 59.1681 405.625 59.1088 405.543 59.0166C405.462 58.9244 405.417 58.8056 405.417 58.6825C405.417 58.5595 405.462 58.4407 405.543 58.3484C405.625 58.2562 405.737 58.197 405.859 58.1819Z" fill="#C7C7C7"/>
<path d="M231.719 27.5317C231.841 27.5469 231.953 27.6061 232.035 27.6983C232.116 27.7905 232.161 27.9093 232.161 28.0324C232.161 28.1554 232.116 28.2743 232.035 28.3665C231.953 28.4587 231.841 28.5179 231.719 28.533C231.597 28.5179 231.484 28.4587 231.403 28.3665C231.321 28.2743 231.276 28.1554 231.276 28.0324C231.276 27.9093 231.321 27.7905 231.403 27.6983C231.484 27.6061 231.597 27.5469 231.719 27.5317Z" fill="#C7C7C7"/>
<path d="M162.24 74.1567C162.582 74.1824 162.902 74.3365 163.135 74.5881C163.369 74.8397 163.498 75.1703 163.498 75.5135C163.498 75.8567 163.369 76.1872 163.135 76.4388C162.902 76.6904 162.582 76.8445 162.24 76.8702C161.898 76.8445 161.578 76.6904 161.344 76.4388C161.111 76.1872 160.981 75.8567 160.981 75.5135C160.981 75.1703 161.111 74.8397 161.344 74.5881C161.578 74.3365 161.898 74.1824 162.24 74.1567Z" fill="#C7C7C7"/>
<path d="M464.133 102.82C464.475 102.845 464.795 102.999 465.029 103.251C465.262 103.503 465.392 103.833 465.392 104.176C465.392 104.519 465.262 104.85 465.029 105.102C464.795 105.353 464.475 105.507 464.133 105.533C463.791 105.507 463.471 105.353 463.238 105.102C463.004 104.85 462.875 104.519 462.875 104.176C462.875 103.833 463.004 103.503 463.238 103.251C463.471 102.999 463.791 102.845 464.133 102.82Z" fill="#C7C7C7"/>
<path d="M26.1176 235.984C26.4785 235.984 26.8245 236.127 27.0797 236.382C27.3348 236.638 27.4782 236.984 27.4782 237.344C27.4782 237.705 27.3348 238.051 27.0797 238.306C26.8245 238.562 26.4785 238.705 26.1176 238.705C25.7568 238.705 25.4107 238.562 25.1556 238.306C24.9004 238.051 24.7571 237.705 24.7571 237.344C24.7571 236.984 24.9004 236.638 25.1556 236.382C25.4107 236.127 25.7568 235.984 26.1176 235.984Z" fill="#C7C7C7"/>
<path d="M435.378 91.278L437.817 91.729L438.367 94.3048L438.91 91.729L441.356 91.278L438.925 90.6818L438.367 88.2512L437.809 90.6818L435.378 91.278Z" fill="#C7C7C7"/>
<path d="M352.256 292.798L354.694 293.256L355.245 295.832L355.787 293.256L358.233 292.798L355.795 292.209L355.245 289.771L354.687 292.209L352.256 292.798Z" fill="#C7C7C7"/>
<path d="M306.739 284.527C306.914 284.546 307.076 284.628 307.194 284.758C307.311 284.889 307.376 285.059 307.376 285.234C307.376 285.41 307.311 285.58 307.194 285.71C307.076 285.841 306.914 285.923 306.739 285.941C306.564 285.923 306.403 285.841 306.285 285.71C306.167 285.58 306.102 285.41 306.102 285.234C306.102 285.059 306.167 284.889 306.285 284.758C306.403 284.628 306.564 284.546 306.739 284.527Z" fill="#C7C7C7"/>
<path d="M438.367 264.471C438.556 264.471 438.736 264.546 438.87 264.679C439.003 264.812 439.078 264.993 439.078 265.182C439.078 265.37 439.003 265.551 438.87 265.684C438.736 265.818 438.556 265.893 438.367 265.893C438.179 265.893 437.998 265.818 437.864 265.684C437.731 265.551 437.656 265.37 437.656 265.182C437.656 264.993 437.731 264.812 437.864 264.679C437.998 264.546 438.179 264.471 438.367 264.471Z" fill="#C7C7C7"/>
<path d="M0 140.609L2.4459 141.06L2.98859 143.636L3.53892 141.06L5.97718 140.601L3.54656 140.013L2.98859 137.574L2.43062 140.013L0 140.609Z" fill="#C7C7C7"/>
<path d="M320.253 46.6633C320.428 46.6815 320.59 46.7639 320.707 46.8944C320.825 47.025 320.89 47.1946 320.89 47.3704C320.89 47.5461 320.825 47.7157 320.707 47.8463C320.59 47.9768 320.428 48.0592 320.253 48.0774C320.078 48.0592 319.916 47.9768 319.798 47.8463C319.681 47.7157 319.616 47.5461 319.616 47.3704C319.616 47.1946 319.681 47.025 319.798 46.8944C319.916 46.7639 320.078 46.6815 320.253 46.6633Z" fill="#C7C7C7"/>
<path d="M358.233 46.22C358.355 46.2351 358.468 46.2943 358.549 46.3865C358.631 46.4787 358.676 46.5976 358.676 46.7206C358.676 46.8437 358.631 46.9625 358.549 47.0547C358.468 47.1469 358.355 47.2061 358.233 47.2213C358.111 47.2061 357.999 47.1469 357.917 47.0547C357.836 46.9625 357.791 46.8437 357.791 46.7206C357.791 46.5976 357.836 46.4787 357.917 46.3865C357.999 46.2943 358.111 46.2351 358.233 46.22Z" fill="#C7C7C7"/>
<path d="M62.1183 49.3767L64.5566 49.8276L65.1069 52.4035L65.6496 49.8276L68.0955 49.3767L65.6573 48.7805L65.1069 46.3499L64.549 48.7805L62.1183 49.3767Z" fill="#C7C7C7"/>
<path d="M20.4768 189.313C20.6654 189.313 20.8462 189.388 20.9795 189.521C21.1128 189.655 21.1877 189.835 21.1877 190.024C21.1877 190.212 21.1128 190.393 20.9795 190.526C20.8462 190.66 20.6654 190.735 20.4768 190.735C20.2883 190.735 20.1075 190.66 19.9742 190.526C19.8409 190.393 19.766 190.212 19.766 190.024C19.766 189.835 19.8409 189.655 19.9742 189.521C20.1075 189.388 20.2883 189.313 20.4768 189.313Z" fill="#C7C7C7"/>
<path d="M193.586 146.082C193.76 146.1 193.922 146.182 194.04 146.313C194.158 146.443 194.223 146.613 194.223 146.789C194.223 146.964 194.158 147.134 194.04 147.264C193.922 147.395 193.76 147.477 193.586 147.496C193.411 147.477 193.249 147.395 193.131 147.264C193.014 147.134 192.948 146.964 192.948 146.789C192.948 146.613 193.014 146.443 193.131 146.313C193.249 146.182 193.411 146.1 193.586 146.082Z" fill="#C7C7C7"/>
<path d="M110.593 74.5542C110.715 74.5693 110.828 74.6286 110.909 74.7208C110.991 74.813 111.036 74.9318 111.036 75.0548C111.036 75.1779 110.991 75.2967 110.909 75.3889C110.828 75.4811 110.715 75.5404 110.593 75.5555C110.471 75.5404 110.359 75.4811 110.277 75.3889C110.196 75.2967 110.151 75.1779 110.151 75.0548C110.151 74.9318 110.196 74.813 110.277 74.7208C110.359 74.6286 110.471 74.5693 110.593 74.5542Z" fill="#C7C7C7"/>
<path d="M104.18 69.9453C104.541 69.9453 104.887 70.0887 105.142 70.3438C105.397 70.599 105.541 70.945 105.541 71.3058C105.541 71.6667 105.397 72.0127 105.142 72.2679C104.887 72.523 104.541 72.6664 104.18 72.6664C103.819 72.6664 103.473 72.523 103.218 72.2679C102.963 72.0127 102.82 71.6667 102.82 71.3058C102.82 70.945 102.963 70.599 103.218 70.3438C103.473 70.0887 103.819 69.9453 104.18 69.9453Z" fill="#C7C7C7"/>
<path d="M284.283 283.167C284.644 283.167 284.99 283.31 285.245 283.565C285.5 283.82 285.643 284.166 285.643 284.527C285.643 284.888 285.5 285.234 285.245 285.489C284.99 285.744 284.644 285.888 284.283 285.888C283.922 285.888 283.576 285.744 283.321 285.489C283.066 285.234 282.922 284.888 282.922 284.527C282.922 284.166 283.066 283.82 283.321 283.565C283.576 283.31 283.922 283.167 284.283 283.167Z" fill="#C7C7C7"/>
</svg>
