<svg width="235" height="105" viewBox="0 0 235 105" fill="none" xmlns="http://www.w3.org/2000/svg">
<path d="M5.91043 90.1084C5.50858 88.5011 3.87978 87.5238 2.27239 87.9256C0.665008 88.3275 -0.312274 89.9563 0.0895724 91.5637L5.91043 90.1084ZM21.2992 99.4866L20.7986 102.445L21.2992 99.4866ZM136.639 56.8994L134.508 54.7881L136.639 56.8994ZM153.83 31.8351L156.813 32.1491L153.83 31.8351ZM124.995 22.0755L125.442 25.0419L124.995 22.0755ZM119.449 80.6329L120.398 77.7868L119.449 80.6329ZM169.8 70.6515L171.766 72.9172L169.8 70.6515ZM227.497 2.27239C227.095 0.665008 225.466 -0.312274 223.859 0.0895724L197.665 6.63803C196.058 7.03988 195.08 8.66868 195.482 10.2761C195.884 11.8835 197.513 12.8607 199.12 12.4589L222.404 6.63803L228.224 29.9215C228.626 31.5288 230.255 32.5061 231.862 32.1043C233.47 31.7024 234.447 30.0736 234.045 28.4662L227.497 2.27239ZM0.0895724 91.5637C0.391984 92.7733 1.08351 93.7422 1.77831 94.474C2.48519 95.2185 3.33751 95.8668 4.21111 96.4289C5.95561 97.5512 8.10389 98.5307 10.1992 99.343C14.3844 100.965 18.8884 102.121 20.7986 102.445L21.7997 96.5286C20.3349 96.2807 16.2222 95.2428 12.368 93.7486C10.4436 93.0026 8.71656 92.193 7.45741 91.3829C6.82917 90.9787 6.3976 90.6251 6.12941 90.3426C5.84915 90.0475 5.87446 89.9646 5.91043 90.1084L0.0895724 91.5637ZM20.7986 102.445C67.1238 110.284 106.909 91.1728 138.771 59.0107L134.508 54.7881C103.575 86.0127 65.6497 103.949 21.7997 96.5286L20.7986 102.445ZM138.771 59.0107C141.467 56.289 145.661 52.1228 149.288 47.4949C152.835 42.9681 156.25 37.5029 156.813 32.1491L150.846 31.521C150.472 35.0739 148.016 39.3904 144.565 43.7939C141.194 48.0963 137.261 52.0089 134.508 54.7881L138.771 59.0107ZM156.813 32.1491C157.252 27.9768 155.264 24.8964 152.376 22.8861C149.652 20.99 146.048 19.9508 142.574 19.3645C135.577 18.1834 127.74 18.6274 124.547 19.1091L125.442 25.0419C128.142 24.6347 135.326 24.226 141.575 25.2808C144.724 25.8123 147.299 26.6631 148.948 27.8106C150.433 28.844 151.01 29.9609 150.846 31.521L156.813 32.1491ZM124.547 19.1091C114.678 20.5977 108.389 27.4291 104.691 35.4056C101.011 43.3428 99.6933 52.7686 99.8141 60.4952L105.813 60.4015C105.702 53.3001 106.936 44.8276 110.134 37.9294C113.314 31.0706 118.232 26.1295 125.442 25.0419L124.547 19.1091ZM99.8141 60.4952C99.9992 72.3412 108.388 80.108 118.501 83.4789L120.398 77.7868C111.834 74.9323 105.946 68.8914 105.813 60.4015L99.8141 60.4952ZM118.501 83.4789C128.701 86.879 138.025 87.7807 146.88 85.9913C155.733 84.2021 163.866 79.7736 171.766 72.9172L167.833 68.3858C160.516 74.7365 153.297 78.5731 145.692 80.1102C138.087 81.6469 129.845 80.9357 120.398 77.7868L118.501 83.4789ZM171.766 72.9172C193.826 53.7711 212.305 29.2997 227.159 4.54349L222.014 1.45651C207.368 25.8667 189.269 49.7817 167.833 68.3858L171.766 72.9172Z" fill="#6B6E77"/>
</svg>
