<svg width="219" height="80" viewBox="0 0 219 80" fill="none" xmlns="http://www.w3.org/2000/svg">
<path d="M1.99988 35.9134C11.2618 35.3339 20.516 34.6157 29.7856 34.1748C34.5237 33.9495 55.4696 31.3252 62.3076 36.8255C64.7571 38.7957 65.5729 42.3827 65.9531 45.4899C66.4114 49.2359 63.7811 69.3828 63.5993 72.9655C63.508 74.7652 62.4394 79.1661 64.0586 78.3523C66.6864 77.0315 67.0829 73.3137 68.2494 70.6283C71.1172 64.0269 73.579 57.2582 76.1431 50.5347C80.0547 40.2778 86.7075 22.6478 90.0647 11.345C90.9124 8.49108 92.5959 -0.112322 91.1268 2.48105C87.7275 8.48154 88.6404 18.713 88.6295 25.1968C88.6253 27.6491 88.7376 30.1009 88.8591 32.5502C88.9505 34.3914 88.02 37.164 89.6628 38.0225C90.6598 38.5435 93.7251 23.1232 96.8389 31.2392C98.0237 34.3272 98.173 42.2828 103.269 41.6137C106.981 41.1264 110.687 35.8096 110.416 32.1797C110.386 31.7766 109.886 30.7275 109.813 31.1251C109.43 33.2156 111.138 36.9035 111.593 38.9346C111.648 39.1785 111.859 42.6693 113.086 41.4142C115.098 39.3559 115.993 33.7896 118.683 32.7212C120.761 31.8959 122.758 40.1727 122.874 41.6137C122.955 42.6229 123.292 41.7358 123.821 41.1577C125.662 39.1466 127.483 37.1599 130.251 38.8206C133.462 40.7475 136.078 42.8928 140.211 41.9557C141.522 41.6585 146.89 37.2559 142.594 36.3124C140.41 35.833 139.499 39.7171 140.785 40.9012C143.056 42.9909 147.79 38.9213 149.109 37.367C149.433 36.9856 150.306 34.7512 150.057 36.3694C149.405 40.5953 148.791 44.8277 148.134 49.0526C147.203 55.0308 146.406 61.2746 144.258 66.9801C143.775 68.2645 138.945 78.1463 136.623 72.5095C134.66 67.7459 136.768 61.7301 139.35 57.7171C144.16 50.2423 152.933 43.5148 160.161 38.5071C177.523 26.4778 198.395 31.8951 217.454 36.4264" stroke="#F1F1F9" stroke-width="2.5" stroke-linecap="round"/>
<circle cx="182.124" cy="61.6554" r="2.89589" fill="#F1F1F9"/>
</svg>
