<svg width="180" height="66" viewBox="0 0 180 66" fill="none" xmlns="http://www.w3.org/2000/svg">
<path d="M2 29.7031C9.56586 29.2297 17.1254 28.643 24.6976 28.2829C28.568 28.0988 45.6782 25.9551 51.2641 30.4481C53.265 32.0576 53.9314 34.9877 54.2419 37.526C54.6163 40.586 52.4677 57.0435 52.3192 59.9701C52.2446 61.4403 51.3717 65.0353 52.6944 64.3705C54.841 63.2916 55.1648 60.2546 56.1178 58.061C58.4604 52.6684 60.4714 47.1392 62.5659 41.6469C65.7612 33.2683 71.1957 18.8667 73.9382 9.63376C74.6307 7.30242 76.0059 0.274491 74.8058 2.39296C72.029 7.29463 72.7747 15.6525 72.7658 20.949C72.7624 22.9522 72.8541 24.955 72.9534 26.9558C73.028 28.4598 72.2679 30.7247 73.6099 31.426C74.4243 31.8516 76.9283 19.2551 79.4719 25.8848C80.4397 28.4074 80.5617 34.9061 84.7242 34.3596C87.7565 33.9614 90.784 29.6183 90.5628 26.6531C90.5382 26.3239 90.1298 25.4668 90.0703 25.7917C89.7576 27.4994 91.1528 30.5119 91.5241 32.171C91.5687 32.3703 91.7413 35.2218 92.7434 34.1966C94.387 32.5152 95.1184 27.9682 97.3157 27.0955C99.0133 26.4213 100.644 33.1824 100.739 34.3596C100.806 35.1839 101.081 34.4592 101.513 33.9871C103.017 32.3443 104.504 30.7213 106.765 32.0779C109.388 33.6519 111.526 35.4044 114.902 34.639C115.972 34.3962 120.357 30.7997 116.848 30.0291C115.064 29.6374 114.32 32.8103 115.371 33.7775C117.226 35.4845 121.092 32.1602 122.171 30.8905C122.435 30.5789 123.148 28.7537 122.944 30.0756C122.412 33.5276 121.91 36.985 121.373 40.4363C120.613 45.3197 119.962 50.4201 118.208 55.0808C117.813 56.13 113.868 64.2022 111.971 59.5976C110.367 55.7063 112.089 50.7922 114.198 47.5141C118.127 41.4081 125.294 35.9125 131.198 31.8218C145.381 21.9954 162.43 26.4206 178 30.1222" stroke="#F1F1F9" stroke-width="2.5" stroke-linecap="round"/>
<circle cx="149.14" cy="50.7312" r="2.36559" fill="#F1F1F9"/>
</svg>
